<?xml version="1.0" encoding="UTF-8" standalone="no"?> <svg xmlns="http://www.w3.org/2000/svg" xmlns:xlink="http://www.w3.org/1999/xlink" xmlns:serif="http://www.serif.com/" width="100%" height="100%" viewBox="0 0 540 615" version="1.1" xml:space="preserve" style="fill-rule:evenodd;clip-rule:evenodd;stroke-linejoin:round;stroke-miterlimit:2;"> <g transform="matrix(0.470852,0,0,0.456856,-58.8815,-78.9701)"> <path d="M607.2,1075.1C624,1056.9 663.2,1019.5 723.8,1003C766.054,991.435 810.769,992.373 852.5,1005.7C843.1,912.7 845.3,895.1 845.3,895.1C851.6,846.3 878.8,839.2 895.1,791.8C951.5,627.2 882.6,483.9 726.6,464.9C588.8,448.1 512.2,539.4 501.5,633.7C500.276,644.073 501.651,654.59 505.5,664.3C486.6,698.8 443,749.7 439.3,774.1C437,788.8 451.9,793.9 459,799C465.9,801.7 473.4,799.8 478,806.3C481.2,811.1 476.8,819.1 475.8,825C475.7,834.7 465.9,839.4 466.9,848.4C467.9,857.4 473.4,859.1 478.5,863.8C483.6,868.5 464.7,878.3 470.9,887.1C477.1,895.9 486.6,905.5 483.3,917.7C478.6,936.6 469.5,956.2 477,970.9C484.5,985.6 494.9,994 511.1,997.8C536.4,997.8 561.8,998.3 587.3,998.3C591.856,1007.03 595.669,1016.13 598.7,1025.5C603.816,1041.56 606.677,1058.25 607.2,1075.1Z" style="fill:none;fill-rule:nonzero;stroke:rgb(0,133,255);stroke-width:4.31px;"></path> </g> <g transform="matrix(0.470852,0,0,0.456856,-58.8815,-78.9701)"> <path d="M414,669C412.918,668.671 411.948,668.048 411.2,667.2C409.978,665.908 409.329,664.176 409.4,662.4C409.336,660.003 410.509,657.735 412.5,656.4C413.878,655.718 415.052,654.683 415.9,653.4C416,653.2 417.2,649.5 418.5,645.3C420.8,638.1 421,637.6 421,636.9C421.009,636.064 420.726,635.25 420.2,634.6C419.765,634.097 419.26,633.659 418.7,633.3L416.7,631.7L415.8,630.9C415.7,630.8 409.2,637 408.9,637.4C408.798,637.688 408.764,637.996 408.8,638.3C408.972,639.363 408.938,640.45 408.7,641.5C408.136,643.413 406.683,644.941 404.8,645.6C403.684,645.92 402.495,645.885 401.4,645.5C399.618,644.838 398.271,643.341 397.8,641.5C397.399,640.197 397.399,638.803 397.8,637.5C398.239,636.124 399.117,634.929 400.3,634.1C401.3,633.4 401.7,633.4 403.4,633.4C405.1,633.4 404.9,633.4 405.2,633.2C405.5,633 406.7,631.4 408.2,629.4C409.7,627.4 411,625.7 410.9,625.5C410.8,625.3 410.5,624.8 410.1,624.3C409.651,623.699 409.25,623.063 408.9,622.4C408.379,621.387 407.534,620.577 406.5,620.1C405.5,619.8 405.4,619.8 398,622.7L390.8,625.5C389.528,626.502 388.531,627.809 387.9,629.3C387.338,630.392 386.469,631.296 385.4,631.9C384.523,632.506 383.462,632.789 382.4,632.7C381.826,632.767 381.243,632.699 380.7,632.5C379.883,632.227 379.133,631.784 378.5,631.2C377.294,630.146 376.511,628.688 376.3,627.1C375.788,624.277 377.061,621.412 379.5,619.9C380.361,619.26 381.435,618.974 382.5,619.1C383.181,619.05 383.864,619.153 384.5,619.4C385.713,619.85 387.02,619.988 388.3,619.8C389,619.6 401.8,612.8 402.4,612.2C403,611.6 403.8,610.1 403.3,607.7C403.2,606.9 403,605.8 403,605.2L402.8,604.1C401.347,603.832 399.876,603.665 398.4,603.6C393.4,603.2 393.8,603.2 393.1,604.2C392.143,605.794 390.415,606.773 388.556,606.773C387.584,606.773 386.63,606.505 385.8,606C384.838,605.538 384.062,604.762 383.6,603.8C382.565,602.111 382.416,600.019 383.2,598.2C383.624,596.814 384.552,595.636 385.8,594.9C386.623,594.434 387.554,594.193 388.5,594.2C389.344,594.134 390.186,594.345 390.9,594.8C391.716,595.21 392.407,595.832 392.9,596.6C393.7,597.7 393.3,597.6 398.4,597.2L402.8,596.8C402.804,596.53 402.838,596.262 402.9,596C403.017,594.523 403.217,593.054 403.5,591.6C403.896,589.751 402.931,587.862 401.2,587.1L394.7,583.7L388.6,580.5C387.477,580.236 386.305,580.27 385.2,580.6C384.223,581.024 383.165,581.229 382.1,581.2C381.17,581.13 380.274,580.819 379.5,580.3C377.273,578.924 375.996,576.41 376.2,573.8C376.304,572.675 376.644,571.584 377.2,570.6C377.729,569.752 378.406,569.007 379.2,568.4L380.3,567.9C380.843,567.581 381.473,567.441 382.1,567.5C383.26,567.356 384.434,567.64 385.4,568.3C386.591,568.993 387.535,570.043 388.1,571.3C388.645,572.675 389.585,573.858 390.8,574.7L398,577.5C404.4,580 405,580.2 405.6,580.2C406.2,580.2 407.7,579.7 408.9,577.7L410.3,575.6L410.8,574.8C410.8,574.7 409.6,573.1 408.1,571.2C405,567.3 405.1,567.4 404.1,567.6C402.337,567.878 400.544,567.28 399.3,566C398.56,565.239 398.012,564.314 397.7,563.3C397.287,561.634 397.427,559.879 398.1,558.3C398.42,557.684 398.862,557.139 399.4,556.7C400.049,556.137 400.794,555.697 401.6,555.4C402.671,555.069 403.811,555.034 404.9,555.3C406.719,556.024 408.116,557.532 408.7,559.4C408.911,560.08 408.945,560.803 408.8,561.5L408.8,563.2C408.9,563.5 409.5,564.1 412.1,566.6L415.4,569.7L415.7,569.4L418.7,566.9C419.567,566.423 420.266,565.689 420.7,564.8C420.903,564.328 420.972,563.809 420.9,563.3L420.9,562.4L418.6,554.9C417.3,550.8 416.1,547.3 416,547C415.263,545.794 414.231,544.795 413,544.1L411.2,542.7C408.876,540.141 408.707,536.251 410.8,533.5C411.286,532.787 411.938,532.204 412.7,531.8C413.59,531.222 414.641,530.942 415.7,531C416.679,530.98 417.646,531.222 418.5,531.7C419.351,532.265 420.096,532.976 420.7,533.8C421.537,535.148 421.955,536.714 421.9,538.3C421.8,538.7 421.7,539.5 421.5,540.1C421.028,541.483 420.924,542.965 421.2,544.4C421.3,544.8 422.8,548.3 424.6,552.2C428,560.2 428,560.1 429.1,560.7C429.949,561.078 430.904,561.149 431.8,560.9L434.1,560.4L435.6,560.2C435.6,560.2 435.7,558.1 435.9,555.7L436.2,551.2L435.9,550.8C435.72,550.519 435.481,550.28 435.2,550.1C434.105,549.137 433.365,547.834 433.1,546.4C432.807,544.821 433.091,543.187 433.9,541.8C434.438,540.927 435.153,540.178 436,539.6L437.2,539.1C437.712,538.917 438.258,538.848 438.8,538.9C440.359,538.985 441.827,539.666 442.9,540.8C443.28,541.248 443.584,541.754 443.8,542.3C444.255,543.199 444.495,544.192 444.5,545.2C444.513,546.134 444.308,547.059 443.9,547.9C443.66,548.427 443.32,548.902 442.9,549.3C442.343,549.813 441.84,550.383 441.4,551C441.4,551.2 441.7,556.4 442,559.6L442,560.2L442.7,560.2C443.946,560.31 445.183,560.511 446.4,560.8C447.261,561.061 448.189,560.989 449,560.6C450.1,560 450.1,560.1 453.6,552C457.1,543.9 457.2,543.9 457,542.2C456.964,541.485 456.829,540.778 456.6,540.1C456.346,539.327 456.244,538.512 456.3,537.7C456.237,536.954 456.34,536.202 456.6,535.5C456.893,534.5 457.405,533.577 458.1,532.8C458.794,532.075 459.651,531.527 460.6,531.2C461.173,530.978 461.786,530.876 462.4,530.9C463.34,530.825 464.281,531.034 465.1,531.5C466.714,532.308 467.914,533.762 468.4,535.5C468.903,536.992 468.903,538.608 468.4,540.1C467.888,541.575 466.904,542.841 465.6,543.7C463.6,545 462.7,545.8 462.3,546.7C461.261,549.352 460.36,552.055 459.6,554.8C457.3,562 457.2,562.5 457.2,563.2C457.154,564.025 457.403,564.84 457.9,565.5L459.2,566.7L461.4,568.4L462.5,569.3L463,568.8C466.8,565.3 468.5,563.6 468.6,563.3C468.7,563 468.7,562.9 468.6,562.4C467.988,559.299 469.8,556.194 472.8,555.2C473.345,555.008 473.926,554.94 474.5,555C475.975,554.984 477.378,555.648 478.3,556.8C480.027,558.781 480.456,561.594 479.4,564C478.788,565.373 477.73,566.5 476.4,567.2C475.69,567.427 474.939,567.495 474.2,567.4C473.56,567.323 472.91,567.392 472.3,567.6C472,567.9 467,574.3 467.1,574.4L467.9,575.5L469.3,577.8C470.4,579.6 471.2,580.1 472.6,580.1C474,580.1 473.8,579.9 480.1,577.4L487.5,574.5L488.2,573.9C488.981,573.076 489.622,572.13 490.1,571.1C490.5,570.223 491.079,569.44 491.8,568.8C492.508,568.216 493.323,567.774 494.2,567.5C495.334,567.312 496.496,567.38 497.6,567.7C498.567,568.04 499.429,568.626 500.1,569.4C500.608,569.882 501.016,570.46 501.3,571.1C501.701,572.084 501.905,573.137 501.9,574.2C501.986,577.134 500.163,579.808 497.4,580.8C496.855,580.992 496.274,581.06 495.7,581C494.987,581.055 494.27,580.952 493.6,580.7C492.322,580.223 490.935,580.119 489.6,580.4C489,580.6 476.2,587.4 475.8,587.8C475.094,588.363 474.657,589.199 474.6,590.1C474.491,590.839 474.56,591.593 474.8,592.3C474.9,593.2 475.1,594.6 475.2,595.4C475.3,596.2 475.4,596.9 475.6,596.9L479.6,597.3C483.4,597.5 483.5,597.5 483.8,597.4L484.4,596.7C485.13,595.509 486.267,594.62 487.6,594.2C488.46,594.051 489.34,594.051 490.2,594.2C492.978,594.988 494.856,597.617 494.7,600.5C494.686,602.743 493.512,604.827 491.6,606C490.776,606.455 489.839,606.663 488.9,606.6C488.025,606.666 487.15,606.456 486.4,606C485.9,605.8 485.6,605.4 484.5,604.1L483.7,603.4C483.5,603.3 482.8,603.3 479.7,603.6L475.6,604L475.3,604L475.3,605.1C475.2,605.6 475,606.8 474.9,607.7C474.66,608.407 474.591,609.161 474.7,609.9C474.9,611.4 475.5,612.1 477.1,613C487.3,618.4 489.6,619.6 490,619.7C491.214,619.885 492.456,619.747 493.6,619.3C495.273,618.666 497.146,618.813 498.7,619.7C499.499,620.135 500.184,620.752 500.7,621.5C502.095,623.481 502.431,626.025 501.6,628.3C500.974,630.211 499.495,631.727 497.6,632.4C497.055,632.592 496.474,632.66 495.9,632.6C494.806,632.696 493.711,632.413 492.8,631.8C491.751,631.17 490.888,630.273 490.3,629.2C489.3,627.2 488.4,625.9 487.5,625.4L480.2,622.6L473.4,619.9L472.7,619.9C471.3,619.9 470.5,620.5 469.6,621.9C468.894,623.16 468.091,624.363 467.2,625.5L466.8,626.1C466.8,626.2 468,627.8 469.5,629.7C472.6,633.6 472.4,633.4 473.7,633.2C474.472,633.117 475.254,633.185 476,633.4C476.895,633.729 477.712,634.24 478.4,634.9C480.162,636.944 480.591,639.832 479.5,642.3C479.222,643.081 478.738,643.772 478.1,644.3C477.022,645.239 475.629,645.739 474.2,645.7C473.617,645.758 473.028,645.654 472.5,645.4C470.799,644.727 469.48,643.335 468.9,641.6C468.693,640.885 468.659,640.131 468.8,639.4C468.851,638.765 468.817,638.126 468.7,637.5C466.594,635.269 464.356,633.165 462,631.2C462,631.3 461.5,631.6 461.1,632L459.4,633.3C458.613,633.801 457.96,634.488 457.5,635.3C457.291,635.979 457.222,636.694 457.3,637.4C457.5,638.4 462.2,653.1 462.5,653.6C463.228,654.612 464.188,655.435 465.3,656C467.299,657.144 468.611,659.204 468.8,661.5C469.241,664.822 467.201,668.009 464,669L462.2,669C461.547,668.985 460.903,668.849 460.3,668.6C459.361,668.12 458.542,667.437 457.9,666.6C457.475,666.129 457.137,665.588 456.9,665C456.285,663.332 456.215,661.511 456.7,659.8C457.151,658.518 457.288,657.146 457.1,655.8C457,655.4 455.5,651.8 453.7,647.8C450.6,640.8 450.5,640.5 450,640C449.33,639.229 448.311,638.852 447.3,639L445.7,639.3L443.4,639.7C442.924,639.665 442.447,639.733 442,639.9C441.553,640.067 441.5,648.2 441.4,649.1C441.3,650 441.6,650 442.4,650.7C444.7,652.5 445.2,656.3 443.7,658.9C442.975,660.102 441.891,661.047 440.6,661.6C439.487,661.902 438.313,661.902 437.2,661.6C436.289,661.2 435.445,660.66 434.7,660C434.32,659.552 434.016,659.046 433.8,658.5C432.917,656.676 432.88,654.553 433.7,652.7C434,652 434.3,651.7 435.4,650.7C436.5,649.7 436.3,650.2 435.9,644.7C435.7,642 435.5,639.8 435.5,639.8L434.6,639.6L432.2,639.2C430.5,638.8 430,638.9 429.1,639.4C428.2,639.9 428,640 424.6,647.9C422.8,651.9 421.4,655.4 421.3,655.8C421.128,656.968 421.197,658.159 421.5,659.3C421.845,660.331 422.014,661.413 422,662.5C421.895,663.688 421.555,664.844 421,665.9C420.187,667.165 418.998,668.145 417.6,668.7C416.461,669.034 415.256,669.068 414.1,668.8L414,669Z" style="fill:none;fill-rule:nonzero;stroke:rgb(0,133,255);stroke-width:4.31px;"></path> </g> <g transform="matrix(0.470852,0,0,0.456856,-58.8815,-78.9701)"> <path d="M415.9,806.7C419.56,803.524 423.963,801.322 428.7,800.3C436.8,798.3 446.3,798.6 444.9,802.4C443.5,806.2 437.8,809.3 433.9,811.1C430,812.9 429.8,812.4 426.4,814.7C423,817 423.2,817.5 420.6,819.2C419.7,819.7 415,822.7 411.5,821.9C411,821.7 406.7,820.7 408.3,816C409.9,811.3 414.2,808.1 415.9,806.7Z" style="fill:none;fill-rule:nonzero;stroke:rgb(0,133,255);stroke-width:4.31px;"></path> </g> <g transform="matrix(0.470852,0,0,0.456856,-58.8815,-78.9701)"> <path d="M432.5,846.6C433.2,844.4 434.9,841.2 440.9,837C446.9,832.8 459.7,826.9 462,829.3C464.3,831.7 460.8,836.1 458.2,839C455.6,841.9 454.7,841.8 453.1,844.6C451.5,847.4 452.3,847.6 451,849.7C449.248,852.609 446.461,854.753 443.2,855.7C442.4,856 436.4,857.7 433.3,854.8C430.2,851.9 432,848.1 432.5,846.6Z" style="fill:none;fill-rule:nonzero;stroke:rgb(0,133,255);stroke-width:4.31px;"></path> </g> <g transform="matrix(0.470852,0,0,0.456856,-58.8815,-78.9701)"> <path d="M404.4,846.3C404.9,844.1 406.1,840.8 410.5,836.7C414.9,832.6 424.3,826.7 426.1,829.3C427.9,831.9 425.4,836.3 423.5,839.1C421.6,841.9 421,841.9 419.8,844.7C418.6,847.5 419.2,847.8 418.3,849.9C417.4,852 416.3,854.5 412.6,855.9C412,856.1 407.6,857.8 405.2,854.8C402.8,851.8 404.1,847.9 404.4,846.3Z" style="fill:none;fill-rule:nonzero;stroke:rgb(0,133,255);stroke-width:4.31px;"></path> </g> </svg> 