<?xml version="1.0" encoding="UTF-8" standalone="no"?> <svg xmlns="http://www.w3.org/2000/svg" xmlns:xlink="http://www.w3.org/1999/xlink" xmlns:serif="http://www.serif.com/" width="100%" height="100%" viewBox="0 0 9367 10667" version="1.1" xml:space="preserve" style="fill-rule:evenodd;clip-rule:evenodd;stroke-linejoin:round;stroke-miterlimit:2;"><path d="M4110.88,10133c277.354,-291.534 924.517,-890.625 1924.97,-1154.93c697.575,-185.254 1435.78,-170.229 2124.73,43.251c-155.187,-1489.72 -118.866,-1771.64 -118.866,-1771.64c104.008,-781.7 553.058,-895.429 822.158,-1654.7c931.117,-2636.64 -206.363,-4932.08 -2781.8,-5236.42c-2274.97,-269.112 -3539.57,1193.38 -3716.22,2703.91c-20.208,166.166 2.488,334.625 66.038,490.166c-312.021,552.638 -1031.83,1367.98 -1092.91,1758.83c-37.97,235.471 208.017,317.167 325.234,398.863c113.912,43.25 237.729,12.812 313.675,116.933c52.829,76.888 -19.813,205.038 -36.321,299.546c-1.65,155.379 -163.442,230.662 -146.933,374.829c16.508,144.167 107.308,171.4 191.508,246.688c84.196,75.283 -227.829,232.266 -125.471,373.229c102.358,140.962 259.196,294.737 204.713,490.162c-77.592,302.75 -227.825,616.713 -104.009,852.184c123.821,235.47 295.517,370.025 562.967,430.895c417.679,0 837.012,8.009 1258,8.009c75.208,139.862 138.162,285.608 188.204,435.704c84.467,257.254 131.696,524.65 140.325,794.512l0,-0.016Z" style="fill:#cbd9e6;fill-opacity:0.79;fill-rule:nonzero;stroke:#fff;stroke-width:4.17px;"></path><path d="M921.3,3627.94c-17.863,-5.267 -33.871,-15.254 -46.225,-28.834c-20.171,-20.691 -30.892,-48.433 -29.717,-76.891c-1.046,-38.388 18.304,-74.725 51.179,-96.109c22.759,-10.92 42.13,-27.508 56.134,-48.054c1.65,-3.204 21.462,-62.475 42.921,-129.75c37.97,-115.333 41.275,-123.341 41.275,-134.554c0.141,-13.396 -4.53,-26.429 -13.209,-36.846c-7.175,-8.062 -15.516,-15.075 -24.762,-20.821l-33.021,-25.629l-14.858,-12.816c-1.65,-1.6 -108.959,97.712 -113.913,104.12c-1.679,4.617 -2.242,9.55 -1.65,14.417c2.842,17.029 2.283,34.433 -1.65,51.258c-9.308,30.646 -33.304,55.125 -64.387,65.675c-18.425,5.125 -38.046,4.567 -56.13,-1.6c-29.416,-10.6 -51.658,-34.579 -59.433,-64.075c-6.621,-20.87 -6.621,-43.2 0,-64.075c7.242,-22.041 21.746,-41.183 41.271,-54.462c16.508,-11.213 23.112,-11.213 51.179,-11.213c28.067,0 24.763,0 29.717,-3.204c4.954,-3.204 24.762,-28.833 49.529,-60.871c24.762,-32.037 46.225,-59.266 44.575,-62.47c-1.654,-3.205 -6.604,-11.213 -13.208,-19.221c-7.405,-9.634 -14.03,-19.809 -19.813,-30.438c-8.592,-16.225 -22.546,-29.2 -39.621,-36.841c-16.508,-4.805 -18.158,-4.805 -140.329,41.649l-118.867,44.851c-20.991,16.045 -37.462,36.991 -47.875,60.87c-9.279,17.488 -23.629,31.967 -41.275,41.646c-14.475,9.713 -31.987,14.242 -49.525,12.817c-9.483,1.075 -19.1,-0.021 -28.066,-3.204c-13.488,-4.375 -25.863,-11.471 -36.321,-20.825c-19.917,-16.884 -32.833,-40.238 -36.321,-65.675c-8.458,-45.225 12.563,-91.117 52.829,-115.334c14.213,-10.25 31.946,-14.837 49.529,-12.812c11.238,-0.796 22.517,0.846 33.017,4.804c20.025,7.217 41.604,9.421 62.738,6.408c11.554,-3.204 222.875,-112.129 232.779,-121.741c9.904,-9.613 23.112,-33.638 14.858,-72.084c-1.65,-12.812 -4.954,-30.433 -4.954,-40.045l-3.3,-17.621c-23.996,-4.3 -48.267,-6.975 -72.642,-8.009c-82.546,-6.408 -75.941,-6.408 -87.5,9.613c-15.796,25.537 -44.325,41.208 -75.021,41.208c-16.045,0 -31.787,-4.283 -45.495,-12.375c-15.875,-7.404 -28.688,-19.837 -36.321,-35.242c-17.079,-27.058 -19.546,-60.562 -6.6,-89.704c6.991,-22.2 22.316,-41.066 42.921,-52.858c13.591,-7.462 28.962,-11.329 44.575,-11.217c13.929,-1.05 27.841,2.325 39.625,9.613c13.466,6.571 24.87,16.529 33.016,28.833c13.209,17.621 6.604,16.017 90.8,9.613l72.642,-6.409c0.067,-4.316 0.621,-8.612 1.65,-12.816c1.929,-23.654 5.237,-47.188 9.904,-70.479c6.546,-29.613 -9.4,-59.884 -37.971,-72.084l-107.308,-54.462l-100.708,-51.259c-18.53,-4.233 -37.888,-3.683 -56.13,1.6c-16.133,6.788 -33.6,10.071 -51.179,9.613c-15.35,-1.129 -30.137,-6.096 -42.925,-14.417c-36.766,-22.037 -57.841,-62.316 -54.479,-104.121c1.713,-18.025 7.338,-35.495 16.508,-51.258c8.734,-13.579 19.917,-25.517 33.021,-35.242l18.159,-8.008c8.966,-5.108 19.366,-7.35 29.716,-6.408c19.159,-2.309 38.542,2.25 54.479,12.816c19.663,11.109 35.255,27.917 44.575,48.054c9,22.017 24.513,40.971 44.576,54.463l118.866,44.85c105.659,40.05 115.567,43.25 125.471,43.25c9.904,0 34.671,-8.008 54.479,-40.046l23.113,-33.637l8.254,-12.817c-0,-1.6 -19.809,-27.229 -44.575,-57.662c-51.175,-62.475 -49.525,-60.871 -66.034,-57.667c-29.112,4.446 -58.708,-5.125 -79.245,-25.629c-12.209,-12.188 -21.263,-27.009 -26.413,-43.25c-6.825,-26.684 -4.504,-54.804 6.6,-80.096c5.283,-9.871 12.588,-18.592 21.463,-25.629c10.708,-9.013 23.016,-16.071 36.321,-20.821c17.674,-5.304 36.508,-5.859 54.479,-1.604c30.025,11.595 53.095,35.75 62.737,65.675c3.479,10.895 4.046,22.475 1.65,33.641l0,27.229c1.65,4.805 11.558,14.417 54.479,54.463l54.484,49.658l4.95,-4.804l49.529,-40.05c14.316,-7.637 25.85,-19.391 33.016,-33.637c3.355,-7.563 4.496,-15.875 3.305,-24.025l-0,-14.417l-37.971,-120.142c-21.463,-65.675 -41.275,-121.737 -42.925,-126.545c-12.163,-19.321 -29.213,-35.313 -49.529,-46.45l-29.717,-22.43c-38.367,-40.991 -41.158,-103.3 -6.604,-147.366c8.016,-11.421 18.787,-20.767 31.371,-27.234c14.687,-9.262 32.037,-13.75 49.525,-12.816c16.162,-0.321 32.12,3.55 46.225,11.216c14.05,9.055 26.345,20.442 36.32,33.638c13.825,21.587 20.721,46.683 19.813,72.083c-1.65,6.409 -3.304,19.221 -6.604,28.834c-7.796,22.15 -9.504,45.891 -4.954,68.879c1.654,6.408 26.416,62.471 56.133,124.941c56.129,128.15 56.129,126.546 74.292,136.159c14.016,6.062 29.787,7.196 44.575,3.204l37.97,-8.008l24.763,-3.205c-0,0 1.65,-33.637 4.954,-72.083l4.95,-72.083l-4.95,-6.409c-2.967,-4.508 -6.912,-8.333 -11.558,-11.212c-18.075,-15.421 -30.292,-36.304 -34.667,-59.267c-4.846,-25.3 -0.158,-51.462 13.204,-73.687c8.879,-13.975 20.692,-25.984 34.671,-35.238l19.813,-8.012c8.454,-2.938 17.475,-4.034 26.412,-3.204c25.738,1.366 49.979,12.262 67.688,30.437c6.266,7.171 11.283,15.288 14.858,24.029c7.512,14.404 11.471,30.309 11.558,46.45c0.213,14.971 -3.179,29.779 -9.908,43.25c-3.963,8.438 -9.571,16.05 -16.508,22.429c-9.2,8.225 -17.496,17.35 -24.763,27.23c0,3.204 4.954,86.5 9.904,137.758l0,9.612l11.559,0c20.575,1.763 40.987,4.975 61.083,9.609c14.212,4.175 29.533,3.033 42.925,-3.2c18.158,-9.613 18.158,-8.013 75.942,-137.759c57.783,-129.75 59.433,-129.75 56.129,-156.983c-0.6,-11.454 -2.821,-22.771 -6.604,-33.637c-4.192,-12.384 -5.875,-25.442 -4.95,-38.446c-1.038,-11.954 0.654,-23.988 4.95,-35.242c4.833,-16.025 13.295,-30.8 24.766,-43.25c11.454,-11.608 25.609,-20.396 41.271,-25.629c9.463,-3.554 19.579,-5.188 29.717,-4.804c15.512,-1.209 31.05,2.141 44.575,9.612c26.65,12.938 46.454,36.225 54.479,64.071c8.304,23.9 8.304,49.792 -0,73.688c-8.45,23.625 -24.704,43.9 -46.225,57.666c-33.017,20.821 -47.875,33.638 -54.479,48.054c-17.15,42.48 -32.025,85.784 -44.575,129.75c-37.971,115.334 -39.621,123.342 -39.621,134.555c-0.754,13.216 3.342,26.275 11.554,36.841l21.463,19.225l36.32,27.229l18.159,14.417l8.258,-8.008c62.733,-56.067 90.8,-83.296 92.45,-88.1c1.65,-4.809 1.65,-6.409 0,-14.417c-10.1,-49.671 19.804,-99.417 69.338,-115.333c8.995,-3.071 18.583,-4.167 28.066,-3.204c24.35,-0.263 47.517,10.387 62.734,28.833c28.504,31.737 35.595,76.783 18.162,115.333c-10.112,21.988 -27.562,40.05 -49.529,51.259c-11.721,3.629 -24.117,4.72 -36.321,3.204c-10.571,-1.229 -21.292,-0.134 -31.367,3.204c-4.954,4.804 -87.5,107.321 -85.845,108.925l13.204,17.621l23.112,36.841c18.163,28.834 31.371,36.842 54.484,36.842c23.112,0 19.808,-3.204 123.816,-43.25l122.171,-46.454l11.554,-9.608c12.888,-13.209 23.479,-28.355 31.367,-44.855c6.6,-14.045 16.162,-26.6 28.067,-36.841c11.695,-9.363 25.15,-16.434 39.62,-20.825c18.721,-3.009 37.905,-1.917 56.134,3.204c15.958,5.446 30.187,14.833 41.271,27.233c8.395,7.717 15.129,16.971 19.812,27.229c6.625,15.763 9.992,32.638 9.904,49.659c1.425,47.004 -28.675,89.837 -74.291,105.721c-8.992,3.07 -18.58,4.166 -28.063,3.204c-11.779,0.875 -23.617,-0.767 -34.671,-4.804c-21.096,-7.642 -44.004,-9.309 -66.037,-4.809c-9.904,3.204 -221.221,112.129 -227.825,118.538c-11.663,9.012 -18.867,22.404 -19.813,36.841c-1.8,11.834 -0.666,23.917 3.304,35.242c1.65,14.417 4.95,36.842 6.6,49.658c1.655,12.813 3.305,24.025 6.605,24.025l66.037,6.409c62.733,3.204 64.388,3.204 69.338,1.604l9.908,-11.217c12.058,-19.083 30.825,-33.308 52.829,-40.046c14.2,-2.391 28.721,-2.391 42.921,0c45.867,12.617 76.871,54.73 74.292,100.917c-0.225,35.938 -19.613,69.308 -51.175,88.104c-13.6,7.288 -29.075,10.625 -44.575,9.609c-14.455,1.062 -28.892,-2.3 -41.275,-9.609c-8.255,-3.204 -13.209,-9.612 -31.367,-30.437l-13.208,-11.213c-3.3,-1.6 -14.859,-1.6 -66.038,3.204l-67.687,6.409l-4.95,-0l-0,17.621c-1.655,8.008 -4.955,27.229 -6.605,41.645c-3.97,11.325 -5.104,23.409 -3.304,35.242c3.304,24.029 13.209,35.242 39.625,49.658c168.392,86.5 206.363,105.721 212.967,107.321c20.046,2.963 40.546,0.75 59.433,-6.404c27.629,-10.158 58.538,-7.804 84.196,6.404c13.183,6.967 24.496,16.846 33.021,28.834c23.021,31.729 28.583,72.483 14.858,108.925c-10.341,30.608 -34.758,54.891 -66.037,65.679c-8.996,3.071 -18.584,4.162 -28.067,3.204c-18.062,1.533 -36.137,-2.992 -51.179,-12.817c-17.317,-10.087 -31.563,-24.462 -41.271,-41.65c-16.512,-32.033 -31.367,-52.858 -46.225,-60.866l-120.521,-44.855l-112.262,-43.25l-11.554,0c-23.113,0 -36.321,9.613 -51.18,32.038c-11.658,20.183 -24.908,39.462 -39.62,57.667l-6.605,9.612c0,1.6 19.813,27.229 44.575,57.667c51.18,62.471 47.875,59.266 69.338,56.062c12.75,-1.325 25.646,-0.237 37.971,3.204c14.775,5.267 28.266,13.45 39.621,24.03c29.083,32.741 36.17,79 18.162,118.533c-4.592,12.504 -12.575,23.575 -23.112,32.037c-17.796,15.046 -40.792,23.055 -64.388,22.43c-9.629,0.92 -19.342,-0.742 -28.067,-4.809c-28.083,-10.775 -49.858,-33.079 -59.429,-60.871c-3.421,-11.454 -3.987,-23.533 -1.654,-35.237c0.842,-10.171 0.288,-20.408 -1.65,-30.438c-34.775,-35.733 -71.712,-69.433 -110.612,-100.916c-0,1.604 -8.255,6.408 -14.859,12.816l-28.062,20.825c-13.004,8.025 -23.775,19.025 -31.371,32.034c-3.454,10.879 -4.579,22.325 -3.3,33.641c3.3,16.017 80.896,251.488 85.846,259.5c12.021,16.213 27.875,29.396 46.229,38.442c33.008,18.325 54.65,51.325 57.779,88.104c7.288,53.213 -26.387,104.267 -79.242,120.138l-29.716,-0c-10.775,-0.246 -21.409,-2.417 -31.367,-6.409c-15.496,-7.691 -29.033,-18.637 -39.625,-32.037c-7.008,-7.538 -12.596,-16.213 -16.508,-25.629c-10.159,-26.721 -11.317,-55.896 -3.3,-83.296c7.446,-20.538 9.712,-42.513 6.604,-64.075c-1.654,-6.408 -26.417,-64.071 -56.133,-128.146c-51.18,-112.129 -52.83,-116.937 -61.084,-124.946c-11.062,-12.346 -27.891,-18.396 -44.575,-16.016l-26.416,4.804l-37.971,6.408c-7.85,-0.567 -15.738,0.529 -23.113,3.204c-7.375,2.675 -8.254,132.954 -9.904,147.371c-1.65,14.417 3.3,14.417 16.508,25.629c37.971,28.834 46.225,89.7 21.463,131.35c-11.967,19.263 -29.871,34.396 -51.179,43.25c-18.375,4.834 -37.754,4.834 -56.129,0c-15.046,-6.416 -28.971,-15.062 -41.275,-25.629c-6.267,-7.175 -11.284,-15.287 -14.859,-24.029c-14.583,-29.213 -15.187,-63.225 -1.65,-92.904c4.954,-11.217 9.904,-16.021 28.067,-32.038c18.158,-16.021 14.858,-8.012 8.254,-96.112c-3.304,-43.25 -6.604,-78.492 -6.604,-78.492l-14.858,-3.2l-39.621,-6.408c-28.067,-6.409 -36.321,-4.809 -51.179,3.204c-14.859,8.008 -18.163,9.608 -74.292,136.154c-29.717,64.075 -52.829,120.138 -54.479,126.546c-2.834,18.712 -1.709,37.787 3.3,56.067c5.691,16.516 8.483,33.845 8.254,51.258c-1.729,19.037 -7.342,37.55 -16.508,54.462c-13.421,20.271 -33.055,35.959 -56.134,44.85c-18.796,5.346 -38.7,5.9 -57.779,1.605l-1.654,3.204Z" style="fill:#cbd9e6;fill-rule:nonzero;stroke:#fff;stroke-width:4.17px;"></path><path d="M952.671,5833.67c60.421,-50.88 133.112,-86.142 211.316,-102.521c133.725,-32.038 290.563,-27.229 267.45,33.641c-23.112,60.867 -117.216,110.526 -181.604,139.359c-64.383,28.833 -67.687,20.825 -123.816,57.666c-56.134,36.842 -52.83,44.85 -95.755,72.084c-14.858,8.008 -92.45,56.066 -150.233,43.25c-8.254,-3.204 -79.246,-19.221 -52.829,-94.509c26.412,-75.287 97.404,-126.545 125.471,-148.97Z" style="fill:#cbd9e6;fill-rule:nonzero;stroke:#fff;stroke-width:4.17px;"></path><path d="M1226.72,6472.83c11.558,-35.237 39.625,-86.5 138.679,-153.775c99.054,-67.279 310.371,-161.787 348.342,-123.341c37.97,38.441 -19.809,108.925 -62.734,155.379c-42.925,46.454 -57.783,44.85 -84.196,89.704c-26.416,44.85 -13.208,48.054 -34.67,81.692c-28.921,46.6 -74.93,80.941 -128.771,96.112c-13.209,4.804 -112.263,32.038 -163.442,-14.417c-51.179,-46.454 -21.462,-107.324 -13.208,-131.354Z" style="fill:#cbd9e6;fill-rule:nonzero;stroke:#fff;stroke-width:4.17px;"></path><path d="M762.813,6468c8.254,-35.242 28.066,-88.1 100.708,-153.775c72.637,-65.679 227.825,-160.188 257.542,-118.538c29.716,41.646 -11.555,112.13 -42.926,156.98c-31.366,44.854 -41.27,44.854 -61.083,89.704c-19.808,44.85 -9.904,49.658 -24.762,83.296c-14.859,33.637 -33.017,73.683 -94.105,96.112c-9.904,3.2 -82.545,30.434 -122.166,-17.621c-39.621,-48.058 -18.159,-110.529 -13.209,-136.158Z" style="fill:#cbd9e6;fill-rule:nonzero;stroke:#fff;stroke-width:4.17px;"></path></svg> 