<svg xmlns="http://www.w3.org/2000/svg" xmlns:xlink="http://www.w3.org/1999/xlink" width="100%" height="100%" version="1.1" viewBox="0 0 2248 2560" xml:space="preserve" style="fill-rule:evenodd;clip-rule:evenodd;stroke-linejoin:round;stroke-miterlimit:2"><path d="M986.61,2431.93c66.565,-69.968 221.884,-213.75 461.993,-277.183c167.418,-44.461 344.588,-40.855 509.936,10.38c-37.245,-357.532 -28.528,-425.194 -28.528,-425.194c24.962,-187.608 132.734,-214.903 197.318,-397.129c223.468,-632.793 -49.527,-1183.7 -667.631,-1256.74c-545.992,-64.587 -849.497,286.41 -891.893,648.939c-4.85,39.88 0.597,80.31 15.849,117.64c-74.885,132.633 -247.638,328.314 -262.298,422.118c-9.113,56.513 49.924,76.12 78.056,95.727c27.339,10.38 57.055,3.075 75.282,28.064c12.679,18.453 -4.755,49.209 -8.717,71.891c-0.396,37.291 -39.226,55.359 -35.264,89.959c3.962,34.6 25.754,41.136 45.962,59.205c20.207,18.068 -54.679,55.744 -30.113,89.575c24.566,33.831 62.207,70.737 49.131,117.639c-18.622,72.66 -54.678,148.011 -24.962,204.524c29.717,56.513 70.924,88.806 135.112,103.415c100.243,0 200.883,1.922 301.92,1.922c18.05,33.567 33.159,68.546 45.169,104.569c20.272,61.741 31.607,125.916 33.678,190.683Z" style="fill:#0098e6;fill-opacity:.79;fill-rule:nonzero"/><path d="M221.112,870.706c-4.287,-1.264 -8.129,-3.661 -11.094,-6.92c-4.841,-4.966 -7.414,-11.624 -7.132,-18.454c-0.251,-9.213 4.393,-17.934 12.283,-23.066c5.462,-2.621 10.111,-6.602 13.472,-11.533c0.396,-0.769 5.151,-14.994 10.301,-31.14c9.113,-27.68 9.906,-29.602 9.906,-32.293c0.034,-3.215 -1.087,-6.343 -3.17,-8.843c-1.722,-1.935 -3.724,-3.618 -5.943,-4.997l-7.925,-6.151l-3.566,-3.076c-0.396,-0.384 -26.15,23.451 -27.339,24.989c-0.403,1.108 -0.538,2.292 -0.396,3.46c0.682,4.087 0.548,8.264 -0.396,12.302c-2.234,7.355 -7.993,13.23 -15.453,15.762c-4.422,1.23 -9.131,1.096 -13.471,-0.384c-7.06,-2.544 -12.398,-8.299 -14.264,-15.378c-1.589,-5.009 -1.589,-10.368 -0,-15.378c1.738,-5.29 5.219,-9.884 9.905,-13.071c3.962,-2.691 5.547,-2.691 12.283,-2.691c6.736,0 5.943,0 7.132,-0.769c1.189,-0.769 5.943,-6.92 11.887,-14.609c5.943,-7.689 11.094,-14.224 10.698,-14.993c-0.397,-0.769 -1.585,-2.691 -3.17,-4.613c-1.777,-2.312 -3.367,-4.754 -4.755,-7.305c-2.062,-3.894 -5.411,-7.008 -9.509,-8.842c-3.962,-1.153 -4.358,-1.153 -33.679,9.996l-28.528,10.764c-5.038,3.851 -8.991,8.878 -11.49,14.609c-2.227,4.197 -5.671,7.672 -9.906,9.995c-3.474,2.331 -7.677,3.418 -11.886,3.076c-2.276,0.258 -4.584,-0.005 -6.736,-0.769c-3.237,-1.05 -6.207,-2.753 -8.717,-4.998c-4.78,-4.052 -7.88,-9.657 -8.717,-15.762c-2.03,-10.854 3.015,-21.868 12.679,-27.68c3.411,-2.46 7.667,-3.561 11.887,-3.075c2.697,-0.191 5.404,0.203 7.924,1.153c4.806,1.732 9.985,2.261 15.057,1.538c2.773,-0.769 53.49,-26.911 55.867,-29.218c2.377,-2.307 5.547,-8.073 3.566,-17.3c-0.396,-3.075 -1.189,-7.304 -1.189,-9.611l-0.792,-4.229c-5.759,-1.032 -11.584,-1.674 -17.434,-1.922c-19.811,-1.538 -18.226,-1.538 -21,2.307c-3.791,6.129 -10.638,9.89 -18.005,9.89c-3.851,0 -7.629,-1.028 -10.919,-2.97c-3.81,-1.777 -6.885,-4.761 -8.717,-8.458c-4.099,-6.494 -4.691,-14.535 -1.584,-21.529c1.678,-5.328 5.356,-9.856 10.301,-12.686c3.262,-1.791 6.951,-2.719 10.698,-2.692c3.343,-0.252 6.682,0.558 9.51,2.307c3.232,1.577 5.969,3.967 7.924,6.92c3.17,4.229 1.585,3.844 21.792,2.307l17.434,-1.538c0.016,-1.036 0.149,-2.067 0.396,-3.076c0.463,-5.677 1.257,-11.325 2.377,-16.915c1.571,-7.107 -2.256,-14.372 -9.113,-17.3l-25.754,-13.071l-24.17,-12.302c-4.447,-1.016 -9.093,-0.884 -13.471,0.384c-3.872,1.629 -8.064,2.417 -12.283,2.307c-3.684,-0.271 -7.233,-1.463 -10.302,-3.46c-8.824,-5.289 -13.882,-14.956 -13.075,-24.989c0.411,-4.326 1.761,-8.519 3.962,-12.302c2.096,-3.259 4.78,-6.124 7.925,-8.458l4.358,-1.922c2.152,-1.226 4.648,-1.764 7.132,-1.538c4.598,-0.554 9.25,0.54 13.075,3.076c4.719,2.666 8.461,6.7 10.698,11.533c2.16,5.284 5.883,9.833 10.698,13.071l28.528,10.764c25.358,9.612 27.736,10.38 30.113,10.38c2.377,0 8.321,-1.922 13.075,-9.611l5.547,-8.073l1.981,-3.076c0,-0.384 -4.754,-6.535 -10.698,-13.839c-12.282,-14.994 -11.886,-14.609 -15.848,-13.84c-6.987,1.067 -14.09,-1.23 -19.019,-6.151c-2.93,-2.925 -5.103,-6.482 -6.339,-10.38c-1.638,-6.404 -1.081,-13.153 1.584,-19.223c1.268,-2.369 3.021,-4.462 5.151,-6.151c2.57,-2.163 5.524,-3.857 8.717,-4.997c4.242,-1.273 8.762,-1.406 13.075,-0.385c7.206,2.783 12.743,8.58 15.057,15.762c0.835,2.615 0.971,5.394 0.396,8.074l0,6.535c0.396,1.153 2.774,3.46 13.075,13.071l13.076,11.918l1.188,-1.153l11.887,-9.612c3.436,-1.833 6.204,-4.654 7.924,-8.073c0.805,-1.815 1.079,-3.81 0.793,-5.766l-0,-3.46l-9.113,-28.834c-5.151,-15.762 -9.906,-29.217 -10.302,-30.371c-2.919,-4.637 -7.011,-8.475 -11.887,-11.148l-7.132,-5.383c-9.208,-9.838 -9.878,-24.792 -1.585,-35.368c1.924,-2.741 4.509,-4.984 7.529,-6.536c3.525,-2.223 7.689,-3.3 11.886,-3.076c3.879,-0.077 7.709,0.852 11.094,2.692c3.372,2.173 6.323,4.906 8.717,8.073c3.318,5.181 4.973,11.204 4.755,17.3c-0.396,1.538 -0.793,4.613 -1.585,6.92c-1.871,5.316 -2.281,11.014 -1.189,16.531c0.397,1.538 6.34,14.993 13.472,29.986c13.471,30.756 13.471,30.371 17.83,32.678c3.364,1.455 7.149,1.727 10.698,0.769l9.113,-1.922l5.943,-0.769c0,-0 0.396,-8.073 1.189,-17.3l1.188,-17.3l-1.188,-1.538c-0.712,-1.082 -1.659,-2 -2.774,-2.691c-4.338,-3.701 -7.27,-8.713 -8.32,-14.224c-1.163,-6.072 -0.038,-12.351 3.169,-17.685c2.131,-3.354 4.966,-6.236 8.321,-8.457l4.755,-1.923c2.029,-0.705 4.194,-0.968 6.339,-0.769c6.177,0.328 11.995,2.943 16.245,7.305c1.504,1.721 2.708,3.669 3.566,5.767c1.803,3.457 2.753,7.274 2.774,11.148c0.051,3.593 -0.763,7.147 -2.378,10.38c-0.951,2.025 -2.297,3.852 -3.962,5.383c-2.208,1.974 -4.199,4.164 -5.943,6.535c-0,0.769 1.189,20.76 2.377,33.062l0,2.307l2.774,-0c4.938,0.423 9.837,1.194 14.66,2.306c3.411,1.002 7.088,0.728 10.302,-0.768c4.358,-2.307 4.358,-1.923 18.226,-33.062c13.868,-31.14 14.264,-31.14 13.471,-37.676c-0.144,-2.749 -0.677,-5.465 -1.585,-8.073c-1.006,-2.972 -1.41,-6.106 -1.188,-9.227c-0.249,-2.869 0.157,-5.757 1.188,-8.458c1.16,-3.846 3.191,-7.392 5.944,-10.38c2.749,-2.786 6.146,-4.895 9.905,-6.151c2.271,-0.853 4.699,-1.245 7.132,-1.153c3.723,-0.29 7.452,0.514 10.698,2.307c6.396,3.105 11.149,8.694 13.075,15.377c1.993,5.736 1.993,11.95 0,17.685c-2.028,5.67 -5.929,10.536 -11.094,13.84c-7.924,4.997 -11.49,8.073 -13.075,11.533c-4.116,10.195 -7.686,20.588 -10.698,31.14c-9.113,27.68 -9.509,29.602 -9.509,32.293c-0.181,3.172 0.802,6.306 2.773,8.842l5.151,4.614l8.717,6.535l4.358,3.46l1.982,-1.922c15.056,-13.456 21.792,-19.991 22.188,-21.144c0.396,-1.154 0.396,-1.538 -0,-3.46c-2.424,-11.921 4.753,-23.86 16.641,-27.68c2.159,-0.737 4.46,-1 6.736,-0.769c5.844,-0.063 11.404,2.493 15.056,6.92c6.841,7.617 8.543,18.428 4.359,27.68c-2.427,5.277 -6.615,9.612 -11.887,12.302c-2.813,0.871 -5.788,1.133 -8.717,0.769c-2.537,-0.295 -5.11,-0.032 -7.528,0.769c-1.189,1.153 -21,25.757 -20.603,26.142l3.169,4.229l5.547,8.842c4.359,6.92 7.529,8.842 13.076,8.842c5.547,-0 4.754,-0.769 29.716,-10.38l29.321,-11.149l2.773,-2.306c3.093,-3.17 5.635,-6.805 7.528,-10.765c1.584,-3.371 3.879,-6.384 6.736,-8.842c2.807,-2.247 6.036,-3.944 9.509,-4.998c4.493,-0.722 9.097,-0.46 13.472,0.769c3.83,1.307 7.245,3.56 9.905,6.536c2.015,1.852 3.631,4.073 4.755,6.535c1.59,3.783 2.398,7.833 2.377,11.918c0.342,11.281 -6.882,21.561 -17.83,25.373c-2.158,0.737 -4.459,1 -6.735,0.769c-2.827,0.21 -5.668,-0.184 -8.321,-1.153c-5.063,-1.834 -10.561,-2.234 -15.849,-1.154c-2.377,0.769 -53.093,26.911 -54.678,28.449c-2.799,2.163 -4.528,5.377 -4.755,8.842c-0.432,2.84 -0.16,5.74 0.793,8.458c0.396,3.46 1.188,8.842 1.584,11.918c0.397,3.075 0.793,5.766 1.585,5.766l15.849,1.538c15.056,0.769 15.453,0.769 16.641,0.385l2.378,-2.692c2.894,-4.58 7.398,-7.994 12.679,-9.611c3.408,-0.574 6.893,-0.574 10.301,0c11.008,3.028 18.449,13.135 17.83,24.22c-0.054,8.625 -4.707,16.634 -12.282,21.145c-3.264,1.749 -6.978,2.55 -10.698,2.306c-3.469,0.255 -6.934,-0.552 -9.906,-2.306c-1.981,-0.769 -3.17,-2.307 -7.528,-7.305l-3.17,-2.691c-0.792,-0.384 -3.566,-0.384 -15.849,0.769l-16.245,1.538l-1.188,-0l-0,4.229c-0.397,1.922 -1.189,6.535 -1.585,9.995c-0.953,2.718 -1.225,5.618 -0.793,8.458c0.793,5.767 3.17,8.458 9.51,11.918c40.414,20.76 49.527,25.373 51.112,25.757c4.811,0.711 9.731,0.18 14.264,-1.537c6.631,-2.438 14.049,-1.873 20.207,1.537c3.164,1.672 5.879,4.043 7.925,6.92c5.525,7.615 6.86,17.396 3.566,26.142c-2.482,7.346 -8.342,13.174 -15.849,15.763c-2.159,0.737 -4.46,0.999 -6.736,0.769c-4.335,0.368 -8.673,-0.718 -12.283,-3.076c-4.156,-2.421 -7.575,-5.871 -9.905,-9.996c-3.963,-7.688 -7.528,-12.686 -11.094,-14.608l-28.925,-10.765l-26.943,-10.38l-2.773,0c-5.547,0 -8.717,2.307 -12.283,7.689c-2.798,4.844 -5.978,9.471 -9.509,13.84l-1.585,2.307c-0,0.384 4.755,6.535 10.698,13.84c12.283,14.993 11.49,14.224 16.641,13.455c3.06,-0.318 6.155,-0.057 9.113,0.769c3.546,1.264 6.784,3.228 9.509,5.767c6.98,7.858 8.681,18.96 4.359,28.448c-1.102,3.001 -3.018,5.658 -5.547,7.689c-4.271,3.611 -9.79,5.533 -15.453,5.383c-2.311,0.221 -4.642,-0.178 -6.736,-1.154c-6.74,-2.586 -11.966,-7.939 -14.263,-14.609c-0.821,-2.749 -0.957,-5.648 -0.397,-8.457c0.202,-2.441 0.069,-4.898 -0.396,-7.305c-8.346,-8.576 -17.211,-16.664 -26.547,-24.22c0,0.385 -1.981,1.538 -3.566,3.076l-6.735,4.998c-3.121,1.926 -5.706,4.566 -7.529,7.688c-0.829,2.611 -1.099,5.358 -0.792,8.074c0.792,3.844 19.415,60.357 20.603,62.28c2.885,3.891 6.69,7.055 11.095,9.226c7.922,4.398 13.116,12.318 13.867,21.145c1.749,12.771 -6.333,25.024 -19.018,28.833l-7.132,-0c-2.586,-0.059 -5.138,-0.58 -7.528,-1.538c-3.719,-1.846 -6.968,-4.473 -9.51,-7.689c-1.682,-1.809 -3.023,-3.891 -3.962,-6.151c-2.438,-6.413 -2.716,-13.415 -0.792,-19.991c1.787,-4.929 2.331,-10.203 1.585,-15.378c-0.397,-1.538 -6.34,-15.377 -13.472,-30.755c-12.283,-26.911 -12.679,-28.065 -14.66,-29.987c-2.655,-2.963 -6.694,-4.415 -10.698,-3.844l-6.34,1.153l-9.113,1.538c-1.884,-0.136 -3.777,0.127 -5.547,0.769c-1.77,0.642 -1.981,31.909 -2.377,35.369c-0.396,3.46 0.792,3.46 3.962,6.151c9.113,6.92 11.094,21.528 5.151,31.524c-2.872,4.623 -7.169,8.255 -12.283,10.38c-4.41,1.16 -9.061,1.16 -13.471,-0c-3.611,-1.54 -6.953,-3.615 -9.906,-6.151c-1.504,-1.722 -2.708,-3.669 -3.566,-5.767c-3.5,-7.011 -3.645,-15.174 -0.396,-22.297c1.189,-2.692 2.377,-3.845 6.736,-7.689c4.358,-3.845 3.566,-1.923 1.981,-23.067c-0.793,-10.38 -1.585,-18.838 -1.585,-18.838l-3.566,-0.768l-9.509,-1.538c-6.736,-1.538 -8.717,-1.154 -12.283,0.769c-3.566,1.922 -4.359,2.306 -17.83,32.677c-7.132,15.378 -12.679,28.833 -13.075,30.371c-0.68,4.491 -0.41,9.069 0.792,13.456c1.366,3.964 2.036,8.123 1.981,12.302c-0.415,4.569 -1.762,9.012 -3.962,13.071c-3.221,4.865 -7.933,8.63 -13.472,10.764c-4.511,1.283 -9.288,1.416 -13.867,0.385l-0.397,0.769Z" style="fill:#0098e6;fill-rule:nonzero"/><path d="M228.641,1400.08c14.501,-12.211 31.947,-20.674 50.716,-24.605c32.094,-7.689 69.735,-6.535 64.188,8.074c-5.547,14.608 -28.132,26.526 -43.585,33.446c-15.452,6.92 -16.245,4.998 -29.716,13.84c-13.472,8.842 -12.679,10.764 -22.981,17.3c-3.566,1.922 -22.188,13.456 -36.056,10.38c-1.981,-0.769 -19.019,-4.613 -12.679,-22.682c6.339,-18.069 23.377,-30.371 30.113,-35.753Z" style="fill:#0098e6;fill-rule:nonzero"/><path d="M294.413,1553.48c2.774,-8.457 9.51,-20.76 33.283,-36.906c23.773,-16.147 74.489,-38.829 83.602,-29.602c9.113,9.226 -4.754,26.142 -15.056,37.291c-10.302,11.149 -13.868,10.764 -20.207,21.529c-6.34,10.764 -3.17,11.533 -8.321,19.606c-6.941,11.184 -17.983,19.426 -30.905,23.067c-3.17,1.153 -26.943,7.689 -39.226,-3.46c-12.283,-11.149 -5.151,-25.758 -3.17,-31.525Z" style="fill:#0098e6;fill-rule:nonzero"/><path d="M183.075,1552.32c1.981,-8.458 6.736,-21.144 24.17,-36.906c17.433,-15.763 54.678,-38.445 61.81,-28.449c7.132,9.995 -2.773,26.911 -10.302,37.675c-7.528,10.765 -9.905,10.765 -14.66,21.529c-4.754,10.764 -2.377,11.918 -5.943,19.991c-3.566,8.073 -7.924,17.684 -22.585,23.067c-2.377,0.768 -19.811,7.304 -29.32,-4.229c-9.509,-11.534 -4.358,-26.527 -3.17,-32.678Z" style="fill:#0098e6;fill-rule:nonzero"/></svg>