<?xml version="1.0" encoding="UTF-8" standalone="no"?> <svg xmlns="http://www.w3.org/2000/svg" xmlns:xlink="http://www.w3.org/1999/xlink" xmlns:serif="http://www.serif.com/" width="100%" height="100%" viewBox="0 0 2667 2134" version="1.1" xml:space="preserve" style="fill-rule:evenodd;clip-rule:evenodd;stroke-linejoin:round;stroke-miterlimit:2;"><path d="M1933.33,1466.67c-182.861,-0 -333.333,150.472 -333.333,333.333c0,182.861 150.472,333.333 333.333,333.333c182.862,0 333.334,-150.472 333.334,-333.333c-0,-182.861 -150.472,-333.333 -333.334,-333.333Zm-1200,-0c-182.861,-0 -333.333,150.472 -333.333,333.333c0,182.861 150.472,333.333 333.333,333.333c182.862,0 333.334,-150.472 333.334,-333.333c-0,-182.861 -150.472,-333.333 -333.334,-333.333Zm500,-933.334l-233.333,0l0,-233.333c0,-18.286 -15.047,-33.333 -33.333,-33.333l-200,-0c-18.286,-0 -33.334,15.047 -33.334,33.333l0,233.333l-233.333,0c-18.286,0 -33.333,15.048 -33.333,33.334l-0,200c-0,18.286 15.047,33.333 33.333,33.333l233.333,0l0,233.333c0,18.286 15.048,33.334 33.334,33.334l200,-0c18.286,-0 33.333,-15.048 33.333,-33.334l0,-233.333l233.333,0c18.286,0 33.334,-15.047 33.334,-33.333l-0,-200c-0,-18.286 -15.048,-33.334 -33.334,-33.334Z" style="fill:#0098e6;fill-opacity:0.4;fill-rule:nonzero;"></path><path d="M2600,1466.67l-66.667,-0l0,-450.417c-0.09,-52.988 -21.236,-103.827 -58.75,-141.25l-416.25,-416.25c-37.423,-37.514 -88.261,-58.659 -141.25,-58.75l-183.75,-0l0,-200c0,-109.717 -90.283,-200 -200,-200l-1333.33,-0c-109.717,-0 -200,90.283 -200,200l0,1333.33c0,109.717 90.283,200 200,200l75.667,0c32.666,-225.291 223.416,-400 457.666,-400c234.25,0 427.25,174.417 459.917,400l280.167,0c32.708,-225.583 225.416,-400 459.916,-400c234.5,0 425,174.709 457.667,400l209,0c36.572,0 66.667,-30.094 66.667,-66.666l-0,-133.334c-0,-36.572 -30.095,-66.666 -66.667,-66.666Zm-1333.33,-700c-0,18.286 -15.048,33.333 -33.334,33.333l-233.333,-0l0,233.333c0,18.286 -15.047,33.334 -33.333,33.334l-200,-0c-18.286,-0 -33.334,-15.048 -33.334,-33.334l0,-233.333l-233.333,-0c-18.286,-0 -33.333,-15.047 -33.333,-33.333l-0,-200c-0,-18.286 15.047,-33.334 33.333,-33.334l233.333,0l0,-233.333c0,-18.286 15.048,-33.333 33.334,-33.333l200,-0c18.286,-0 33.333,15.047 33.333,33.333l0,233.333l233.333,0c18.286,0 33.334,15.048 33.334,33.334l-0,200Zm1066.67,300l-600,-0l0,-466.667l183.75,-0l416.25,416.25l0,50.417Z" style="fill:#0098e6;fill-rule:nonzero;"></path></svg> 