<svg xmlns="http://www.w3.org/2000/svg" xmlns:xlink="http://www.w3.org/1999/xlink" width="100%" height="100%" version="1.1" viewBox="0 0 11113 8892" xml:space="preserve" style="fill-rule:evenodd;clip-rule:evenodd;stroke-linejoin:round;stroke-miterlimit:2"><path d="M8055.54,6111.12c-761.921,0 -1388.89,626.967 -1388.89,1388.89c0,761.92 626.967,1388.89 1388.89,1388.89c761.925,0 1388.89,-626.967 1388.89,-1388.89c0,-761.921 -626.966,-1388.89 -1388.89,-1388.89Zm-5000,0c-761.921,0 -1388.89,626.967 -1388.89,1388.89c0,761.92 626.967,1388.89 1388.89,1388.89c761.925,0 1388.89,-626.967 1388.89,-1388.89c0,-761.921 -626.966,-1388.89 -1388.89,-1388.89Zm2083.33,-3888.89l-972.221,0l0,-972.22c0,-76.192 -62.696,-138.888 -138.887,-138.888l-833.334,0c-76.191,0 -138.891,62.696 -138.891,138.888l-0,972.22l-972.221,0c-76.192,0 -138.888,62.7 -138.888,138.892l0,833.333c0,76.192 62.696,138.888 138.888,138.888l972.221,-0l-0,972.221c-0,76.191 62.7,138.891 138.891,138.891l833.334,0c76.191,0 138.887,-62.7 138.887,-138.891l0,-972.221l972.221,-0c76.192,-0 138.892,-62.696 138.892,-138.888l-0,-833.333c-0,-76.192 -62.7,-138.892 -138.892,-138.892Z" style="fill:#cbd9e6;fill-opacity:.4;fill-rule:nonzero;stroke:#fff;stroke-width:4.17px"/><path d="M10833.3,6099.83l-277.779,-0l0,-1876.74c-0.375,-220.783 -88.483,-432.612 -244.791,-588.541l-1734.38,-1734.38c-155.929,-156.309 -367.754,-244.413 -588.541,-244.792l-765.625,-0l-0,-833.333c-0,-457.155 -376.179,-833.334 -833.333,-833.334l-5555.54,0c-457.154,0 -833.333,376.179 -833.333,833.334l-0,5555.54c-0,457.154 376.179,833.334 833.333,833.334l315.279,-0c136.108,-938.713 930.9,-1666.67 1906.94,-1666.67c976.041,-0 1780.21,726.737 1916.32,1666.67l1167.36,-0c136.283,-939.93 939.233,-1666.67 1916.32,-1666.67c977.083,-0 1770.83,727.954 1906.94,1666.67l870.834,-0c152.383,-0 277.779,-125.392 277.779,-277.775l0,-555.559c0,-152.383 -125.396,-277.775 -277.779,-277.775l-0.013,0.013Zm-5555.54,-2916.67c-0,76.192 -62.7,138.888 -138.892,138.888l-972.221,-0l0,972.22c0,76.192 -62.696,138.892 -138.887,138.892l-833.334,0c-76.191,0 -138.891,-62.7 -138.891,-138.892l-0,-972.22l-972.221,-0c-76.192,-0 -138.888,-62.696 -138.888,-138.888l0,-833.333c0,-76.192 62.696,-138.892 138.888,-138.892l972.221,0l-0,-972.221c-0,-76.191 62.7,-138.887 138.891,-138.887l833.334,-0c76.191,-0 138.887,62.696 138.887,138.887l0,972.221l972.221,0c76.192,0 138.892,62.7 138.892,138.892l-0,833.333Zm4444.46,1250l-2500,0l0,-1944.45l765.625,0l1734.38,1734.38l0,210.071Z" style="fill:#cbd9e6;fill-rule:nonzero;stroke:#fff;stroke-width:4.17px"/></svg>