<?xml version="1.0" encoding="UTF-8" standalone="no"?> <svg xmlns="http://www.w3.org/2000/svg" xmlns:xlink="http://www.w3.org/1999/xlink" xmlns:serif="http://www.serif.com/" width="100%" height="100%" viewBox="0 0 2134 2134" version="1.1" xml:space="preserve" style="fill-rule:evenodd;clip-rule:evenodd;stroke-linejoin:round;stroke-miterlimit:2;"><path d="M1334.21,1016.04l-207.083,414.166c-11.281,22.536 -34.414,36.825 -59.615,36.825c-26.193,0 -50.059,-15.436 -60.802,-39.325l-237.083,-526.25l-125,298.75l-392.083,0l760.416,777.084c13.995,14.565 33.343,22.807 53.542,22.807c20.199,-0 39.547,-8.242 53.542,-22.807l760.875,-777.084l-454.625,0l-92.084,-184.166Zm639.584,-707.709l-10,-10.416c-102.661,-105.061 -243.505,-164.356 -390.396,-164.356c-146.891,-0 -287.736,59.295 -390.396,164.356l-116.333,118.958l-116.25,-118.75c-102.565,-105.253 -243.455,-164.683 -390.417,-164.683c-146.962,-0 -287.852,59.43 -390.417,164.683l-9.958,10.208c-202.917,207.5 -211.667,537.917 -30.417,758.75l426.709,0l149.541,-359.166c10.288,-24.882 34.683,-41.193 61.608,-41.193c26.272,-0 50.197,15.53 60.892,39.526l242.542,538.75l204.167,-407.917c11.301,-22.478 34.403,-36.72 59.562,-36.72c25.16,-0 48.261,14.242 59.563,36.72l115,230l495.375,0c181.291,-221.041 172.583,-551.458 -30.375,-758.75Z" style="fill:#0098e6;fill-opacity:0.4;fill-rule:nonzero;"></path><path d="M1879.17,1200l-0.417,0.208l-452.458,0l-92.084,-184.166l-207.083,414.166c-11.281,22.536 -34.414,36.825 -59.615,36.825c-26.193,0 -50.059,-15.436 -60.802,-39.325l-237.083,-526.25l-125,298.75l-390.458,0l-0,-0.208l-124.792,-133.125l426.542,0l149.541,-359.167c10.288,-24.881 34.683,-41.193 61.608,-41.193c26.272,0 50.197,15.53 60.892,39.527l242.542,538.75l204.167,-407.917c11.301,-22.478 34.403,-36.721 59.562,-36.721c25.16,0 48.261,14.243 59.563,36.721l115,230l495.375,0l-125,133.125Z" style="fill:#0098e6;fill-rule:nonzero;"></path></svg> 