<?xml version="1.0" encoding="UTF-8" standalone="no"?> <svg xmlns="http://www.w3.org/2000/svg" xmlns:xlink="http://www.w3.org/1999/xlink" xmlns:serif="http://www.serif.com/" width="100%" height="100%" viewBox="0 0 8892 8892" version="1.1" xml:space="preserve" style="fill-rule:evenodd;clip-rule:evenodd;stroke-linejoin:round;stroke-miterlimit:2;"><path d="M5559.21,4233.5l-862.846,1725.69c-47.004,93.9 -143.391,153.437 -248.395,153.437c-109.138,0 -208.58,-64.316 -253.342,-163.854l-987.846,-2192.71l-520.833,1244.79l-1633.68,0l3168.4,3237.85c58.312,60.688 138.929,95.03 223.091,95.03c84.163,-0 164.779,-34.342 223.092,-95.03l3170.31,-3237.85l-1894.27,0l-383.684,-767.358Zm2664.93,-2948.79l-41.667,-43.4c-427.754,-437.755 -1014.6,-684.817 -1626.65,-684.817c-612.046,-0 -1198.9,247.062 -1626.65,684.817l-484.721,495.658l-484.375,-494.792c-427.354,-438.554 -1014.4,-686.179 -1626.74,-686.179c-612.342,0 -1199.38,247.625 -1626.74,686.179l-41.492,42.534c-845.487,864.583 -881.945,2241.32 -126.737,3161.46l1777.95,-0l623.088,-1496.53c42.866,-103.675 144.512,-171.638 256.7,-171.638c109.466,0 209.154,64.709 253.716,164.692l1010.59,2244.79l850.696,-1699.65c47.087,-93.659 143.346,-153 248.175,-153c104.833,-0 201.087,59.341 248.179,153l479.167,958.333l2064.06,-0c755.379,-921.004 719.096,-2297.74 -126.562,-3161.46Z" style="fill:#cbd9e6;fill-opacity:0.4;fill-rule:nonzero;"></path><path d="M7829.88,5000l-1.737,0.867l-1885.24,-0l-383.683,-767.359l-862.846,1725.69c-47.005,93.9 -143.392,153.438 -248.396,153.438c-109.138,-0 -208.579,-64.317 -253.342,-163.855l-987.846,-2192.71l-520.833,1244.79l-1626.91,-0l-0,-0.867l-519.967,-554.688l1777.26,0.001l623.088,-1496.53c42.866,-103.67 144.512,-171.637 256.7,-171.637c109.466,-0 209.154,64.708 253.716,164.696l1010.59,2244.79l850.696,-1699.65c47.087,-93.658 143.346,-153.004 248.175,-153.004c104.833,0 201.087,59.346 248.179,153.004l479.167,958.334l2064.06,-0l-520.833,554.687Z" style="fill:#cbd9e6;fill-rule:nonzero;"></path></svg> 