<svg xmlns="http://www.w3.org/2000/svg" xmlns:xlink="http://www.w3.org/1999/xlink" width="100%" height="100%" version="1.1" viewBox="0 0 250 250" xml:space="preserve" style="fill-rule:evenodd;clip-rule:evenodd;stroke-linejoin:round;stroke-miterlimit:2"><g><path d="M23.667,248.233c-7.95,0 -14.417,-6.466 -14.417,-14.416l-0,-91.921c-0,-7.95 6.467,-14.417 14.417,-14.417c7.95,0 14.416,6.467 14.416,14.417l0,91.925c0,7.946 -6.47,14.412 -14.416,14.412Zm-0,-113.4c-3.896,0 -7.063,3.171 -7.063,7.059l0,91.925c0,3.896 3.167,7.058 7.063,7.058c3.896,0 7.062,-3.167 7.062,-7.058l0,-91.921c0,-3.892 -3.171,-7.063 -7.062,-7.063Z" style="fill:#0098e6;fill-rule:nonzero"/></g><g><path d="M23.667,134.833c-2.03,0 -3.68,-1.65 -3.68,-3.679l0,-81.046c0,-2.029 1.65,-3.675 3.68,-3.675c2.029,0 3.679,1.646 3.679,3.675l-0,81.046c-0.004,2.034 -1.65,3.679 -3.679,3.679Z" style="fill:#0098e6;fill-rule:nonzero"/></g><g><path d="M32.392,56.892c-4.434,-0 -8.313,-1.35 -11.142,-4.175c-8.204,-8.209 -3.979,-25.296 9.629,-38.9c13.604,-13.613 30.692,-17.838 38.9,-9.634c8.209,8.204 3.979,25.296 -9.629,38.9c-8.912,8.917 -19.329,13.809 -27.758,13.809Zm26.233,-49.521c-6.004,-0 -14.658,3.758 -22.542,11.641c-11.233,11.238 -14.091,24.042 -9.633,28.5c4.463,4.463 17.263,1.605 28.5,-9.629c11.233,-11.237 14.092,-24.041 9.629,-28.5c-1.325,-1.333 -3.4,-2.012 -5.954,-2.012Z" style="fill:#0098e6;fill-rule:nonzero"/></g><g><path d="M183.7,250c-12.387,0 -25.863,-30.504 -35.971,-59.908c-9.975,29.054 -23.267,59.15 -35.554,59.15c-22.483,-0 -51.908,-105.575 -57.054,-142.109c-0.842,-5.97 -1.271,-11.012 -1.271,-14.975c-0,-24.212 11.296,-46.679 29.483,-58.633c14.971,-9.85 33.663,-11.4 49.646,-4.237c9.579,4.3 20.85,4.358 30.917,0.175c6.291,-2.613 12.9,-3.938 19.629,-3.938c32.058,0 58.142,30.229 58.142,67.392c-0,17.325 -8.454,55.621 -20.109,91.046c-14.408,43.82 -27.145,66.037 -37.858,66.037Zm-35.979,-75.258c1.6,-0 3.012,1.029 3.5,2.55c15.437,47.95 27.879,65.35 32.479,65.35c4.35,-0 16.163,-16.234 30.871,-60.979c11.437,-34.784 19.737,-72.109 19.737,-88.75c0,-33.105 -22.787,-60.038 -50.787,-60.038c-5.763,0 -11.413,1.133 -16.804,3.375c-11.934,4.967 -25.325,4.871 -36.75,-0.254c-13.709,-6.146 -29.696,-4.817 -42.592,3.667c-16.142,10.612 -26.167,30.725 -26.167,52.491c0,3.625 0.4,8.317 1.196,13.954c3.192,22.655 12.238,57.13 22.509,85.784c14.17,39.546 24.029,49.996 27.262,49.996c4.55,-0 16.838,-17.205 32.046,-64.592c0.487,-1.517 1.9,-2.554 3.5,-2.554Z" style="fill:#0098e6;fill-rule:nonzero"/></g><g><path d="M98.267,99.379c-10.667,0 -19.342,-8.675 -19.342,-19.337c0,-10.663 8.675,-19.338 19.342,-19.338c10.666,0 19.337,8.675 19.337,19.338c0,10.666 -8.671,19.337 -19.337,19.337Zm-0,-31.321c-6.609,0 -11.984,5.379 -11.984,11.984c0,6.608 5.375,11.983 11.984,11.983c6.608,0 11.983,-5.375 11.983,-11.983c0,-6.605 -5.375,-11.984 -11.983,-11.984Z" style="fill:#0098e6;fill-rule:nonzero"/></g></svg>