<svg xmlns="http://www.w3.org/2000/svg" xmlns:xlink="http://www.w3.org/1999/xlink" width="100%" height="100%" version="1.1" viewBox="0 0 2250 2563" xml:space="preserve" style="fill-rule:evenodd;clip-rule:evenodd;stroke-linejoin:round;stroke-miterlimit:2"><g><path d="M878.166,2276.27c58.542,-63.42 195.14,-193.746 406.309,-251.242c147.24,-40.3 303.056,-37.032 448.474,9.408c-32.756,-324.071 -25.09,-385.401 -25.09,-385.401c21.954,-170.051 116.736,-194.792 173.535,-359.964c196.534,-573.572 -43.558,-1072.92 -587.162,-1139.13c-480.183,-58.542 -747.107,259.606 -784.393,588.208c-4.265,36.146 0.527,72.794 13.939,106.63c-65.86,120.22 -217.79,297.588 -230.683,382.613c-8.015,51.225 43.906,68.996 68.647,86.768c24.044,9.408 50.179,2.788 66.208,25.438c11.151,16.726 -4.181,44.603 -7.666,65.163c-0.348,33.801 -34.498,50.178 -31.013,81.54c3.485,31.362 22.65,37.286 40.422,53.664c17.771,16.377 -48.088,50.527 -26.484,81.192c21.605,30.665 54.709,64.117 43.21,106.63c-16.378,65.86 -48.088,134.159 -21.953,185.383c26.135,51.224 62.375,80.495 118.826,93.737c88.161,-0 176.671,1.742 265.53,1.742c15.876,30.421 29.163,62.131 39.725,94.782c17.827,55.964 27.797,114.122 29.619,172.838Z" style="fill:#edf2f7;fill-rule:nonzero;stroke:#fff;stroke-width:4.17px"/></g><g><ellipse cx="963.612" cy="1011.68" rx="18.75" ry="20.012" style="fill:#fff"/></g><g><g><ellipse cx="974.618" cy="1101.19" rx="20.833" ry="22.235" style="fill:#fff"/></g><g><ellipse cx="958.648" cy="1398.26" rx="13.803" ry="14.732" style="fill:#fff"/></g><g><ellipse cx="905.816" cy="1277.96" rx="25" ry="26.682" style="fill:#fff"/></g><g><ellipse cx="875.735" cy="1402.66" rx="13.803" ry="14.732" style="fill:#fff"/></g><g><ellipse cx="993.33" cy="1163.45" rx="20.833" ry="22.235" style="fill:#fff"/></g><g><ellipse cx="930.816" cy="1544.47" rx="41.667" ry="44.47" style="fill:#fff"/></g><g><ellipse cx="866.522" cy="1459.84" rx="13.803" ry="14.732" style="fill:#fff"/></g><g><ellipse cx="774.683" cy="1376.94" rx="13.803" ry="14.732" style="fill:#fff"/></g><g><ellipse cx="783.61" cy="1464.24" rx="13.803" ry="14.732" style="fill:#fff"/></g></g><g><ellipse cx="767.41" cy="1566.47" rx="9.757" ry="10.905" style="fill:none"/></g></svg>