<?xml version="1.0" encoding="UTF-8" standalone="no"?> <svg xmlns="http://www.w3.org/2000/svg" xmlns:xlink="http://www.w3.org/1999/xlink" xmlns:serif="http://www.serif.com/" width="100%" height="100%" viewBox="0 0 540 615" version="1.1" xml:space="preserve" style="fill-rule:evenodd;clip-rule:evenodd;stroke-linejoin:round;stroke-miterlimit:2;"> <g transform="matrix(0.836314,0,0,0.836314,-297.05,-352.817)"> <path d="M607.2,1075.1C624,1056.9 663.2,1019.5 723.8,1003C766.054,991.435 810.769,992.373 852.5,1005.7C843.1,912.7 845.3,895.1 845.3,895.1C851.6,846.3 878.8,839.2 895.1,791.8C951.5,627.2 882.6,483.9 726.6,464.9C588.8,448.1 512.2,539.4 501.5,633.7C500.276,644.073 501.651,654.59 505.5,664.3C486.6,698.8 443,749.7 439.3,774.1C437,788.8 451.9,793.9 459,799C465.9,801.7 473.4,799.8 478,806.3C481.2,811.1 476.8,819.1 475.8,825C475.7,834.7 465.9,839.4 466.9,848.4C467.9,857.4 473.4,859.1 478.5,863.8C483.6,868.5 464.7,878.3 470.9,887.1C477.1,895.9 486.6,905.5 483.3,917.7C478.6,936.6 469.5,956.2 477,970.9C484.5,985.6 494.9,994 511.1,997.8C536.4,997.8 561.8,998.3 587.3,998.3C591.856,1007.03 595.669,1016.13 598.7,1025.5C603.816,1041.56 606.677,1058.25 607.2,1075.1Z" style="fill:rgb(0,152,230);fill-rule:nonzero;"></path> </g> <g transform="matrix(0.606297,0,0,0.755011,154.608,70.065)"> <ellipse cx="131.881" cy="290.368" rx="5.464" ry="4.683" style="fill:white;"></ellipse> </g> <g transform="matrix(0.428571,0,0,0.5,160.442,182.651)"> <g transform="matrix(1.41469,0,0,1.51002,-8.61504,-183.271)"> <ellipse cx="131.881" cy="290.368" rx="5.464" ry="4.683" style="fill:white;"></ellipse> </g> <g transform="matrix(1.41469,0,0,1.51002,-60.045,-223.061)"> <ellipse cx="131.881" cy="290.368" rx="5.464" ry="4.683" style="fill:white;"></ellipse> </g> <g transform="matrix(1.41469,0,0,1.51002,-55.0466,-181.16)"> <ellipse cx="131.881" cy="290.368" rx="5.464" ry="4.683" style="fill:white;"></ellipse> </g> <g transform="matrix(1,0,0,1.11778,18.3474,-61.5395)"> <ellipse cx="131.881" cy="290.368" rx="5.464" ry="4.683" style="fill:white;"></ellipse> </g> <g transform="matrix(1,0,0,1.11778,21.8806,-30.5229)"> <ellipse cx="131.881" cy="290.368" rx="5.464" ry="4.683" style="fill:white;"></ellipse> </g> <g transform="matrix(1.41469,0,0,1.51002,-29.0906,-201.947)"> <ellipse cx="131.881" cy="290.368" rx="5.464" ry="4.683" style="fill:white;"></ellipse> </g> <g transform="matrix(1.41469,0,0,1.51002,-24.0922,-160.047)"> <ellipse cx="131.881" cy="290.368" rx="5.464" ry="4.683" style="fill:white;"></ellipse> </g> <g transform="matrix(1.41469,0,0,1.51002,-96.1583,-216.727)"> <ellipse cx="131.881" cy="290.368" rx="5.464" ry="4.683" style="fill:white;"></ellipse> </g> <g transform="matrix(1.41469,0,0,1.51002,-91.1599,-174.826)"> <ellipse cx="131.881" cy="290.368" rx="5.464" ry="4.683" style="fill:white;"></ellipse> </g> <g transform="matrix(1.41469,0,0,1.51002,-142.59,-214.615)"> <ellipse cx="131.881" cy="290.368" rx="5.464" ry="4.683" style="fill:white;"></ellipse> </g> <g transform="matrix(1.41469,0,0,1.51002,-137.591,-172.715)"> <ellipse cx="131.881" cy="290.368" rx="5.464" ry="4.683" style="fill:white;"></ellipse> </g> <g transform="matrix(1.41469,0,0,1.51002,-65.204,-195.613)"> <ellipse cx="131.881" cy="290.368" rx="5.464" ry="4.683" style="fill:white;"></ellipse> </g> <g transform="matrix(1.41469,0,0,1.51002,-60.2056,-153.713)"> <ellipse cx="131.881" cy="290.368" rx="5.464" ry="4.683" style="fill:white;"></ellipse> </g> <g transform="matrix(1.41469,0,0,1.51002,-111.636,-193.502)"> <ellipse cx="131.881" cy="290.368" rx="5.464" ry="4.683" style="fill:white;"></ellipse> </g> <g transform="matrix(1.41469,0,0,1.51002,-106.637,-151.601)"> <ellipse cx="131.881" cy="290.368" rx="5.464" ry="4.683" style="fill:white;"></ellipse> </g> <g transform="matrix(1.41469,0,0,1.51002,-29.0906,-174.5)"> <ellipse cx="131.881" cy="290.368" rx="5.464" ry="4.683" style="fill:white;"></ellipse> </g> <g transform="matrix(1.41469,0,0,1.51002,-24.0922,-132.599)"> <ellipse cx="131.881" cy="290.368" rx="5.464" ry="4.683" style="fill:white;"></ellipse> </g> <g transform="matrix(1.41469,0,0,1.51002,-75.5221,-172.389)"> <ellipse cx="131.881" cy="290.368" rx="5.464" ry="4.683" style="fill:white;"></ellipse> </g> <g transform="matrix(1.41469,0,0,1.51002,-70.5237,-130.488)"> <ellipse cx="131.881" cy="290.368" rx="5.464" ry="4.683" style="fill:white;"></ellipse> </g> <g transform="matrix(1.41469,0,0,1.51002,1.86373,-153.387)"> <ellipse cx="131.881" cy="290.368" rx="5.464" ry="4.683" style="fill:white;"></ellipse> </g> <g transform="matrix(1.41469,0,0,1.51002,6.86213,-111.486)"> <ellipse cx="131.881" cy="290.368" rx="5.464" ry="4.683" style="fill:white;"></ellipse> </g> <g transform="matrix(1.41469,0,0,1.51002,-44.5678,-151.275)"> <ellipse cx="131.881" cy="290.368" rx="5.464" ry="4.683" style="fill:white;"></ellipse> </g> <g transform="matrix(1.41469,0,0,1.51002,-39.5694,-109.375)"> <ellipse cx="131.881" cy="290.368" rx="5.464" ry="4.683" style="fill:white;"></ellipse> </g> <g transform="matrix(1.41469,0,0,1.51002,-111.636,-166.055)"> <ellipse cx="131.881" cy="290.368" rx="5.464" ry="4.683" style="fill:white;"></ellipse> </g> <g transform="matrix(1.41469,0,0,1.51002,-106.637,-124.154)"> <ellipse cx="131.881" cy="290.368" rx="5.464" ry="4.683" style="fill:white;"></ellipse> </g> <g transform="matrix(1.41469,0,0,1.51002,-158.067,-163.943)"> <ellipse cx="131.881" cy="290.368" rx="5.464" ry="4.683" style="fill:white;"></ellipse> </g> <g transform="matrix(1.41469,0,0,1.51002,-153.069,-122.043)"> <ellipse cx="131.881" cy="290.368" rx="5.464" ry="4.683" style="fill:white;"></ellipse> </g> <g transform="matrix(1.41469,0,0,1.51002,-80.6812,-144.941)"> <ellipse cx="131.881" cy="290.368" rx="5.464" ry="4.683" style="fill:white;"></ellipse> </g> <g transform="matrix(1.41469,0,0,1.51002,-75.6828,-103.041)"> <ellipse cx="131.881" cy="290.368" rx="5.464" ry="4.683" style="fill:white;"></ellipse> </g> <g transform="matrix(1.41469,0,0,1.51002,-127.113,-142.83)"> <ellipse cx="131.881" cy="290.368" rx="5.464" ry="4.683" style="fill:white;"></ellipse> </g> <g transform="matrix(1.41469,0,0,1.51002,-122.114,-100.929)"> <ellipse cx="131.881" cy="290.368" rx="5.464" ry="4.683" style="fill:white;"></ellipse> </g> </g> <g transform="matrix(0.428571,0,0,0.558891,127.658,213.669)"> <ellipse cx="131.881" cy="290.368" rx="5.464" ry="4.683" style="fill:none;"></ellipse> </g> </svg> 