<svg xmlns="http://www.w3.org/2000/svg" xmlns:xlink="http://www.w3.org/1999/xlink" width="100%" height="100%" version="1.1" viewBox="0 0 2400 2134" xml:space="preserve" style="fill-rule:evenodd;clip-rule:evenodd;stroke-linejoin:round;stroke-miterlimit:2"><path d="M1133.33,1833.04c0.002,0.374 0.002,0.748 0.002,1.122c0,164.141 -135.067,299.208 -299.208,299.208c-128.773,0 -243.76,-83.131 -284.127,-205.414c-17.995,3.383 -36.266,5.085 -54.576,5.085c-162.084,-0 -295.458,-133.375 -295.458,-295.459c-0,-1.5 0.011,-3 0.034,-4.501c0.049,-19.729 2.031,-39.407 5.917,-58.75c-124.266,-51.404 -205.775,-173.188 -205.917,-307.666c0,-123.584 68.083,-230.25 168.083,-287.792c-22.594,-45.204 -34.485,-95.006 -34.75,-145.542c0.04,-134.959 82.04,-257.15 206.917,-308.333c-4.574,-19.674 -6.883,-39.806 -6.883,-60.005c0,-145.375 119.625,-265 265,-265c0.544,-0 1.089,0.002 1.633,0.005c3.125,-0 6.042,0.833 9.167,0.917c29.718,-117.818 136.534,-201.036 258.042,-201.036c145.992,-0 266.125,120.133 266.125,266.125c0,0.22 -0,0.44 -0.001,0.661l0,1566.38Zm1266.67,-566.375c0,-123.584 -68.083,-230.25 -168.083,-287.792c22.594,-45.204 34.485,-95.006 34.75,-145.542c-0.04,-134.959 -82.04,-257.15 -206.917,-308.333c4.574,-19.674 6.883,-39.806 6.883,-60.005c-0,-145.375 -119.625,-265 -265,-265c-0.544,-0 -1.089,0.002 -1.633,0.005c-3.125,0 -6.042,0.833 -9.167,0.917c-29.718,-117.818 -136.534,-201.036 -258.042,-201.036c-145.992,-0 -266.125,120.133 -266.125,266.125c-0,0.22 0,0.44 0.001,0.661l-0,1566.25c-0.002,0.374 -0.002,0.748 -0.002,1.122c-0,164.141 135.067,299.208 299.208,299.208c128.773,0 243.76,-83.131 284.127,-205.414c16.924,2.946 34.071,4.427 51.25,4.427c163.958,0 298.875,-134.917 298.875,-298.875c0,-19.873 -1.982,-39.697 -5.917,-59.177c124.176,-51.425 205.62,-173.139 205.792,-307.541Z" style="fill:#0098e6;fill-opacity:.4;fill-rule:nonzero"/><path d="M1266.67,1833.04c-0,18.286 -15.048,33.333 -33.334,33.333l-66.666,0c-18.286,0 -33.334,-15.047 -33.334,-33.333l0,-1533.04c0,-18.286 15.048,-33.333 33.334,-33.333l66.666,-0c18.286,-0 33.334,15.047 33.334,33.333l-0,1533.04Z" style="fill:#0098e6;fill-rule:nonzero"/></svg>