<?xml version="1.0" encoding="UTF-8" standalone="no"?> <svg xmlns="http://www.w3.org/2000/svg" xmlns:xlink="http://www.w3.org/1999/xlink" xmlns:serif="http://www.serif.com/" width="100%" height="100%" viewBox="0 0 10000 8892" version="1.1" xml:space="preserve" style="fill-rule:evenodd;clip-rule:evenodd;stroke-linejoin:round;stroke-miterlimit:2;"><path d="M4722.21,7637.67c0.009,1.558 0.009,3.116 0.009,4.675c-0,683.921 -562.78,1246.7 -1246.7,1246.7c-536.555,-0 -1015.67,-346.38 -1183.86,-855.892c-74.979,14.096 -151.108,21.187 -227.4,21.187c-675.35,0 -1231.08,-555.729 -1231.08,-1231.08c0,-6.25 0.046,-12.5 0.142,-18.754c0.204,-82.204 8.462,-164.196 24.654,-244.792c-517.775,-214.183 -857.396,-721.616 -857.988,-1281.94c0,-514.934 283.68,-959.375 700.346,-1199.13c-94.141,-188.35 -143.687,-395.858 -144.791,-606.425c0.166,-562.329 341.833,-1071.46 862.154,-1284.72c-19.059,-81.975 -28.679,-165.859 -28.679,-250.021c-0,-605.729 498.437,-1104.17 1104.17,-1104.17c2.267,0 4.538,0.008 6.804,0.021c13.021,-0 25.175,3.471 38.196,3.821c123.825,-490.909 568.892,-837.65 1075.17,-837.65c608.3,-0 1108.85,500.554 1108.85,1108.85c0,0.917 0,1.833 -0.004,2.754l0,6526.58l0,-0.021Zm5277.79,-2359.9c0,-514.934 -283.679,-959.375 -700.346,-1199.13c94.142,-188.349 143.688,-395.858 144.792,-606.425c-0.167,-562.329 -341.833,-1071.46 -862.154,-1284.72c19.058,-81.975 28.679,-165.859 28.679,-250.021c-0,-605.729 -498.438,-1104.17 -1104.17,-1104.17c-2.267,0 -4.537,0.009 -6.804,0.021c-13.021,0 -25.175,3.471 -38.196,3.821c-123.825,-490.909 -568.891,-837.65 -1075.17,-837.65c-608.3,-0 -1108.85,500.554 -1108.85,1108.85c0,0.917 0,1.833 0.004,2.754l0,6526.04c-0.008,1.558 -0.008,3.117 -0.008,4.675c-0,683.921 562.779,1246.7 1246.7,1246.7c536.554,-0 1015.67,-346.379 1183.86,-855.892c70.517,12.275 141.963,18.446 213.542,18.446c683.158,-0 1245.31,-562.154 1245.31,-1245.31c-0.001,-82.804 -8.259,-165.404 -24.655,-246.57c517.4,-214.271 856.75,-721.413 857.467,-1281.42Z" style="fill:#cbd9e6;fill-opacity:0.4;fill-rule:nonzero;stroke:#fff;stroke-width:4.17px;"></path><path d="M5277.79,7637.67c-0,76.191 -62.7,138.887 -138.892,138.887l-277.775,0c-76.192,0 -138.892,-62.696 -138.892,-138.887l0,-6387.67c0,-76.192 62.7,-138.887 138.892,-138.887l277.775,-0c76.192,-0 138.892,62.695 138.892,138.887l-0,6387.67Z" style="fill:#cbd9e6;fill-rule:nonzero;stroke:#fff;stroke-width:4.17px;"></path></svg> 