<?xml version="1.0" encoding="UTF-8" standalone="no"?> <svg xmlns="http://www.w3.org/2000/svg" xmlns:xlink="http://www.w3.org/1999/xlink" xmlns:serif="http://www.serif.com/" width="100%" height="100%" viewBox="0 0 17363 17363" version="1.1" xml:space="preserve" style="fill-rule:evenodd;clip-rule:evenodd;stroke-linejoin:round;stroke-miterlimit:2;"><g><path d="M9476.33,191.529c2998.26,38.196 6008.67,2067.71 6225.71,5319.46c24.304,348.958 10.416,696.179 -39.934,1038.19c156.25,873.267 -788.191,3126.74 -1008.68,3265.62c-220.487,142.363 -251.737,741.321 -251.737,741.321l-0,6645.83l-4118.06,0l32.988,-5329.88c0,0 -206.6,-2484.38 1347.22,-2880.21c970.487,-381.942 1012.15,-730.9 1012.15,-730.9c0,0 243.054,-876.738 -602.433,-916.667c-541.667,53.817 -991.317,822.917 -2439.23,1008.68c-1194.44,10.417 -1657.99,-699.654 -1996.53,-815.97c-338.542,-114.584 -1553.82,-774.309 -3034.72,125c-1366.32,831.596 -1765.62,1762.15 -2104.17,3092.01l-6.946,-24.304c-0,0 -1086.8,-17.362 -592.013,-1225.7c930.554,-1776.04 1201.39,-3012.15 1190.97,-3326.39l24.304,-3.475c-27.775,-284.721 -31.25,-571.18 -13.887,-862.846c225.696,-3401.04 3373.26,-5156.25 6375,-5119.79l-0.013,0Zm1366.32,6560.75c-32.987,-364.583 131.942,-798.608 432.292,-1140.62c142.358,-159.721 310.762,-303.816 503.471,-409.721c196.179,-107.637 416.666,-182.291 652.779,-203.125c439.233,-39.929 927.083,98.959 1414.93,524.305l24.304,24.308c239.584,295.137 338.542,741.317 355.904,1204.86c27.78,710.071 -125,1482.64 -210.07,1715.28c-13.888,39.93 -31.25,104.167 -46.875,189.238c-149.305,663.192 -494.792,2222.22 -2517.36,2256.94c-107.641,3.475 -217.016,3.475 -220.487,-213.542c-3.471,-217.013 104.166,-217.013 213.541,-220.483c1685.76,-31.25 1979.17,-1354.17 2104.17,-1918.4c24.304,-104.166 39.929,-185.762 60.763,-239.583c74.654,-206.596 210.07,-899.304 185.766,-1557.29c-13.891,-375 -81.6,-723.958 -246.529,-934.029c-381.946,-331.596 -755.208,-439.233 -1079.86,-409.721c-171.875,17.363 -335.067,71.18 -480.9,152.78c-149.309,85.066 -281.25,192.708 -388.892,317.708c-223.958,256.942 -352.429,567.708 -328.125,819.442c10.417,107.641 20.833,213.541 -192.708,232.641c-218.75,22.567 -225.692,-81.6 -236.109,-190.975Zm-2057.29,10453.1l-1861.11,0c0,0 -31.25,-420.137 0,-1208.33c31.25,-788.192 -213.542,-703.125 -527.779,-694.442c-317.708,6.942 -1102.43,32.984 -1894.1,24.304c-852.429,-213.541 -734.375,-859.375 -734.375,-859.375c24.304,-399.304 10.417,-638.887 46.875,-869.791c-210.071,-67.709 -562.5,-142.363 -527.779,-513.888c36.458,-430.558 894.1,-645.833 368.058,-673.612c-934.029,-182.292 -923.612,-524.304 -883.683,-656.25l829.862,-1614.58c0,0 1211.81,-1418.4 2892.36,-503.47c1682.29,913.191 2039.93,2178.82 2039.93,2178.82c0,0 145.833,250 185.763,1557.29c41.666,1133.68 62.5,3284.72 65.975,3833.33Z" style="fill:#cbd9e6;fill-rule:nonzero;stroke:#fff;stroke-width:4.17px;"></path></g></svg> 