<svg xmlns="http://www.w3.org/2000/svg" xmlns:xlink="http://www.w3.org/1999/xlink" width="100%" height="100%" version="1.1" viewBox="0 0 4167 4167" xml:space="preserve" style="fill-rule:evenodd;clip-rule:evenodd;stroke-linejoin:round;stroke-miterlimit:2"><g><path d="M2274.32,45.967c719.583,9.167 1442.08,496.25 1494.17,1276.67c5.833,83.75 2.5,167.083 -9.584,249.166c37.5,209.584 -189.166,750.417 -242.083,783.75c-52.917,34.167 -60.417,177.917 -60.417,177.917l0,1595l-988.333,-0l7.917,-1279.17c-0,0 -49.584,-596.25 323.333,-691.25c232.917,-91.666 242.917,-175.416 242.917,-175.416c-0,-0 58.333,-210.417 -144.584,-220c-130,12.916 -237.916,197.5 -585.416,242.083c-286.667,2.5 -397.917,-167.917 -479.167,-195.833c-81.25,-27.5 -372.917,-185.834 -728.333,30c-327.917,199.583 -423.75,422.916 -505,742.083l-1.667,-5.833c-0,-0 -260.833,-4.167 -142.083,-294.167c223.333,-426.25 288.333,-722.917 285.833,-798.333l5.833,-0.834c-6.666,-68.333 -7.5,-137.083 -3.333,-207.083c54.167,-816.25 809.583,-1237.5 1530,-1228.75Zm327.917,1574.58c-7.917,-87.5 31.666,-191.666 103.75,-273.75c34.166,-38.333 74.583,-72.916 120.833,-98.333c47.083,-25.833 100,-43.75 156.667,-48.75c105.416,-9.583 222.5,23.75 339.583,125.833l5.833,5.834c57.5,70.833 81.25,177.916 85.417,289.166c6.667,170.417 -30,355.834 -50.417,411.667c-3.333,9.583 -7.5,25 -11.25,45.417c-35.833,159.166 -118.75,533.333 -604.166,541.666c-25.834,0.834 -52.084,0.834 -52.917,-51.25c-0.833,-52.083 25,-52.083 51.25,-52.916c404.583,-7.5 475,-325 505,-460.417c5.833,-25 9.583,-44.583 14.583,-57.5c17.917,-49.583 50.417,-215.833 44.584,-373.75c-3.334,-90 -19.584,-173.75 -59.167,-224.167c-91.667,-79.583 -181.25,-105.416 -259.167,-98.333c-41.25,4.167 -80.416,17.083 -115.416,36.667c-35.834,20.416 -67.5,46.25 -93.334,76.25c-53.75,61.666 -84.583,136.25 -78.75,196.666c2.5,25.834 5,51.25 -46.25,55.834c-52.5,5.416 -54.166,-19.584 -56.666,-45.834Zm-493.75,2508.75l-446.667,0c-0,0 -7.5,-100.833 -0,-290c7.5,-189.166 -51.25,-168.75 -126.667,-166.666c-76.25,1.666 -264.583,7.916 -454.583,5.833c-204.583,-51.25 -176.25,-206.25 -176.25,-206.25c5.833,-95.833 2.5,-153.333 11.25,-208.75c-50.417,-16.25 -135,-34.167 -126.667,-123.333c8.75,-103.334 214.584,-155 88.334,-161.667c-224.167,-43.75 -221.667,-125.833 -212.084,-157.5l199.167,-387.5c-0,-0 290.833,-340.417 694.167,-120.833c403.75,219.166 489.583,522.916 489.583,522.916c-0,0 35,60 44.583,373.75c10,272.084 15,788.334 15.834,920Z" style="fill:#0098e6;fill-rule:nonzero"/></g></svg>