<svg xmlns="http://www.w3.org/2000/svg" xmlns:xlink="http://www.w3.org/1999/xlink" width="100%" height="100%" version="1.1" viewBox="0 0 2134 2134" xml:space="preserve" style="fill-rule:evenodd;clip-rule:evenodd;stroke-linejoin:round;stroke-miterlimit:2"><path d="M785.484,1593.22c-0.912,-0.234 -1.585,-0.613 -2.328,-1.313c-1.04,-0.978 -1.491,-2.002 -1.492,-3.386c-0.001,-1.762 0.941,-3.292 2.574,-4.185c1.645,-0.899 2.514,-1.558 2.834,-2.15c0.087,-0.16 1.064,-2.725 2.172,-5.7c1.889,-5.073 2.014,-5.441 2.014,-5.914c-0,-0.647 -0.227,-1.23 -0.645,-1.658c-0.174,-0.178 -0.733,-0.59 -1.243,-0.917c-0.51,-0.326 -1.242,-0.824 -1.625,-1.106c-0.384,-0.283 -0.739,-0.539 -0.79,-0.569c-0.1,-0.058 -5.483,4.273 -5.702,4.588c-0.1,0.144 -0.11,0.261 -0.055,0.629c0.116,0.775 0.066,1.71 -0.121,2.237c-0.494,1.396 -1.749,2.554 -3.204,2.956c-0.738,0.204 -2.067,0.171 -2.86,-0.071c-1.407,-0.428 -2.386,-1.366 -2.95,-2.824c-0.183,-0.473 -0.207,-0.639 -0.207,-1.445c-0,-0.765 0.028,-0.988 0.18,-1.402c0.345,-0.942 1.173,-1.891 2.1,-2.404c0.836,-0.464 1.171,-0.529 2.58,-0.505c1.08,0.018 1.26,0.005 1.442,-0.109c0.114,-0.072 1.257,-1.29 2.54,-2.706c2.247,-2.48 2.33,-2.583 2.223,-2.742c-0.061,-0.091 -0.374,-0.488 -0.695,-0.883c-0.322,-0.394 -0.77,-0.979 -0.997,-1.299c-0.709,-1.004 -1.182,-1.39 -1.962,-1.604c-0.856,-0.235 -0.908,-0.222 -7.026,1.781c-3.097,1.013 -5.784,1.911 -5.972,1.993c-0.739,0.327 -1.693,1.384 -2.407,2.669c-0.385,0.693 -1.265,1.504 -2.035,1.876c-0.907,0.439 -1.449,0.556 -2.546,0.552c-0.746,-0.002 -1.022,-0.034 -1.42,-0.163c-0.727,-0.235 -1.219,-0.487 -1.772,-0.906c-1.012,-0.766 -1.558,-1.628 -1.826,-2.881c-0.431,-2.008 0.679,-4.169 2.626,-5.115c0.925,-0.45 1.501,-0.583 2.507,-0.579c0.665,0.002 0.957,0.042 1.621,0.222c1.361,0.368 2.338,0.458 3.162,0.291c0.602,-0.122 11.206,-4.936 11.725,-5.323c0.896,-0.667 1.097,-1.535 0.748,-3.226c-0.108,-0.52 -0.239,-1.291 -0.291,-1.711c-0.053,-0.421 -0.124,-0.795 -0.158,-0.832c-0.034,-0.037 -1.683,-0.175 -3.664,-0.305c-4.12,-0.272 -3.808,-0.301 -4.381,0.402c-1.485,1.822 -3.895,2.333 -6.049,1.283c-0.808,-0.394 -1.269,-0.79 -1.782,-1.532c-0.856,-1.236 -0.981,-2.527 -0.384,-3.951c0.46,-1.097 1.202,-1.893 2.192,-2.351c0.805,-0.372 1.394,-0.509 2.199,-0.511c0.822,-0.002 1.355,0.103 2.051,0.404c0.558,0.241 0.881,0.505 1.628,1.326c0.671,0.736 0.362,0.71 4.537,0.389c1.994,-0.154 3.631,-0.282 3.637,-0.286c0.007,-0.004 0.036,-0.244 0.066,-0.535c0.052,-0.502 0.286,-1.893 0.53,-3.144c0.279,-1.428 -0.318,-2.408 -1.903,-3.125c-0.39,-0.176 -2.828,-1.279 -5.416,-2.449c-2.588,-1.171 -4.845,-2.179 -5.014,-2.239c-0.529,-0.19 -1.925,-0.144 -2.855,0.092c-1.481,0.377 -1.734,0.415 -2.507,0.372c-0.878,-0.049 -1.38,-0.181 -2.187,-0.575c-1.774,-0.867 -2.882,-2.742 -2.718,-4.599c0.064,-0.723 0.417,-1.745 0.782,-2.265c0.307,-0.436 1.19,-1.251 1.659,-1.53c0.172,-0.102 0.579,-0.285 0.906,-0.406c0.511,-0.19 0.728,-0.226 1.558,-0.261c1.172,-0.049 1.649,0.045 2.677,0.53c0.916,0.432 1.737,1.21 2.26,2.141c0.659,1.173 1.447,2.024 2.214,2.393c0.178,0.086 2.886,0.995 6.018,2.021c5.242,1.717 5.736,1.866 6.233,1.872c1.153,0.016 1.783,-0.38 2.778,-1.746c0.381,-0.524 0.895,-1.195 1.141,-1.49c0.245,-0.295 0.447,-0.563 0.448,-0.596c0.001,-0.032 -1.028,-1.17 -2.286,-2.529c-2.534,-2.734 -2.448,-2.667 -3.262,-2.541c-1.467,0.227 -2.94,-0.182 -3.987,-1.107c-0.64,-0.565 -1.017,-1.11 -1.3,-1.879c-0.409,-1.111 -0.294,-2.396 0.316,-3.535c0.281,-0.524 0.529,-0.807 1.017,-1.161c0.578,-0.419 1.168,-0.718 1.818,-0.922c0.72,-0.226 2.094,-0.245 2.739,-0.038c1.555,0.5 2.677,1.522 3.164,2.885c0.155,0.433 0.165,0.559 0.116,1.471c-0.03,0.549 -0.031,1.098 -0.002,1.221c0.042,0.182 0.558,0.628 2.752,2.378l2.699,2.154l0.283,-0.214c0.83,-0.626 1.686,-1.222 2.444,-1.701c0.976,-0.617 1.409,-1.008 1.666,-1.501c0.151,-0.291 0.182,-0.464 0.183,-1.041l0.002,-0.691l-1.954,-5.243c-1.076,-2.883 -2.04,-5.413 -2.145,-5.621c-0.289,-0.577 -1.121,-1.26 -2.423,-1.988c-0.64,-0.359 -1.271,-0.774 -1.499,-0.988c-1.903,-1.781 -2.073,-4.537 -0.401,-6.519c0.443,-0.525 0.876,-0.855 1.595,-1.219c0.842,-0.426 1.405,-0.548 2.507,-0.544c0.988,0.003 1.445,0.104 2.335,0.515c0.552,0.255 1.427,0.964 1.834,1.485c0.632,0.81 1.026,2.14 0.935,3.154c-0.025,0.281 -0.15,0.856 -0.276,1.276c-0.42,1.39 -0.495,2.296 -0.252,3.034c0.078,0.233 1.319,2.718 2.758,5.52c2.881,5.607 2.848,5.556 3.759,5.962c0.635,0.284 1.222,0.317 2.217,0.127c0.447,-0.086 1.33,-0.221 1.962,-0.3c0.632,-0.08 1.164,-0.16 1.182,-0.177c0.019,-0.018 0.14,-1.457 0.27,-3.198l0.237,-3.166l-0.2,-0.247c-0.11,-0.136 -0.396,-0.375 -0.637,-0.531c-0.791,-0.515 -1.472,-1.547 -1.707,-2.589c-0.233,-1.031 0.02,-2.348 0.617,-3.221c0.339,-0.494 1.213,-1.274 1.745,-1.558c0.234,-0.124 0.681,-0.298 0.994,-0.387c0.489,-0.14 0.683,-0.157 1.388,-0.122c1.318,0.065 2.344,0.479 3.336,1.346c0.363,0.317 0.535,0.547 0.798,1.066c0.408,0.806 0.532,1.283 0.532,2.045c0,0.735 -0.124,1.241 -0.472,1.917c-0.217,0.422 -0.387,0.628 -0.817,0.983c-0.79,0.654 -1.131,0.989 -1.212,1.191c-0.061,0.151 0.199,3.795 0.432,6.039l0.046,0.446l0.593,0.05c0.838,0.07 2.076,0.241 3.023,0.418c0.984,0.183 1.585,0.149 2.197,-0.124c0.912,-0.407 0.878,-0.354 3.801,-6.041c3.013,-5.861 2.976,-5.769 2.815,-6.966c-0.05,-0.374 -0.205,-1.04 -0.344,-1.48c-0.226,-0.716 -0.253,-0.895 -0.251,-1.675c0.003,-0.793 0.026,-0.937 0.252,-1.555c0.302,-0.824 0.641,-1.324 1.275,-1.877c0.666,-0.583 1.242,-0.916 1.992,-1.152c0.546,-0.173 0.78,-0.205 1.532,-0.211c0.975,-0.008 1.475,0.08 2.209,0.391c1.347,0.57 2.3,1.545 2.777,2.838c0.394,1.069 0.379,2.182 -0.043,3.273c-0.407,1.054 -1.184,1.917 -2.259,2.51c-1.658,0.914 -2.413,1.484 -2.795,2.108c-0.102,0.165 -1.096,2.742 -2.209,5.726c-1.91,5.116 -2.025,5.453 -2.025,5.934c0.001,0.616 0.214,1.19 0.603,1.618c0.148,0.163 0.642,0.535 1.099,0.826c0.456,0.292 1.258,0.838 1.78,1.214l0.951,0.684l0.435,-0.351c3.142,-2.526 4.544,-3.707 4.632,-3.901c0.08,-0.175 0.084,-0.323 0.019,-0.673c-0.42,-2.276 1.06,-4.474 3.416,-5.076c0.448,-0.114 0.719,-0.134 1.439,-0.106c1.394,0.056 2.333,0.425 3.136,1.234c1.425,1.436 1.808,3.512 0.948,5.136c-0.497,0.938 -1.515,1.827 -2.536,2.216c-0.39,0.148 -0.56,0.163 -1.826,0.164c-1.125,0.001 -1.424,0.022 -1.536,0.11c-0.252,0.196 -4.369,4.737 -4.344,4.791c0.014,0.029 0.302,0.39 0.642,0.804c0.339,0.413 0.895,1.132 1.234,1.598c0.919,1.262 1.558,1.648 2.7,1.634c0.498,-0.006 0.988,-0.153 6.249,-1.875c3.14,-1.027 5.865,-1.951 6.056,-2.054c0.191,-0.102 0.487,-0.293 0.658,-0.423c0.365,-0.277 1.186,-1.338 1.519,-1.963c0.307,-0.576 0.962,-1.338 1.425,-1.657c0.555,-0.382 1.382,-0.749 2.011,-0.893c0.744,-0.17 2.161,-0.12 2.817,0.1c0.829,0.278 1.385,0.613 2.07,1.248c0.528,0.49 0.724,0.733 0.941,1.165c0.39,0.777 0.538,1.376 0.542,2.185c0.01,2.186 -1.49,4.059 -3.767,4.705c-0.332,0.094 -0.724,0.132 -1.389,0.133c-0.816,0.001 -1.026,-0.026 -1.774,-0.231c-1.374,-0.377 -2.473,-0.452 -3.279,-0.221c-0.531,0.151 -11.078,4.957 -11.43,5.208c-0.589,0.419 -0.837,0.824 -0.988,1.608c-0.07,0.367 -0.051,0.571 0.15,1.579c0.127,0.637 0.29,1.627 0.361,2.2c0.117,0.949 0.143,1.044 0.29,1.071c0.089,0.017 1.594,0.121 3.345,0.233c3.129,0.198 3.189,0.199 3.452,0.066c0.148,-0.075 0.377,-0.296 0.509,-0.491c0.512,-0.752 1.586,-1.44 2.653,-1.699c0.563,-0.136 1.523,-0.152 2.193,-0.037c0.95,0.164 2.11,0.847 2.712,1.599c0.791,0.986 1.038,1.713 0.977,2.876c-0.086,1.67 -1.077,3.155 -2.548,3.821c-0.908,0.411 -1.207,0.473 -2.254,0.47c-0.967,-0.003 -1.248,-0.062 -2.087,-0.433c-0.37,-0.164 -0.645,-0.401 -1.571,-1.352c-0.22,-0.226 -0.503,-0.451 -0.628,-0.5c-0.186,-0.073 -0.797,-0.048 -3.371,0.14c-1.729,0.126 -3.251,0.245 -3.383,0.265l-0.239,0.035l-0.094,0.746c-0.052,0.409 -0.198,1.253 -0.324,1.873c-0.195,0.961 -0.218,1.19 -0.154,1.541c0.192,1.046 0.683,1.586 1.969,2.168c8.46,3.827 10.397,4.685 10.724,4.751c0.65,0.132 1.743,0.033 2.937,-0.266c1.761,-0.442 2.931,-0.367 4.229,0.269c0.758,0.372 1.178,0.694 1.685,1.294c1.135,1.344 1.409,3.065 0.758,4.751c-0.516,1.335 -1.694,2.363 -3.315,2.893c-0.406,0.133 -0.678,0.165 -1.427,0.17c-1.103,0.007 -1.628,-0.106 -2.536,-0.546c-0.762,-0.37 -1.65,-1.178 -2.055,-1.87c-0.83,-1.419 -1.611,-2.297 -2.359,-2.649c-0.209,-0.099 -2.914,-1.011 -6.011,-2.028l-5.632,-1.849l-0.655,-0c-1.122,-0 -1.762,0.355 -2.492,1.383c-0.576,0.811 -1.498,1.977 -1.995,2.522c-0.205,0.226 -0.373,0.433 -0.373,0.461c-0,0.027 1.029,1.161 2.288,2.519c2.568,2.77 2.352,2.613 3.398,2.487c0.622,-0.074 1.35,-0.027 1.951,0.127c0.615,0.158 1.488,0.638 1.954,1.075c0.958,0.897 1.365,1.758 1.422,3.006c0.04,0.877 -0.071,1.395 -0.477,2.221c-0.307,0.625 -0.542,0.892 -1.193,1.357c-1.005,0.719 -1.976,1.029 -3.21,1.026c-0.663,-0.001 -0.86,-0.032 -1.397,-0.219c-1.426,-0.495 -2.453,-1.439 -2.948,-2.709c-0.175,-0.449 -0.182,-0.533 -0.135,-1.543c0.04,-0.839 0.028,-1.121 -0.058,-1.314c-0.14,-0.315 -5.402,-4.537 -5.55,-4.452c-0.053,0.031 -0.391,0.266 -0.751,0.522c-0.361,0.257 -0.986,0.672 -1.39,0.924c-0.8,0.499 -1.393,1.043 -1.569,1.442c-0.221,0.498 -0.3,1.047 -0.209,1.448c0.172,0.753 4.084,11.124 4.316,11.439c0.429,0.583 1.1,1.081 2.357,1.748c1.733,0.921 2.667,2.17 2.897,3.874c0.317,2.355 -1.477,4.721 -3.978,5.246c-0.464,0.098 -0.802,0.117 -1.493,0.085c-0.778,-0.036 -0.979,-0.074 -1.566,-0.294c-0.819,-0.307 -1.261,-0.606 -2.013,-1.36c-0.452,-0.453 -0.629,-0.698 -0.822,-1.135c-0.545,-1.237 -0.597,-2.379 -0.167,-3.682c0.391,-1.185 0.482,-2.123 0.277,-2.868c-0.065,-0.238 -1.315,-2.76 -2.777,-5.603c-2.535,-4.93 -2.678,-5.187 -3.063,-5.528c-0.644,-0.57 -1.491,-0.831 -2.274,-0.702c-0.203,0.034 -0.768,0.128 -1.255,0.209c-0.488,0.082 -1.372,0.201 -1.963,0.265c-0.592,0.064 -1.086,0.126 -1.099,0.138c-0.026,0.024 -0.477,5.923 -0.498,6.502c-0.016,0.455 0.11,0.629 0.823,1.136c1.838,1.305 2.32,3.942 1.062,5.799c-0.573,0.845 -1.557,1.576 -2.568,1.907c-0.739,0.242 -1.962,0.228 -2.816,-0.032c-0.755,-0.23 -1.449,-0.611 -2.052,-1.126c-0.354,-0.302 -0.532,-0.537 -0.804,-1.056c-0.739,-1.414 -0.76,-2.702 -0.065,-4.032c0.27,-0.518 0.481,-0.737 1.405,-1.465c0.751,-0.591 0.728,-0.345 0.39,-4.236c-0.162,-1.863 -0.296,-3.407 -0.298,-3.432c-0.002,-0.025 -0.342,-0.085 -0.756,-0.133c-0.413,-0.049 -1.306,-0.183 -1.982,-0.3c-1.398,-0.24 -1.831,-0.22 -2.561,0.117c-0.813,0.375 -0.884,0.49 -3.741,6.041c-1.45,2.816 -2.677,5.293 -2.744,5.534c-0.16,0.586 -0.094,1.531 0.174,2.476c0.391,1.376 0.437,1.645 0.395,2.294c-0.049,0.765 -0.405,1.854 -0.775,2.37c-0.603,0.841 -1.734,1.651 -2.804,2.008c-0.678,0.225 -2.186,0.259 -2.941,0.066l0,-0Z" style="fill:#0098e6;fill-rule:nonzero"/><path d="M927.151,1612.1c-0.912,-0.249 -1.585,-0.653 -2.329,-1.399c-1.039,-1.043 -1.49,-2.134 -1.491,-3.608c-0.001,-1.877 0.94,-3.509 2.573,-4.459c1.646,-0.958 2.515,-1.661 2.835,-2.292c0.086,-0.171 1.064,-2.904 2.171,-6.074c1.889,-5.405 2.015,-5.797 2.015,-6.301c-0,-0.69 -0.227,-1.311 -0.645,-1.768c-0.174,-0.189 -0.733,-0.628 -1.244,-0.976c-0.51,-0.347 -1.241,-0.878 -1.624,-1.179c-0.384,-0.302 -0.739,-0.574 -0.79,-0.606c-0.101,-0.062 -5.484,4.553 -5.702,4.889c-0.1,0.153 -0.11,0.277 -0.055,0.67c0.116,0.826 0.066,1.822 -0.121,2.383c-0.494,1.488 -1.75,2.722 -3.204,3.15c-0.739,0.218 -2.067,0.183 -2.861,-0.075c-1.406,-0.456 -2.386,-1.455 -2.95,-3.01c-0.183,-0.503 -0.206,-0.681 -0.207,-1.539c0,-0.815 0.029,-1.053 0.181,-1.495c0.344,-1.003 1.173,-2.014 2.1,-2.561c0.836,-0.494 1.17,-0.564 2.58,-0.538c1.08,0.019 1.26,0.005 1.441,-0.116c0.114,-0.077 1.258,-1.374 2.541,-2.884c2.246,-2.643 2.329,-2.752 2.223,-2.922c-0.061,-0.097 -0.374,-0.52 -0.695,-0.94c-0.322,-0.42 -0.77,-1.044 -0.997,-1.385c-0.71,-1.069 -1.182,-1.481 -1.963,-1.709c-0.855,-0.25 -0.907,-0.236 -7.025,1.898c-3.097,1.08 -5.785,2.036 -5.972,2.124c-0.74,0.348 -1.693,1.474 -2.407,2.844c-0.385,0.738 -1.265,1.602 -2.036,1.999c-0.906,0.467 -1.449,0.592 -2.545,0.588c-0.747,-0.002 -1.022,-0.036 -1.421,-0.174c-0.726,-0.25 -1.219,-0.518 -1.772,-0.965c-1.011,-0.817 -1.557,-1.735 -1.826,-3.07c-0.43,-2.14 0.68,-4.443 2.627,-5.451c0.925,-0.479 1.501,-0.62 2.507,-0.617c0.664,0.003 0.956,0.045 1.62,0.237c1.362,0.392 2.338,0.488 3.163,0.31c0.602,-0.13 11.205,-5.259 11.725,-5.672c0.895,-0.711 1.096,-1.636 0.747,-3.438c-0.107,-0.554 -0.238,-1.375 -0.29,-1.823c-0.053,-0.448 -0.124,-0.847 -0.158,-0.887c-0.035,-0.039 -1.683,-0.186 -3.664,-0.325c-4.121,-0.29 -3.808,-0.32 -4.381,0.429c-1.485,1.941 -3.896,2.486 -6.049,1.367c-0.809,-0.42 -1.27,-0.842 -1.783,-1.632c-0.855,-1.318 -0.98,-2.693 -0.383,-4.211c0.459,-1.169 1.202,-2.017 2.192,-2.505c0.805,-0.396 1.393,-0.542 2.199,-0.544c0.822,-0.002 1.354,0.11 2.051,0.43c0.557,0.257 0.881,0.538 1.628,1.413c0.671,0.785 0.362,0.756 4.537,0.414c1.994,-0.163 3.631,-0.3 3.637,-0.304c0.006,-0.004 0.036,-0.261 0.066,-0.57c0.051,-0.535 0.286,-2.018 0.53,-3.351c0.279,-1.522 -0.318,-2.566 -1.903,-3.329c-0.391,-0.188 -2.828,-1.363 -5.416,-2.61c-2.588,-1.248 -4.845,-2.322 -5.015,-2.386c-0.528,-0.202 -1.925,-0.154 -2.854,0.098c-1.481,0.402 -1.734,0.442 -2.507,0.396c-0.879,-0.052 -1.381,-0.192 -2.187,-0.612c-1.774,-0.925 -2.883,-2.923 -2.719,-4.901c0.064,-0.77 0.417,-1.86 0.783,-2.414c0.307,-0.465 1.19,-1.332 1.659,-1.63c0.171,-0.109 0.579,-0.304 0.905,-0.433c0.512,-0.202 0.728,-0.241 1.559,-0.278c1.172,-0.052 1.649,0.048 2.677,0.565c0.916,0.461 1.737,1.29 2.26,2.282c0.659,1.249 1.447,2.157 2.214,2.549c0.178,0.092 2.886,1.061 6.017,2.154c5.242,1.83 5.737,1.988 6.234,1.995c1.153,0.016 1.782,-0.406 2.777,-1.861c0.382,-0.558 0.896,-1.273 1.141,-1.587c0.246,-0.315 0.448,-0.601 0.449,-0.635c0.001,-0.035 -1.028,-1.247 -2.287,-2.695c-2.533,-2.914 -2.447,-2.842 -3.262,-2.708c-1.466,0.241 -2.939,-0.194 -3.986,-1.179c-0.641,-0.603 -1.017,-1.183 -1.301,-2.003c-0.409,-1.184 -0.293,-2.553 0.317,-3.767c0.281,-0.558 0.529,-0.86 1.016,-1.237c0.579,-0.446 1.168,-0.765 1.819,-0.983c0.72,-0.241 2.093,-0.261 2.738,-0.04c1.556,0.533 2.677,1.622 3.165,3.075c0.155,0.461 0.164,0.594 0.115,1.567c-0.029,0.585 -0.03,1.17 -0.002,1.301c0.043,0.194 0.559,0.669 2.752,2.534l2.7,2.295l0.283,-0.228c0.829,-0.667 1.686,-1.302 2.443,-1.813c0.977,-0.657 1.41,-1.073 1.666,-1.599c0.152,-0.31 0.182,-0.494 0.184,-1.109l0.002,-0.737l-1.955,-5.587c-1.075,-3.072 -2.04,-5.767 -2.144,-5.989c-0.289,-0.615 -1.122,-1.342 -2.423,-2.119c-0.641,-0.382 -1.271,-0.825 -1.5,-1.052c-1.903,-1.899 -2.072,-4.835 -0.4,-6.947c0.443,-0.559 0.875,-0.912 1.595,-1.299c0.842,-0.454 1.404,-0.584 2.507,-0.58c0.988,0.004 1.445,0.111 2.335,0.549c0.552,0.272 1.427,1.027 1.833,1.582c0.632,0.863 1.027,2.281 0.936,3.361c-0.025,0.3 -0.15,0.912 -0.277,1.36c-0.419,1.481 -0.494,2.447 -0.251,3.233c0.077,0.249 1.318,2.896 2.758,5.882c2.88,5.975 2.848,5.92 3.759,6.354c0.635,0.302 1.222,0.338 2.217,0.135c0.447,-0.092 1.33,-0.236 1.962,-0.321c0.631,-0.084 1.164,-0.169 1.182,-0.188c0.019,-0.018 0.14,-1.552 0.27,-3.407l0.236,-3.374l-0.199,-0.263c-0.11,-0.145 -0.397,-0.4 -0.637,-0.566c-0.791,-0.549 -1.472,-1.648 -1.707,-2.759c-0.233,-1.099 0.019,-2.502 0.617,-3.432c0.339,-0.527 1.212,-1.358 1.745,-1.66c0.233,-0.133 0.68,-0.318 0.993,-0.413c0.49,-0.149 0.684,-0.167 1.389,-0.13c1.317,0.069 2.343,0.51 3.336,1.434c0.363,0.338 0.534,0.583 0.798,1.136c0.408,0.859 0.532,1.367 0.532,2.18c0,0.783 -0.125,1.322 -0.472,2.043c-0.217,0.449 -0.387,0.668 -0.817,1.047c-0.79,0.697 -1.131,1.054 -1.213,1.269c-0.061,0.161 0.2,4.044 0.432,6.435l0.047,0.475l0.592,0.053c0.839,0.075 2.077,0.258 3.023,0.446c0.985,0.195 1.586,0.159 2.198,-0.132c0.912,-0.434 0.878,-0.377 3.801,-6.437c3.012,-6.245 2.975,-6.148 2.815,-7.424c-0.05,-0.398 -0.205,-1.108 -0.344,-1.577c-0.227,-0.762 -0.253,-0.953 -0.251,-1.785c0.002,-0.844 0.026,-0.998 0.252,-1.657c0.301,-0.877 0.641,-1.41 1.274,-2c0.666,-0.62 1.242,-0.975 1.993,-1.228c0.546,-0.183 0.779,-0.217 1.531,-0.224c0.975,-0.009 1.475,0.085 2.21,0.417c1.347,0.607 2.3,1.646 2.776,3.023c0.394,1.14 0.38,2.326 -0.042,3.489c-0.408,1.122 -1.185,2.042 -2.26,2.674c-1.657,0.974 -2.412,1.581 -2.795,2.246c-0.101,0.177 -1.095,2.922 -2.209,6.102c-1.909,5.451 -2.024,5.811 -2.024,6.323c0.001,0.657 0.214,1.268 0.603,1.725c0.147,0.173 0.642,0.569 1.098,0.88c0.457,0.311 1.258,0.893 1.781,1.293l0.95,0.729l0.436,-0.374c3.142,-2.692 4.543,-3.95 4.632,-4.157c0.079,-0.186 0.083,-0.343 0.019,-0.717c-0.42,-2.425 1.059,-4.768 3.415,-5.409c0.448,-0.121 0.719,-0.143 1.439,-0.112c1.395,0.058 2.333,0.452 3.137,1.315c1.424,1.53 1.807,3.741 0.947,5.472c-0.496,0.999 -1.514,1.947 -2.536,2.361c-0.389,0.158 -0.559,0.174 -1.825,0.175c-1.125,0.001 -1.424,0.024 -1.537,0.117c-0.251,0.209 -4.369,5.049 -4.343,5.106c0.013,0.03 0.302,0.416 0.642,0.856c0.339,0.44 0.894,1.207 1.234,1.703c0.918,1.345 1.557,1.757 2.699,1.741c0.499,-0.006 0.989,-0.163 6.25,-1.997c3.14,-1.095 5.865,-2.08 6.056,-2.189c0.191,-0.109 0.487,-0.312 0.658,-0.451c0.365,-0.295 1.185,-1.426 1.519,-2.092c0.307,-0.614 0.962,-1.426 1.424,-1.765c0.556,-0.408 1.382,-0.799 2.012,-0.952c0.744,-0.181 2.161,-0.128 2.817,0.107c0.829,0.296 1.384,0.653 2.069,1.33c0.528,0.521 0.725,0.781 0.942,1.241c0.389,0.827 0.538,1.466 0.542,2.328c0.01,2.329 -1.49,4.326 -3.767,5.014c-0.333,0.1 -0.724,0.14 -1.389,0.141c-0.816,0.002 -1.026,-0.027 -1.774,-0.246c-1.375,-0.402 -2.474,-0.481 -3.279,-0.236c-0.532,0.162 -11.078,5.283 -11.43,5.55c-0.589,0.447 -0.838,0.878 -0.988,1.714c-0.071,0.391 -0.051,0.609 0.15,1.683c0.127,0.678 0.289,1.733 0.36,2.343c0.118,1.012 0.144,1.113 0.291,1.142c0.088,0.018 1.594,0.129 3.345,0.248c3.129,0.212 3.189,0.213 3.452,0.07c0.147,-0.079 0.376,-0.315 0.509,-0.523c0.511,-0.801 1.585,-1.534 2.652,-1.81c0.563,-0.145 1.524,-0.162 2.194,-0.039c0.95,0.174 2.109,0.903 2.712,1.704c0.79,1.05 1.037,1.825 0.977,3.064c-0.086,1.78 -1.077,3.363 -2.548,4.072c-0.909,0.438 -1.207,0.504 -2.255,0.501c-0.966,-0.004 -1.247,-0.066 -2.087,-0.462c-0.369,-0.175 -0.644,-0.427 -1.57,-1.44c-0.22,-0.242 -0.503,-0.481 -0.628,-0.534c-0.187,-0.077 -0.797,-0.05 -3.371,0.15c-1.729,0.134 -3.251,0.261 -3.383,0.282l-0.239,0.038l-0.095,0.794c-0.052,0.437 -0.198,1.335 -0.324,1.997c-0.195,1.024 -0.218,1.268 -0.153,1.642c0.192,1.114 0.682,1.689 1.969,2.309c8.459,4.078 10.397,4.993 10.724,5.064c0.65,0.14 1.742,0.034 2.936,-0.284c1.762,-0.471 2.932,-0.391 4.23,0.287c0.757,0.396 1.177,0.739 1.684,1.379c1.135,1.431 1.41,3.265 0.758,5.062c-0.515,1.423 -1.694,2.518 -3.315,3.083c-0.405,0.141 -0.678,0.176 -1.427,0.181c-1.103,0.007 -1.628,-0.113 -2.535,-0.582c-0.762,-0.394 -1.65,-1.255 -2.055,-1.992c-0.83,-1.512 -1.612,-2.448 -2.359,-2.823c-0.209,-0.105 -2.914,-1.078 -6.011,-2.161l-5.632,-1.971l-0.656,0c-1.121,0 -1.761,0.379 -2.491,1.475c-0.576,0.863 -1.499,2.106 -1.995,2.687c-0.206,0.241 -0.374,0.461 -0.374,0.49c0,0.03 1.03,1.238 2.289,2.685c2.567,2.952 2.352,2.784 3.398,2.651c0.622,-0.08 1.35,-0.029 1.951,0.135c0.615,0.168 1.487,0.68 1.954,1.145c0.957,0.956 1.365,1.874 1.422,3.203c0.039,0.935 -0.072,1.487 -0.477,2.367c-0.308,0.666 -0.542,0.95 -1.194,1.446c-1.005,0.766 -1.976,1.096 -3.21,1.094c-0.662,-0.002 -0.86,-0.035 -1.397,-0.234c-1.425,-0.527 -2.452,-1.533 -2.947,-2.887c-0.175,-0.478 -0.183,-0.567 -0.135,-1.644c0.04,-0.894 0.027,-1.194 -0.058,-1.4c-0.14,-0.336 -5.402,-4.834 -5.55,-4.744c-0.053,0.033 -0.391,0.283 -0.752,0.556c-0.36,0.274 -0.986,0.716 -1.389,0.984c-0.801,0.532 -1.393,1.112 -1.569,1.537c-0.221,0.531 -0.3,1.116 -0.209,1.543c0.171,0.803 4.084,11.854 4.315,12.19c0.43,0.621 1.101,1.151 2.357,1.863c1.734,0.981 2.668,2.312 2.898,4.127c0.317,2.51 -1.477,5.031 -3.979,5.591c-0.463,0.104 -0.801,0.124 -1.492,0.09c-0.779,-0.039 -0.979,-0.079 -1.566,-0.313c-0.82,-0.327 -1.261,-0.645 -2.013,-1.449c-0.452,-0.483 -0.63,-0.745 -0.822,-1.21c-0.546,-1.318 -0.598,-2.535 -0.167,-3.924c0.391,-1.263 0.482,-2.261 0.277,-3.055c-0.065,-0.254 -1.315,-2.942 -2.778,-5.972c-2.535,-5.253 -2.677,-5.526 -3.063,-5.89c-0.643,-0.607 -1.491,-0.885 -2.273,-0.747c-0.203,0.035 -0.768,0.135 -1.256,0.222c-0.488,0.087 -1.371,0.214 -1.963,0.282c-0.591,0.069 -1.086,0.135 -1.098,0.147c-0.026,0.026 -0.478,6.312 -0.498,6.929c-0.016,0.484 0.11,0.67 0.823,1.21c1.837,1.391 2.32,4.201 1.062,6.179c-0.573,0.901 -1.557,1.68 -2.569,2.033c-0.738,0.258 -1.961,0.243 -2.816,-0.035c-0.755,-0.245 -1.448,-0.65 -2.051,-1.199c-0.354,-0.322 -0.533,-0.572 -0.804,-1.126c-0.74,-1.506 -0.761,-2.879 -0.066,-4.296c0.271,-0.552 0.481,-0.785 1.406,-1.561c0.75,-0.629 0.728,-0.368 0.389,-4.514c-0.161,-1.984 -0.295,-3.63 -0.297,-3.657c-0.002,-0.026 -0.342,-0.09 -0.756,-0.142c-0.414,-0.051 -1.306,-0.195 -1.983,-0.319c-1.397,-0.256 -1.83,-0.235 -2.56,0.124c-0.814,0.4 -0.885,0.523 -3.742,6.438c-1.449,3.001 -2.677,5.64 -2.743,5.897c-0.161,0.624 -0.095,1.631 0.174,2.638c0.39,1.467 0.437,1.754 0.395,2.444c-0.049,0.815 -0.406,1.976 -0.775,2.526c-0.603,0.897 -1.734,1.76 -2.805,2.14c-0.677,0.24 -2.185,0.276 -2.94,0.07l0,0Z" style="fill:#0098e6;fill-rule:nonzero"/><path d="M870.86,1599.84c-0.365,-0.099 -0.634,-0.261 -0.931,-0.559c-0.416,-0.417 -0.596,-0.854 -0.597,-1.444c-0,-0.751 0.376,-1.403 1.03,-1.783c0.658,-0.383 1.006,-0.665 1.134,-0.917c0.034,-0.068 0.425,-1.162 0.868,-2.43c0.756,-2.162 0.806,-2.318 0.806,-2.52c-0,-0.276 -0.091,-0.524 -0.258,-0.707c-0.07,-0.076 -0.293,-0.252 -0.497,-0.391c-0.204,-0.139 -0.497,-0.351 -0.65,-0.471c-0.154,-0.121 -0.296,-0.23 -0.316,-0.243c-0.04,-0.024 -2.194,1.822 -2.281,1.956c-0.04,0.061 -0.044,0.111 -0.022,0.268c0.046,0.33 0.026,0.729 -0.048,0.953c-0.198,0.596 -0.7,1.089 -1.282,1.26c-0.295,0.087 -0.827,0.073 -1.144,-0.03c-0.563,-0.182 -0.955,-0.582 -1.18,-1.204c-0.073,-0.201 -0.083,-0.272 -0.083,-0.615c-0,-0.326 0.011,-0.422 0.072,-0.598c0.138,-0.402 0.469,-0.806 0.84,-1.025c0.334,-0.197 0.468,-0.225 1.032,-0.215c0.432,0.008 0.504,0.002 0.577,-0.047c0.045,-0.03 0.503,-0.549 1.016,-1.153c0.898,-1.057 0.932,-1.101 0.889,-1.169c-0.024,-0.038 -0.149,-0.208 -0.278,-0.376c-0.129,-0.168 -0.308,-0.417 -0.399,-0.554c-0.283,-0.428 -0.472,-0.592 -0.785,-0.683c-0.342,-0.1 -0.363,-0.095 -2.81,0.759c-1.239,0.432 -2.314,0.814 -2.389,0.849c-0.295,0.139 -0.677,0.59 -0.962,1.138c-0.154,0.295 -0.506,0.641 -0.815,0.8c-0.362,0.186 -0.579,0.237 -1.018,0.235c-0.298,-0.001 -0.409,-0.015 -0.568,-0.07c-0.291,-0.1 -0.488,-0.207 -0.709,-0.386c-0.404,-0.327 -0.623,-0.694 -0.73,-1.228c-0.172,-0.856 0.271,-1.777 1.05,-2.18c0.37,-0.192 0.601,-0.248 1.003,-0.247c0.266,0.001 0.383,0.018 0.648,0.095c0.545,0.157 0.935,0.195 1.265,0.124c0.241,-0.052 4.483,-2.104 4.69,-2.269c0.359,-0.285 0.439,-0.654 0.299,-1.375c-0.043,-0.222 -0.095,-0.55 -0.116,-0.729c-0.021,-0.18 -0.049,-0.339 -0.063,-0.355c-0.014,-0.016 -0.673,-0.075 -1.466,-0.13c-1.648,-0.116 -1.523,-0.128 -1.752,0.172c-0.594,0.776 -1.558,0.994 -2.42,0.546c-0.323,-0.168 -0.507,-0.337 -0.713,-0.653c-0.342,-0.527 -0.392,-1.077 -0.153,-1.684c0.184,-0.468 0.481,-0.807 0.877,-1.002c0.322,-0.158 0.557,-0.217 0.879,-0.218c0.329,-0 0.542,0.044 0.821,0.173c0.223,0.102 0.352,0.215 0.651,0.564c0.268,0.314 0.145,0.303 1.815,0.166c0.797,-0.065 1.452,-0.12 1.455,-0.121c0.002,-0.002 0.014,-0.105 0.026,-0.228c0.021,-0.215 0.114,-0.807 0.212,-1.341c0.111,-0.608 -0.127,-1.026 -0.761,-1.332c-0.157,-0.075 -1.131,-0.545 -2.167,-1.044c-1.035,-0.499 -1.938,-0.928 -2.005,-0.954c-0.212,-0.081 -0.77,-0.061 -1.142,0.039c-0.593,0.161 -0.694,0.177 -1.003,0.159c-0.351,-0.021 -0.552,-0.077 -0.875,-0.245c-0.71,-0.37 -1.153,-1.169 -1.087,-1.96c0.025,-0.309 0.167,-0.744 0.313,-0.966c0.123,-0.186 0.476,-0.533 0.663,-0.652c0.069,-0.044 0.232,-0.121 0.363,-0.173c0.204,-0.081 0.291,-0.097 0.623,-0.111c0.469,-0.021 0.659,0.019 1.071,0.226c0.366,0.184 0.695,0.515 0.904,0.912c0.263,0.5 0.578,0.863 0.885,1.02c0.072,0.037 1.155,0.424 2.407,0.862c2.097,0.732 2.295,0.795 2.494,0.798c0.461,0.006 0.713,-0.163 1.111,-0.745c0.152,-0.223 0.358,-0.509 0.456,-0.635c0.098,-0.126 0.179,-0.24 0.18,-0.254c0,-0.013 -0.412,-0.499 -0.915,-1.078c-1.014,-1.165 -0.979,-1.137 -1.305,-1.083c-0.586,0.097 -1.176,-0.078 -1.594,-0.472c-0.257,-0.241 -0.407,-0.473 -0.521,-0.801c-0.163,-0.473 -0.117,-1.021 0.127,-1.506c0.112,-0.224 0.211,-0.344 0.407,-0.495c0.231,-0.179 0.467,-0.306 0.727,-0.393c0.288,-0.097 0.837,-0.105 1.095,-0.016c0.623,0.213 1.071,0.649 1.266,1.229c0.062,0.185 0.066,0.238 0.046,0.627c-0.012,0.234 -0.012,0.468 -0,0.521c0.016,0.077 0.223,0.267 1.1,1.013l1.08,0.919l0.113,-0.092c0.332,-0.266 0.675,-0.521 0.978,-0.725c0.39,-0.263 0.563,-0.429 0.666,-0.64c0.061,-0.124 0.073,-0.197 0.074,-0.443l0,-0.295l-0.781,-2.235c-0.431,-1.229 -0.817,-2.307 -0.858,-2.395c-0.116,-0.246 -0.449,-0.537 -0.969,-0.848c-0.257,-0.153 -0.509,-0.33 -0.6,-0.421c-0.762,-0.759 -0.829,-1.934 -0.16,-2.779c0.177,-0.223 0.35,-0.364 0.637,-0.519c0.337,-0.182 0.562,-0.234 1.003,-0.232c0.395,0.001 0.578,0.044 0.934,0.219c0.221,0.109 0.571,0.411 0.734,0.633c0.252,0.346 0.41,0.913 0.374,1.345c-0.01,0.12 -0.06,0.364 -0.111,0.544c-0.168,0.592 -0.198,0.978 -0.1,1.293c0.031,0.099 0.527,1.158 1.103,2.353c1.152,2.39 1.139,2.368 1.504,2.541c0.254,0.121 0.488,0.135 0.886,0.054c0.179,-0.036 0.532,-0.094 0.785,-0.128c0.253,-0.034 0.466,-0.068 0.473,-0.075c0.007,-0.008 0.056,-0.621 0.108,-1.363l0.095,-1.35l-0.08,-0.105c-0.044,-0.058 -0.159,-0.16 -0.255,-0.227c-0.317,-0.219 -0.589,-0.659 -0.683,-1.103c-0.093,-0.44 0.008,-1.001 0.247,-1.373c0.135,-0.211 0.485,-0.543 0.698,-0.664c0.093,-0.053 0.272,-0.127 0.397,-0.165c0.196,-0.06 0.274,-0.067 0.556,-0.052c0.527,0.028 0.937,0.204 1.334,0.574c0.145,0.135 0.214,0.233 0.319,0.454c0.164,0.344 0.213,0.547 0.213,0.872c0,0.313 -0.05,0.529 -0.189,0.817c-0.086,0.18 -0.155,0.267 -0.327,0.419c-0.316,0.279 -0.452,0.421 -0.484,0.507c-0.025,0.065 0.079,1.618 0.172,2.575l0.019,0.19l0.237,0.021c0.335,0.03 0.831,0.103 1.209,0.178c0.394,0.078 0.634,0.064 0.879,-0.053c0.365,-0.173 0.351,-0.15 1.521,-2.575c1.204,-2.498 1.19,-2.459 1.126,-2.969c-0.02,-0.159 -0.082,-0.443 -0.138,-0.631c-0.091,-0.305 -0.101,-0.381 -0.1,-0.714c0,-0.337 0.01,-0.399 0.1,-0.662c0.121,-0.351 0.257,-0.565 0.51,-0.801c0.267,-0.248 0.497,-0.39 0.797,-0.491c0.219,-0.073 0.312,-0.087 0.613,-0.089c0.39,-0.004 0.59,0.034 0.883,0.166c0.539,0.243 0.921,0.659 1.111,1.21c0.158,0.455 0.152,0.93 -0.017,1.395c-0.163,0.449 -0.474,0.817 -0.904,1.07c-0.663,0.389 -0.965,0.632 -1.118,0.898c-0.04,0.071 -0.438,1.169 -0.883,2.441c-0.764,2.181 -0.81,2.324 -0.81,2.529c0,0.263 0.086,0.507 0.241,0.69c0.059,0.069 0.257,0.228 0.44,0.352c0.182,0.124 0.503,0.357 0.712,0.517l0.38,0.292l0.174,-0.149c1.257,-1.077 1.818,-1.58 1.853,-1.663c0.032,-0.075 0.033,-0.138 0.008,-0.287c-0.168,-0.97 0.423,-1.907 1.366,-2.164c0.179,-0.048 0.287,-0.057 0.575,-0.045c0.558,0.024 0.934,0.181 1.255,0.526c0.57,0.612 0.723,1.497 0.379,2.189c-0.199,0.4 -0.606,0.779 -1.014,0.945c-0.156,0.063 -0.224,0.069 -0.731,0.07c-0.45,-0 -0.569,0.009 -0.614,0.046c-0.101,0.084 -1.748,2.02 -1.738,2.043c0.006,0.012 0.121,0.166 0.257,0.342c0.136,0.176 0.358,0.483 0.494,0.682c0.367,0.537 0.623,0.702 1.08,0.696c0.199,-0.003 0.395,-0.065 2.499,-0.799c1.256,-0.438 2.346,-0.832 2.423,-0.876c0.076,-0.043 0.195,-0.124 0.263,-0.18c0.146,-0.118 0.474,-0.57 0.607,-0.837c0.123,-0.245 0.385,-0.57 0.57,-0.706c0.222,-0.163 0.553,-0.319 0.805,-0.381c0.297,-0.072 0.864,-0.051 1.127,0.043c0.331,0.119 0.554,0.261 0.828,0.532c0.211,0.209 0.289,0.312 0.376,0.497c0.156,0.331 0.215,0.586 0.217,0.931c0.004,0.931 -0.596,1.73 -1.507,2.005c-0.133,0.04 -0.289,0.056 -0.555,0.057c-0.327,0.001 -0.411,-0.011 -0.71,-0.099c-0.55,-0.16 -0.989,-0.192 -1.312,-0.094c-0.212,0.065 -4.431,2.113 -4.572,2.22c-0.235,0.179 -0.335,0.351 -0.395,0.686c-0.028,0.156 -0.02,0.243 0.06,0.673c0.051,0.271 0.116,0.693 0.144,0.937c0.047,0.405 0.058,0.445 0.116,0.457c0.036,0.007 0.638,0.052 1.339,0.099c1.251,0.085 1.275,0.085 1.38,0.028c0.059,-0.032 0.151,-0.126 0.204,-0.209c0.205,-0.321 0.634,-0.614 1.061,-0.724c0.225,-0.058 0.609,-0.065 0.877,-0.016c0.38,0.07 0.844,0.361 1.085,0.682c0.316,0.42 0.415,0.73 0.391,1.226c-0.035,0.711 -0.431,1.344 -1.019,1.628c-0.364,0.175 -0.483,0.202 -0.902,0.2c-0.387,-0.001 -0.499,-0.026 -0.835,-0.184c-0.148,-0.07 -0.258,-0.171 -0.628,-0.576c-0.088,-0.097 -0.201,-0.193 -0.251,-0.214c-0.075,-0.031 -0.319,-0.02 -1.349,0.06c-0.691,0.054 -1.3,0.105 -1.353,0.113l-0.095,0.015l-0.038,0.318c-0.021,0.175 -0.079,0.534 -0.13,0.799c-0.078,0.409 -0.087,0.507 -0.061,0.656c0.077,0.446 0.273,0.676 0.787,0.924c3.384,1.631 4.159,1.997 4.29,2.025c0.26,0.057 0.697,0.014 1.175,-0.113c0.704,-0.188 1.172,-0.156 1.691,0.115c0.303,0.158 0.471,0.296 0.674,0.551c0.454,0.573 0.564,1.306 0.303,2.025c-0.206,0.569 -0.677,1.008 -1.326,1.233c-0.162,0.057 -0.271,0.071 -0.57,0.073c-0.442,0.003 -0.652,-0.046 -1.015,-0.233c-0.304,-0.158 -0.66,-0.502 -0.822,-0.797c-0.332,-0.605 -0.644,-0.979 -0.943,-1.129c-0.084,-0.042 -1.166,-0.431 -2.405,-0.865l-2.252,-0.788l-0.263,0c-0.448,0 -0.704,0.152 -0.996,0.59c-0.231,0.345 -0.6,0.843 -0.798,1.075c-0.082,0.096 -0.15,0.184 -0.15,0.196c0,0.012 0.412,0.495 0.916,1.074c1.027,1.181 0.941,1.114 1.359,1.06c0.249,-0.032 0.54,-0.011 0.78,0.054c0.246,0.068 0.595,0.272 0.782,0.458c0.383,0.383 0.546,0.75 0.569,1.282c0.016,0.373 -0.029,0.594 -0.191,0.946c-0.123,0.267 -0.217,0.381 -0.477,0.579c-0.403,0.306 -0.791,0.438 -1.284,0.437c-0.265,-0 -0.344,-0.014 -0.559,-0.093c-0.57,-0.211 -0.981,-0.614 -1.179,-1.155c-0.07,-0.191 -0.073,-0.227 -0.054,-0.658c0.016,-0.357 0.011,-0.477 -0.023,-0.56c-0.056,-0.134 -2.161,-1.933 -2.22,-1.897c-0.022,0.013 -0.157,0.113 -0.301,0.222c-0.144,0.11 -0.394,0.287 -0.556,0.394c-0.32,0.213 -0.557,0.445 -0.628,0.615c-0.088,0.212 -0.119,0.446 -0.083,0.617c0.069,0.321 1.633,4.741 1.726,4.876c0.172,0.248 0.44,0.46 0.943,0.745c0.693,0.392 1.067,0.925 1.159,1.651c0.127,1.004 -0.591,2.012 -1.591,2.236c-0.186,0.042 -0.321,0.05 -0.597,0.036c-0.312,-0.015 -0.392,-0.031 -0.627,-0.125c-0.328,-0.131 -0.504,-0.258 -0.805,-0.58c-0.181,-0.193 -0.252,-0.297 -0.329,-0.484c-0.218,-0.527 -0.239,-1.013 -0.067,-1.569c0.157,-0.505 0.193,-0.905 0.111,-1.222c-0.026,-0.102 -0.526,-1.177 -1.111,-2.389c-1.014,-2.101 -1.071,-2.21 -1.225,-2.356c-0.258,-0.243 -0.596,-0.354 -0.91,-0.299c-0.081,0.014 -0.307,0.054 -0.502,0.089c-0.195,0.035 -0.548,0.086 -0.785,0.113c-0.237,0.027 -0.434,0.054 -0.439,0.059c-0.011,0.01 -0.191,2.524 -0.199,2.771c-0.007,0.194 0.044,0.268 0.329,0.484c0.735,0.557 0.928,1.681 0.425,2.472c-0.23,0.36 -0.623,0.672 -1.028,0.813c-0.295,0.103 -0.784,0.097 -1.126,-0.014c-0.302,-0.098 -0.58,-0.26 -0.821,-0.479c-0.142,-0.129 -0.213,-0.229 -0.322,-0.451c-0.295,-0.602 -0.304,-1.152 -0.026,-1.718c0.109,-0.221 0.193,-0.314 0.562,-0.625c0.301,-0.252 0.292,-0.147 0.156,-1.805c-0.064,-0.794 -0.118,-1.452 -0.119,-1.463c-0.001,-0.011 -0.137,-0.036 -0.302,-0.057c-0.165,-0.021 -0.522,-0.078 -0.793,-0.128c-0.559,-0.102 -0.732,-0.094 -1.024,0.05c-0.326,0.16 -0.354,0.209 -1.497,2.575c-0.58,1.201 -1.071,2.256 -1.097,2.359c-0.065,0.25 -0.038,0.652 0.069,1.055c0.157,0.587 0.175,0.702 0.158,0.978c-0.019,0.326 -0.162,0.79 -0.31,1.01c-0.241,0.359 -0.693,0.704 -1.121,0.856c-0.271,0.096 -0.875,0.111 -1.177,0.028l0,0Z" style="fill:#0098e6;fill-rule:nonzero"/><path d="M433.333,1600l866.667,0c18.286,0 33.333,15.047 33.333,33.333l0,66.667c0,18.286 -15.047,33.333 -33.333,33.333l-866.667,0c-18.286,0 -33.333,-15.047 -33.333,-33.333l0,-66.667c0,-18.286 15.047,-33.333 33.333,-33.333Z" style="fill:#0098e6;fill-opacity:.4;fill-rule:nonzero"/><path d="M1933.33,1866.67l-5.375,-0c132.094,-146.174 205.314,-336.317 205.375,-533.334c0,-441.166 -358.833,-800 -800,-800l0,266.667c292.578,-0 533.334,240.755 533.334,533.333c-0,292.578 -240.756,533.334 -533.334,533.334l-1133.33,-0c-109.717,-0 -200,90.283 -200,200c0,36.572 30.094,66.666 66.667,66.666l2000,0c36.572,0 66.666,-30.094 66.666,-66.666c0,-109.717 -90.283,-200 -200,-200Zm-1266.67,-533.334l50,0l-0,66.667c-0,36.572 30.094,66.667 66.666,66.667l166.667,-0c36.572,-0 66.667,-30.095 66.667,-66.667l-0,-66.667l50,0c73.144,0 133.333,-60.188 133.333,-133.333l-0,-933.333c-0,-73.145 -60.189,-133.334 -133.333,-133.334l-0,-66.666c-0,-36.573 -30.095,-66.667 -66.667,-66.667l-266.667,-0c-36.572,-0 -66.666,30.094 -66.666,66.667l-0,66.666c-73.145,0 -133.334,60.189 -133.334,133.334l0,933.333c0,73.145 60.189,133.333 133.334,133.333Z" style="fill:#0098e6;fill-rule:nonzero"/></svg>