<?xml version="1.0" encoding="UTF-8" standalone="no"?> <svg xmlns="http://www.w3.org/2000/svg" xmlns:xlink="http://www.w3.org/1999/xlink" xmlns:serif="http://www.serif.com/" width="100%" height="100%" viewBox="0 0 8892 8892" version="1.1" xml:space="preserve" style="fill-rule:evenodd;clip-rule:evenodd;stroke-linejoin:round;stroke-miterlimit:2;"><g><path d="M3272.85,6638.42c-3.8,-0.975 -6.604,-2.555 -9.7,-5.471c-4.333,-4.075 -6.212,-8.342 -6.217,-14.109c-0.004,-7.341 3.921,-13.716 10.725,-17.437c6.855,-3.746 10.475,-6.492 11.809,-8.958c0.362,-0.667 4.433,-11.355 9.05,-23.75c7.87,-21.138 8.391,-22.671 8.391,-24.642c0,-2.696 -0.945,-5.125 -2.687,-6.908c-0.725,-0.742 -3.054,-2.459 -5.179,-3.821c-2.125,-1.359 -5.175,-3.434 -6.771,-4.609c-1.6,-1.179 -3.079,-2.245 -3.292,-2.37c-0.416,-0.242 -22.846,17.804 -23.758,19.116c-0.417,0.6 -0.459,1.088 -0.229,2.621c0.483,3.229 0.275,7.125 -0.505,9.321c-2.058,5.817 -7.287,10.642 -13.349,12.317c-3.075,0.85 -8.613,0.712 -11.917,-0.296c-5.863,-1.784 -9.942,-5.692 -12.292,-11.767c-0.762,-1.971 -0.862,-2.662 -0.862,-6.021c-0,-3.187 0.116,-4.116 0.75,-5.841c1.437,-3.925 4.887,-7.88 8.75,-10.017c3.483,-1.933 4.879,-2.204 10.75,-2.104c4.5,0.075 5.25,0.021 6.008,-0.454c0.475,-0.3 5.238,-5.375 10.583,-11.275c9.363,-10.334 9.709,-10.763 9.263,-11.425c-0.254,-0.379 -1.559,-2.034 -2.896,-3.68c-1.342,-1.641 -3.208,-4.079 -4.154,-5.412c-2.954,-4.183 -4.925,-5.792 -8.175,-6.683c-3.567,-0.979 -3.783,-0.925 -29.275,7.421c-12.904,4.22 -24.1,7.962 -24.883,8.304c-3.08,1.362 -7.055,5.766 -10.03,11.12c-1.604,2.888 -5.27,6.267 -8.479,7.817c-3.779,1.829 -6.037,2.317 -10.608,2.3c-3.108,-0.008 -4.258,-0.142 -5.917,-0.679c-3.029,-0.979 -5.079,-2.029 -7.383,-3.775c-4.217,-3.192 -6.492,-6.783 -7.608,-12.004c-1.796,-8.367 2.829,-17.371 10.941,-21.313c3.854,-1.875 6.254,-2.429 10.446,-2.412c2.771,0.008 3.988,0.175 6.754,0.925c5.671,1.533 9.742,1.908 13.175,1.212c2.509,-0.508 46.692,-20.566 48.854,-22.179c3.734,-2.779 4.571,-6.396 3.117,-13.442c-0.45,-2.166 -0.996,-5.379 -1.212,-7.129c-0.221,-1.754 -0.517,-3.312 -0.659,-3.466c-0.141,-0.155 -7.012,-0.73 -15.266,-1.271c-17.167,-1.134 -15.867,-1.254 -18.255,1.675c-6.187,7.591 -16.229,9.721 -25.204,5.346c-3.366,-1.642 -5.287,-3.292 -7.425,-6.384c-3.566,-5.15 -4.087,-10.529 -1.6,-16.462c1.917,-4.571 5.009,-7.888 9.134,-9.796c3.354,-1.55 5.808,-2.121 9.162,-2.129c3.425,-0.009 5.646,0.429 8.546,1.683c2.325,1.004 3.671,2.104 6.783,5.525c2.796,3.067 1.509,2.958 18.904,1.621c8.309,-0.642 15.13,-1.175 15.155,-1.192c0.029,-0.016 0.15,-1.016 0.275,-2.229c0.216,-2.092 1.191,-7.887 2.208,-13.1c1.162,-5.95 -1.325,-10.033 -7.929,-13.021c-1.625,-0.733 -11.784,-5.329 -22.567,-10.204c-10.783,-4.879 -20.187,-9.079 -20.892,-9.329c-2.204,-0.792 -8.02,-0.6 -11.895,0.383c-6.171,1.571 -7.225,1.729 -10.446,1.55c-3.659,-0.204 -5.75,-0.754 -9.113,-2.396c-7.391,-3.612 -12.008,-11.425 -11.325,-19.162c0.267,-3.013 1.738,-7.271 3.259,-9.438c1.279,-1.816 4.958,-5.212 6.912,-6.375c0.717,-0.425 2.413,-1.187 3.775,-1.691c2.129,-0.792 3.033,-0.942 6.492,-1.088c4.883,-0.204 6.871,0.188 11.154,2.209c3.817,1.8 7.237,5.041 9.417,8.92c2.745,4.888 6.029,8.434 9.225,9.971c0.741,0.359 12.025,4.146 25.075,8.421c21.841,7.154 23.9,7.775 25.97,7.8c4.805,0.067 7.43,-1.583 11.575,-7.275c1.588,-2.183 3.73,-4.979 4.755,-6.208c1.02,-1.229 1.862,-2.346 1.866,-2.484c0.004,-0.133 -4.283,-4.875 -9.525,-10.537c-10.558,-11.392 -10.2,-11.113 -13.591,-10.588c-6.113,0.946 -12.25,-0.758 -16.613,-4.612c-2.667,-2.354 -4.237,-4.625 -5.417,-7.829c-1.704,-4.629 -1.225,-9.984 1.317,-14.729c1.171,-2.184 2.204,-3.363 4.238,-4.838c2.408,-1.746 4.866,-2.992 7.575,-3.842c3,-0.941 8.725,-1.02 11.412,-0.158c6.479,2.083 11.154,6.342 13.183,12.021c0.646,1.804 0.688,2.329 0.484,6.129c-0.125,2.288 -0.129,4.575 -0.009,5.088c0.175,0.758 2.325,2.616 11.467,9.908l11.246,8.975l1.179,-0.892c3.458,-2.608 7.025,-5.091 10.183,-7.087c4.067,-2.571 5.871,-4.2 6.942,-6.254c0.629,-1.213 0.758,-1.934 0.763,-4.338l0.008,-2.879l-8.142,-21.846c-4.483,-12.012 -8.5,-22.554 -8.937,-23.421c-1.204,-2.404 -4.671,-5.25 -10.096,-8.283c-2.667,-1.496 -5.296,-3.225 -6.246,-4.117c-7.929,-7.421 -8.637,-18.904 -1.671,-27.162c1.846,-2.188 3.65,-3.563 6.646,-5.079c3.508,-1.775 5.854,-2.284 10.446,-2.267c4.117,0.012 6.021,0.433 9.729,2.146c2.3,1.062 5.946,4.016 7.642,6.187c2.633,3.375 4.275,8.917 3.896,13.142c-0.105,1.171 -0.625,3.567 -1.15,5.317c-1.75,5.791 -2.063,9.566 -1.05,12.641c0.325,0.971 5.495,11.325 11.491,23c12.004,23.363 11.867,23.15 15.663,24.842c2.646,1.183 5.091,1.321 9.237,0.529c1.863,-0.358 5.542,-0.921 8.175,-1.25c2.634,-0.333 4.85,-0.667 4.925,-0.737c0.079,-0.075 0.584,-6.071 1.125,-13.325l0.988,-13.192l-0.834,-1.029c-0.458,-0.567 -1.65,-1.563 -2.654,-2.213c-3.296,-2.146 -6.133,-6.446 -7.112,-10.787c-0.971,-4.296 0.083,-9.784 2.571,-13.421c1.412,-2.058 5.054,-5.308 7.27,-6.492c0.975,-0.516 2.838,-1.241 4.142,-1.612c2.038,-0.584 2.846,-0.654 5.783,-0.509c5.492,0.271 9.767,1.996 13.9,5.609c1.513,1.321 2.23,2.279 3.325,4.441c1.7,3.359 2.217,5.346 2.217,8.521c0,3.063 -0.517,5.171 -1.967,7.988c-0.904,1.758 -1.612,2.616 -3.404,4.096c-3.291,2.725 -4.712,4.12 -5.05,4.962c-0.254,0.629 0.829,15.813 1.8,25.163l0.192,1.858l2.471,0.208c3.491,0.292 8.65,1.004 12.596,1.742c4.1,0.762 6.604,0.621 9.154,-0.517c3.8,-1.696 3.658,-1.475 15.837,-25.171c12.554,-24.42 12.4,-24.037 11.729,-29.025c-0.208,-1.558 -0.854,-4.333 -1.433,-6.166c-0.942,-2.984 -1.054,-3.729 -1.046,-6.979c0.013,-3.305 0.109,-3.905 1.05,-6.48c1.259,-3.433 2.671,-5.516 5.313,-7.82c2.775,-2.43 5.175,-3.817 8.3,-4.8c2.275,-0.721 3.25,-0.855 6.383,-0.88c4.063,-0.033 6.146,0.334 9.204,1.63c5.613,2.375 9.584,6.437 11.571,11.825c1.642,4.454 1.579,9.091 -0.179,13.637c-1.696,4.392 -4.933,7.988 -9.413,10.458c-6.908,3.809 -10.054,6.184 -11.645,8.784c-0.425,0.687 -4.567,11.425 -9.205,23.858c-7.958,21.317 -8.437,22.721 -8.437,24.725c0.004,2.567 0.892,4.958 2.512,6.742c0.617,0.679 2.675,2.229 4.58,3.441c1.9,1.217 5.241,3.492 7.416,5.059l3.963,2.85l1.812,-1.463c13.092,-10.525 18.934,-15.446 19.3,-16.254c0.334,-0.729 0.35,-1.346 0.079,-2.804c-1.75,-9.483 4.417,-18.642 14.234,-21.15c1.866,-0.475 2.996,-0.558 5.996,-0.442c5.808,0.234 9.72,1.771 13.066,5.142c5.938,5.983 7.534,14.633 3.95,21.4c-2.071,3.908 -6.312,7.612 -10.566,9.233c-1.625,0.617 -2.334,0.679 -7.609,0.684c-4.687,0.004 -5.933,0.091 -6.4,0.458c-1.05,0.817 -18.204,19.737 -18.1,19.962c0.059,0.121 1.259,1.625 2.675,3.35c1.413,1.721 3.729,4.717 5.142,6.659c3.829,5.258 6.492,6.866 11.25,6.808c2.075,-0.025 4.117,-0.637 26.037,-7.812c13.084,-4.28 24.438,-8.13 25.234,-8.559c0.796,-0.425 2.029,-1.221 2.741,-1.762c1.521,-1.154 4.942,-5.575 6.33,-8.179c1.279,-2.4 4.008,-5.575 5.937,-6.905c2.313,-1.591 5.758,-3.12 8.379,-3.72c3.1,-0.709 9.004,-0.5 11.738,0.416c3.454,1.159 5.771,2.554 8.625,5.2c2.2,2.042 3.016,3.054 3.921,4.854c1.625,3.238 2.241,5.734 2.258,9.105c0.042,9.108 -6.208,16.912 -15.696,19.604c-1.383,0.391 -3.017,0.55 -5.787,0.554c-3.4,0.004 -4.275,-0.108 -7.392,-0.963c-5.725,-1.57 -10.304,-1.883 -13.663,-0.92c-2.212,0.629 -46.158,20.654 -47.625,21.7c-2.454,1.745 -3.487,3.433 -4.116,6.7c-0.292,1.529 -0.213,2.379 0.625,6.579c0.529,2.654 1.208,6.779 1.504,9.166c0.487,3.955 0.596,4.35 1.208,4.463c0.371,0.071 6.642,0.504 13.938,0.971c13.037,0.825 13.287,0.829 14.383,0.275c0.617,-0.313 1.571,-1.234 2.121,-2.046c2.133,-3.133 6.608,-6 11.054,-7.079c2.346,-0.567 6.346,-0.634 9.138,-0.154c3.958,0.683 8.791,3.529 11.3,6.662c3.295,4.108 4.325,7.138 4.07,11.983c-0.358,6.959 -4.487,13.146 -10.616,15.921c-3.784,1.713 -5.029,1.971 -9.392,1.959c-4.029,-0.013 -5.2,-0.259 -8.696,-1.805c-1.541,-0.683 -2.687,-1.67 -6.546,-5.633c-0.916,-0.942 -2.095,-1.879 -2.616,-2.083c-0.775,-0.304 -3.321,-0.2 -14.046,0.583c-7.204,0.525 -13.546,1.021 -14.096,1.104l-0.996,0.146l-0.391,3.108c-0.217,1.705 -0.825,5.221 -1.35,7.805c-0.813,4.004 -0.909,4.958 -0.642,6.42c0.8,4.359 2.846,6.609 8.204,9.034c35.25,15.946 43.321,19.521 44.683,19.796c2.709,0.55 7.263,0.137 12.238,-1.109c7.337,-1.841 12.212,-1.529 17.621,1.121c3.158,1.55 4.908,2.892 7.021,5.392c4.729,5.6 5.87,12.771 3.158,19.796c-2.15,5.562 -7.058,9.845 -13.813,12.054c-1.691,0.554 -2.825,0.687 -5.945,0.708c-4.596,0.029 -6.784,-0.442 -10.567,-2.275c-3.175,-1.542 -6.875,-4.908 -8.563,-7.792c-3.458,-5.912 -6.712,-9.57 -9.829,-11.037c-0.871,-0.413 -12.141,-4.213 -25.046,-8.45l-23.466,-7.704l-2.729,-0c-4.675,-0 -7.342,1.479 -10.384,5.762c-2.4,3.379 -6.241,8.238 -8.312,10.509c-0.854,0.941 -1.554,1.804 -1.554,1.92c-0,0.113 4.287,4.838 9.533,10.496c10.7,11.542 9.8,10.888 14.158,10.363c2.592,-0.309 5.625,-0.113 8.129,0.529c2.563,0.658 6.2,2.658 8.142,4.479c3.992,3.738 5.688,7.325 5.925,12.525c0.167,3.654 -0.296,5.813 -1.987,9.254c-1.28,2.604 -2.259,3.717 -4.971,5.654c-4.188,2.996 -8.234,4.288 -13.375,4.275c-2.763,-0.004 -3.584,-0.133 -5.821,-0.912c-5.942,-2.063 -10.221,-5.996 -12.283,-11.288c-0.73,-1.87 -0.759,-2.22 -0.563,-6.429c0.167,-3.496 0.117,-4.671 -0.242,-5.475c-0.583,-1.312 -22.508,-18.904 -23.125,-18.55c-0.22,0.129 -1.629,1.109 -3.129,2.175c-1.504,1.071 -4.108,2.8 -5.791,3.85c-3.334,2.079 -5.805,4.346 -6.538,6.009c-0.921,2.075 -1.25,4.362 -0.871,6.033c0.717,3.137 17.017,46.35 17.984,47.662c1.787,2.43 4.583,4.505 9.82,7.284c7.221,3.837 11.113,9.041 12.071,16.141c1.321,9.813 -6.154,19.671 -16.575,21.859c-1.933,0.408 -3.341,0.487 -6.221,0.354c-3.241,-0.15 -4.079,-0.308 -6.525,-1.225c-3.412,-1.279 -5.254,-2.525 -8.387,-5.667c-1.883,-1.887 -2.621,-2.908 -3.425,-4.729c-2.271,-5.154 -2.488,-9.912 -0.696,-15.342c1.629,-4.937 2.008,-8.845 1.154,-11.95c-0.271,-0.991 -5.479,-11.5 -11.571,-23.345c-10.562,-20.542 -11.158,-21.613 -12.762,-23.034c-2.683,-2.375 -6.213,-3.462 -9.475,-2.925c-0.846,0.142 -3.2,0.534 -5.229,0.871c-2.034,0.342 -5.717,0.838 -8.179,1.104c-2.467,0.267 -4.525,0.525 -4.58,0.575c-0.108,0.1 -1.987,24.679 -2.075,27.092c-0.066,1.896 0.459,2.621 3.43,4.733c7.658,5.438 9.666,16.425 4.425,24.163c-2.388,3.521 -6.488,6.566 -10.7,7.946c-3.08,1.008 -8.175,0.95 -11.734,-0.134c-3.146,-0.958 -6.037,-2.546 -8.55,-4.691c-1.475,-1.259 -2.216,-2.238 -3.35,-4.4c-3.079,-5.892 -3.166,-11.259 -0.271,-16.8c1.125,-2.159 2.005,-3.071 5.855,-6.105c3.129,-2.462 3.033,-1.437 1.625,-17.65c-0.675,-7.762 -1.234,-14.195 -1.242,-14.3c-0.008,-0.104 -1.425,-0.354 -3.15,-0.554c-1.721,-0.204 -5.442,-0.762 -8.258,-1.25c-5.825,-1 -7.63,-0.916 -10.671,0.488c-3.388,1.562 -3.684,2.041 -15.588,25.171c-6.041,11.733 -11.154,22.054 -11.433,23.058c-0.667,2.442 -0.392,6.379 0.725,10.317c1.629,5.733 1.821,6.854 1.646,9.558c-0.204,3.187 -1.688,7.725 -3.229,9.875c-2.513,3.504 -7.225,6.879 -11.684,8.367c-2.825,0.937 -9.108,1.079 -12.254,0.275Z" style="fill:#cbd9e6;fill-rule:nonzero;stroke:#fff;stroke-width:4.17px;"></path><path d="M3863.13,6717.08c-3.8,-1.037 -6.604,-2.721 -9.704,-5.829c-4.329,-4.346 -6.208,-8.892 -6.212,-15.033c-0.005,-7.821 3.916,-14.621 10.72,-18.579c6.859,-3.992 10.48,-6.921 11.813,-9.55c0.358,-0.713 4.433,-12.1 9.046,-25.309c7.871,-22.52 8.396,-24.154 8.396,-26.254c-0,-2.875 -0.946,-5.462 -2.688,-7.367c-0.725,-0.787 -3.054,-2.616 -5.183,-4.066c-2.125,-1.446 -5.171,-3.658 -6.767,-4.913c-1.6,-1.258 -3.079,-2.391 -3.292,-2.525c-0.42,-0.258 -22.85,18.971 -23.758,20.371c-0.417,0.638 -0.458,1.154 -0.229,2.792c0.483,3.441 0.275,7.591 -0.504,9.929c-2.059,6.2 -7.292,11.342 -13.35,13.125c-3.079,0.908 -8.613,0.762 -11.921,-0.313c-5.858,-1.9 -9.942,-6.062 -12.292,-12.541c-0.762,-2.096 -0.858,-2.838 -0.862,-6.413c-0,-3.396 0.121,-4.387 0.754,-6.229c1.433,-4.179 4.887,-8.392 8.75,-10.671c3.483,-2.058 4.875,-2.35 10.75,-2.241c4.5,0.079 5.25,0.02 6.004,-0.484c0.475,-0.32 5.242,-5.725 10.588,-12.016c9.358,-11.013 9.704,-11.467 9.262,-12.175c-0.254,-0.405 -1.558,-2.167 -2.896,-3.917c-1.341,-1.75 -3.208,-4.35 -4.154,-5.771c-2.958,-4.454 -4.925,-6.171 -8.179,-7.121c-3.563,-1.041 -3.779,-0.983 -29.271,7.909c-12.904,4.5 -24.104,8.483 -24.883,8.85c-3.084,1.45 -7.054,6.141 -10.029,11.85c-1.605,3.075 -5.271,6.675 -8.484,8.329c-3.775,1.946 -6.037,2.466 -10.604,2.45c-3.112,-0.009 -4.258,-0.15 -5.921,-0.725c-3.025,-1.042 -5.079,-2.159 -7.383,-4.021c-4.213,-3.404 -6.488,-7.229 -7.608,-12.792c-1.792,-8.916 2.833,-18.512 10.945,-22.712c3.854,-1.996 6.255,-2.583 10.446,-2.571c2.767,0.013 3.984,0.188 6.75,0.988c5.675,1.633 9.742,2.033 13.179,1.291c2.509,-0.542 46.688,-21.912 48.855,-23.633c3.729,-2.963 4.566,-6.817 3.112,-14.325c-0.446,-2.309 -0.992,-5.729 -1.208,-7.596c-0.221,-1.867 -0.517,-3.529 -0.659,-3.696c-0.145,-0.162 -7.012,-0.775 -15.266,-1.354c-17.171,-1.208 -15.867,-1.333 -18.254,1.787c-6.188,8.088 -16.234,10.359 -25.205,5.696c-3.37,-1.75 -5.291,-3.508 -7.429,-6.8c-3.562,-5.491 -4.083,-11.221 -1.596,-17.546c1.913,-4.87 5.009,-8.404 9.134,-10.437c3.354,-1.65 5.804,-2.258 9.162,-2.267c3.425,-0.008 5.642,0.459 8.546,1.792c2.321,1.071 3.671,2.242 6.783,5.887c2.796,3.271 1.509,3.15 18.905,1.725c8.308,-0.679 15.129,-1.25 15.154,-1.266c0.025,-0.017 0.15,-1.088 0.275,-2.375c0.212,-2.229 1.191,-8.409 2.208,-13.963c1.163,-6.341 -1.325,-10.691 -7.929,-13.871c-1.629,-0.783 -11.783,-5.679 -22.567,-10.875c-10.783,-5.2 -20.187,-9.675 -20.896,-9.941c-2.2,-0.842 -8.02,-0.642 -11.891,0.408c-6.171,1.675 -7.225,1.842 -10.446,1.65c-3.663,-0.217 -5.754,-0.8 -9.113,-2.55c-7.391,-3.854 -12.012,-12.179 -11.329,-20.421c0.267,-3.208 1.738,-7.75 3.263,-10.058c1.279,-1.938 4.958,-5.55 6.912,-6.792c0.713,-0.454 2.413,-1.266 3.771,-1.804c2.133,-0.842 3.033,-1.004 6.496,-1.158c4.883,-0.217 6.871,0.2 11.154,2.354c3.817,1.921 7.238,5.375 9.417,9.508c2.745,5.204 6.029,8.988 9.225,10.621c0.741,0.383 12.025,4.421 25.071,8.975c21.841,7.625 23.904,8.283 25.975,8.313c4.804,0.066 7.425,-1.692 11.57,-7.755c1.592,-2.325 3.734,-5.304 4.755,-6.612c1.025,-1.313 1.866,-2.504 1.87,-2.646c0.005,-0.146 -4.283,-5.196 -9.529,-11.229c-10.554,-12.142 -10.196,-11.842 -13.591,-11.283c-6.109,1.004 -12.246,-0.809 -16.609,-4.913c-2.671,-2.512 -4.237,-4.929 -5.421,-8.346c-1.704,-4.933 -1.22,-10.637 1.321,-15.696c1.171,-2.325 2.204,-3.583 4.234,-5.154c2.412,-1.858 4.866,-3.187 7.579,-4.096c3,-1.004 8.72,-1.087 11.408,-0.166c6.483,2.221 11.154,6.758 13.188,12.812c0.645,1.921 0.683,2.475 0.479,6.529c-0.121,2.438 -0.125,4.875 -0.009,5.421c0.18,0.809 2.33,2.788 11.467,10.559l11.25,9.562l1.179,-0.95c3.454,-2.779 7.025,-5.425 10.179,-7.554c4.071,-2.738 5.875,-4.471 6.942,-6.663c0.633,-1.291 0.758,-2.058 0.767,-4.62l0.008,-3.071l-8.146,-23.279c-4.479,-12.8 -8.5,-24.03 -8.933,-24.955c-1.204,-2.562 -4.675,-5.591 -10.096,-8.829c-2.671,-1.591 -5.296,-3.437 -6.25,-4.383c-7.929,-7.913 -8.633,-20.146 -1.667,-28.946c1.846,-2.329 3.646,-3.8 6.646,-5.412c3.509,-1.892 5.85,-2.434 10.446,-2.417c4.117,0.017 6.021,0.462 9.729,2.287c2.3,1.134 5.946,4.28 7.638,6.592c2.633,3.596 4.279,9.504 3.9,14.004c-0.104,1.25 -0.625,3.8 -1.154,5.667c-1.746,6.171 -2.059,10.196 -1.046,13.471c0.321,1.037 5.491,12.066 11.491,24.508c12,24.896 11.867,24.667 15.663,26.475c2.646,1.258 5.092,1.408 9.237,0.563c1.863,-0.384 5.542,-0.984 8.175,-1.338c2.63,-0.35 4.85,-0.704 4.925,-0.783c0.08,-0.075 0.584,-6.467 1.125,-14.196l0.984,-14.058l-0.829,-1.096c-0.459,-0.604 -1.655,-1.667 -2.655,-2.359c-3.295,-2.287 -6.133,-6.866 -7.112,-11.495c-0.971,-4.58 0.079,-10.425 2.571,-14.3c1.412,-2.196 5.05,-5.659 7.271,-6.917c0.97,-0.554 2.833,-1.325 4.137,-1.721c2.042,-0.621 2.85,-0.696 5.788,-0.542c5.487,0.288 9.762,2.125 13.9,5.975c1.512,1.409 2.225,2.43 3.325,4.734c1.7,3.579 2.216,5.696 2.216,9.083c0,3.263 -0.521,5.508 -1.966,8.513c-0.905,1.87 -1.613,2.783 -3.405,4.362c-3.291,2.904 -4.712,4.392 -5.054,5.288c-0.254,0.67 0.834,16.85 1.8,26.812l0.196,1.979l2.467,0.221c3.496,0.313 8.654,1.075 12.596,1.858c4.104,0.813 6.608,0.663 9.158,-0.55c3.8,-1.808 3.658,-1.57 15.837,-26.82c12.55,-26.021 12.396,-25.617 11.73,-30.934c-0.209,-1.658 -0.855,-4.616 -1.434,-6.571c-0.946,-3.175 -1.054,-3.97 -1.046,-7.437c0.009,-3.517 0.109,-4.158 1.05,-6.904c1.255,-3.654 2.671,-5.875 5.309,-8.334c2.775,-2.583 5.175,-4.062 8.304,-5.116c2.275,-0.763 3.246,-0.904 6.379,-0.934c4.063,-0.037 6.146,0.355 9.208,1.738c5.613,2.529 9.584,6.858 11.567,12.596c1.642,4.75 1.583,9.691 -0.175,14.537c-1.7,4.675 -4.937,8.509 -9.417,11.142c-6.904,4.058 -10.05,6.587 -11.645,9.358c-0.421,0.738 -4.563,12.175 -9.205,25.425c-7.954,22.713 -8.433,24.213 -8.433,26.346c0.004,2.738 0.892,5.283 2.513,7.188c0.612,0.72 2.675,2.37 4.575,3.666c1.904,1.296 5.241,3.721 7.42,5.388l3.959,3.037l1.816,-1.558c13.092,-11.217 18.93,-16.458 19.3,-17.321c0.33,-0.775 0.346,-1.429 0.08,-2.987c-1.75,-10.105 4.412,-19.867 14.229,-22.538c1.866,-0.504 2.996,-0.596 5.996,-0.467c5.812,0.242 9.72,1.884 13.07,5.48c5.934,6.375 7.53,15.587 3.946,22.8c-2.066,4.162 -6.308,8.112 -10.566,9.837c-1.621,0.658 -2.33,0.725 -7.605,0.729c-4.687,0.004 -5.933,0.1 -6.404,0.488c-1.046,0.871 -18.204,21.037 -18.096,21.275c0.055,0.125 1.259,1.733 2.675,3.566c1.413,1.834 3.725,5.03 5.142,7.096c3.825,5.604 6.488,7.321 11.246,7.254c2.079,-0.025 4.121,-0.679 26.042,-8.32c13.083,-4.563 24.437,-8.667 25.233,-9.121c0.796,-0.454 2.029,-1.3 2.742,-1.879c1.52,-1.23 4.937,-5.942 6.329,-8.717c1.279,-2.558 4.008,-5.942 5.933,-7.354c2.317,-1.7 5.758,-3.329 8.383,-3.967c3.1,-0.754 9.005,-0.533 11.738,0.446c3.454,1.233 5.767,2.721 8.621,5.542c2.2,2.17 3.021,3.254 3.925,5.17c1.621,3.446 2.241,6.109 2.258,9.7c0.042,9.705 -6.208,18.025 -15.696,20.892c-1.387,0.417 -3.016,0.583 -5.787,0.588c-3.4,0.008 -4.275,-0.113 -7.392,-1.025c-5.729,-1.675 -10.308,-2.005 -13.662,-0.984c-2.217,0.675 -46.159,22.013 -47.625,23.125c-2.455,1.863 -3.492,3.659 -4.117,7.142c-0.296,1.629 -0.213,2.537 0.625,7.012c0.529,2.825 1.204,7.221 1.5,9.763c0.492,4.217 0.6,4.637 1.212,4.758c0.367,0.075 6.642,0.538 13.938,1.034c13.037,0.883 13.287,0.887 14.383,0.291c0.613,-0.329 1.567,-1.312 2.121,-2.179c2.129,-3.337 6.604,-6.392 11.05,-7.542c2.346,-0.604 6.35,-0.675 9.142,-0.162c3.958,0.725 8.787,3.762 11.3,7.1c3.291,4.375 4.321,7.604 4.071,12.767c-0.359,7.416 -4.488,14.012 -10.617,16.966c-3.788,1.825 -5.029,2.1 -9.396,2.088c-4.025,-0.017 -5.196,-0.275 -8.696,-1.925c-1.537,-0.729 -2.683,-1.779 -6.541,-6c-0.917,-1.009 -2.096,-2.004 -2.617,-2.225c-0.779,-0.321 -3.321,-0.209 -14.046,0.625c-7.204,0.558 -13.546,1.087 -14.096,1.175l-0.996,0.158l-0.396,3.308c-0.216,1.821 -0.824,5.563 -1.349,8.321c-0.813,4.267 -0.909,5.284 -0.638,6.842c0.8,4.642 2.842,7.037 8.204,9.621c35.246,16.991 43.321,20.804 44.684,21.1c2.708,0.583 7.258,0.141 12.233,-1.184c7.342,-1.962 12.217,-1.629 17.625,1.196c3.154,1.65 4.904,3.079 7.017,5.746c4.729,5.963 5.875,13.604 3.158,21.092c-2.146,5.929 -7.058,10.491 -13.813,12.846c-1.687,0.587 -2.825,0.733 -5.945,0.754c-4.596,0.029 -6.784,-0.471 -10.563,-2.425c-3.175,-1.642 -6.875,-5.229 -8.563,-8.3c-3.458,-6.3 -6.716,-10.2 -9.829,-11.763c-0.87,-0.437 -12.141,-4.491 -25.045,-9.004l-23.467,-8.212l-2.733,-0c-4.671,-0 -7.338,1.579 -10.38,6.145c-2.4,3.596 -6.245,8.775 -8.312,11.196c-0.858,1.004 -1.558,1.921 -1.558,2.042c-0,0.125 4.291,5.158 9.537,11.187c10.696,12.3 9.8,11.6 14.158,11.046c2.592,-0.333 5.625,-0.121 8.13,0.563c2.562,0.7 6.195,2.833 8.141,4.771c3.988,3.983 5.688,7.808 5.925,13.345c0.163,3.896 -0.3,6.196 -1.987,9.863c-1.284,2.775 -2.259,3.958 -4.975,6.025c-4.188,3.192 -8.234,4.567 -13.375,4.558c-2.759,-0.008 -3.584,-0.146 -5.821,-0.975c-5.938,-2.196 -10.217,-6.387 -12.279,-12.029c-0.729,-1.992 -0.763,-2.362 -0.563,-6.85c0.167,-3.725 0.113,-4.975 -0.241,-5.833c-0.584,-1.4 -22.509,-20.142 -23.125,-19.767c-0.221,0.138 -1.63,1.179 -3.134,2.317c-1.5,1.141 -4.108,2.983 -5.787,4.1c-3.338,2.216 -5.804,4.633 -6.538,6.404c-0.921,2.212 -1.25,4.65 -0.871,6.429c0.713,3.346 17.017,49.392 17.98,50.792c1.791,2.587 4.587,4.796 9.82,7.762c7.225,4.088 11.117,9.634 12.075,17.196c1.321,10.458 -6.154,20.963 -16.579,23.296c-1.929,0.433 -3.337,0.517 -6.216,0.375c-3.246,-0.163 -4.08,-0.329 -6.525,-1.304c-3.417,-1.363 -5.255,-2.688 -8.388,-6.038c-1.883,-2.012 -2.625,-3.104 -3.425,-5.041c-2.275,-5.492 -2.492,-10.563 -0.696,-16.35c1.629,-5.263 2.009,-9.421 1.154,-12.73c-0.27,-1.058 -5.479,-12.258 -11.575,-24.883c-10.562,-21.887 -11.154,-23.025 -12.762,-24.542c-2.679,-2.529 -6.213,-3.687 -9.471,-3.112c-0.846,0.146 -3.2,0.562 -5.233,0.925c-2.034,0.362 -5.713,0.892 -8.179,1.175c-2.463,0.287 -4.525,0.562 -4.575,0.612c-0.109,0.109 -1.992,26.3 -2.075,28.871c-0.067,2.017 0.458,2.792 3.429,5.042c7.654,5.796 9.666,17.504 4.425,25.746c-2.388,3.754 -6.488,7 -10.704,8.471c-3.075,1.075 -8.171,1.012 -11.734,-0.146c-3.146,-1.021 -6.033,-2.709 -8.546,-4.996c-1.475,-1.342 -2.22,-2.383 -3.35,-4.692c-3.083,-6.275 -3.17,-11.996 -0.275,-17.9c1.13,-2.3 2.005,-3.271 5.859,-6.504c3.125,-2.621 3.033,-1.533 1.621,-18.808c-0.671,-8.267 -1.23,-15.125 -1.238,-15.238c-0.008,-0.108 -1.425,-0.375 -3.15,-0.591c-1.725,-0.213 -5.442,-0.813 -8.262,-1.33c-5.821,-1.066 -7.625,-0.979 -10.667,0.517c-3.392,1.667 -3.688,2.179 -15.592,26.825c-6.037,12.504 -11.154,23.5 -11.429,24.571c-0.671,2.6 -0.396,6.796 0.725,10.992c1.625,6.112 1.821,7.308 1.646,10.183c-0.204,3.396 -1.692,8.233 -3.229,10.525c-2.513,3.737 -7.225,7.333 -11.688,8.917c-2.821,1 -9.104,1.15 -12.25,0.291Z" style="fill:#cbd9e6;fill-rule:nonzero;stroke:#fff;stroke-width:4.17px;"></path><path d="M3628.58,6666c-1.52,-0.412 -2.641,-1.087 -3.879,-2.329c-1.733,-1.738 -2.483,-3.559 -2.487,-6.017c-0,-3.129 1.566,-5.846 4.291,-7.429c2.742,-1.596 4.192,-2.771 4.725,-3.821c0.142,-0.283 1.771,-4.841 3.617,-10.125c3.15,-9.008 3.358,-9.658 3.358,-10.5c0,-1.15 -0.379,-2.183 -1.075,-2.946c-0.291,-0.316 -1.221,-1.05 -2.071,-1.629c-0.849,-0.579 -2.07,-1.462 -2.708,-1.962c-0.642,-0.505 -1.233,-0.959 -1.317,-1.013c-0.166,-0.1 -9.141,7.592 -9.504,8.15c-0.166,0.254 -0.183,0.463 -0.091,1.117c0.191,1.375 0.108,3.037 -0.2,3.971c-0.825,2.483 -2.917,4.537 -5.342,5.25c-1.229,0.362 -3.446,0.304 -4.767,-0.125c-2.346,-0.759 -3.979,-2.425 -4.916,-5.017c-0.305,-0.837 -0.346,-1.133 -0.346,-2.562c-0,-1.359 0.046,-1.759 0.3,-2.492c0.575,-1.675 1.954,-3.358 3.5,-4.271c1.391,-0.821 1.95,-0.937 4.3,-0.896c1.8,0.034 2.1,0.008 2.404,-0.196c0.187,-0.125 2.096,-2.287 4.233,-4.804c3.742,-4.404 3.884,-4.587 3.704,-4.871c-0.1,-0.158 -0.62,-0.866 -1.158,-1.566c-0.537,-0.7 -1.283,-1.738 -1.662,-2.309c-1.18,-1.783 -1.967,-2.466 -3.271,-2.846c-1.425,-0.416 -1.513,-0.395 -11.709,3.163c-5.162,1.8 -9.641,3.392 -9.954,3.537c-1.229,0.58 -2.821,2.459 -4.008,4.742c-0.642,1.229 -2.108,2.671 -3.396,3.333c-1.508,0.775 -2.412,0.988 -4.242,0.98c-1.241,-0.005 -1.704,-0.063 -2.366,-0.292c-1.213,-0.417 -2.034,-0.863 -2.954,-1.608c-1.684,-1.363 -2.596,-2.892 -3.042,-5.117c-0.717,-3.567 1.129,-7.404 4.375,-9.083c1.542,-0.8 2.504,-1.034 4.179,-1.03c1.108,0.005 1.596,0.075 2.7,0.396c2.271,0.654 3.896,0.813 5.271,0.517c1.004,-0.217 18.679,-8.767 19.542,-9.454c1.495,-1.188 1.829,-2.725 1.245,-5.729c-0.179,-0.925 -0.395,-2.292 -0.483,-3.038c-0.087,-0.75 -0.204,-1.412 -0.262,-1.479c-0.059,-0.067 -2.804,-0.313 -6.109,-0.542c-6.866,-0.483 -6.345,-0.533 -7.3,0.717c-2.475,3.233 -6.491,4.142 -10.083,2.275c-1.346,-0.7 -2.112,-1.404 -2.971,-2.721c-1.425,-2.196 -1.633,-4.487 -0.637,-7.017c0.766,-1.95 2.004,-3.362 3.654,-4.175c1.342,-0.658 2.321,-0.904 3.662,-0.908c1.371,0 2.259,0.184 3.421,0.721c0.929,0.425 1.467,0.896 2.713,2.35c1.116,1.308 0.604,1.262 7.562,0.692c3.321,-0.271 6.05,-0.5 6.063,-0.505c0.008,-0.008 0.058,-0.437 0.108,-0.95c0.088,-0.895 0.475,-3.362 0.883,-5.587c0.463,-2.533 -0.529,-4.275 -3.17,-5.55c-0.655,-0.313 -4.713,-2.271 -9.03,-4.35c-4.312,-2.079 -8.075,-3.867 -8.354,-3.975c-0.883,-0.337 -3.208,-0.254 -4.758,0.162c-2.471,0.671 -2.892,0.738 -4.179,0.663c-1.463,-0.087 -2.3,-0.321 -3.646,-1.021c-2.958,-1.541 -4.804,-4.871 -4.529,-8.166c0.104,-1.288 0.696,-3.1 1.304,-4.025c0.512,-0.775 1.983,-2.221 2.762,-2.717c0.288,-0.184 0.967,-0.504 1.513,-0.721c0.85,-0.337 1.212,-0.404 2.596,-0.463c1.954,-0.087 2.746,0.08 4.462,0.942c1.525,0.767 2.896,2.146 3.767,3.8c1.096,2.083 2.408,3.596 3.687,4.25c0.3,0.154 4.813,1.767 10.03,3.592c8.737,3.05 9.562,3.312 10.391,3.325c1.921,0.025 2.971,-0.679 4.629,-3.104c0.634,-0.929 1.492,-2.121 1.9,-2.646c0.409,-0.525 0.746,-1 0.75,-1.058c0,-0.055 -1.716,-2.08 -3.812,-4.492c-4.225,-4.854 -4.079,-4.738 -5.438,-4.513c-2.441,0.405 -4.9,-0.325 -6.641,-1.966c-1.071,-1.004 -1.696,-1.971 -2.171,-3.338c-0.679,-1.971 -0.488,-4.254 0.529,-6.275c0.467,-0.933 0.879,-1.433 1.696,-2.062c0.962,-0.746 1.946,-1.275 3.029,-1.638c1.2,-0.404 3.488,-0.437 4.563,-0.066c2.595,0.887 4.462,2.704 5.275,5.12c0.258,0.771 0.275,0.992 0.191,2.613c-0.05,0.975 -0.05,1.95 0,2.171c0.067,0.32 0.929,1.112 4.584,4.22l4.5,3.83l0.47,-0.384c1.384,-1.108 2.813,-2.171 4.075,-3.021c1.625,-1.095 2.346,-1.787 2.775,-2.666c0.255,-0.517 0.305,-0.821 0.309,-1.846l-0,-1.229l-3.254,-9.313c-1.796,-5.121 -3.405,-9.612 -3.575,-9.979c-0.484,-1.025 -1.871,-2.237 -4.038,-3.533c-1.071,-0.638 -2.121,-1.375 -2.5,-1.754c-3.175,-3.163 -3.454,-8.059 -0.667,-11.579c0.738,-0.93 1.459,-1.517 2.655,-2.163c1.404,-0.758 2.341,-0.975 4.179,-0.967c1.646,0.004 2.408,0.184 3.891,0.913c0.921,0.454 2.38,1.712 3.059,2.637c1.05,1.442 1.708,3.805 1.558,5.605c-0.042,0.499 -0.25,1.516 -0.462,2.266c-0.7,2.467 -0.825,4.075 -0.417,5.388c0.129,0.412 2.196,4.825 4.596,9.804c4.8,9.958 4.746,9.867 6.266,10.587c1.059,0.505 2.034,0.563 3.692,0.225c0.746,-0.15 2.217,-0.391 3.271,-0.533c1.054,-0.142 1.942,-0.283 1.971,-0.312c0.029,-0.034 0.233,-2.588 0.45,-5.68l0.396,-5.625l-0.334,-0.437c-0.183,-0.242 -0.662,-0.667 -1.062,-0.946c-1.321,-0.912 -2.454,-2.746 -2.846,-4.596c-0.388,-1.833 0.033,-4.171 1.029,-5.721c0.563,-0.879 2.021,-2.262 2.908,-2.766c0.388,-0.221 1.134,-0.53 1.655,-0.688c0.816,-0.25 1.141,-0.279 2.316,-0.217c2.196,0.117 3.904,0.85 5.559,2.392c0.604,0.563 0.891,0.971 1.329,1.892c0.683,1.433 0.887,2.279 0.887,3.633c0,1.304 -0.208,2.204 -0.787,3.404c-0.359,0.75 -0.646,1.113 -1.363,1.746c-1.317,1.163 -1.883,1.754 -2.017,2.113c-0.104,0.271 0.33,6.741 0.717,10.729l0.079,0.792l0.988,0.087c1.396,0.125 3.462,0.429 5.037,0.742c1.642,0.325 2.642,0.266 3.663,-0.221c1.521,-0.721 1.462,-0.625 6.337,-10.729c5.017,-10.409 4.959,-10.246 4.692,-12.371c-0.083,-0.663 -0.342,-1.846 -0.575,-2.629c-0.379,-1.271 -0.421,-1.588 -0.417,-2.975c0,-1.405 0.042,-1.663 0.417,-2.759c0.504,-1.462 1.071,-2.354 2.125,-3.337c1.112,-1.034 2.071,-1.625 3.321,-2.046c0.912,-0.304 1.3,-0.363 2.554,-0.371c1.625,-0.016 2.458,0.142 3.679,0.692c2.246,1.012 3.838,2.746 4.629,5.041c0.659,1.896 0.634,3.876 -0.071,5.813c-0.679,1.871 -1.975,3.404 -3.766,4.458c-2.763,1.621 -4.021,2.634 -4.659,3.742c-0.166,0.296 -1.825,4.871 -3.679,10.171c-3.183,9.087 -3.375,9.683 -3.375,10.537c0,1.096 0.359,2.113 1.004,2.875c0.246,0.288 1.071,0.95 1.834,1.467c0.758,0.517 2.096,1.487 2.966,2.154l1.584,1.217l0.725,-0.621c5.237,-4.488 7.575,-6.583 7.721,-6.929c0.133,-0.313 0.137,-0.575 0.033,-1.196c-0.7,-4.042 1.762,-7.946 5.692,-9.017c0.745,-0.2 1.195,-0.237 2.395,-0.187c2.325,0.1 3.892,0.754 5.23,2.191c2.375,2.551 3.012,6.238 1.579,9.121c-0.829,1.667 -2.525,3.246 -4.225,3.938c-0.65,0.262 -0.934,0.287 -3.046,0.291c-1.875,0 -2.371,0.038 -2.558,0.192c-0.421,0.35 -7.284,8.417 -7.242,8.513c0.025,0.05 0.504,0.691 1.071,1.425c0.566,0.733 1.491,2.012 2.058,2.841c1.529,2.238 2.596,2.925 4.5,2.9c0.829,-0.012 1.646,-0.271 10.413,-3.329c5.233,-1.825 9.775,-3.467 10.095,-3.65c0.317,-0.179 0.813,-0.517 1.096,-0.75c0.609,-0.492 1.975,-2.375 2.529,-3.487c0.513,-1.021 1.605,-2.375 2.375,-2.942c0.925,-0.679 2.305,-1.329 3.355,-1.588c1.237,-0.3 3.6,-0.212 4.695,0.18c1.38,0.495 2.309,1.087 3.45,2.216c0.88,0.871 1.205,1.3 1.567,2.071c0.65,1.379 0.896,2.442 0.904,3.879c0.017,3.879 -2.483,7.209 -6.279,8.354c-0.554,0.167 -1.204,0.234 -2.312,0.238c-1.363,0.004 -1.713,-0.046 -2.959,-0.413c-2.291,-0.666 -4.121,-0.8 -5.466,-0.391c-0.884,0.271 -18.463,8.804 -19.05,9.25c-0.98,0.746 -1.396,1.462 -1.646,2.858c-0.117,0.65 -0.084,1.013 0.25,2.804c0.212,1.129 0.483,2.888 0.6,3.904c0.196,1.688 0.241,1.855 0.483,1.905c0.15,0.029 2.658,0.216 5.579,0.412c5.213,0.354 5.313,0.354 5.75,0.117c0.246,-0.134 0.629,-0.525 0.85,-0.871c0.854,-1.338 2.642,-2.558 4.421,-3.017c0.938,-0.241 2.538,-0.271 3.654,-0.066c1.584,0.291 3.517,1.504 4.521,2.841c1.317,1.75 1.729,3.042 1.629,5.109c-0.146,2.962 -1.796,5.6 -4.246,6.783c-1.516,0.729 -2.012,0.842 -3.758,0.833c-1.612,-0.004 -2.079,-0.108 -3.479,-0.766c-0.617,-0.292 -1.075,-0.713 -2.617,-2.4c-0.366,-0.405 -0.837,-0.805 -1.046,-0.892c-0.312,-0.129 -1.329,-0.083 -5.62,0.25c-2.88,0.225 -5.417,0.437 -5.638,0.471l-0.396,0.062l-0.158,1.325c-0.088,0.729 -0.329,2.225 -0.542,3.329c-0.325,1.705 -0.362,2.113 -0.254,2.734c0.321,1.858 1.138,2.816 3.279,3.85c14.1,6.796 17.329,8.321 17.875,8.437c1.084,0.238 2.904,0.059 4.896,-0.471c2.933,-0.783 4.883,-0.65 7.046,0.48c1.262,0.658 1.962,1.233 2.808,2.295c1.892,2.388 2.35,5.442 1.263,8.438c-0.859,2.371 -2.821,4.2 -5.525,5.137c-0.675,0.238 -1.129,0.296 -2.375,0.305c-1.842,0.012 -2.717,-0.192 -4.229,-0.971c-1.267,-0.659 -2.75,-2.092 -3.425,-3.321c-1.384,-2.521 -2.684,-4.079 -3.93,-4.704c-0.35,-0.175 -4.858,-1.796 -10.02,-3.604l-9.384,-3.284l-1.096,0c-1.866,0 -2.933,0.634 -4.15,2.459c-0.962,1.437 -2.5,3.512 -3.325,4.479c-0.341,0.4 -0.625,0.766 -0.625,0.816c0,0.05 1.717,2.063 3.817,4.475c4.279,4.921 3.921,4.642 5.663,4.417c1.037,-0.133 2.25,-0.046 3.25,0.225c1.025,0.283 2.479,1.133 3.258,1.908c1.596,1.596 2.275,3.125 2.371,5.342c0.066,1.554 -0.121,2.475 -0.796,3.942c-0.513,1.112 -0.904,1.587 -1.988,2.412c-1.679,1.275 -3.295,1.825 -5.35,1.821c-1.104,0 -1.433,-0.058 -2.329,-0.387c-2.375,-0.88 -4.087,-2.559 -4.912,-4.813c-0.292,-0.796 -0.304,-0.946 -0.225,-2.742c0.066,-1.487 0.046,-1.987 -0.096,-2.333c-0.233,-0.558 -9.004,-8.054 -9.25,-7.904c-0.092,0.054 -0.654,0.471 -1.254,0.925c-0.6,0.458 -1.642,1.196 -2.317,1.642c-1.333,0.887 -2.321,1.854 -2.617,2.562c-0.366,0.883 -0.495,1.858 -0.345,2.571c0.287,1.337 6.804,19.754 7.191,20.317c0.717,1.033 1.834,1.916 3.929,3.104c2.888,1.633 4.446,3.854 4.83,6.879c0.529,4.183 -2.463,8.383 -6.63,9.317c-0.775,0.175 -1.337,0.208 -2.487,0.15c-1.3,-0.063 -1.633,-0.13 -2.613,-0.521c-1.366,-0.546 -2.1,-1.075 -3.354,-2.417c-0.754,-0.804 -1.05,-1.237 -1.371,-2.017c-0.908,-2.195 -0.995,-4.22 -0.279,-6.537c0.654,-2.104 0.804,-3.771 0.463,-5.092c-0.109,-0.425 -2.192,-4.904 -4.629,-9.954c-4.225,-8.754 -4.463,-9.208 -5.105,-9.817c-1.075,-1.012 -2.483,-1.475 -3.791,-1.245c-0.338,0.058 -1.279,0.225 -2.092,0.37c-0.812,0.146 -2.283,0.359 -3.271,0.471c-0.987,0.113 -1.808,0.225 -1.829,0.246c-0.046,0.042 -0.796,10.517 -0.829,11.546c-0.029,0.808 0.183,1.117 1.371,2.017c3.062,2.32 3.866,7.004 1.771,10.3c-0.959,1.5 -2.596,2.8 -4.284,3.387c-1.229,0.429 -3.266,0.404 -4.691,-0.058c-1.259,-0.409 -2.417,-1.084 -3.421,-1.996c-0.592,-0.538 -0.888,-0.954 -1.342,-1.879c-1.229,-2.509 -1.267,-4.8 -0.108,-7.159c0.454,-0.92 0.804,-1.308 2.341,-2.604c1.255,-1.05 1.217,-0.612 0.65,-7.521c-0.266,-3.308 -0.491,-6.05 -0.495,-6.095c-0.005,-0.046 -0.571,-0.15 -1.259,-0.238c-0.687,-0.087 -2.175,-0.325 -3.304,-0.533c-2.329,-0.425 -3.05,-0.392 -4.267,0.208c-1.358,0.667 -1.475,0.871 -6.237,10.729c-2.417,5.004 -4.463,9.4 -4.571,9.829c-0.271,1.042 -0.158,2.717 0.288,4.396c0.654,2.446 0.729,2.925 0.658,4.075c-0.079,1.359 -0.675,3.292 -1.292,4.209c-1.004,1.495 -2.887,2.933 -4.671,3.566c-1.129,0.4 -3.645,0.463 -4.904,0.117Z" style="fill:#cbd9e6;fill-rule:nonzero;stroke:#fff;stroke-width:4.17px;"></path><path d="M1805.55,6666.67l3611.11,-0c76.191,-0 138.887,62.695 138.887,138.887l0,277.779c0,76.192 -62.696,138.888 -138.887,138.888l-3611.11,-0c-76.192,-0 -138.887,-62.696 -138.887,-138.888l-0,-277.779c-0,-76.191 62.696,-138.887 138.887,-138.887Z" style="fill:#cbd9e6;fill-opacity:0.4;fill-rule:nonzero;stroke:#fff;stroke-width:4.17px;"></path></g><path d="M8055.55,7777.79l-22.408,-0c550.392,-609.059 855.475,-1401.32 855.729,-2222.22c0,-1838.19 -1495.14,-3333.33 -3333.33,-3333.33l-0,1111.11c1219.08,-0 2222.22,1003.15 2222.22,2222.22c-0,1219.08 -1003.15,2222.22 -2222.22,2222.22l-4722.21,-0c-457.154,-0 -833.333,376.179 -833.333,833.333c0,152.383 125.392,277.775 277.779,277.775l8333.33,0c152.383,0 277.774,-125.392 277.774,-277.775c0.001,-457.154 -376.179,-833.333 -833.333,-833.333Zm-5277.8,-2222.22l208.333,-0l0,277.779c0,152.383 125.392,277.779 277.775,277.779l694.446,-0c152.383,-0 277.779,-125.396 277.779,-277.779l0,-277.779l208.334,-0c304.766,-0 555.554,-250.784 555.554,-555.555l-0,-3888.89c-0,-304.771 -250.788,-555.558 -555.554,-555.558l-0,-277.775c-0,-152.388 -125.396,-277.78 -277.78,-277.78l-1111.11,0c-152.383,0 -277.775,125.392 -277.775,277.78l-0,277.775c-304.771,-0 -555.558,250.787 -555.558,555.558l-0,3888.89c-0,304.771 250.787,555.555 555.558,555.555Z" style="fill:#cbd9e6;fill-rule:nonzero;stroke:#fff;stroke-width:4.17px;"></path></svg> 