<svg xmlns="http://www.w3.org/2000/svg" xmlns:xlink="http://www.w3.org/1999/xlink" width="100%" height="100%" version="1.1" viewBox="0 0 8892 8892" xml:space="preserve" style="fill-rule:evenodd;clip-rule:evenodd;stroke-linejoin:round;stroke-miterlimit:2"><g><path d="M3611.11,1388.89c1219.07,0.008 2222.21,1003.15 2222.21,2222.22c-0,1219.08 -1003.15,2222.22 -2222.22,2222.22c-1219.08,0 -2222.22,-1003.15 -2222.22,-2222.22c0,-589.15 234.288,-1154.77 650.879,-1571.35c415.659,-417.966 981.892,-652.504 1571.36,-650.871m-0,-1388.89c-1994.45,-0 -3611.11,1616.67 -3611.11,3611.11c0,1994.44 1616.67,3611.11 3611.11,3611.11c1994.44,-0 3611.11,-1616.67 3611.11,-3611.11c-0,-1994.44 -1616.67,-3611.11 -3611.11,-3611.11Z" style="fill:#cbd9e6;fill-opacity:.4;fill-rule:nonzero;stroke:#fff;stroke-width:4.17px"/><path d="M8765.62,8276.04l-491.321,491.321c-77.854,78.316 -183.837,122.404 -294.271,122.404c-110.429,-0 -216.416,-44.088 -294.27,-122.404l-1730.9,-1730.9c-78.051,-78.32 -121.801,-184.57 -121.53,-295.137l0,-282.988l625,-625l282.988,0c110.566,-0.27 216.816,43.48 295.137,121.53l1730.9,1730.9c160.8,162.666 160.016,428.562 -1.738,590.279Z" style="fill:#cbd9e6;fill-rule:nonzero;stroke:#fff;stroke-width:4.17px"/><path d="M3652.7,3734.12c90.233,-44.879 177.975,-94.608 262.834,-148.971c-55.8,-32.741 -113.305,-63.896 -172.513,-93.462c-231.271,-115.259 -428.483,-256.496 -586,-419.825c-99.879,-102.984 -185.929,-218.538 -255.975,-343.742l1878.2,-0l0,-377.8l-2025.31,-0c-9.009,-38.829 -14.821,-72.713 -19.067,-100.263c-6.513,-45.879 -46.371,-80.237 -92.704,-79.92l-187.567,0.812l-0.292,0c-51.016,0 -92.995,41.979 -92.995,92.996c-0,3.808 0.233,7.617 0.7,11.396c13.6,109.387 50.275,294.566 149.083,507.879c92.046,197.042 215.742,377.683 366.179,534.737c178.092,187.33 397.217,349.263 651.796,481.9c39.446,-22.32 80.654,-44.233 123.629,-65.737Zm1311.79,1307.31c-13.663,-109.505 -50.63,-294.805 -150.075,-508.175c-92.788,-197.463 -217.38,-378.35 -368.796,-535.434c-55.154,-57.562 -113.363,-112.121 -174.367,-163.441c-108.575,76.445 -222.108,145.587 -339.85,206.979c33.054,24.604 65.042,49.908 95.963,75.908l-1108.06,0l0,278.992l1375.84,-0c66.05,85.896 123.096,178.354 170.241,275.912c60.667,124.384 102.338,257.163 123.63,393.9c6.741,45.725 46.375,79.959 92.591,79.979l189.946,0c0.225,0 0.45,0.005 0.671,0.005c51.016,-0 93,-41.984 93,-93c-0,-3.888 -0.246,-7.771 -0.729,-11.625Z" style="fill:#cbd9e6;fill-opacity:.4;fill-rule:nonzero;stroke:#fff;stroke-width:4.17px"/><path d="M4964.54,2274.76c-13.663,109.504 -50.454,294.804 -149.496,508.233c-92.296,197.242 -216.313,378.025 -367.108,535.141c-189.538,198.955 -425.346,369.317 -700.909,506.313c-453.246,225.342 -704.804,513.692 -844.533,763.625l1519.05,-0c15.5,27.667 30.071,55.7 43.708,84.104c44.492,92.021 79.042,188.529 103.055,287.883l-1812.52,0c-9.821,41.271 -16.217,77.017 -20.284,105.846c-6.546,45.85 -46.275,80.242 -92.591,80.15l-188.088,0c-0.242,0.005 -0.487,0.005 -0.729,0.005c-51.017,-0.001 -92.996,-41.984 -92.996,-93.001c0,-3.887 0.242,-7.77 0.729,-11.624c13.659,-109.505 50.45,-294.805 149.492,-508.234c92.35,-197.254 216.429,-378.037 367.283,-535.142c189.542,-198.954 425.346,-369.316 700.909,-506.312c187.216,-92.996 339.966,-196.979 464.696,-304.45l-764.905,-0c-43.087,-37.121 -83.775,-75.6 -122.058,-115.433c-49.754,-51.559 -96.225,-106.184 -139.146,-163.559l1288.6,0c205.7,-274.108 266.438,-532.121 284.338,-658.016c6.545,-45.85 46.279,-80.242 92.591,-80.15l188.088,-0c0.183,-0 0.371,-0.004 0.554,-0.004c51.017,-0 93,41.983 93,93c-0,3.887 -0.246,7.77 -0.729,11.625Z" style="fill:#cbd9e6;fill-rule:nonzero;stroke:#fff;stroke-width:4.17px"/></g></svg>