<svg xmlns="http://www.w3.org/2000/svg" xmlns:xlink="http://www.w3.org/1999/xlink" width="100%" height="100%" version="1.1" viewBox="0 0 2134 2134" xml:space="preserve" style="fill-rule:evenodd;clip-rule:evenodd;stroke-linejoin:round;stroke-miterlimit:2"><path d="M866.667,333.333c292.577,0.002 533.33,240.757 533.33,533.334c0,292.578 -240.755,533.333 -533.333,533.333c-292.578,-0 -533.333,-240.755 -533.333,-533.333c-0,-141.396 56.229,-277.144 156.211,-377.125c99.758,-100.312 235.654,-156.601 377.125,-156.209m-0,-333.333c-478.667,0 -866.667,388 -866.667,866.667c-0,478.666 388,866.666 866.667,866.666c478.666,0 866.666,-388 866.666,-866.666c0,-478.667 -388,-866.667 -866.666,-866.667Z" style="fill:#0098e6;fill-opacity:.4;fill-rule:nonzero"/><path d="M2103.75,1986.25l-117.917,117.917c-18.685,18.796 -44.121,29.377 -70.625,29.377c-26.503,-0 -51.94,-10.581 -70.625,-29.377l-415.416,-415.417c-18.732,-18.797 -29.232,-44.297 -29.167,-70.833l-0,-67.917l150,-150l67.917,0c26.536,-0.065 52.036,10.435 70.833,29.167l415.417,415.416c38.592,39.04 38.404,102.855 -0.417,141.667Z" style="fill:#0098e6;fill-rule:nonzero"/><path d="M876.649,896.19c21.656,-10.771 42.714,-22.706 63.08,-35.753c-13.392,-7.858 -27.193,-15.335 -41.403,-22.431c-55.505,-27.662 -102.836,-61.559 -140.64,-100.758c-23.971,-24.716 -44.623,-52.449 -61.434,-82.498l450.768,0l0,-90.672l-486.074,-0c-2.162,-9.319 -3.557,-17.451 -4.576,-24.063c-1.563,-11.011 -11.129,-19.257 -22.249,-19.181l-45.016,0.195c-0.023,0 -0.047,0 -0.07,0c-12.244,0 -22.319,10.075 -22.319,22.319c-0,0.914 0.056,1.828 0.168,2.735c3.264,26.253 12.066,70.696 35.78,121.891c22.091,47.29 51.778,90.644 87.883,128.337c42.742,44.959 95.332,83.823 156.431,115.656c9.467,-5.357 19.357,-10.616 29.671,-15.777Zm314.829,313.755c-3.279,-26.281 -12.151,-70.753 -36.018,-121.962c-22.269,-47.391 -52.171,-90.804 -88.511,-128.504c-13.237,-13.815 -27.207,-26.909 -41.848,-39.226c-26.058,18.347 -53.306,34.941 -81.564,49.675c7.933,5.905 15.61,11.978 23.031,18.218l-265.935,-0l-0,66.958l330.201,0c15.852,20.615 29.543,42.805 40.858,66.219c14.56,29.852 24.561,61.719 29.671,94.536c1.618,10.974 11.13,19.19 22.222,19.195l45.587,0c0.054,0 0.108,0.001 0.161,0.001c12.244,-0 22.32,-10.076 22.32,-22.32c-0,-0.933 -0.059,-1.865 -0.175,-2.79Z" style="fill:#26b22f;fill-opacity:.4;fill-rule:nonzero"/><path d="M1191.49,545.943c-3.279,26.281 -12.109,70.753 -35.879,121.976c-22.151,47.338 -51.915,90.726 -88.106,128.434c-45.489,47.749 -102.083,88.636 -168.218,121.515c-108.779,54.082 -169.153,123.286 -202.688,183.27l364.573,-0c3.72,6.64 7.217,13.368 10.49,20.185c10.678,22.085 18.97,45.247 24.733,69.092l-435.005,0c-2.357,9.905 -3.892,18.484 -4.868,25.403c-1.571,11.004 -11.106,19.258 -22.222,19.236l-45.141,0c-0.058,0.001 -0.117,0.001 -0.175,0.001c-12.244,-0 -22.319,-10.076 -22.319,-22.32c-0,-0.933 0.058,-1.865 0.175,-2.79c3.278,-26.281 12.108,-70.753 35.878,-121.976c22.164,-47.341 51.943,-90.729 88.148,-128.434c45.49,-47.749 102.083,-88.636 168.218,-121.515c44.932,-22.319 81.592,-47.275 111.527,-73.068l-183.577,0c-10.341,-8.909 -20.106,-18.144 -29.294,-27.704c-11.941,-12.374 -23.094,-25.484 -33.395,-39.254l309.263,-0c49.368,-65.786 63.945,-127.709 68.241,-157.924c1.571,-11.004 11.107,-19.258 22.222,-19.236l45.141,-0c0.044,-0 0.089,-0.001 0.133,-0.001c12.244,0 22.32,10.076 22.32,22.32c-0,0.933 -0.059,1.865 -0.175,2.79Z" style="fill:#0098e6;fill-rule:nonzero"/></svg>