<?xml version="1.0" encoding="UTF-8"?> <!-- Generator: Adobe Illustrator 24.1.3, SVG Export Plug-In . SVG Version: 6.00 Build 0) --> <svg xmlns="http://www.w3.org/2000/svg" xmlns:xlink="http://www.w3.org/1999/xlink" version="1.1" id="Layer_1" x="0px" y="0px" viewBox="0 0 1920 1080" style="enable-background:new 0 0 1920 1080;" xml:space="preserve"> <g> <path d="M938.569,556.211c5.749,3.351,7.451,2.263,10.863-2.251c3.408-4.508,6.696-8.557,13.278-12.929 c8.422-5.594,12.802-13.156,20.021-20.274c2.541-2.505,5.86-3.79,3.172-6.527c-2.889-2.941-5.479-2.113-8.124,0.555 c-12.639,12.747-25.351,25.421-38.007,38.151C938.675,554.04,939.601,554.922,938.569,556.211z M942.703,567.902 c2.664,0,5.383,0.313,7.968-0.14c1.191-0.209,2.121-1.914,3.169-2.941c0.001-0.001,0.001-0.002,0-0.002 c-1.088-0.976-2.127-2.72-3.271-2.792c-4.977-0.312-9.995-0.314-14.972-0.01c-1.202,0.073-2.307,1.741-3.456,2.676 c1.19,1.068,2.237,2.747,3.601,3.065C937.952,568.274,940.372,567.897,942.703,567.902z M959.845,560.279 c-2.245,1.994-4.572,3.059-4.78,4.442c-0.516,3.434,2.625,3.467,4.76,3.094c1.869-0.327,3.539-1.798,5.297-2.764L959.845,560.279z M973.567,562.085c-0.984-1.068-2.634-1.263-3.859-0.439c-1.692,1.139-3.074,1.971-3.301,3.047c-0.73,3.459,2.481,3.49,4.61,3.123 c1.879-0.323,3.567-1.759,5.34-2.704L973.567,562.085z M982.73,569.609c0.001,0.001,0.003,0.001,0.005,0 c2.248-2.083,4.738-3.294,4.906-4.77c0.384-3.359-2.704-3.017-4.944-2.973c-2.176,0.043-5.358-0.517-4.857,2.984 C978.054,566.347,980.487,567.526,982.73,569.609z"></path> <path style="fill:#FFFFFF;stroke:#000000;stroke-miterlimit:10;" d="M940.566,558.306c-2.085-0.604-2.76-3.179-1.322-4.805 c0.171-0.193,0.346-0.382,0.527-0.564c12.656-12.73,25.368-25.404,38.007-38.151c2.646-2.668,5.235-3.496,8.124-0.555 c2.688,2.737-0.631,4.969-3.172,7.474c-7.219,7.118-12.352,12.738-20.021,19.326c-4.259,3.659-8.15,3.811-11.152,9.663 C949.542,554.625,945.052,559.607,940.566,558.306z"></path> <path style="fill:#FFFFFF;stroke:#000000;stroke-miterlimit:10;" d="M942.703,567.9c-2.331-0.002-4.751,0.375-6.962-0.141 c-1.365-0.318-2.411-1.997-3.601-3.065c1.149-0.935,2.254-2.602,3.456-2.676c4.977-0.303,9.995-0.302,14.972,0.01 c1.144,0.072,2.184,1.816,3.271,2.792c0.001,0.001,0.001,0.001,0,0.002c-1.048,1.027-1.977,2.733-3.169,2.941 C948.086,568.215,945.367,567.902,942.703,567.9z"></path> <path style="fill:#FFFFFF;stroke:#000000;stroke-miterlimit:10;" d="M959.845,560.279l5.277,4.772 c-1.758,0.966-3.427,2.437-5.297,2.764c-2.135,0.373-5.276,0.34-4.76-3.094C955.272,563.338,957.599,562.273,959.845,560.279z"></path> <path style="fill:#FFFFFF;stroke:#000000;stroke-miterlimit:10;" d="M971.781,560.147l2.059,2.234 c1.36,1.476,0.931,3.802-0.829,4.715c-0.648,0.336-1.308,0.602-1.994,0.72c-2.13,0.366-5.34,0.336-4.61-3.123 c0.315-1.494,2.857-2.519,5.366-4.547C971.776,560.144,971.779,560.144,971.781,560.147z"></path> <path style="fill:#FFFFFF;stroke:#000000;stroke-miterlimit:10;" d="M982.735,569.609c-0.001,0.001-0.003,0.001-0.005,0 c-2.243-2.082-4.677-3.262-4.891-4.759c-0.501-3.501,2.682-2.942,4.857-2.984c2.24-0.044,5.328-0.386,4.944,2.973 C987.472,566.314,984.983,567.525,982.735,569.609z"></path> </g> </svg> 