<?xml version="1.0" encoding="UTF-8" standalone="no"?> <svg xmlns="http://www.w3.org/2000/svg" xmlns:xlink="http://www.w3.org/1999/xlink" xmlns:serif="http://www.serif.com/" width="100%" height="100%" viewBox="0 0 250 250" version="1.1" xml:space="preserve" style="fill-rule:evenodd;clip-rule:evenodd;stroke-linejoin:round;stroke-miterlimit:2;"><g><path d="M48.546,149.133c-26.767,0 -48.546,-21.783 -48.546,-48.546l0,-64.875c0,-14.816 12.058,-26.875 26.875,-26.875c2.025,0 3.667,1.642 3.667,3.667c-0,2.025 -1.642,3.667 -3.667,3.667c-10.771,-0 -19.537,8.766 -19.537,19.537l-0,64.871c-0,22.725 18.491,41.209 41.212,41.209c22.725,-0 41.213,-18.488 41.213,-41.209l-0.001,-64.867c0.001,-10.77 -8.766,-19.537 -19.537,-19.537c-2.025,-0 -3.667,-1.642 -3.667,-3.667c0,-2.025 1.642,-3.666 3.667,-3.666c14.817,-0 26.875,12.058 26.875,26.875l0,64.87c-0.004,26.763 -21.783,48.546 -48.554,48.546Z" style="fill:#0098e6;fill-rule:nonzero;"></path></g><g><path d="M28.075,24.667c-2.025,-0 -3.667,-1.642 -3.667,-3.667l0,-15.279c0,-2.025 1.642,-3.667 3.667,-3.667c2.025,0 3.667,1.642 3.667,3.667l-0,15.279c0.004,2.025 -1.638,3.667 -3.667,3.667Z" style="fill:#0072bc;fill-rule:nonzero;"></path></g><g><path d="M68.825,24.667c-2.025,-0 -3.667,-1.642 -3.667,-3.667l0,-15.279c0,-2.025 1.642,-3.667 3.667,-3.667c2.025,0 3.667,1.642 3.667,3.667l-0,15.279c-0,2.025 -1.642,3.667 -3.667,3.667Z" style="fill:#0072bc;fill-rule:nonzero;"></path></g><g><path d="M89.85,247.95c-24.796,0 -44.971,-20.179 -44.971,-44.979l0,-57.504c0,-2.025 1.642,-3.671 3.667,-3.671c2.025,-0 3.667,1.646 3.667,3.671l-0,57.504c-0,20.758 16.883,37.642 37.633,37.642c20.75,-0 37.637,-16.884 37.637,-37.642l0,-150.525c0,-24.8 20.175,-44.971 44.971,-44.971c24.796,0 44.971,20.175 44.971,44.971l0,87.592c0,2.033 -1.646,3.67 -3.671,3.67c-2.025,0 -3.671,-1.637 -3.671,-3.671l0,-87.591c0,-20.75 -16.879,-37.638 -37.629,-37.638c-20.746,0 -37.637,16.884 -37.637,37.638l-0,150.525c0.004,24.8 -20.167,44.979 -44.967,44.979Z" style="fill:#0098e6;fill-rule:nonzero;"></path></g><g><path d="M213.763,211.992c-19.988,-0 -36.238,-16.246 -36.238,-36.234c-0,-19.983 16.25,-36.237 36.238,-36.237c19.979,-0 36.237,16.254 36.237,36.237c0,19.988 -16.258,36.234 -36.237,36.234Zm-0,-65.134c-15.934,0 -28.9,12.963 -28.9,28.9c-0,15.938 12.962,28.905 28.9,28.905c15.937,-0 28.899,-12.963 28.899,-28.905c-0.004,-15.937 -12.966,-28.9 -28.899,-28.9Z" style="fill:#0098e6;fill-rule:nonzero;"></path></g><g><path d="M213.763,195.117c-10.676,-0 -19.359,-8.688 -19.359,-19.359c0,-2.025 1.646,-3.67 3.671,-3.67c2.021,-0 3.662,1.645 3.662,3.67c0,6.634 5.396,12.03 12.034,12.03c6.625,-0 12.021,-5.396 12.021,-12.03c-0,-6.629 -5.396,-12.025 -12.021,-12.025c-2.025,0 -3.675,-1.641 -3.675,-3.666c-0,-2.025 1.65,-3.671 3.675,-3.671c10.675,-0 19.358,8.683 19.358,19.358c-0.008,10.675 -8.691,19.363 -19.366,19.363Z" style="fill:#0098e6;fill-rule:nonzero;"></path></g></svg> 