<svg xmlns="http://www.w3.org/2000/svg" xmlns:xlink="http://www.w3.org/1999/xlink" width="100%" height="100%" version="1.1" viewBox="0 0 8892 8892" xml:space="preserve" style="fill-rule:evenodd;clip-rule:evenodd;stroke-linejoin:round;stroke-miterlimit:2"><path d="M1805.55,6666.67l3611.11,-0c76.191,-0 138.887,62.695 138.887,138.887l0,277.779c0,76.192 -62.696,138.888 -138.887,138.888l-3611.11,-0c-76.192,-0 -138.887,-62.696 -138.887,-138.888l-0,-277.779c-0,-76.191 62.696,-138.887 138.887,-138.887Z" style="fill:#cbd9e6;fill-opacity:.4;fill-rule:nonzero;stroke:#fff;stroke-width:4.17px"/><path d="M8055.55,7777.79l-22.408,-0c550.392,-609.059 855.475,-1401.32 855.729,-2222.22c0,-1838.19 -1495.14,-3333.33 -3333.33,-3333.33l-0,1111.11c1219.08,-0 2222.22,1003.15 2222.22,2222.22c-0,1219.08 -1003.15,2222.22 -2222.22,2222.22l-4722.21,-0c-457.154,-0 -833.333,376.179 -833.333,833.333c0,152.383 125.392,277.775 277.779,277.775l8333.33,0c152.383,0 277.774,-125.392 277.774,-277.775c0.001,-457.154 -376.179,-833.333 -833.333,-833.333Zm-5277.8,-2222.22l208.333,-0l0,277.779c0,152.383 125.392,277.779 277.775,277.779l694.446,-0c152.383,-0 277.779,-125.396 277.779,-277.779l0,-277.779l208.334,-0c304.766,-0 555.554,-250.784 555.554,-555.555l-0,-3888.89c-0,-304.771 -250.788,-555.558 -555.554,-555.558l-0,-277.775c-0,-152.388 -125.396,-277.78 -277.78,-277.78l-1111.11,0c-152.383,0 -277.775,125.392 -277.775,277.78l-0,277.775c-304.771,-0 -555.558,250.787 -555.558,555.558l-0,3888.89c-0,304.771 250.787,555.555 555.558,555.555Z" style="fill:#cbd9e6;fill-rule:nonzero;stroke:#fff;stroke-width:4.17px"/><ellipse cx="3697.92" cy="6623.25" rx="260.417" ry="43.404" style="fill:#fff"/><ellipse cx="4131.95" cy="6675.33" rx="260.417" ry="43.404" style="fill:#fff"/><ellipse cx="3177.08" cy="6675.33" rx="260.417" ry="43.404" style="fill:#fff"/><path d="M1495.67,5071.83c-19.583,-70.975 -121.925,-74.279 -144.117,0c-115.362,389.046 -361.971,494.767 -361.971,768.971c0,242.759 194.13,439.179 434.03,439.179c239.895,0 434.025,-196.42 434.025,-439.179c-0,-275.583 -246.088,-378.15 -361.967,-768.971Zm-72.059,1050.32c-151.45,-0.187 -276.012,-124.75 -276.2,-276.196c0,-21.645 17.813,-39.458 39.455,-39.458c21.645,-0 39.458,17.813 39.458,39.458c0.121,108.179 89.104,197.163 197.287,197.284c21.646,-0 39.455,17.812 39.455,39.458c-0,21.646 -17.809,39.454 -39.455,39.454Z" style="fill:#cbd9e6;fill-opacity:.4;fill-rule:nonzero;stroke:#fff;stroke-width:4.17px"/><path d="M1423.61,6122.17c-151.451,-0.188 -276.013,-124.75 -276.201,-276.196c0,-21.646 17.813,-39.459 39.455,-39.459c21.645,0 39.458,17.813 39.458,39.459c0.121,108.179 89.104,197.162 197.287,197.283c21.646,0 39.455,17.813 39.455,39.458c-0,21.646 -17.809,39.455 -39.455,39.455Z" style="fill:#cbd9e6;fill-rule:nonzero;stroke:#fff;stroke-width:4.17px"/></svg>