<?xml version="1.0" encoding="UTF-8" standalone="no"?> <svg xmlns="http://www.w3.org/2000/svg" xmlns:xlink="http://www.w3.org/1999/xlink" xmlns:serif="http://www.serif.com/" width="100%" height="100%" viewBox="0 0 2134 2134" version="1.1" xml:space="preserve" style="fill-rule:evenodd;clip-rule:evenodd;stroke-linejoin:round;stroke-miterlimit:2;"><path d="M433.333,1600l866.667,0c18.286,0 33.333,15.047 33.333,33.333l0,66.667c0,18.286 -15.047,33.333 -33.333,33.333l-866.667,0c-18.286,0 -33.333,-15.047 -33.333,-33.333l0,-66.667c0,-18.286 15.047,-33.333 33.333,-33.333Z" style="fill:#0098e6;fill-opacity:0.4;fill-rule:nonzero;"></path><path d="M1933.33,1866.67l-5.375,-0c132.094,-146.174 205.314,-336.317 205.375,-533.334c0,-441.166 -358.833,-800 -800,-800l0,266.667c292.578,-0 533.334,240.755 533.334,533.333c-0,292.578 -240.756,533.334 -533.334,533.334l-1133.33,-0c-109.717,-0 -200,90.283 -200,200c0,36.572 30.094,66.666 66.667,66.666l2000,0c36.572,0 66.666,-30.094 66.666,-66.666c0,-109.717 -90.283,-200 -200,-200Zm-1266.67,-533.334l50,0l-0,66.667c-0,36.572 30.094,66.667 66.666,66.667l166.667,-0c36.572,-0 66.667,-30.095 66.667,-66.667l-0,-66.667l50,0c73.144,0 133.333,-60.188 133.333,-133.333l-0,-933.333c-0,-73.145 -60.189,-133.334 -133.333,-133.334l-0,-66.666c-0,-36.573 -30.095,-66.667 -66.667,-66.667l-266.667,-0c-36.572,-0 -66.666,30.094 -66.666,66.667l-0,66.666c-73.145,0 -133.334,60.189 -133.334,133.334l0,933.333c0,73.145 60.189,133.333 133.334,133.333Z" style="fill:#0098e6;fill-rule:nonzero;"></path><ellipse cx="887.5" cy="1589.58" rx="62.5" ry="10.417" style="fill:#f21a1a;"></ellipse><ellipse cx="991.667" cy="1602.08" rx="62.5" ry="10.417" style="fill:#f21a1a;"></ellipse><ellipse cx="762.5" cy="1602.08" rx="62.5" ry="10.417" style="fill:#f21a1a;"></ellipse><path d="M358.961,1217.24c-4.7,-17.034 -29.262,-17.827 -34.588,-0c-27.687,93.371 -86.873,118.744 -86.873,184.553c0,58.262 46.591,105.403 104.167,105.403c57.575,0 104.166,-47.141 104.166,-105.403c0,-66.14 -59.061,-90.756 -86.872,-184.553Zm-17.294,252.077c-36.348,-0.045 -66.243,-29.94 -66.288,-66.287c-0,-5.195 4.275,-9.47 9.469,-9.47c5.195,-0 9.47,4.275 9.47,9.47c0.029,25.963 21.385,47.319 47.349,47.348c5.195,-0 9.469,4.275 9.469,9.47c0,5.195 -4.274,9.469 -9.469,9.469Z" style="fill:#c40b0b;fill-opacity:0.4;fill-rule:nonzero;"></path><path d="M341.667,1469.32c-36.348,-0.045 -66.243,-29.94 -66.288,-66.287c-0,-5.195 4.275,-9.47 9.469,-9.47c5.195,-0 9.47,4.275 9.47,9.47c0.029,25.963 21.385,47.319 47.349,47.348c5.195,-0 9.469,4.275 9.469,9.47c0,5.195 -4.274,9.469 -9.469,9.469Z" style="fill:#c40b0b;fill-rule:nonzero;"></path></svg> 