<?xml version="1.0" encoding="UTF-8" standalone="no"?> <svg xmlns="http://www.w3.org/2000/svg" xmlns:xlink="http://www.w3.org/1999/xlink" xmlns:serif="http://www.serif.com/" width="100%" height="100%" viewBox="0 0 1467 2134" version="1.1" xml:space="preserve" style="fill-rule:evenodd;clip-rule:evenodd;stroke-linejoin:round;stroke-miterlimit:2;"><path d="M855.083,92.042c-33.083,-119.917 -206,-125.5 -243.5,-0c-194.916,657.333 -611.583,835.958 -611.583,1299.25c0,410.166 328,742.041 733.333,742.041c405.334,0 733.334,-331.875 733.334,-742.041c-0,-465.625 -415.792,-638.917 -611.584,-1299.25Zm-121.75,1774.62c-255.885,-0.32 -466.347,-210.782 -466.666,-466.667c-0,-36.572 30.094,-66.667 66.666,-66.667c36.573,0 66.667,30.095 66.667,66.667c0.205,182.784 150.55,333.128 333.333,333.333c36.573,0 66.667,30.095 66.667,66.667c0,36.572 -30.094,66.667 -66.667,66.667Z" style="fill:#ff0013;fill-opacity:0.8;fill-rule:nonzero;"></path><path d="M733.333,1866.67c-255.885,-0.32 -466.347,-210.782 -466.666,-466.667c-0,-36.572 30.094,-66.667 66.666,-66.667c36.573,0 66.667,30.095 66.667,66.667c0.205,182.784 150.55,333.128 333.333,333.333c36.573,0 66.667,30.095 66.667,66.667c-0,36.572 -30.094,66.667 -66.667,66.667Z" style="fill:#f71717;fill-opacity:0.6;fill-rule:nonzero;"></path></svg> 