<?xml version="1.0" encoding="UTF-8" standalone="no"?> <svg xmlns="http://www.w3.org/2000/svg" xmlns:xlink="http://www.w3.org/1999/xlink" xmlns:serif="http://www.serif.com/" width="100%" height="100%" viewBox="0 0 2134 2134" version="1.1" xml:space="preserve" style="fill-rule:evenodd;clip-rule:evenodd;stroke-linejoin:round;stroke-miterlimit:2;"><path d="M1943.75,348.667l-800,-333.334c-24.607,-9.304 -50.581,-14.485 -76.875,-15.333c-26.305,0.83 -52.294,5.997 -76.917,15.292l-800,333.333c-74.546,30.874 -123.371,104.022 -123.291,184.708c-0,827.084 477.083,1398.83 922.916,1584.67c49.204,20.448 104.588,20.448 153.792,0c357,-148.792 923.292,-662.583 923.292,-1584.67c0.047,-80.558 -48.582,-153.618 -122.917,-184.666Zm-343.75,718l-50.5,-0c-118.792,-0 -178.292,143.625 -94.292,227.625l35.75,35.708c12.499,12.499 19.529,29.469 19.529,47.146c-0,36.576 -30.098,66.674 -66.674,66.674c-17.677,0 -34.647,-7.029 -47.146,-19.528l-35.709,-35.75c-84,-84 -227.625,-24.5 -227.625,94.291l0,50.5c0,36.573 -30.094,66.667 -66.666,66.667c-36.573,0 -66.667,-30.094 -66.667,-66.667l0,-50.5c0,-118.791 -143.625,-178.291 -227.625,-94.291l-35.708,35.75c-12.499,12.499 -29.47,19.528 -47.146,19.528c-36.577,0 -66.674,-30.098 -66.674,-66.674c-0,-17.677 7.029,-34.647 19.528,-47.146l35.75,-35.708c84,-84 24.5,-227.625 -94.292,-227.625l-50.5,-0c-36.572,-0 -66.666,-30.095 -66.666,-66.667c-0,-36.572 30.094,-66.667 66.666,-66.667l50.5,0c118.792,0 178.292,-143.625 94.292,-227.625l-35.75,-35.708c-12.499,-12.499 -19.528,-29.469 -19.528,-47.146c-0,-36.576 30.097,-66.674 66.674,-66.674c17.676,-0 34.647,7.029 47.146,19.528l35.708,35.75c84,84 227.625,24.5 227.625,-94.291l-0,-50.5c0,-36.573 30.094,-66.667 66.667,-66.667c36.572,0 66.666,30.094 66.666,66.667l0,50.5c0,118.791 143.625,178.291 227.625,94.291l35.709,-35.75c12.499,-12.499 29.469,-19.528 47.145,-19.528c36.577,-0 66.675,30.098 66.675,66.674c-0,17.677 -7.03,34.647 -19.529,47.146l-35.75,35.708c-84,84 -24.5,227.625 94.292,227.625l50.5,0c36.572,0 66.667,30.095 66.667,66.667c-0,36.572 -30.095,66.667 -66.667,66.667Z" style="fill:#0098e6;fill-opacity:0.4;fill-rule:nonzero;"></path><path d="M1600,933.333l-50.5,0c-118.792,0 -178.292,-143.625 -94.292,-227.625l35.75,-35.708c12.499,-12.499 19.529,-29.469 19.529,-47.146c-0,-36.576 -30.098,-66.674 -66.675,-66.674c-17.676,-0 -34.646,7.029 -47.145,19.528l-35.709,35.75c-84,84 -227.625,24.5 -227.625,-94.291l0,-50.5c0,-36.573 -30.094,-66.667 -66.666,-66.667c-36.573,-0 -66.667,30.094 -66.667,66.667l0,50.5c0,118.791 -143.625,178.291 -227.625,94.291l-35.708,-35.75c-12.499,-12.499 -29.47,-19.528 -47.146,-19.528c-36.577,-0 -66.674,30.098 -66.674,66.674c-0,17.677 7.029,34.647 19.528,47.146l35.75,35.708c84,84 24.5,227.625 -94.292,227.625l-50.5,0c-36.572,0 -66.666,30.095 -66.666,66.667c-0,36.572 30.094,66.667 66.666,66.667l50.5,-0c118.792,-0 178.292,143.625 94.292,227.625l-35.75,35.708c-12.499,12.499 -19.528,29.469 -19.528,47.146c-0,36.576 30.097,66.674 66.674,66.674c17.676,0 34.647,-7.029 47.146,-19.528l35.708,-35.75c84,-84 227.625,-24.5 227.625,94.291l-0,50.5c0,36.573 30.094,66.667 66.667,66.667c36.572,0 66.666,-30.094 66.666,-66.667l0,-50.5c0,-118.791 143.625,-178.291 227.625,-94.291l35.709,35.75c12.499,12.499 29.469,19.528 47.145,19.528c36.577,0 66.675,-30.098 66.675,-66.674c-0,-17.677 -7.03,-34.647 -19.529,-47.146l-35.75,-35.708c-84,-84 -24.5,-227.625 94.292,-227.625l50.5,-0c36.572,-0 66.667,-30.095 66.667,-66.667c-0,-36.572 -30.095,-66.667 -66.667,-66.667Zm-666.667,0c-36.572,0 -66.666,-30.094 -66.666,-66.666c-0,-36.573 30.094,-66.667 66.666,-66.667c36.573,0 66.667,30.094 66.667,66.667c0,36.572 -30.094,66.666 -66.667,66.666Zm266.667,266.667c-36.572,0 -66.667,-30.094 -66.667,-66.667c0,-36.572 30.095,-66.666 66.667,-66.666c36.572,-0 66.667,30.094 66.667,66.666c-0,36.573 -30.095,66.667 -66.667,66.667Z" style="fill:#0098e6;fill-rule:nonzero;"></path></svg> 