<svg xmlns="http://www.w3.org/2000/svg" xmlns:xlink="http://www.w3.org/1999/xlink" width="100%" height="100%" version="1.1" viewBox="0 0 2667 2134" xml:space="preserve" style="fill-rule:evenodd;clip-rule:evenodd;stroke-linejoin:round;stroke-miterlimit:2"><path d="M1678.04,832.167l-149.542,75c-79.128,39.269 -129.321,120.372 -129.167,208.708l0,950.875c0,36.572 30.095,66.667 66.667,66.667l66.667,-0c36.572,-0 66.666,-30.095 66.666,-66.667l0,-951.042c0.031,-12.657 7.267,-24.248 18.625,-29.833l99.459,-49.75l8.875,-30.792c20.5,-70.583 -12.709,-131.5 -48.25,-173.166Zm-411.917,283.333c0.224,-88.355 -49.991,-169.492 -129.167,-208.708l-149.333,-74.667c-35.708,42.167 -68.958,104.167 -48.583,176.083l7.583,27.042l100.875,50.458c11.31,5.62 18.493,17.204 18.5,29.834l0,951.125c0,36.572 30.094,66.666 66.667,66.666l66.666,0c36.573,0 66.667,-30.094 66.667,-66.666l0,-200l0.125,-751.167Z" style="fill:#07e9cb;fill-opacity:.4;fill-rule:nonzero"/><path d="M2666.25,933.333c-8.708,-308.333 -149.208,-609 -400,-832.083c-73.24,-65.207 -167.959,-101.263 -266.021,-101.263c-219.463,0 -400.054,180.591 -400.054,400.055c-0,114.1 48.814,222.919 134.033,298.791c206.667,183.834 110.375,379.792 107.334,390.459c-72.834,252.375 115.208,510.708 384.666,510.708c177.771,-0.095 335.177,-118.601 384.417,-289.417c23.083,-80.291 60.583,-200.333 55.625,-377.25Zm-2266.25,-831.75c-249.667,222.792 -390.042,523.417 -399.458,831.75c-5.334,175 31.125,295.459 53.625,375.25c48.461,171.818 206.354,291.37 384.875,291.417c267.958,0 456.875,-256.125 385.291,-508.792c-4.166,-15.416 -96.166,-210.125 108.625,-392.791c84.959,-75.867 133.601,-184.515 133.601,-298.417c-0,-219.477 -180.603,-400.08 -400.08,-400.08c-98.271,0 -193.179,36.208 -266.479,101.663Z" style="fill:#0098e6;fill-rule:nonzero"/></svg>