<?xml version="1.0" encoding="UTF-8" standalone="no"?> <svg xmlns="http://www.w3.org/2000/svg" xmlns:xlink="http://www.w3.org/1999/xlink" xmlns:serif="http://www.serif.com/" width="100%" height="100%" viewBox="0 0 2134 2134" version="1.1" xml:space="preserve" style="fill-rule:evenodd;clip-rule:evenodd;stroke-linejoin:round;stroke-miterlimit:2;"><g><path d="M813.03,1813.07l-55.721,223.755c-13.877,56.478 -64.931,96.505 -123.088,96.505c-59.008,0 -110.587,-41.205 -123.62,-98.755l-32.5,-141.458c-44.209,-192.333 -68.917,-388.167 -87.25,-584.792c-15.042,-161.208 -53.875,-315.75 -151.209,-447.291c-91.333,-123.292 -131.791,-286.584 -89.666,-460c45.833,-188.542 196.375,-341.875 383.333,-390.5c97.625,-25.375 192.125,-2.25 278.375,42.958l418.917,269.25c10.575,6.588 22.789,10.081 35.248,10.081c36.573,-0 66.667,-30.095 66.667,-66.667c0,-22.313 -11.202,-43.197 -29.79,-55.539l-118,-75.875c14.75,-7.292 30.208,-12.875 43.75,-22.833c109,-80.125 237.291,-136.209 371.5,-101.375c187,48.583 337.5,201.958 383.333,390.5c42.208,173.458 1.75,336.75 -89.708,460.125c-97.375,131.541 -136.209,286.041 -151.25,447.166c-18.375,196.5 -43.042,392.375 -87.25,584.667l-32.5,141.458c-13.033,57.55 -64.613,98.755 -123.62,98.755c-58.158,0 -109.211,-40.027 -123.089,-96.505l-33.509,-134.534c3.222,-11.597 6.905,-23.017 11.041,-34.225c52.127,-4.043 103.958,-9.229 155.676,-13.24c32.432,-11.386 52.179,-32.529 64.865,-67.831c12.686,-35.303 -9.443,-79.345 -22.452,-122.461c-8.941,-27.789 8.751,-51.573 19.841,-72.978c11.09,-21.405 -29.308,-41.151 -19.729,-52.867c9.58,-11.715 20.517,-16.532 20.941,-37.577c0.425,-21.044 -20.454,-30.398 -22.404,-52.893c-3.106,-13.533 -13.54,-31.401 -7.863,-43.047c8.234,-15.814 23.907,-12.593 37.526,-19.953c13.596,-12.961 43.136,-27.158 35.789,-60.907c-11.955,-56.038 -110.24,-167.248 -155.084,-244.315c6.121,-23.144 7.039,-47.769 2.67,-71.647c-38.843,-217.142 -211.857,-416.876 -490.52,-356.045c-315.472,68.822 -430.527,412.295 -285.614,785.336c41.851,107.416 98.73,119.581 120.39,231.83c0,0 4.802,25.369 5.574,143.724Z" style="fill:#0098e6;fill-rule:nonzero;"></path></g></svg> 