<?xml version="1.0" encoding="UTF-8" standalone="no"?> <svg xmlns="http://www.w3.org/2000/svg" xmlns:xlink="http://www.w3.org/1999/xlink" xmlns:serif="http://www.serif.com/" width="100%" height="100%" viewBox="0 0 8892 8892" version="1.1" xml:space="preserve" style="fill-rule:evenodd;clip-rule:evenodd;stroke-linejoin:round;stroke-miterlimit:2;"><g><path d="M3387.62,7554.46l-232.171,932.313c-57.821,235.325 -270.546,402.104 -512.867,402.104c-245.866,0 -460.779,-171.688 -515.083,-411.479l-135.417,-589.409c-184.204,-801.387 -287.154,-1617.36 -363.541,-2436.63c-62.675,-671.7 -224.479,-1315.62 -630.038,-1863.71c-380.554,-513.717 -549.129,-1194.1 -373.608,-1916.67c190.971,-785.592 818.229,-1424.48 1597.22,-1627.08c406.771,-105.73 800.521,-9.375 1159.9,178.991l1745.49,1121.88c44.063,27.45 94.954,42.004 146.867,42.004c152.387,0 277.779,-125.395 277.779,-277.779c-0,-92.971 -46.675,-179.987 -124.125,-231.412l-491.667,-316.146c61.459,-30.383 125.867,-53.646 182.292,-95.138c454.167,-333.854 988.712,-567.537 1547.92,-422.395c779.166,202.429 1406.25,841.491 1597.22,1627.08c175.867,722.742 7.292,1403.12 -373.783,1917.19c-405.729,548.088 -567.537,1191.84 -630.208,1863.19c-76.563,818.75 -179.342,1634.9 -363.542,2436.11l-135.417,589.408c-54.304,239.792 -269.22,411.479 -515.083,411.479c-242.325,0 -455.046,-166.779 -512.871,-402.104l-139.621,-560.558c13.425,-48.321 28.771,-95.905 46.005,-142.605c217.195,-16.845 433.158,-38.454 648.65,-55.166c135.133,-47.442 217.412,-135.538 270.27,-282.629c52.859,-147.096 -39.345,-330.605 -93.55,-510.255c-37.254,-115.787 36.463,-214.887 82.671,-304.075c46.209,-89.187 -122.116,-171.462 -82.204,-220.279c39.917,-48.812 85.488,-68.883 87.254,-156.571c1.771,-87.683 -85.225,-126.658 -93.35,-220.387c-12.941,-56.388 -56.416,-130.838 -32.762,-179.363c34.308,-65.891 99.612,-52.47 156.358,-83.137c56.65,-54.004 179.733,-113.158 149.121,-253.779c-49.813,-233.492 -459.333,-696.867 -646.183,-1017.98c25.504,-96.434 29.329,-199.038 11.125,-298.53c-161.846,-904.758 -882.738,-1736.98 -2043.83,-1483.52c-1314.47,286.758 -1793.86,1717.89 -1190.06,3272.23c174.379,447.567 411.375,498.254 501.625,965.958c-0,0 20.008,105.704 23.225,598.85Z" style="fill:#cbd9e6;fill-rule:nonzero;stroke:#fff;stroke-width:4.17px;"></path></g></svg> 