<svg xmlns="http://www.w3.org/2000/svg" xmlns:xlink="http://www.w3.org/1999/xlink" width="100%" height="100%" version="1.1" viewBox="0 0 8892 8892" xml:space="preserve" style="fill-rule:evenodd;clip-rule:evenodd;stroke-linejoin:round;stroke-miterlimit:2"><g><path d="M1805.55,6666.67l3611.11,-0c76.191,-0 138.887,62.695 138.887,138.887l0,277.779c0,76.192 -62.696,138.888 -138.887,138.888l-3611.11,-0c-76.192,-0 -138.887,-62.696 -138.887,-138.888l-0,-277.779c-0,-76.191 62.696,-138.887 138.887,-138.887Z" style="fill:#cbd9e6;fill-opacity:.4;fill-rule:nonzero;stroke:#fff;stroke-width:4.17px"/><path d="M8055.55,7777.79l-22.408,-0c550.392,-609.059 855.475,-1401.32 855.729,-2222.22c0,-1838.19 -1495.14,-3333.33 -3333.33,-3333.33l-0,1111.11c1219.08,-0 2222.22,1003.15 2222.22,2222.22c-0,1219.08 -1003.15,2222.22 -2222.22,2222.22l-4722.21,-0c-457.154,-0 -833.333,376.179 -833.333,833.333c0,152.383 125.392,277.775 277.779,277.775l8333.33,0c152.383,0 277.774,-125.392 277.774,-277.775c0.001,-457.154 -376.179,-833.333 -833.333,-833.333Zm-5277.8,-2222.22l208.333,-0l0,277.779c0,152.383 125.392,277.779 277.775,277.779l694.446,-0c152.383,-0 277.779,-125.396 277.779,-277.779l0,-277.779l208.334,-0c304.766,-0 555.554,-250.784 555.554,-555.555l-0,-3888.89c-0,-304.771 -250.788,-555.558 -555.554,-555.558l-0,-277.775c-0,-152.388 -125.396,-277.78 -277.78,-277.78l-1111.11,0c-152.383,0 -277.775,125.392 -277.775,277.78l-0,277.775c-304.771,-0 -555.558,250.787 -555.558,555.558l-0,3888.89c-0,304.771 250.787,555.555 555.558,555.555Z" style="fill:#cbd9e6;fill-rule:nonzero;stroke:#fff;stroke-width:4.17px"/></g></svg>