<svg xmlns="http://www.w3.org/2000/svg" xmlns:xlink="http://www.w3.org/1999/xlink" width="100%" height="100%" version="1.1" viewBox="0 0 2134 2134" xml:space="preserve" style="fill-rule:evenodd;clip-rule:evenodd;stroke-linejoin:round;stroke-miterlimit:2"><path d="M433.333,1600l866.667,0c18.286,0 33.333,15.047 33.333,33.333l0,66.667c0,18.286 -15.047,33.333 -33.333,33.333l-866.667,0c-18.286,0 -33.333,-15.047 -33.333,-33.333l0,-66.667c0,-18.286 15.047,-33.333 33.333,-33.333Z" style="fill:#0098e6;fill-opacity:.4;fill-rule:nonzero"/><path d="M1933.33,1866.67l-5.375,-0c132.094,-146.174 205.314,-336.317 205.375,-533.334c0,-441.166 -358.833,-800 -800,-800l0,266.667c292.578,-0 533.334,240.755 533.334,533.333c-0,292.578 -240.756,533.334 -533.334,533.334l-1133.33,-0c-109.717,-0 -200,90.283 -200,200c0,36.572 30.094,66.666 66.667,66.666l2000,0c36.572,0 66.666,-30.094 66.666,-66.666c0,-109.717 -90.283,-200 -200,-200Zm-1266.67,-533.334l50,0l-0,66.667c-0,36.572 30.094,66.667 66.666,66.667l166.667,-0c36.572,-0 66.667,-30.095 66.667,-66.667l-0,-66.667l50,0c73.144,0 133.333,-60.188 133.333,-133.333l-0,-933.333c-0,-73.145 -60.189,-133.334 -133.333,-133.334l-0,-66.666c-0,-36.573 -30.095,-66.667 -66.667,-66.667l-266.667,-0c-36.572,-0 -66.666,30.094 -66.666,66.667l-0,66.666c-73.145,0 -133.334,60.189 -133.334,133.334l0,933.333c0,73.145 60.189,133.333 133.334,133.333Z" style="fill:#0098e6;fill-rule:nonzero"/></svg>