<?xml version="1.0" encoding="UTF-8" standalone="no"?> <svg xmlns="http://www.w3.org/2000/svg" xmlns:xlink="http://www.w3.org/1999/xlink" xmlns:serif="http://www.serif.com/" width="100%" height="100%" viewBox="0 0 2067 2134" version="1.1" xml:space="preserve" style="fill-rule:evenodd;clip-rule:evenodd;stroke-linejoin:round;stroke-miterlimit:2;"><path d="M1233.33,1065.92c0,109.716 -90.283,200 -200,200c-109.716,-0 -200,-90.284 -200,-200c0,-109.717 90.284,-200 200,-200c109.717,-0 200,90.283 200,200Z" style="fill:#00ffa6;fill-opacity:0.4;fill-rule:nonzero;"></path><path d="M521.792,1883.33c-20,32.084 -10,75.417 23.333,93.334c304.427,164.294 672.073,164.294 976.5,-0c33.333,-17.917 43.333,-61.667 23.333,-93.334l-334.916,-535.333c-107.491,68.754 -245.76,68.754 -353.25,0l-335,535.333Zm-454.292,-817.416l631.75,-0c-0,-119.125 63.333,-222.875 157.5,-282.042l-334.958,-534.958c-20,-32.084 -63.75,-42.5 -94.584,-20c-242.041,175 -405.791,451.625 -427.208,767.416c-2.5,37.5 29.583,69.584 67.5,69.584Zm1300.12,-0l631.5,-0c37.917,-0 69.958,-32.084 67.5,-70c-21.25,-315.792 -185,-592.417 -427.042,-767.417c-30.833,-22.083 -74.583,-12.083 -94.583,20l-334.958,534.833c94.166,59.584 157.458,163.334 157.458,282.459l0.125,0.125Z" style="fill:#0098e6;fill-rule:nonzero;"></path></svg> 