<svg xmlns="http://www.w3.org/2000/svg" xmlns:xlink="http://www.w3.org/1999/xlink" width="100%" height="100%" version="1.1" viewBox="0 0 8892 8892" xml:space="preserve" style="fill-rule:evenodd;clip-rule:evenodd;stroke-linejoin:round;stroke-miterlimit:2"><g><path d="M2437.35,770.029c96.263,-88.371 164.708,-200.808 254.067,-294.9c1370.75,3.946 2741.49,1.184 4112.04,1.379c307.13,423.517 651.542,817.638 1006.81,1200.32c34.324,53.258 82.258,95.475 124.47,142.025c144.984,163.329 288.588,328.042 424.105,499.263c221.324,254.658 371.437,560.212 515.237,862.608c18.938,95.867 29.983,209.092 -32.746,292.137c-59.175,81.667 -147.154,137.292 -239.075,175.363c-673.637,288.983 -1349.84,571.458 -2023.48,859.85c-266.1,109.871 -529.241,228.225 -797.316,332.775c-13.609,246.175 89.558,477.954 177.337,702.433c100.6,239.471 191.537,482.888 289.375,723.542c216.196,494.725 292.338,1060.66 156.033,1587.53c-60.362,241.838 -161.754,472.038 -286.221,687.838c-22.095,38.862 -56.22,80.287 -105.533,77.921c-1539.8,0.591 -3079.79,1.575 -4619.38,-1.78c-96.062,-168.258 -138.079,-364.137 -248.741,-524.704c-70.617,-117.171 -178.321,-202.387 -270.438,-301.016c-189.171,-191.342 -343.229,-414.046 -480.721,-644.638c-186.408,-261.367 -310.679,-566.133 -364.533,-882.338c-38.071,-221.716 -26.233,-447.379 -28.404,-671.07c-2.763,-130.784 20.516,-259.396 32.35,-388.992c66.279,-295.492 168.262,-587.042 338.891,-839.333c139.263,-224.875 330.996,-408.917 520.563,-590.988c49.117,-30.375 86.792,-74.758 129.008,-113.421c157.017,-153.071 316.004,-308.512 431.796,-496.3c86.992,-143.012 129.4,-328.237 55.038,-485.65c-98.434,-216.391 -159.584,-460.6 -104.35,-696.912c57.595,-229.809 213.629,-418.388 379.52,-580.534c104.942,-91.725 207.517,-186.208 314.434,-275.766c114.208,-117.763 238.879,-227.242 339.875,-356.642m4005.52,1550.84c-39.846,230.4 -120.33,450.537 -190.159,672.65c-66.279,222.508 -142.221,442.058 -217.971,661.408c-32.941,92.713 -51.879,190.55 -94.483,279.908c105.925,-77.129 218.758,-144.391 327.842,-217.179c221.325,-158.004 447.183,-309.5 664.758,-472.829c67.658,-48.921 141.238,-94.487 188.775,-164.908c45.567,-73.575 -7.1,-157.804 -63.121,-207.517c-205.541,-183.45 -408.521,-369.858 -615.641,-551.533m-4949.21,1693.27c-348.95,171.613 -634.975,460.401 -813.491,804.613c-210.871,412.271 -268.271,897.329 -175.955,1349.84c101.192,567.513 413.65,1085.51 834.596,1473.91c479.538,434.954 1120.62,710.525 1773.55,688.629c531.413,-1.579 1060.46,-233.358 1414.73,-630.637c263.733,-299.238 426.47,-682.905 466.908,-1079.2c8.879,-85.809 2.171,-172.404 13.612,-258.013c-13.808,-104.35 -5.129,-210.871 -26.037,-314.629c-143.8,-928.887 -825.129,-1743.17 -1698,-2080.08c-569.879,-224.284 -1236.81,-232.767 -1789.92,45.566Z" style="fill:#cbd9e6;fill-rule:nonzero;stroke:#fff;stroke-width:4.17px"/><path d="M1355.78,4706.92c215.996,-132.359 482.692,-183.842 731.629,-132.163c262.75,58.192 475.392,271.033 555.084,525.3c50.696,138.475 5.525,304.171 102.971,426.867c65.095,76.929 108.095,180.687 71.208,280.5c-74.167,150.704 -240.458,224.283 -330.208,362.954c-25.446,42.212 -18.15,100.208 31.166,120.525c100.996,20.121 199.229,-23.275 297.663,-39.846c-68.45,-57.6 -51.879,-146.758 -46.554,-225.071c42.212,-18.741 88.766,-42.412 135.712,-25.25c126.246,50.3 216,165.104 258.017,291.546c15.583,53.458 1.775,121.117 -53.854,144.788c-115.196,48.92 -234.738,86.6 -351.709,130.979c27.221,70.621 108.884,94.487 177.925,98.629c226.846,-0.983 446.396,-111.45 590.788,-285.233c63.716,-78.113 150.112,-150.509 257.225,-144c215.8,21.108 383.471,176.35 578.754,253.87c62.333,21.7 120.329,-9.27 162.542,-53.654c57.991,-26.429 123.879,-53.062 189.171,-44.183c2.562,57.008 33.137,113.621 14.004,170.233c-28.009,98.234 -71.209,209.884 -172.996,251.9c-230.988,82.059 -456.454,-178.325 -681.129,-43.596c-8.088,33.534 -33.338,68.646 -18.546,103.563c49.712,126.442 88.967,263.929 64.308,400.433c-15.779,172.4 -142.816,306.734 -276.554,403.788c-168.854,113.025 -370.454,168.654 -570.671,190.746c-218.167,12.429 -442.842,8.879 -650.162,-68.055c-222.505,-72.391 -431.6,-216.391 -538.117,-430.02c-131.179,-258.805 -115.596,-558.634 -190.946,-833.613c-23.279,-51.683 -57.8,-102.179 -111.058,-126.246c-63.913,-28.604 -131.967,-48.129 -192.525,-83.833c-194.1,-105.337 -315.809,-307.525 -371.438,-516.225c-57.991,-234.542 -100.796,-491.767 -7.691,-723.346c59.77,-167.079 198.441,-291.35 345.991,-382.287Z" style="fill:#cbd9e6;fill-rule:nonzero;stroke:#fff;stroke-width:4.17px"/></g></svg>