<svg xmlns="http://www.w3.org/2000/svg" xmlns:xlink="http://www.w3.org/1999/xlink" width="100%" height="100%" version="1.1" viewBox="0 0 2134 2134" xml:space="preserve" style="fill-rule:evenodd;clip-rule:evenodd;stroke-linejoin:round;stroke-miterlimit:2"><path d="M584.964,184.807c23.103,-21.209 39.53,-48.194 60.976,-70.776c328.979,0.947 657.958,0.284 986.89,0.331c73.711,101.644 156.37,196.233 241.633,288.076c8.238,12.782 19.742,22.914 29.873,34.086c34.796,39.199 69.261,78.73 101.785,119.823c53.118,61.118 89.145,134.451 123.657,207.026c4.545,23.008 7.196,50.182 -7.859,70.113c-14.202,19.6 -35.317,32.95 -57.378,42.087c-161.673,69.356 -323.961,137.15 -485.634,206.364c-63.864,26.369 -127.018,54.774 -191.356,79.866c-3.266,59.082 21.494,114.709 42.561,168.584c24.144,57.473 45.969,115.893 69.45,173.65c51.887,118.734 70.161,254.558 37.448,381.008c-14.487,58.041 -38.821,113.289 -68.693,165.081c-5.303,9.327 -13.493,19.269 -25.328,18.701c-369.551,0.142 -739.15,0.378 -1108.65,-0.427c-23.055,-40.382 -33.139,-87.393 -59.698,-125.929c-16.948,-28.121 -42.797,-48.573 -64.905,-72.244c-45.401,-45.922 -82.375,-99.371 -115.373,-154.713c-44.738,-62.728 -74.563,-135.872 -87.488,-211.761c-9.137,-53.212 -6.296,-107.371 -6.817,-161.057c-0.663,-31.388 4.924,-62.255 7.764,-93.358c15.907,-70.918 40.383,-140.89 81.334,-201.44c33.423,-53.97 79.439,-98.14 124.935,-141.837c11.788,-7.29 20.83,-17.942 30.962,-27.221c37.684,-36.737 75.841,-74.043 103.631,-119.112c20.878,-34.323 31.056,-78.777 13.209,-116.556c-23.624,-51.934 -38.3,-110.544 -25.044,-167.259c13.823,-55.154 51.271,-100.413 91.085,-139.328c25.186,-22.014 49.804,-44.69 75.464,-66.184c27.41,-28.263 57.331,-54.538 81.57,-85.594m961.325,372.202c-9.563,55.296 -28.879,108.129 -45.638,161.436c-15.907,53.402 -34.133,106.094 -52.313,158.738c-7.906,22.251 -12.451,45.732 -22.676,67.178c25.422,-18.511 52.502,-34.654 78.682,-52.123c53.118,-37.921 107.324,-74.28 159.542,-113.479c16.238,-11.741 33.897,-22.677 45.306,-39.578c10.936,-17.658 -1.704,-37.873 -15.149,-49.804c-49.33,-44.028 -98.045,-88.766 -147.754,-132.368m-1187.81,406.384c-83.748,41.187 -152.394,110.496 -195.238,193.107c-50.609,98.945 -64.385,215.359 -42.229,323.961c24.286,136.203 99.276,260.523 200.303,353.739c115.089,104.389 268.95,170.526 425.652,165.271c127.539,-0.379 254.51,-56.006 339.536,-151.353c63.296,-71.817 102.353,-163.897 112.058,-259.007c2.131,-20.594 0.521,-41.377 3.267,-61.923c-3.314,-25.044 -1.231,-50.609 -6.249,-75.511c-34.512,-222.933 -198.031,-418.36 -407.519,-499.22c-136.771,-53.828 -296.834,-55.864 -429.581,10.936Z" style="fill:#0098e6;fill-rule:nonzero"/><path d="M325.388,1129.66c51.839,-31.766 115.846,-44.122 175.591,-31.719c63.06,13.966 114.094,65.048 133.22,126.072c12.167,33.234 1.326,73.001 24.713,102.448c15.623,18.463 25.943,43.365 17.09,67.32c-17.8,36.169 -57.71,53.828 -79.25,87.109c-6.107,10.131 -4.356,24.05 7.48,28.926c24.239,4.829 47.815,-5.586 71.439,-9.563c-16.428,-13.824 -12.451,-35.222 -11.173,-54.017c10.131,-4.498 21.304,-10.179 32.571,-6.06c30.299,12.072 51.84,39.625 61.924,69.971c3.74,12.83 0.426,29.068 -12.925,34.749c-27.647,11.741 -56.337,20.784 -84.41,31.435c6.533,16.949 26.132,22.677 42.702,23.671c54.443,-0.236 107.135,-26.748 141.789,-68.456c15.292,-18.747 36.027,-36.122 61.734,-34.56c51.792,5.066 92.033,42.324 138.901,60.929c14.96,5.208 28.879,-2.225 39.01,-12.877c13.918,-6.343 29.731,-12.735 45.401,-10.604c0.615,13.682 7.953,27.269 3.361,40.856c-6.722,23.576 -17.09,50.372 -41.519,60.456c-55.437,19.694 -109.549,-42.798 -163.471,-10.463c-1.941,8.048 -8.001,16.475 -4.451,24.855c11.931,30.346 21.352,63.343 15.434,96.104c-3.787,41.376 -34.276,73.616 -66.373,96.909c-40.525,27.126 -88.909,40.477 -136.961,45.779c-52.36,2.983 -106.282,2.131 -156.039,-16.333c-53.401,-17.374 -103.584,-51.934 -129.148,-103.205c-31.483,-62.113 -27.743,-134.072 -45.827,-200.067c-5.587,-12.404 -13.872,-24.523 -26.654,-30.299c-15.339,-6.865 -31.672,-11.551 -46.206,-20.12c-46.584,-25.281 -75.794,-73.806 -89.145,-123.894c-13.918,-56.29 -24.191,-118.024 -1.846,-173.603c14.345,-40.099 47.626,-69.924 83.038,-91.749Z" style="fill:#0098e6;fill-opacity:.8;fill-rule:nonzero"/></svg>