<?xml version="1.0" encoding="UTF-8" standalone="no"?> <svg xmlns="http://www.w3.org/2000/svg" xmlns:xlink="http://www.w3.org/1999/xlink" xmlns:serif="http://www.serif.com/" width="100%" height="100%" viewBox="0 0 1867 2134" version="1.1" xml:space="preserve" style="fill-rule:evenodd;clip-rule:evenodd;stroke-linejoin:round;stroke-miterlimit:2;"><path d="M925.75,1121.17c64.686,-32.172 127.584,-67.822 188.417,-106.792c-40,-23.472 -81.223,-45.806 -123.667,-67c-165.792,-82.625 -307.167,-183.875 -420.083,-300.958c-71.603,-73.826 -133.288,-156.662 -183.5,-246.417l1346.42,0l0,-270.833l-1451.88,-0c-6.458,-27.834 -10.625,-52.125 -13.666,-71.875c-4.671,-32.887 -33.243,-57.518 -66.459,-57.292l-134.458,0.583c-0.07,0 -0.14,0 -0.21,0c-36.573,0 -66.667,30.094 -66.667,66.667c-0,2.73 0.168,5.457 0.502,8.167c9.75,78.416 36.042,211.166 106.875,364.083c65.982,141.252 154.658,270.747 262.5,383.333c127.667,134.292 284.75,250.375 467.25,345.459c28.278,-16 57.819,-31.709 88.625,-47.125Zm940.375,937.166c-9.792,-78.5 -36.292,-211.333 -107.583,-364.291c-66.515,-141.555 -155.831,-271.228 -264.375,-383.834c-39.54,-41.264 -81.267,-80.376 -125,-117.166c-77.833,54.8 -159.22,104.367 -243.625,148.375c23.694,17.639 46.625,35.777 68.791,54.416l-794.333,0l0,200l986.292,0c47.349,61.576 88.244,127.855 122.041,197.792c43.488,89.166 73.362,184.35 88.625,282.375c4.833,32.776 33.245,57.318 66.375,57.333l136.167,0c0.16,0.001 0.321,0.002 0.481,0.002c36.573,0 66.667,-30.094 66.667,-66.667c0,-2.786 -0.175,-5.57 -0.523,-8.335Z" style="fill:#00e6cb;fill-opacity:0.4;fill-rule:nonzero;"></path><path d="M1866.17,75c-9.792,78.5 -36.167,211.333 -107.167,364.333c-66.165,141.398 -155.068,270.995 -263.167,383.625c-135.875,142.625 -304.916,264.75 -502.458,362.959c-324.917,161.541 -505.25,368.25 -605.417,547.416l1088.96,0c11.111,19.834 21.555,39.931 31.333,60.292c31.894,65.968 56.66,135.152 73.875,206.375l-1299.33,0c-7.042,29.583 -11.625,55.208 -14.542,75.875c-4.693,32.868 -33.174,57.523 -66.375,57.458l-134.833,0c-0.175,0.002 -0.349,0.002 -0.523,0.002c-36.573,0 -66.667,-30.094 -66.667,-66.666c-0,-2.787 0.175,-5.571 0.523,-8.336c9.792,-78.5 36.167,-211.333 107.167,-364.333c66.202,-141.406 155.148,-271.004 263.291,-383.625c135.875,-142.625 304.917,-264.75 502.459,-362.958c134.208,-66.667 243.708,-141.209 333.125,-218.25l-548.334,-0c-30.889,-26.611 -60.055,-54.195 -87.5,-82.75c-35.667,-36.961 -68.982,-76.121 -99.75,-117.25l923.75,-0c147.459,-196.5 191,-381.459 203.834,-471.709c4.692,-32.868 33.173,-57.523 66.375,-57.458l134.833,0c0.133,-0.001 0.265,-0.001 0.398,-0.001c36.572,-0 66.667,30.094 66.667,66.666c-0,2.787 -0.175,5.57 -0.523,8.335Z" style="fill:#0098e6;fill-rule:nonzero;"></path></svg> 