<?xml version="1.0" encoding="UTF-8" standalone="no"?> <svg xmlns="http://www.w3.org/2000/svg" xmlns:xlink="http://www.w3.org/1999/xlink" xmlns:serif="http://www.serif.com/" width="100%" height="100%" viewBox="0 0 2400 2134" version="1.1" xml:space="preserve" style="fill-rule:evenodd;clip-rule:evenodd;stroke-linejoin:round;stroke-miterlimit:2;"><path d="M2385.5,1005.83c-225.958,-440.875 -673.292,-739.166 -1185.5,-739.166c-512.208,-0 -959.667,298.5 -1185.5,739.208c-19.315,38.208 -19.315,83.417 -0,121.625c225.958,440.875 673.292,739.167 1185.5,739.167c512.208,-0 959.667,-298.5 1185.5,-739.209c19.315,-38.207 19.315,-83.417 0,-121.625Zm-1184.92,660.834l-0.583,-0c-328.88,-0.16 -599.417,-270.829 -599.417,-599.709c0,-328.99 270.718,-599.708 599.709,-599.708c328.99,0 599.708,270.718 599.708,599.708c0,328.88 -270.537,599.549 -599.417,599.709Z" style="fill:#0098e6;fill-opacity:0.4;fill-rule:nonzero;"></path><path d="M1586.08,1170.29c-46.667,173.84 -205.441,295.613 -385.436,295.613c-218.931,0 -399.084,-180.152 -399.084,-399.083c0,-35.682 4.786,-71.204 14.229,-105.614c34.239,25.196 75.656,38.792 118.166,38.792c109.374,-0 199.375,-90.001 199.375,-199.375c0,-42.511 -13.596,-83.927 -38.791,-118.167c35.447,-10.118 72.13,-15.251 108.993,-15.251c217.833,-0 397.083,179.25 397.083,397.083c0,35.822 -4.847,71.48 -14.41,106.002l-0.125,-0Z" style="fill:#0098e6;fill-rule:nonzero;"></path></svg> 