<svg xmlns="http://www.w3.org/2000/svg" xmlns:xlink="http://www.w3.org/1999/xlink" width="100%" height="100%" version="1.1" viewBox="0 0 2134 2134" xml:space="preserve" style="fill-rule:evenodd;clip-rule:evenodd;stroke-linejoin:round;stroke-miterlimit:2"><path d="M273.892,353.72c208.51,-235.063 524.046,-363.265 836.813,-353.165c-46.59,53.594 -93.342,107.024 -138.139,162.084c-240.113,26.064 -467.195,150.193 -617.225,339.645c-127.713,160.456 -200.692,364.731 -197.271,570.31c-2.117,270.902 128.853,537.73 340.785,705.842c130.483,106.211 291.916,171.207 458.073,194.013c15.638,54.571 32.254,108.817 49.358,162.899c-256.24,-14.823 -505.965,-124.292 -687.923,-305.761c-173.813,-169.415 -286.051,-400.244 -311.137,-641.66c-36.001,-299.246 64.019,-611.198 266.666,-834.207Z" style="fill:#0098e6;fill-opacity:.9;fill-rule:nonzero"/><path d="M1875.68,648.405c39.422,-36.653 78.355,-73.794 116.799,-111.586c115.17,200.366 162.085,438.85 131.948,667.886c-33.883,284.911 -190.755,552.392 -422.723,720.992c-7.982,-60.273 -16.616,-120.382 -26.879,-180.329c187.497,-170.067 303.156,-418.977 300.549,-673.1c2.77,-147.098 -35.674,-292.241 -99.694,-423.863Z" style="fill:#0098e6;fill-opacity:.9;fill-rule:nonzero"/><path d="M1138.56,46.166c15.313,-12.38 26.553,-35.674 48.707,-35.349c119.568,7.005 234.575,46.59 343.555,94.645c-124.455,154.917 -238.485,317.816 -363.591,472.082c-55.875,70.046 -125.921,126.409 -196.945,180.166c-55.549,45.286 -124.13,86.174 -148.402,157.686c-31.602,95.459 35.35,184.728 87.64,258.359c80.798,72.653 233.923,53.756 291.427,-40.399c3.095,-76.074 -57.015,-153.614 -16.127,-229.525c125.269,-263.245 327.916,-477.132 504.987,-705.191c106.699,82.101 201.832,179.515 276.44,291.915c-112.726,119.08 -244.186,218.122 -373.202,318.794c-78.517,62.228 -160.13,123.641 -220.565,204.439c-9.286,16.941 -29.811,35.512 -20.689,56.363c32.743,54.082 75.586,101.812 104.093,158.664c120.22,225.289 165.506,480.878 198.411,731.417c-43.983,28.018 -89.594,53.268 -136.184,77.051c-23.457,-195.479 -51.313,-391.447 -110.934,-579.758c-24.272,-73.305 -45.937,-149.541 -90.572,-213.724c-56.2,1.792 -62.553,79.169 -66.951,122.826c25.249,99.043 78.843,188.312 110.771,285.237c52.128,132.925 75.585,274.485 87.803,416.044c-35.838,10.589 -71.35,21.992 -106.536,34.372c-48.87,-187.497 -95.622,-376.46 -109.957,-570.147c-7.657,-90.409 -11.566,-182.773 12.706,-271.064c11.566,-34.209 4.561,-70.373 -14.172,-100.346c-46.752,35.837 -93.993,79.82 -155.569,85.196c-70.373,10.588 -135.858,-22.969 -199.552,-47.404c-5.049,24.435 -15.801,51.476 -1.466,74.934c155.895,262.919 239.136,561.025 306.739,857.012c-39.584,3.096 -79.331,5.539 -118.916,9.449c-62.39,-205.579 -127.55,-411.158 -219.099,-605.822c-34.698,-71.024 -69.395,-146.121 -134.718,-194.502c-108.654,-84.056 -165.668,-227.896 -142.537,-363.591c7.331,-64.345 57.504,-110.446 83.568,-167.135c126.735,-275.136 286.213,-537.567 489.837,-762.694m-483.647,916.145c-25.575,65.649 -5.865,138.628 21.177,200.529c29.647,60.925 68.743,129.016 141.233,142.863c17.919,-95.296 -23.457,-186.031 -32.905,-279.698c-6.516,-31.765 -3.747,-68.092 -23.784,-95.459c-34.534,-25.249 -92.364,-9.774 -105.721,31.765Z" style="fill:#0098e6;fill-rule:nonzero"/><path d="M1167.23,577.544c125.106,-154.266 239.136,-317.165 363.591,-472.082c55.06,27.204 107.839,59.132 158.989,93.178c-177.071,228.059 -379.718,441.946 -504.987,705.191c-40.888,75.911 19.222,153.451 16.127,229.525c-57.504,94.155 -210.629,113.052 -291.427,40.399c-52.29,-73.631 -119.242,-162.9 -87.64,-258.359c24.272,-71.512 92.853,-112.4 148.402,-157.686c71.024,-53.757 141.07,-110.12 196.945,-180.166Z" style="fill:#0098e6;fill-opacity:.6;fill-rule:nonzero"/><path d="M654.913,962.311c13.357,-41.539 71.187,-57.014 105.721,-31.765c20.037,27.367 17.268,63.694 23.784,95.459c9.448,93.667 50.824,184.402 32.905,279.698c-72.49,-13.847 -111.586,-81.938 -141.233,-142.863c-27.042,-61.901 -46.752,-134.88 -21.177,-200.529Z" style="fill:#0098e6;fill-opacity:.6;fill-rule:nonzero"/><path d="M1074.7,1245.92c61.576,-5.376 108.817,-49.359 155.569,-85.196c18.733,29.973 25.738,66.137 14.172,100.346c-24.272,88.291 -20.363,180.655 -12.706,271.064c14.335,193.687 61.087,382.65 109.957,570.147c-52.943,13.358 -106.862,22.806 -161.271,28.181c-67.603,-295.987 -150.844,-594.093 -306.739,-857.012c-14.335,-23.458 -3.583,-50.499 1.466,-74.934c63.694,24.435 129.179,57.992 199.552,47.404Z" style="fill:#0098e6;fill-opacity:.6;fill-rule:nonzero"/><path d="M1249.66,1366.63c4.398,-43.657 10.751,-121.034 66.951,-122.826c44.635,64.183 66.3,140.419 90.572,213.724c59.621,188.311 87.477,384.279 110.934,579.758c-23.457,9.937 -46.752,20.2 -69.883,30.625c-12.218,-141.559 -35.675,-283.119 -87.803,-416.044c-31.928,-96.925 -85.522,-186.194 -110.771,-285.237Z" style="fill:#0098e6;fill-opacity:.6;fill-rule:nonzero"/></svg>