<svg xmlns="http://www.w3.org/2000/svg" xmlns:xlink="http://www.w3.org/1999/xlink" width="100%" height="100%" version="1.1" viewBox="0 0 2500 2500" xml:space="preserve" style="fill-rule:evenodd;clip-rule:evenodd;stroke-linejoin:round;stroke-miterlimit:2"><g id="_-393335ff"><path d="M0,0l2500,0l0,3.083l-4.167,0c-830.958,-0.083 -1661.92,-0.083 -2492.88,0c0.334,830.875 -0.291,1661.79 0.292,2492.67l2.875,4.25l-6.125,0l-0,-2500Z" style="fill:#0098e6;fill-rule:nonzero"/><path d="M832.333,74.333c8.25,-5.75 19.959,-2.916 23.667,6.667c40.542,74.625 81.875,148.875 121.833,223.75c6.084,14.708 -10.958,22.75 -21.458,27.875c3.708,7.125 7.375,14.292 11.125,21.417c-57.917,31.291 -115.625,62.916 -173.417,94.458c-3.833,-7.417 -7.625,-14.833 -11.416,-22.292c-8.084,4.084 -16.25,12.375 -26.042,8.792c-7.25,-1.833 -10.917,-8.875 -14.333,-14.833c-38.167,-71.292 -76.709,-142.417 -114.959,-213.667c-7.875,-10.25 -0.125,-23.417 10.5,-27.542c65.167,-34.25 129.584,-69.958 194.5,-104.625Z" style="fill:#0098e6;fill-rule:nonzero"/><path d="M979.208,362.167c9,-6.209 19.917,0.166 23.75,9.166c69.167,128.125 138.375,256.25 207.417,384.459c6.708,9.083 1.042,20.916 -8.417,25.125c-48.708,26.541 -97.541,52.958 -146.333,79.416c-12.708,6.75 -24.917,14.667 -38.625,19.375c-16.625,5.167 -30.167,16.667 -45.833,23.875c-12.417,5.25 -28.375,2.042 -38.209,12.792c-13.25,13.833 -21.875,31.333 -30.166,48.417c-33.25,77.541 -40.709,164.083 -32.209,247.416c8.25,75.5 31.667,149.167 67.459,216.125c23.166,43 51.083,84.417 88.333,116.542c16.375,13.833 35.25,26.458 56.958,29.458c12.084,1.959 23.375,-3.5 34.084,-8.25c-7.417,-13.541 -15,-27 -22.917,-40.25c66,-35.125 132.167,-69.916 197.583,-106c8.625,16.292 18.084,32.209 25.959,48.875c2.75,7.459 -4.042,14 -10.167,17c-37.417,19.959 -75,39.667 -112.417,59.584c42.625,91.041 86.417,181.541 128.292,272.958c8.875,19.75 22.75,38.625 22.833,61.125c-0.625,14.833 -18.083,18.042 -29.875,17.583c-27.708,-1.708 -55.416,-6.958 -81.416,-16.75c-5.667,-1.708 -4.459,-8.833 -6,-13.208c-7.959,-52.292 -7.417,-105.5 -15.084,-157.875c-5.583,-31.667 -14.125,-66.167 -40.25,-87.458c-22.458,-19.209 -54.416,-21.834 -82.041,-14.209c-60.375,15.375 -111.625,54.167 -155.917,96.584c-102.125,-102.084 -176.958,-233.209 -204.833,-375.459c-24.75,-127.5 -11.125,-260.916 31.25,-383.166c18.958,-54.292 44.458,-106.834 79.791,-152.417c35.834,-5.083 69.959,-22.25 94.584,-48.917c40.25,-41.958 53.125,-107.583 31.666,-161.625c-25.458,-69.666 -105.625,-114.416 -178.125,-96.291c-4.916,-7.792 -5.875,-19.292 3.459,-24.209c61.5,-33.75 123.625,-66.541 185.416,-99.791Z" style="fill:#0098e6;fill-rule:nonzero"/><path d="M793.833,498.75c36.042,-7.458 75,-0.917 106.209,18.833c35.625,22.292 61,60.792 65.791,102.75c8.584,60.125 -27.208,122.292 -81.958,147.5c-42.708,20.5 -95.625,17.459 -135.542,-8.083c-52.083,-32.333 -79.041,-99.917 -62.208,-159.125c13.25,-50.458 56.208,-92.042 107.708,-101.875Z" style="fill:#0098e6;fill-rule:nonzero"/><path d="M1406.58,785.833c17.042,-10.416 39.209,-12.541 57.25,-3.333c21.417,10.542 29.125,35.042 41.709,53.667c8,9.375 4.458,24.5 -7.167,28.958c-109.875,59.083 -219.792,118.167 -329.042,178.375c-14.958,7.708 -29.125,17.083 -44.791,23.333c-12.167,4.292 -25.959,-2.75 -31.334,-14.083c-13.291,-24.083 -26.541,-48.167 -39.666,-72.375c-7.875,-13.958 1.25,-31.125 15,-36.958c56.833,-30.417 113.291,-61.542 170.25,-91.625c11.458,-7.125 23.875,-0 32.958,7.333c44.833,-24.625 89.958,-48.75 134.833,-73.292Z" style="fill:#0098e6;fill-rule:nonzero"/><path d="M1031.12,886.917c58.5,-31.167 116.75,-62.709 175,-94.334c8.167,15.917 16.292,31.959 25.542,47.334c-57.125,32.416 -115.084,63.291 -172.459,95.291c-9.416,-16.083 -18.25,-32.458 -28.083,-48.291Z" style="fill:#0098e6;fill-rule:nonzero"/><path d="M1401.96,932.125c19.084,-11.958 39.084,-22.292 58.709,-33.292c4.916,8.75 10.541,17.209 14.375,26.542c2.541,7.667 -6.625,11.625 -10.709,16.25c24.667,47.042 47.375,95.083 72,142.167c-20.166,10.75 -40,22.041 -60.333,32.5c-22.667,-44.417 -45.667,-88.667 -67.417,-133.5c2.709,-6.75 9.292,-12.459 8.542,-20.292c-3.5,-10.833 -9.667,-20.542 -15.167,-30.375Z" style="fill:#0098e6;fill-rule:nonzero"/><path d="M1292.54,991.125c34,-17.958 67.541,-36.708 101.5,-54.708c4.958,9.916 11.75,19.208 14.583,30.083c-4,4.417 -8.583,8.208 -13,12.208c17.542,32.834 32.875,66.75 49.917,99.834c-20.334,11.541 -40.959,22.416 -61.917,32.708c-18.708,-32.542 -37.208,-65.25 -56.625,-97.375c-5.583,2.75 -13.25,9.667 -18.875,3c-6.417,-7.792 -10.458,-17.167 -15.583,-25.75Z" style="fill:#0098e6;fill-rule:nonzero"/><path d="M1169.71,1055.83c34.417,-17.625 68.125,-36.708 102.625,-54.125c5.875,9.834 11.667,20 14.875,31.084c-3.416,4.375 -8.083,7.416 -12.416,10.791c24.041,47.542 47.583,95.292 71.791,142.709c-20.916,11.041 -41.291,22.958 -62.041,34.166c-27.167,-46.791 -54.584,-93.416 -82.042,-140.041c-3.667,2.333 -7.333,4.583 -10.917,6.958c-10.208,-8.25 -15.458,-20.458 -21.875,-31.542Z" style="fill:#0098e6;fill-rule:nonzero"/><path d="M1630.83,1139.38c4.75,-2.5 11.459,-2.167 14.209,3.167c9.458,15.958 18.291,32.375 26.583,49c3.542,7.208 -2.792,14.25 -9.125,17c-191.75,102.708 -383.625,205.041 -575.292,307.916c-5.833,2.417 -13.708,8.375 -19.25,2.25c-11.625,-17.625 -22.625,-36.583 -29.916,-56.416c0.25,-9.042 9.583,-12.584 16.166,-16.459c192.334,-101.916 384.167,-204.791 576.625,-306.458Z" style="fill:#0098e6;fill-opacity:.6;fill-rule:nonzero"/><path d="M1623.25,1431.62c12,-6 24.792,-16.875 39,-11.333c14.958,3.791 23.167,17.708 30.042,30.333c-101.667,54.375 -203.542,108.292 -305.042,162.958c-5.5,-12.25 -16.292,-24.875 -11.625,-39.041c2.208,-9.959 10.833,-16.25 19.375,-20.667c75.792,-41.292 152.458,-81 228.25,-122.25Z" style="fill:#0098e6;fill-rule:nonzero"/><path d="M1696.58,1458.33c7.875,-4.958 19.5,-2.75 23.417,6.209c11.958,21.083 23.458,42.458 34.583,63.958c5.084,9.875 -3.583,19.375 -12.333,22.958c-141.417,75.084 -281.833,152.084 -423.917,225.917c-13.208,-31.583 -28.833,-62.083 -44.5,-92.5c65.417,-35.792 130.875,-71.458 197.125,-105.625c75.792,-39.208 150.334,-80.792 225.625,-120.917Z" style="fill:#0098e6;fill-rule:nonzero"/><path d="M1444.46,1721.08c101.5,-54.666 203.417,-108.416 304.875,-163.083c7.375,13.708 15.709,30.25 7.959,45.708c-10.167,22.959 -45.834,18.292 -52.042,44.167c-8.25,14.667 -9.833,36.125 -28,42.333c-31.833,16.125 -62.792,34 -94.792,49.75c-18.875,2 -37.583,-7.166 -56.625,-5.875c-14.5,5.875 -26.666,17.042 -42.083,20.625c-20.5,1.375 -31.417,-17.958 -39.292,-33.625Z" style="fill:#0098e6;fill-rule:nonzero"/><path d="M1057.38,1632c29.417,-13.417 64.25,-21.042 95.375,-9.208c28,12.833 39.875,44.458 45.958,72.625c16.25,81.666 7.459,168.083 38.459,246.75c17.541,47.291 55.791,87.041 103.916,103.291c12.375,2.917 25.292,1.917 37.959,2.584c155.541,2.333 311.083,0.583 466.625,-1.417c-132.375,96.583 -287.834,161.25 -449.25,188.958c-244.125,42.625 -502.209,-3.916 -716.75,-127.75c0.25,-20.125 0.208,-40.208 -0,-60.333c44.416,-11.292 63.333,-56.958 84.291,-92.833c46.542,-85.584 102.792,-166.459 173.167,-234.25c35.833,-34.584 74.792,-67.25 120.25,-88.417m30.958,30.542c-37.5,6.916 -52.833,55.666 -33.166,86.041c15.5,26.792 54.916,33.084 79.291,15.042c29.417,-20.583 29.834,-70.25 1.209,-91.708c-13.292,-10.25 -31.209,-12.709 -47.334,-9.375Z" style="fill:#0098e6;fill-rule:nonzero"/></g><g id="_-ffffffff"><path d="M2.958,3.083c830.959,-0.083 1661.92,-0.083 2492.88,0c-0.041,830.875 0.084,1661.79 -0.041,2492.67c-830.834,0.167 -1661.67,0.083 -2492.54,0c-0.583,-830.875 0.042,-1661.79 -0.292,-2492.67m1367.75,52.625c43.875,5.625 87,15.584 129.959,26.042c224,57.917 428.916,187.333 577.416,364.75c106.25,126.458 184,276.625 226.375,436.25c45.042,168 49.792,346.5 14.167,516.75c-32.333,156.625 -98.458,306.208 -192.542,435.542c-85.416,117.541 -193.916,218.208 -317.583,294.416c-142.75,88.25 -305.083,144.75 -471.958,162.834c-180.959,20.083 -366.5,-5.625 -535.709,-72.5c-145.541,-57.417 -279.125,-145.209 -388.916,-256.75c-204.209,-206.042 -324.5,-493.709 -324.167,-784.125c-1.875,-156.584 31.042,-313.125 93.333,-456.625c22.125,-50.625 49.042,-98.959 76.584,-146.792c-17.417,24.208 -33.167,49.625 -48.042,75.458c-52.5,94.042 -94.167,194.375 -120.708,298.834c-44.042,170.25 -50.042,350.291 -16.667,523c29.417,154.083 89.833,302.083 175.708,433.291c89.834,137.375 208.459,255.792 346,345.375c134.667,87.917 287.125,148.459 445.459,176.625c173.833,31.417 354.625,23.459 525,-23.041c152.541,-41.584 296.833,-113.459 421.791,-210.375c107.792,-83.625 201,-185.959 274.25,-301c94.959,-148.542 156.5,-318.209 179.209,-493c25.833,-198.125 0.958,-402.667 -72.25,-588.625c-52.417,-134.125 -128.709,-259 -225.042,-366.084c-155.208,-173.583 -362.583,-299.458 -587.875,-358.083c-60.208,-15.583 -121.458,-29.333 -183.792,-32.167m-538.375,18.625c-64.916,34.667 -129.333,70.375 -194.5,104.625c-10.625,4.125 -18.375,17.292 -10.5,27.542c38.25,71.25 76.792,142.375 114.959,213.667c3.416,5.958 7.083,13 14.333,14.833c9.792,3.583 17.958,-4.708 26.042,-8.792c3.791,7.459 7.583,14.875 11.416,22.292c57.792,-31.542 115.5,-63.167 173.417,-94.458c-3.75,-7.125 -7.417,-14.292 -11.125,-21.417c10.5,-5.125 27.542,-13.167 21.458,-27.875c-39.958,-74.875 -81.291,-149.125 -121.833,-223.75c-3.708,-9.583 -15.417,-12.417 -23.667,-6.667m146.875,287.834c-61.791,33.25 -123.916,66.041 -185.416,99.791c-9.334,4.917 -8.375,16.417 -3.459,24.209c72.5,-18.125 152.667,26.625 178.125,96.291c21.459,54.042 8.584,119.667 -31.666,161.625c-24.625,26.667 -58.75,43.834 -94.584,48.917c-35.333,45.583 -60.833,98.125 -79.791,152.417c-42.375,122.25 -56,255.666 -31.25,383.166c27.875,142.25 102.708,273.375 204.833,375.459c44.292,-42.417 95.542,-81.209 155.917,-96.584c27.625,-7.625 59.583,-5 82.041,14.209c26.125,21.291 34.667,55.791 40.25,87.458c7.667,52.375 7.125,105.583 15.084,157.875c1.541,4.375 0.333,11.5 6,13.208c26,9.792 53.708,15.042 81.416,16.75c11.792,0.459 29.25,-2.75 29.875,-17.583c-0.083,-22.5 -13.958,-41.375 -22.833,-61.125c-41.875,-91.417 -85.667,-181.917 -128.292,-272.958c37.417,-19.917 75,-39.625 112.417,-59.584c6.125,-3 12.917,-9.541 10.167,-17c-7.875,-16.666 -17.334,-32.583 -25.959,-48.875c-65.416,36.084 -131.583,70.875 -197.583,106c7.917,13.25 15.5,26.709 22.917,40.25c-10.709,4.75 -22,10.209 -34.084,8.25c-21.708,-3 -40.583,-15.625 -56.958,-29.458c-37.25,-32.125 -65.167,-73.542 -88.333,-116.542c-35.792,-66.958 -59.209,-140.625 -67.459,-216.125c-8.5,-83.333 -1.041,-169.875 32.209,-247.416c8.291,-17.084 16.916,-34.584 30.166,-48.417c9.834,-10.75 25.792,-7.542 38.209,-12.792c15.666,-7.208 29.208,-18.708 45.833,-23.875c13.708,-4.708 25.917,-12.625 38.625,-19.375c48.792,-26.458 97.625,-52.875 146.333,-79.416c9.459,-4.209 15.125,-16.042 8.417,-25.125c-69.042,-128.209 -138.25,-256.334 -207.417,-384.459c-3.833,-9 -14.75,-15.375 -23.75,-9.166m-185.375,136.583c-51.5,9.833 -94.458,51.417 -107.708,101.875c-16.833,59.208 10.125,126.792 62.208,159.125c39.917,25.542 92.834,28.583 135.542,8.083c54.75,-25.208 90.542,-87.375 81.958,-147.5c-4.791,-41.958 -30.166,-80.458 -65.791,-102.75c-31.209,-19.75 -70.167,-26.291 -106.209,-18.833m612.75,287.083c-44.875,24.542 -90,48.667 -134.833,73.292c-9.083,-7.333 -21.5,-14.458 -32.958,-7.333c-56.959,30.083 -113.417,61.208 -170.25,91.625c-13.75,5.833 -22.875,23 -15,36.958c13.125,24.208 26.375,48.292 39.666,72.375c5.375,11.333 19.167,18.375 31.334,14.083c15.666,-6.25 29.833,-15.625 44.791,-23.333c109.25,-60.208 219.167,-119.292 329.042,-178.375c11.625,-4.458 15.167,-19.583 7.167,-28.958c-12.584,-18.625 -20.292,-43.125 -41.709,-53.667c-18.041,-9.208 -40.208,-7.083 -57.25,3.333m-375.458,101.084c9.833,15.833 18.667,32.208 28.083,48.291c57.375,-32 115.334,-62.875 172.459,-95.291c-9.25,-15.375 -17.375,-31.417 -25.542,-47.334c-58.25,31.625 -116.5,63.167 -175,94.334m370.833,45.208c5.5,9.833 11.667,19.542 15.167,30.375c0.75,7.833 -5.833,13.542 -8.542,20.292c21.75,44.833 44.75,89.083 67.417,133.5c20.333,-10.459 40.167,-21.75 60.333,-32.5c-24.625,-47.084 -47.333,-95.125 -72,-142.167c4.084,-4.625 13.25,-8.583 10.709,-16.25c-3.834,-9.333 -9.459,-17.792 -14.375,-26.542c-19.625,11 -39.625,21.334 -58.709,33.292m-109.416,59c5.125,8.583 9.166,17.958 15.583,25.75c5.625,6.667 13.292,-0.25 18.875,-3c19.417,32.125 37.917,64.833 56.625,97.375c20.958,-10.292 41.583,-21.167 61.917,-32.708c-17.042,-33.084 -32.375,-67 -49.917,-99.834c4.417,-4 9,-7.791 13,-12.208c-2.833,-10.875 -9.625,-20.167 -14.583,-30.083c-33.959,18 -67.5,36.75 -101.5,54.708m-122.834,64.708c6.417,11.084 11.667,23.292 21.875,31.542c3.584,-2.375 7.25,-4.625 10.917,-6.958c27.458,46.625 54.875,93.25 82.042,140.041c20.75,-11.208 41.125,-23.125 62.041,-34.166c-24.208,-47.417 -47.75,-95.167 -71.791,-142.709c4.333,-3.375 9,-6.416 12.416,-10.791c-3.208,-11.084 -9,-21.25 -14.875,-31.084c-34.5,17.417 -68.208,36.5 -102.625,54.125m461.125,83.542c-192.458,101.667 -384.291,204.542 -576.625,306.458c-6.583,3.875 -15.916,7.417 -16.166,16.459c7.291,19.833 18.291,38.791 29.916,56.416c5.542,6.125 13.417,0.167 19.25,-2.25c191.667,-102.875 383.542,-205.208 575.292,-307.916c6.333,-2.75 12.667,-9.792 9.125,-17c-8.292,-16.625 -17.125,-33.042 -26.583,-49c-2.75,-5.334 -9.459,-5.667 -14.209,-3.167m-7.583,292.25c-75.792,41.25 -152.458,80.958 -228.25,122.25c-8.542,4.417 -17.167,10.708 -19.375,20.667c-4.667,14.166 6.125,26.791 11.625,39.041c101.5,-54.666 203.375,-108.583 305.042,-162.958c-6.875,-12.625 -15.084,-26.542 -30.042,-30.333c-14.208,-5.542 -27,5.333 -39,11.333m73.333,26.708c-75.291,40.125 -149.833,81.709 -225.625,120.917c-66.25,34.167 -131.708,69.833 -197.125,105.625c15.667,30.417 31.292,60.917 44.5,92.5c142.084,-73.833 282.5,-150.833 423.917,-225.917c8.75,-3.583 17.417,-13.083 12.333,-22.958c-11.125,-21.5 -22.625,-42.875 -34.583,-63.958c-3.917,-8.959 -15.542,-11.167 -23.417,-6.209m-252.125,262.75c7.875,15.667 18.792,35 39.292,33.625c15.417,-3.583 27.583,-14.75 42.083,-20.625c19.042,-1.291 37.75,7.875 56.625,5.875c32,-15.75 62.959,-33.625 94.792,-49.75c18.167,-6.208 19.75,-27.666 28,-42.333c6.208,-25.875 41.875,-21.208 52.042,-44.167c7.75,-15.458 -0.584,-32 -7.959,-45.708c-101.458,54.667 -203.375,108.417 -304.875,163.083m-387.083,-89.083c-45.458,21.167 -84.417,53.833 -120.25,88.417c-70.375,67.791 -126.625,148.666 -173.167,234.25c-20.958,35.875 -39.875,81.541 -84.291,92.833c0.208,20.125 0.25,40.208 -0,60.333c214.541,123.834 472.625,170.375 716.75,127.75c161.416,-27.708 316.875,-92.375 449.25,-188.958c-155.542,2 -311.084,3.75 -466.625,1.417c-12.667,-0.667 -25.584,0.333 -37.959,-2.584c-48.125,-16.25 -86.375,-56 -103.916,-103.291c-31,-78.667 -22.209,-165.084 -38.459,-246.75c-6.083,-28.167 -17.958,-59.792 -45.958,-72.625c-31.125,-11.834 -65.958,-4.209 -95.375,9.208Z" style="fill:#fff;fill-rule:nonzero"/><path d="M1088.33,1662.54c16.125,-3.334 34.042,-0.875 47.334,9.375c28.625,21.458 28.208,71.125 -1.209,91.708c-24.375,18.042 -63.791,11.75 -79.291,-15.042c-19.667,-30.375 -4.334,-79.125 33.166,-86.041Z" style="fill:#fff;fill-rule:nonzero"/></g><g id="_-bba5acff"><path d="M2495.83,3.083l4.167,0l0,2496.92l-2493.88,0l-2.875,-4.25c830.875,0.083 1661.71,0.167 2492.54,0c0.125,-830.875 -0,-1661.79 0.041,-2492.67Z" style="fill:#bba5ac;fill-rule:nonzero"/></g><g id="_-d81e5bff"><path d="M1370.71,55.708c62.334,2.834 123.584,16.584 183.792,32.167c225.292,58.625 432.667,184.5 587.875,358.083c96.333,107.084 172.625,231.959 225.042,366.084c73.208,185.958 98.083,390.5 72.25,588.625c-22.709,174.791 -84.25,344.458 -179.209,493c-73.25,115.041 -166.458,217.375 -274.25,301c-124.958,96.916 -269.25,168.791 -421.791,210.375c-170.375,46.5 -351.167,54.458 -525,23.041c-158.334,-28.166 -310.792,-88.708 -445.459,-176.625c-137.541,-89.583 -256.166,-208 -346,-345.375c-85.875,-131.208 -146.291,-279.208 -175.708,-433.291c-33.375,-172.709 -27.375,-352.75 16.667,-523c26.541,-104.459 68.208,-204.792 120.708,-298.834c14.875,-25.833 30.625,-51.25 48.042,-75.458c-27.542,47.833 -54.459,96.167 -76.584,146.792c-62.291,143.5 -95.208,300.041 -93.333,456.625c-0.333,290.416 119.958,578.083 324.167,784.125c109.791,111.541 243.375,199.333 388.916,256.75c169.209,66.875 354.75,92.583 535.709,72.5c166.875,-18.084 329.208,-74.584 471.958,-162.834c123.667,-76.208 232.167,-176.875 317.583,-294.416c94.084,-129.334 160.209,-278.917 192.542,-435.542c35.625,-170.25 30.875,-348.75 -14.167,-516.75c-42.375,-159.625 -120.125,-309.792 -226.375,-436.25c-148.5,-177.417 -353.416,-306.833 -577.416,-364.75c-42.959,-10.458 -86.084,-20.417 -129.959,-26.042Z" style="fill:#0098e6;fill-rule:nonzero"/></g></svg>