<svg xmlns="http://www.w3.org/2000/svg" xmlns:xlink="http://www.w3.org/1999/xlink" width="100%" height="100%" version="1.1" viewBox="0 0 1600 2134" xml:space="preserve" style="fill-rule:evenodd;clip-rule:evenodd;stroke-linejoin:round;stroke-miterlimit:2"><path d="M1133.62,1200l0,200l-233.625,266.667l-200,-0l-233.042,-266.667l-0.291,-200l666.958,0Z" style="fill:#00ffd4;fill-opacity:.4;fill-rule:nonzero"/><path d="M800,666.667c182.861,-0 333.333,-150.472 333.333,-333.334c0,-182.861 -150.472,-333.333 -333.333,-333.333c-182.861,-0 -333.333,150.472 -333.333,333.333c-0,182.862 150.472,333.334 333.333,333.334Zm-218.583,1079.17l118.583,-79.166l-233.042,-266.667l0,-0.25l-0.291,0.25l-238.875,204.167c-38.724,31.633 -61.225,79.071 -61.225,129.073c-0,44.141 17.536,86.523 48.725,117.76l233.333,233.333c31.393,32.504 74.693,50.882 119.881,50.882c91.431,-0 166.667,-75.236 166.667,-166.667c0,-45.188 -18.378,-88.488 -50.881,-119.881l-102.875,-102.834Zm985.25,-1149.21c-31.301,-41.757 -80.54,-66.384 -132.726,-66.384c-36.098,-0 -71.228,11.783 -100.024,33.551l-168.75,118.291c-218.533,153.747 -511.801,153.747 -730.334,0l-168.625,-118.291c-27.702,-18.934 -60.488,-29.067 -94.043,-29.067c-91.43,-0 -166.666,75.236 -166.666,166.667c-0,49.769 22.293,97.009 60.709,128.65c2.778,2.166 5.736,4.25 8.875,6.25l168.709,118.75c68.898,48.301 143.828,87.37 222.875,116.208l-0,128.75l666.666,-0l0,-128.75c79.047,-28.838 153.977,-67.907 222.875,-116.208l168.792,-118.75c3.028,-2 5.986,-4.084 8.875,-6.25c72.856,-55.133 87.637,-160.344 32.792,-233.417Zm-198.625,1007.54l-234.709,-204.167l-233.333,266.667l114.417,79.166l-103.084,103.125c-32.046,31.343 -50.131,74.327 -50.131,119.153c0,91.43 75.236,166.666 166.667,166.666c44.836,0 87.828,-18.092 119.173,-50.152l233.333,-233.333c31.189,-31.237 48.725,-73.619 48.725,-117.761c-0,-50.002 -22.502,-97.439 -61.225,-129.073l0.167,-0.291Z" style="fill:#0098e6;fill-rule:nonzero"/></svg>