<?xml version="1.0" encoding="UTF-8" standalone="no"?> <svg xmlns="http://www.w3.org/2000/svg" xmlns:xlink="http://www.w3.org/1999/xlink" xmlns:serif="http://www.serif.com/" width="100%" height="100%" viewBox="0 0 2134 2134" version="1.1" xml:space="preserve" style="fill-rule:evenodd;clip-rule:evenodd;stroke-linejoin:round;stroke-miterlimit:2;"><g id="_-ffffffff" serif:id="#ffffffff"><path d="M883.833,213.375c23.875,-14.917 52.25,-19.833 79.667,-21.667c-4.292,17.709 -8.375,35.75 -7.125,54.125c3.208,73.417 2.458,147.209 12.5,220.167c0.833,7.292 2.083,14.542 3.417,21.75c-10.25,0.125 -20.5,0.5 -30.75,1.083c-0.375,-4.75 -0.792,-9.541 -1.25,-14.291c-8.375,-57.209 -20.417,-113.792 -29.542,-170.834c-2.333,-16.875 -11.125,-32.125 -12.417,-49.166c-0.666,-10.875 -2.875,-21.5 -6.333,-31.792c-5.042,-0.292 -10.083,-0.625 -15.125,-0.958c0.542,17.791 -1.625,35.75 1.542,53.416c8.5,62.292 14.375,125.167 29.625,186.334c1.75,7.5 3.375,15.083 5.333,22.583c-11.333,-5.958 -31.792,-0.5 -33.5,-17.292c-9.875,-30.416 -26.583,-58 -38.583,-87.541c-9.25,-23.459 -22.75,-44.75 -33.667,-67.334c-2.125,-5.75 -5.583,-10.791 -9.375,-15.541c20.917,-34.084 47.458,-67.542 85.583,-83.042Z" style="fill:#0098e6;fill-rule:nonzero;"></path><path d="M964.875,193.083c28.833,-4.666 57.75,2.667 85.208,10.917c-0.166,2.25 -0.5,6.708 -0.666,8.917c-10.25,42.125 -9.25,85.791 -12.75,128.791c-4.417,47.042 -3.25,94.417 -2.042,141.584c-12.25,3.541 -24.875,4.958 -37.542,5.708c3.209,-45.167 -4.875,-90.083 -6.25,-135.125c-0.166,-15.333 -5.916,-30.083 -4.541,-45.458c1.333,-16.959 -1.625,-33.667 -4.667,-50.25c-3.083,-16.542 2.25,-35.459 -8.375,-49.917c-0.042,-2.375 -0.042,-4.708 -0.042,-7.083c-2.791,-2.667 -5.583,-5.375 -8.333,-8.084Z" style="fill:#0098e6;fill-rule:nonzero;"></path><path d="M1064.33,212.958c24.334,10 43.75,28.667 62.25,46.834c-9.583,66.125 -21.083,132.25 -22.166,199.25c-0,1.666 -0.042,4.958 -0.084,6.625c-14.291,3.666 -28,9.875 -42.833,11.25c4,-51.792 4.792,-103.917 4.25,-155.875c2.458,-16.75 3.208,-33.584 -0.167,-50.25c-3.458,-16.834 4.334,-33.75 0.459,-50.375l-1.709,-7.459Z" style="fill:#0098e6;fill-rule:nonzero;"></path><path d="M1145.67,283.333c10.375,9.542 17.708,21.709 25.916,33.042c20.459,30.792 39.792,62.375 57.584,94.792c-30.084,13 -59,28.666 -89.792,40l-4.958,1.833c2.208,-30.458 6.333,-60.792 8.291,-91.292c1.209,-26.125 8.875,-52.25 2.959,-78.375Z" style="fill:#0098e6;fill-rule:nonzero;"></path><path d="M741.042,436.792c12.291,-40.25 24.791,-81.417 46.583,-117.625c14.333,47.375 33.167,93.666 55.417,137.916c1.333,2.834 3.958,8.459 5.291,11.25c-36.5,-7.791 -71.583,-20.875 -107.291,-31.541Z" style="fill:#0098e6;fill-rule:nonzero;"></path><path d="M1483.46,372.25c24.584,-4.333 49.167,-0.375 73.584,2.125l-2.875,3.292c-53.25,59.875 -103.125,123 -148.875,188.875l-1.125,1.375c-10.625,-8.334 -19.125,-18.917 -29.084,-27.959c1.042,-1.5 3.167,-4.541 4.209,-6.041c24,-34.75 46.333,-70.625 70.291,-105.375c14.167,-17.042 19.584,-39.334 33.875,-56.292Z" style="fill:#0098e6;fill-rule:nonzero;"></path><path d="M1385.96,394.25c19.959,-8.25 40.834,-14.167 62.459,-15.667l1.541,2c-33.416,43.042 -66.458,86.625 -93.875,133.834c-19.416,-25.834 -39.791,-52.042 -53.666,-81.125c26.125,-16.209 55.333,-27 83.541,-39.042Z" style="fill:#0098e6;fill-rule:nonzero;"></path><path d="M1569.92,391.417c3.125,-3.625 6.208,-7.292 9.333,-10.959c10.625,7.209 22,15.334 35.583,14.125c0,2.125 -0.041,6.375 -0.083,8.5c2.292,-1.458 6.833,-4.416 9.125,-5.916c-0.583,1.916 -1.75,5.666 -2.292,7.583c7.334,2.833 15.292,7.417 15.667,16.333c-25.333,9.584 -39.792,34.792 -60.375,51.167c-40.917,41.292 -83.25,81.542 -119.417,127.167c-1.708,2.041 -5.083,6.208 -6.791,8.291c-8.709,-5.833 -17.25,-11.958 -25.834,-17.875c36.084,-44.375 67.917,-92.041 103.084,-137.166c16.208,-18.875 24,-43.667 42,-61.25Z" style="fill:#0098e6;fill-rule:nonzero;"></path><path d="M1602.29,485.625c13.958,-20.125 32.583,-36.208 47.583,-55.5c6.375,5.458 12.917,10.75 18.958,16.583c4.584,8.834 11,16.375 20,20.959c0.167,1.666 0.5,5 0.667,6.666c0.583,2.584 1.792,7.792 2.375,10.417c-27.292,14.667 -49.958,35.875 -75.208,53.583c-36.125,30.042 -74.084,58.042 -107.417,91.292c-1.417,1.417 -4.167,4.292 -5.583,5.708c-9.709,-3.458 -19.334,-7.5 -27.625,-13.708c43.708,-43.75 84.333,-90.5 126.25,-136Z" style="fill:#0098e6;fill-rule:nonzero;"></path><path d="M487.333,455.167c28.625,-12.084 61.375,-4.834 91.709,-4.792c0.958,2.042 2.875,6.125 3.875,8.208c16.041,37.209 31.958,74.625 52.166,109.875c0.792,1.542 2.375,4.625 3.167,6.167c-4.625,11.958 -9.125,23.917 -14.458,35.583c-29.584,-34.541 -59.084,-69.166 -89.042,-103.375c-14.125,-18.833 -34.417,-31.916 -47.417,-51.666Z" style="fill:#0098e6;fill-rule:nonzero;"></path><path d="M610.292,458.125c21.625,1.417 42.166,8.833 63.041,14.125c-7.5,20 -15,40.042 -21.125,60.542l-1.625,-3c-14.416,-23.334 -24.25,-49.417 -40.291,-71.667Z" style="fill:#0098e6;fill-rule:nonzero;"></path><path d="M394.292,504.208c17.791,-18.958 40.291,-33.25 64.416,-42.75c1.875,-0.166 5.667,-0.541 7.542,-0.708c24.625,41.583 57.917,77 86.833,115.542c18.167,23.333 40.292,43.416 57.834,67.291c-5.625,12.042 -12.334,23.584 -18.459,35.375l-3.5,-3.375c-43.75,-40.166 -87.916,-80 -130.458,-121.416c-11.833,-10.584 -26.458,-17.584 -37.625,-29c-8.125,-7.834 -15.083,-17.875 -26.583,-20.959Z" style="fill:#0098e6;fill-rule:nonzero;"></path><path d="M1678.54,520.25c9.333,-7.167 17.041,-16.208 22.791,-26.458c-0.708,2.958 -2.083,8.958 -2.791,11.916c2,0.167 6,0.417 7.958,0.542c-0.542,6 -3.417,13.083 3.583,16.375c0.792,26.208 12.667,52.333 7.209,79.208c-9.75,1.209 -19.417,3.375 -28.292,7.75c-31,14.25 -62.958,26.625 -92.792,43.25c-6.833,4.125 -14.583,6.375 -22.166,8.667c-12,-7.917 -26.75,-9.25 -40.167,-13.542c1.125,-0.875 3.292,-2.708 4.375,-3.625c20,-16.875 39.708,-34.083 59.542,-51.083c13.916,-11.208 25.5,-25.125 40.625,-34.792c16.041,-9.833 25.166,-27.083 40.125,-38.208Z" style="fill:#0098e6;fill-rule:nonzero;"></path><path d="M343.583,580.708c6.167,-25.916 22.834,-48.041 40.75,-67.208c12.334,21.125 31.209,36.917 47.709,54.5c24.166,27.167 52,50.667 76.875,77.125c21.875,19.417 42.5,40.5 66.541,57.25c-3.166,9.958 -10.333,17.583 -17.333,25c-3.625,-2.583 -7.167,-5.208 -10.708,-7.833c-43,-33.625 -88.25,-64.209 -130.917,-98.25c-16.583,-11.334 -35.5,-19.25 -49.958,-33.625c-5.792,-6.75 -14.75,-7 -22.959,-6.959Z" style="fill:#0098e6;fill-rule:nonzero;"></path><path d="M333.5,674.5c-3.542,-28.333 -4.667,-59.375 7.583,-85.875c13.167,26.167 42,38.083 61.667,58.458c40.75,33.459 82.083,66.417 125.792,96c2.458,1.542 7.333,4.625 9.791,6.167c-10,13.208 -22.5,24.292 -36.541,33.042c-23.75,-18.75 -49.875,-34.084 -74.834,-51.042c-19.125,-11.167 -35.708,-26.458 -56.291,-35.125c-13.25,-5.708 -23.709,-16.25 -37.167,-21.625Z" style="fill:#0098e6;fill-rule:nonzero;"></path><path d="M1672.83,648.042c15.917,-7.209 28.625,-19.875 44.917,-26.417c5.917,22.958 -2.167,45.792 -2.375,68.708c-9.417,0.584 -18.875,0.167 -27.917,-2.583c-20.5,-5.708 -41.625,-8.833 -62.083,-14.583c2.917,-1.667 5.917,-3.292 8.917,-4.875c12.916,-6.667 25.458,-13.959 38.541,-20.25Z" style="fill:#0098e6;fill-rule:nonzero;"></path><path d="M337.167,701.833c45.666,34.959 91.541,69.834 140.25,100.5c-28.292,20.459 -58.334,38.375 -88.709,55.625c-19.625,-51.083 -43.166,-101.583 -51.541,-156.125Z" style="fill:#0098e6;fill-rule:nonzero;"></path><path d="M1746.12,746.083c21.5,4.75 42,12.75 62.958,19.292c6.959,2.042 13.709,5.208 17.875,11.5c5.459,-0.75 10.917,0.042 16.334,0.792c4.166,3.125 8.291,6.291 12.333,9.708c1.583,-1 4.75,-3.042 6.333,-4.042c-0.125,1.834 -0.458,5.459 -0.583,7.25c4.833,-1.166 9.625,-0.458 14.083,1.917c-1.25,1.25 -3.791,3.75 -5.041,5c-14.459,8.667 -32.334,6.542 -47.625,13.083c-33.625,13.292 -69,21.917 -102.375,35.875c6.875,-33.875 16.958,-67 25.708,-100.375Z" style="fill:#0098e6;fill-rule:nonzero;"></path><path d="M1880.33,817.333c4.959,-2.541 10,-4.916 15.042,-7.333l1.042,6.375c1.583,-0.625 4.791,-1.833 6.375,-2.458c9.083,10.416 20.833,19.083 25.125,32.833c3.458,2.292 6.958,4.625 10.458,6.958c-3.083,3.542 -6.125,7.084 -9.125,10.667c-2.125,-1.042 -6.375,-3.167 -8.458,-4.25c-22.084,12.167 -47.875,11.667 -71.459,19.083c-47,15.084 -95.125,26.292 -142.083,41.334l-5.25,1.875c2.208,-13.542 4.708,-27 7.083,-40.5c5.084,-1.584 10.167,-3.167 15.25,-4.75c53.292,-16.292 105.042,-37.5 156,-59.834Z" style="fill:#0098e6;fill-rule:nonzero;"></path><path d="M1938.5,863.583c2.333,2.125 2.333,2.125 0,0Z" style="fill:#0098e6;fill-rule:nonzero;"></path><path d="M1890.96,895.292c15.625,-4.25 30.417,-11.084 44.25,-19.417c2.875,-1 8.625,-3 11.5,-4c2.209,8.625 16,19.667 4.875,26.583c11.584,-3.625 10.209,13.875 15.042,20.417c-1.417,0.792 -4.25,2.333 -5.667,3.125c8.042,3.875 9.459,13.417 8.584,21.417c-26.292,-2.834 -51.709,5.458 -77.917,5.708c-60.958,10.125 -122,19.75 -182.75,31.042c-5.042,1.083 -10.042,2.208 -15,3.375c0.583,-9.667 1.583,-19.334 2.958,-28.959c3.584,-0.791 7.209,-1.583 10.834,-2.458c62,-15.833 122.958,-35.583 183.291,-56.833Z" style="fill:#0098e6;fill-rule:nonzero;"></path><path d="M241.417,1015.12c37.666,-30.542 80.166,-54.292 122.041,-78.417c11.459,26.709 23.417,53.292 33,80.75c-51.708,0.334 -103.333,-4.958 -155.041,-2.333Z" style="fill:#0098e6;fill-rule:nonzero;"></path><path d="M1925.08,969.25c14.834,-3.208 28.792,-9.292 42.834,-14.958c4.5,17.666 4.916,35.958 1.833,53.875c-1.167,11.333 -4.083,22.333 -6.292,33.458l-3.333,-0.875c-8.833,-2.75 -18.125,-3.208 -27.208,-2.167c-26.292,4.042 -52.959,-1.833 -79.084,4.167c-23.666,0.042 -47.333,0.833 -70.958,2.917c-28.875,-0.375 -57.958,5.708 -86.5,3.25c-3.542,-12.209 -3.167,-25.042 -3.625,-37.584c1.792,-0.125 5.458,-0.375 7.25,-0.5c76.167,-6.875 150.542,-25.5 225.083,-41.583Z" style="fill:#0098e6;fill-rule:nonzero;"></path><path d="M174.25,1093.25c11.083,-20.708 25.125,-39.833 42.292,-55.875c61.916,6.75 124.333,12.5 186.708,9.792l4.333,-0.292c4.542,13.083 8.5,26.417 13.709,39.292c-66.792,5.416 -134.334,-2.625 -201,6.541c-15.292,1.709 -30.667,0.459 -46.042,0.542Z" style="fill:#0098e6;fill-rule:nonzero;"></path><path d="M1925.88,1062.42c7.792,-0.875 15.667,-0.917 23.542,-0.5c0.5,1.625 1.458,4.916 1.916,6.541c0.167,0.667 0.542,1.959 0.709,2.625c-9.459,6.875 -8.709,19.875 -15,28.917c-17.084,26.333 -37.25,50.458 -58.709,73.333c-3.833,-5.75 -6,-13.416 -12,-17.25c-39.75,-9.416 -79.708,-17.375 -120,-24.375c-12.625,-2.208 -25.208,-4.625 -37.666,-7.625c-3.042,-15.416 -7.75,-30.5 -7.792,-46.375c33.083,2.334 66.292,0.25 99.375,-1.583c41.875,-4.458 83.958,-7.458 125.625,-13.708Z" style="fill:#0098e6;fill-rule:nonzero;"></path><path d="M167.125,1109.88c28.167,9.208 58.083,4.625 87.125,6.917c58.042,2.25 116.083,1.541 174.083,-2.209c2.292,9.084 4.25,18.292 5.5,27.584c-4.375,0.416 -8.75,0.833 -13.125,1.333c-57.75,7.458 -115.375,16.083 -173.166,23.25c-20,3.792 -39.709,9.5 -60.125,10.417c-11.542,0.375 -22.292,4.875 -32.709,9.458c-0.416,-25.958 3.209,-52.417 12.417,-76.75Z" style="fill:#0098e6;fill-rule:nonzero;"></path><path d="M1719.83,1157.96c1.875,1.709 5.667,5.167 7.542,6.917c2.708,-0.667 8.042,-2 10.708,-2.667c23.75,4.875 48,6.625 71.959,10.25c21.958,1.209 44.25,7.334 66,1.334c-5.292,6.833 -10.792,13.791 -13.584,22.125c3.584,-2.125 10.709,-6.334 14.292,-8.417c-5.208,6.333 -10.625,12.458 -16,18.625c-1.583,-0.375 -4.75,-1.125 -6.333,-1.5c-10.917,11.75 -21.334,24.542 -35.667,32.292c-7.25,7.208 -13.875,14.958 -21.042,22.208c-4.5,4.375 -9.125,8.625 -13.791,12.792c-4.5,0.666 -9,1.375 -13.417,2.291c-7.75,-17.125 -16.292,-33.875 -24,-51.041l9.458,-0.709c-2.5,-0.833 -7.416,-2.541 -9.875,-3.375c0.959,-2.291 2.875,-6.833 3.875,-9.083l-8.583,2.542c1.125,-3 3.333,-9 4.458,-12.042l-6.291,-1.292c0.5,-1.916 1.541,-5.75 2.041,-7.666l-7.25,-0.125c0.959,-2.459 2.792,-7.375 3.709,-9.875c-2.292,0.5 -6.875,1.416 -9.125,1.875c1.791,-4.334 3.625,-8.667 5.458,-13c-2.292,1.125 -6.917,3.375 -9.25,4.5c0.333,-2 0.958,-6.042 1.292,-8.042c-1.667,-2.25 -4.959,-6.708 -6.584,-8.917m35.584,72.625c2.166,2.209 2.166,2.209 -0,0m3.791,7.917c2.042,2.458 2.042,2.458 0,0m4.292,8.5c2.083,2.292 2.083,2.292 0,-0m4,8.208c2.167,2.209 2.167,2.209 -0,0Z" style="fill:#0098e6;fill-rule:nonzero;"></path><path d="M426.208,1172.33c2.542,-0.708 7.667,-2.083 10.209,-2.791c3.208,13.875 4.833,28.041 4.666,42.291c-5.458,1.042 -10.875,2.084 -16.291,3.292c-30.625,7.125 -60.792,16.125 -91.542,22.875c-9.25,1.958 -18.25,4.958 -26.917,8.833c-17.916,2.125 -35.75,5.667 -52.208,13.375c-17.875,8.792 -40.25,6.084 -55.708,19.917c-0.792,2 -2.375,6.042 -3.125,8.083c-4.917,-1.333 -8.875,-4.333 -11.25,-8.833c-15.459,-24.583 -26.542,-53.042 -26.125,-82.458c37.875,4.583 75.416,-1.459 113.166,-3.75c51.792,-6.459 104.125,-9.125 155.125,-20.834Z" style="fill:#0098e6;fill-rule:nonzero;"></path><path d="M435.875,1243.83c1.292,-0.375 3.958,-1.166 5.25,-1.583c-1.625,17.417 -3.458,34.792 -4.292,52.292c-2.083,1.083 -6.208,3.25 -8.25,4.333c-20,10.833 -40.166,21.458 -60.375,31.875c-14.875,7.292 -27.291,18.625 -42.541,25.292c-7.375,2.875 -11.25,10.125 -15.709,16.208c-33.541,-13.792 -66,-31.167 -93.333,-55.208c-8.458,-7.792 -19.083,-14.75 -22.25,-26.459c13.542,-0.291 27.125,0.209 40.625,-1.041c67.417,-12.959 135,-26 200.875,-45.709Z" style="fill:#0098e6;fill-rule:nonzero;"></path><path d="M1730,1246.67c1.875,2.625 1.875,2.625 0,-0Z" style="fill:#0098e6;fill-rule:nonzero;"></path><path d="M1738.42,1263.88c2.458,1.958 2.458,1.958 -0,0Z" style="fill:#0098e6;fill-rule:nonzero;"></path><path d="M341,1374.04c31.333,-12.417 61.75,-27 92.25,-41.25c-3.417,25.958 -6,52 -8.708,78.083c-35.209,-10.25 -70.625,-20.542 -104.459,-34.667c7.042,0.542 14.375,0.959 20.917,-2.166Z" style="fill:#0098e6;fill-rule:nonzero;"></path><path d="M1788.33,1347c2.375,2.083 2.375,2.083 0,0Z" style="fill:#0098e6;fill-rule:nonzero;"></path><path d="M1805.04,1384.71c2.291,2.292 2.291,2.292 -0,0Z" style="fill:#0098e6;fill-rule:nonzero;"></path></g><g id="_-797979ff" serif:id="#797979ff"><path d="M793.125,213.875c81.917,-88.333 231.125,-102.042 327.583,-29.708c69.709,52.291 112.959,129.916 155.792,203.916c71.25,-32.416 143.917,-68.666 223.792,-71.541c80.458,1.166 161.083,39.958 208.25,105.833c7.416,11.167 17.375,20.542 22.875,33c0.541,8.917 9.041,14.667 10.416,23.417c5.334,21.041 13.084,41.458 16.542,63c9.292,53.541 6.792,108.958 -4.083,162.041c64.041,18 129.416,41.584 178.916,87.709c24.459,21.166 41.542,49.458 55.75,78.125c3.75,5.208 0.75,11.041 -0.208,16.583c1.708,-1.208 5.167,-3.667 6.917,-4.917c-0.542,3.167 -1.584,9.459 -2.125,12.625c1.458,-0.166 4.375,-0.5 5.833,-0.666c8.542,30.791 14.25,62.333 12.25,94.416c3.208,14.792 -7.958,27.584 -4.625,42.209c-3.833,2.875 -5.875,6.833 -6.125,11.875c-3.042,16.333 -13.208,30.166 -16.542,46.416c-5.666,7.709 -2.916,25.917 -16.75,22.667c0.417,4.125 3.417,8.75 -0.541,12.333c-7.042,8.875 -10.875,22.25 -22.334,26.25c-0.541,5.792 -2.083,11.542 -9,12.167l0.125,3.25l-5.083,-0.625l2.333,5.875c-1.875,-0.667 -5.583,-1.958 -7.458,-2.583c-42.958,49.333 -93.208,91.458 -140.333,136.625c2.625,6.333 6.291,13.916 14.458,9.875c-1.792,1.25 -5.375,3.75 -7.167,5c6.167,9.416 7.25,24.291 18.084,29.375c-0.667,1.291 -2.042,3.833 -2.709,5.125c10.667,19.083 18.5,39.625 26.042,60.125c-1.708,-0.834 -5.042,-2.417 -6.75,-3.209c-5.625,-8.166 -11.458,-16.416 -20.208,-21.5c3.083,9.834 6.541,19.584 9.958,29.334c-3.75,-5.417 -7.458,-10.875 -11.5,-16.084c-2.75,-2.5 -5.917,-4.291 -9.542,-5.375l5.084,-2.25c-5.209,-10.583 -10.292,-21.25 -15.417,-31.875c-0.958,-0.458 -2.833,-1.416 -3.792,-1.916c0.334,-4.125 -0.541,-8 -2.666,-11.584c1,-1.666 3,-4.958 4,-6.583c-2.417,0.375 -7.167,1.167 -9.584,1.542c3.125,-4.917 6.375,-9.709 9.334,-14.75c-3.334,1.458 -10.042,4.291 -13.375,5.708c1.208,-1.958 3.583,-5.958 4.791,-7.917c-4.833,-1.5 -9.541,-3.333 -14.375,-4.541c-18.625,17.25 -36.041,35.833 -55.083,52.666c-13.083,10.875 -21.667,25.917 -34.5,37c21.5,-37.5 56.333,-64.458 85.833,-95.333c-4.75,-9.333 -7.583,-19.5 -9.875,-29.708c-3.416,-2.292 -6,-5.292 -7.75,-8.959c-15.5,-32.208 -31.375,-64.25 -44.5,-97.5c-4.333,-11.625 -11.666,-21.75 -16.5,-33.083c-10.333,-30.5 -16.333,-62.292 -21.541,-93.958c-2.25,-44.875 -2.459,-90.334 6.75,-134.5c-2.625,-0.875 -5.209,-1.709 -7.75,-2.542c1.958,-0.542 5.958,-1.625 7.916,-2.167c7,-25.75 9.375,-52.958 19.875,-77.666c-2.541,-2.084 -5.083,-4.125 -7.666,-6.042c2.666,-0.75 8,-2.333 10.666,-3.083c0,-2.875 -0.083,-8.667 -0.083,-11.542c5,-3.875 4.375,-9.625 3.583,-15.208c5.125,-3.25 4.792,-9.25 5.417,-14.542c6.417,-7.208 2.375,-16.042 -2.042,-23c2.834,0.625 8.5,1.833 11.375,2.458c-1.75,-3.583 -5.25,-10.75 -7,-14.291c3.375,-1.709 6.75,-3.375 10.167,-5.042c-1.625,-2.5 -4.958,-7.417 -6.625,-9.917c-8.917,-1.375 -17.5,-4.583 -26.583,-4.416c-0.25,-1.5 -0.75,-4.5 -0.959,-6c-12.75,2.875 -27.416,0.958 -37.75,-7.375c-10.833,1.916 -20.666,-3.125 -31.166,-4.334c-0.75,-1.083 -2.209,-3.291 -2.917,-4.375c-6.625,1.334 -13.042,1.375 -17.958,-3.875c-8.834,0.417 -17.625,0.084 -26.375,-0.791c-0.875,-2.417 -2.667,-7.292 -3.584,-9.709c-1.75,1.917 -5.25,5.75 -7.041,7.667c-2.209,-1.583 -6.709,-4.75 -8.959,-6.333c-20.375,-0.917 -38.958,-13.084 -58.166,-19.5c-37.084,-12.334 -68.459,-36.334 -101.167,-56.75c1.708,-2.042 3.458,-4.042 5.25,-6.042c-1.833,-2.125 -5.5,-6.417 -7.333,-8.583c-0.5,2.125 -1.5,6.375 -2,8.5c-23.917,-23.709 -49.125,-47.292 -65.084,-77.375c-17.75,-27.167 -36.416,-53.834 -52.333,-82.167c-40.75,20.208 -81.875,39.917 -124.583,55.708c-5.084,2.459 -10.292,-1.583 -15.25,-2.5c1.625,2.209 4.833,6.625 6.416,8.834c-6.333,-1.584 -12.625,-3.125 -18.958,-4.667c1.958,2.208 5.917,6.583 7.875,8.792c-6.792,-1.209 -13.417,-2.667 -20.083,-4.417c1.166,2.125 3.5,6.458 4.625,8.583c-7.292,-1.166 -14.459,-2.916 -21.5,-5.125c1.958,2.25 5.875,6.75 7.833,9c-8.208,-1.083 -16.333,-2.458 -24.458,-4c3.416,2.25 6.875,4.542 10.291,6.834c-3.708,0.416 -11.125,1.291 -14.833,1.75c-3.917,-1.834 -7.833,-3.584 -11.75,-5.334c0.917,2 2.75,6.042 3.667,8.042c-16.917,0.042 -33.25,6 -50.209,4.5c-19.333,-1.375 -38.666,-0.25 -57.958,-0.542c-72.583,-8.833 -143.083,-29.875 -212.208,-53.125c-27.75,91 -54.667,185.125 -112.584,262.334c-51.875,69.708 -128.041,114.708 -200.708,159.625c33.708,73.458 63.917,149.708 77.125,229.833c4.292,42.125 10.125,84.667 4.333,126.958c-2.625,48.834 -8.541,97.5 -14.375,146c-0.083,5.167 -0.041,10.334 0.167,15.5c22.792,5.542 44.375,14.875 66.625,22.209c21.958,7.666 45.042,13.958 64.125,27.791c5.5,4.209 14.042,9.042 10.042,17.334c-16.542,2.958 -32.709,-3.042 -48.959,-5.042c-32.041,-6.25 -64.166,-12.125 -96.083,-19.083c-3.083,65.75 6.583,132.25 30.792,193.625c35.208,93.458 104.666,171.041 185.916,227.5c19.25,14.375 47.667,22.125 56.5,46.416c-11.208,1.292 -22.625,0.75 -33.291,-3c-67.792,-21.458 -128,-64.166 -174.292,-117.75c-65.083,-74.75 -106.5,-169.791 -116.958,-268.291c-5.584,-29.75 -2.167,-60.25 -2.917,-90.334c-72.917,-19.041 -147.5,-39.083 -211.167,-80.916c-42.708,-27.25 -77.125,-67.834 -94.333,-115.709c-22.708,-63.875 -20.75,-137.75 12.208,-197.833c18.875,-36.042 47.625,-65.625 78.5,-91.583c42.084,-33.584 87.875,-62.375 135.375,-87.625c-27.416,-66.584 -58.125,-133.625 -65.291,-206.084c-0.542,-32.333 -2.167,-65.166 5.625,-96.875c27.541,-111.5 141.625,-193.458 255.833,-186.75c51.958,-2.75 102.458,11.959 152.25,24.792c22,-73.917 49.875,-149.292 103.25,-206.75m90.708,-0.5c-38.125,15.5 -64.666,48.958 -85.583,83.042c3.792,4.75 7.25,9.791 9.375,15.541c-3.708,-3.166 -7.875,-5.625 -12.458,-7.375c-2.542,4.834 -5.292,9.584 -7.542,14.584c-21.792,36.208 -34.292,77.375 -46.583,117.625c35.708,10.666 70.791,23.75 107.291,31.541c-1.333,-2.791 -3.958,-8.416 -5.291,-11.25c3.125,3.959 6.833,7.334 10.458,10.792c8.167,-0.375 26.417,14.042 26.375,-1.042c1.708,16.792 22.167,11.334 33.5,17.292c-1.958,-7.5 -3.583,-15.083 -5.333,-22.583c3.791,6.5 7.083,13.25 10.833,19.833c6.833,6.875 21.958,4.667 21.417,-6.833c0.458,4.75 0.875,9.541 1.25,14.291c10.25,-0.583 20.5,-0.958 30.75,-1.083c-1.334,-7.208 -2.584,-14.458 -3.417,-21.75c4.125,7.75 7.042,16.458 14.458,21.875c5.167,-4.292 8.584,-9.958 10.875,-16.208c0.084,5.875 -1.25,12.375 2.875,17.333c12.667,-0.75 25.292,-2.167 37.542,-5.708c9.208,-1.042 18.167,-3.334 26.875,-6.375c14.833,-1.375 28.542,-7.584 42.833,-11.25c0.042,-1.667 0.084,-4.959 0.084,-6.625c11.833,4.541 23.458,-3.667 35.5,-3.584c-0.167,-1.083 -0.417,-3.208 -0.542,-4.291c30.792,-11.334 59.708,-27 89.792,-40c-17.792,-32.417 -37.125,-64 -57.584,-94.792c-8.208,-11.333 -15.541,-23.5 -25.916,-33.042c-0.917,-4.25 -2.334,-8.416 -3.584,-12.583c-5.708,-2.833 -11.375,-6 -15.5,-10.958c-18.5,-18.167 -37.916,-36.834 -62.25,-46.834l1.709,7.459c-3,-6.542 -10.584,-6.417 -16.625,-7.5c0.166,-2.209 0.5,-6.667 0.666,-8.917c-27.458,-8.25 -56.375,-15.583 -85.208,-10.917l-1.375,-1.375c-27.417,1.834 -55.792,6.75 -79.667,21.667m559.5,159.167c1.292,1.5 3.792,4.541 5.084,6.041c-21.625,1.5 -42.5,7.417 -62.459,15.667c-28.208,12.042 -57.416,22.833 -83.541,39.042c13.875,29.083 34.25,55.291 53.666,81.125c5.084,5.083 9.417,10.833 13.209,16.958c2.5,0.625 7.5,1.917 10,2.542c-1.042,1.5 -3.167,4.541 -4.209,6.041c9.959,9.042 18.459,19.625 29.084,27.959l1.125,-1.375c5.25,8.75 11.75,16.666 19.541,23.291c8.584,5.917 17.125,12.042 25.834,17.875c1.708,-2.083 5.083,-6.25 6.791,-8.291l-2.583,4.791c5.75,7.334 11.5,15.25 21.167,17.417c8.291,6.208 17.916,10.25 27.625,13.708c1.416,-1.416 4.166,-4.291 5.583,-5.708c4.75,11.708 17.75,14.292 29,14.708c-1.083,0.917 -3.25,2.75 -4.375,3.625c13.417,4.292 28.167,5.625 40.167,13.542c7.583,-2.292 15.333,-4.542 22.166,-8.667c0.459,3.334 0.875,6.667 1.334,10.042c11.583,4.958 24.208,7.083 36.75,5.417c-3,1.583 -6,3.208 -8.917,4.875c20.458,5.75 41.583,8.875 62.083,14.583c9.042,2.75 18.5,3.167 27.917,2.583c0.208,-22.916 8.292,-45.75 2.375,-68.708c-0.208,-6.625 -0.333,-13.208 -0.458,-19.792c5.458,-26.875 -6.417,-53 -7.209,-79.208c-7,-3.292 -4.125,-10.375 -3.583,-16.375c-1.958,-0.125 -5.958,-0.375 -7.958,-0.542c0.708,-2.958 2.083,-8.958 2.791,-11.916c-4.583,-6.125 -7.916,-12.959 -11.833,-19.459c-0.167,-1.666 -0.5,-5 -0.667,-6.666c-9,-4.584 -15.416,-12.125 -20,-20.959c-1.5,-15.583 -19,-21.333 -31.583,-25.625c-0.375,-8.916 -8.333,-13.5 -15.667,-16.333c0.542,-1.917 1.709,-5.667 2.292,-7.583c-2.292,1.5 -6.833,4.458 -9.125,5.916c0.042,-2.125 0.083,-6.375 0.083,-8.5c-13.583,1.209 -24.958,-6.916 -35.583,-14.125c-3.125,3.667 -6.208,7.334 -9.333,10.959c-0.375,-8.25 -6.375,-16.959 -15.75,-13.75l2.875,-3.292c-24.417,-2.5 -49,-6.458 -73.584,-2.125c-12.791,-7.542 -26.666,1.167 -40.125,0.292m115.834,-0.625c2.166,2.125 2.166,2.125 -0,-0m-1071.83,83.25c-9.875,0.416 -19.916,1.125 -28.625,6.291c-24.125,9.5 -46.625,23.792 -64.416,42.75c-3.625,2.625 -7.042,5.584 -10.5,8.459l0.541,0.833c-17.916,19.167 -34.583,41.292 -40.75,67.208l-3,-0.125c1.875,1.417 5.667,4.209 7.542,5.625c0.125,2.834 0.25,5.709 0.417,8.542c-1.875,-1.542 -5.584,-4.583 -7.459,-6.125c-12.25,26.5 -11.125,57.542 -7.583,85.875c1.208,8.958 -1.25,19.333 3.667,27.333c8.375,54.542 31.916,105.042 51.541,156.125c30.375,-17.25 60.417,-35.166 88.709,-55.625c9.666,-4.583 17.291,-12.166 24.375,-20.041c14.041,-8.75 26.541,-19.834 36.541,-33.042c-2.458,-1.542 -7.333,-4.625 -9.791,-6.167c11.333,5.167 18.208,-7.208 25.458,-13.416c-1.667,-2.542 -4.958,-7.625 -6.583,-10.125c3.541,2.625 7.083,5.25 10.708,7.833c7,-7.417 14.167,-15.042 17.333,-25c4.417,-8.75 15.542,-16 13.5,-26.792l3.5,3.375c6.125,-11.791 12.834,-23.333 18.459,-35.375l0.666,0.959c4.917,-11.084 10.834,-22.042 12.209,-34.334c5.333,-11.666 9.833,-23.625 14.458,-35.583c-0.792,-1.542 -2.375,-4.625 -3.167,-6.167c10.292,-9.708 15.167,-24.875 15.5,-38.666l1.625,3c6.125,-20.5 13.625,-40.542 21.125,-60.542c-20.875,-5.292 -41.416,-12.708 -63.041,-14.125c-8.125,-7.458 -18.792,-4.375 -27.375,0.458c-1,-2.083 -2.917,-6.166 -3.875,-8.208c-30.334,-0.042 -63.084,-7.292 -91.709,4.792m1258.79,290.916c-8.75,33.375 -18.833,66.5 -25.708,100.375c-4.875,10.625 -9.375,24.417 3.916,30.709c-5.083,1.583 -10.166,3.166 -15.25,4.75c-2.375,13.5 -4.875,26.958 -7.083,40.5l5.25,-1.875c-11,7.5 -11.333,24.583 0.417,31.583c-3.625,0.875 -7.25,1.667 -10.834,2.458c-1.375,9.625 -2.375,19.292 -2.958,28.959c4.958,-1.167 9.958,-2.292 15,-3.375c-14.167,4.583 -19.375,19.041 -8.875,30.666c-1.792,0.125 -5.458,0.375 -7.25,0.5c0.458,12.542 0.083,25.375 3.625,37.584c28.542,2.458 57.625,-3.625 86.5,-3.25c5.667,0.75 11.375,1.5 17.083,2.291c-17.958,0.917 -36.083,-1.666 -53.875,1.625c-14.541,2.917 -29.416,2.042 -44.125,2.792c-0.083,3.792 -0.208,11.375 -0.291,15.167c4,8.208 15.125,8.791 23.208,9.5c25.125,-0.084 50.292,0.416 75.375,-0.917c-33.083,1.833 -66.292,3.917 -99.375,1.583c0.042,15.875 4.75,30.959 7.792,46.375c12.458,3 25.041,5.417 37.666,7.625c-10.125,-0.958 -21.541,-2.333 -29.708,5.125c5.083,10 12.417,18.709 21.458,25.375c-2.666,0.667 -8,2 -10.708,2.667c-1.875,-1.75 -5.667,-5.208 -7.542,-6.917c1.625,2.209 4.917,6.667 6.584,8.917c-0.334,2 -0.959,6.042 -1.292,8.042c2.333,-1.125 6.958,-3.375 9.25,-4.5c-1.833,4.333 -3.667,8.666 -5.458,13c2.25,-0.459 6.833,-1.375 9.125,-1.875c-0.917,2.5 -2.75,7.416 -3.709,9.875l7.25,0.125c-0.5,1.916 -1.541,5.75 -2.041,7.666l6.291,1.292c-1.125,3.042 -3.333,9.042 -4.458,12.042l8.583,-2.542c-1,2.25 -2.916,6.792 -3.875,9.083c2.459,0.834 7.375,2.542 9.875,3.375l-9.458,0.709c7.708,17.166 16.25,33.916 24,51.041c3.292,8.209 8.5,15.417 12.625,23.209c9.667,-10.042 19.25,-20.25 30.625,-28.334c-5.583,-2.958 -11.042,-6.125 -16.042,-9.958c7.167,-7.25 13.792,-15 21.042,-22.208c14.333,-7.75 24.75,-20.542 35.667,-32.292c1.583,0.375 4.75,1.125 6.333,1.5c5.375,-6.167 10.792,-12.292 16,-18.625c-3.583,2.083 -10.708,6.292 -14.292,8.417c2.792,-8.334 8.292,-15.292 13.584,-22.125c0.583,-0.125 1.708,-0.375 2.291,-0.459c21.459,-22.875 41.625,-47 58.709,-73.333c6.291,-9.042 5.541,-22.042 15,-28.917c-0.167,-0.666 -0.542,-1.958 -0.709,-2.625c4.875,-6.875 9.417,-14.041 13.625,-21.333c-1.208,-1.583 -3.625,-4.792 -4.833,-6.375l3.333,0.875c2.209,-11.125 5.125,-22.125 6.292,-33.458c4.958,-21.209 7.333,-43.834 -0.208,-64.75c0.875,-8 -0.542,-17.542 -8.584,-21.417c1.417,-0.792 4.25,-2.333 5.667,-3.125c-4.833,-6.542 -3.458,-24.042 -15.042,-20.417c11.125,-6.916 -2.666,-17.958 -4.875,-26.583c-2.875,1 -8.625,3 -11.5,4c-0.291,-2.25 -0.958,-6.708 -1.291,-8.958l-4.667,-2.542c3,-3.583 6.042,-7.125 9.125,-10.667c-3.5,-2.333 -7,-4.666 -10.458,-6.958c-4.292,-13.75 -16.042,-22.417 -25.125,-32.833c-1.584,0.625 -4.792,1.833 -6.375,2.458l-1.042,-6.375c-5.042,2.417 -10.083,4.792 -15.042,7.333c1.334,-2.458 3.959,-7.375 5.25,-9.833c-4.791,-3.75 -9.875,-7.083 -15.166,-10c1.25,-1.25 3.791,-3.75 5.041,-5c-4.458,-2.375 -9.25,-3.083 -14.083,-1.917c0.125,-1.791 0.458,-5.416 0.583,-7.25c-1.583,1 -4.75,3.042 -6.333,4.042c-4.042,-3.417 -8.167,-6.583 -12.333,-9.708c-5.417,-0.75 -10.875,-1.542 -16.334,-0.792c-4.166,-6.292 -10.916,-9.458 -17.875,-11.5c-20.958,-6.542 -41.458,-14.542 -62.958,-19.292m192.375,117.5c2.333,2.125 2.333,2.125 0,0m-1697.08,151.542c-7.542,8.208 -16.084,15.417 -24.875,22.25c-17.167,16.042 -31.209,35.167 -42.292,55.875c-2.25,5.583 -4.625,11.125 -7.125,16.625c-9.208,24.333 -12.833,50.792 -12.417,76.75c1.084,3.417 2.167,6.833 3.209,10.292c-0.417,29.416 10.666,57.875 26.125,82.458c2.375,4.5 6.333,7.5 11.25,8.833l-0.917,2.375c3.167,11.709 13.792,18.667 22.25,26.459c27.333,24.041 59.792,41.416 93.333,55.208l-0.875,1.25c2.75,0.667 8.25,2.042 11,2.708c33.834,14.125 69.25,24.417 104.459,34.667c2.708,-26.083 5.291,-52.125 8.708,-78.083c0.208,-11.584 5.5,-25.084 -4.667,-33.917c2.042,-1.083 6.167,-3.25 8.25,-4.333c0.834,-17.5 2.667,-34.875 4.292,-52.292c-1.292,0.417 -3.958,1.208 -5.25,1.583c5.75,-10.791 6,-31.083 -11.083,-28.708c5.416,-1.208 10.833,-2.25 16.291,-3.292c0.167,-14.25 -1.458,-28.416 -4.666,-42.291c-2.542,0.708 -7.667,2.083 -10.209,2.791c3.334,-4.791 6.667,-9.583 10.084,-14.333c-2.875,-6.5 -6.375,-16.417 -15.584,-14.5c4.375,-0.5 8.75,-0.917 13.125,-1.333c-1.25,-9.292 -3.208,-18.5 -5.5,-27.584l3.25,-0.25c-4.041,-9.083 -5.5,-18.916 -6.75,-28.708l-3.541,0.542c-5.209,-12.875 -9.167,-26.209 -13.709,-39.292l-4.333,0.292c-1.083,-9.959 -2.667,-19.834 -4.5,-29.667l-2.292,-0.042c-9.583,-27.458 -21.541,-54.041 -33,-80.75c-41.875,24.125 -84.375,47.875 -122.041,78.417m1697.17,94.417c2.167,2.041 2.167,2.041 0,-0m-36.291,46.791c9.625,-4.416 18.208,-10.625 26.458,-17.208c-1.208,-1.125 -3.625,-3.333 -4.833,-4.458c-7.5,6.916 -17.042,12.166 -21.625,21.666m-192.875,40.5c2.166,2 2.166,2 -0,0m96.75,65.375l5.666,1c7.209,-7.541 15.084,-14.75 19.5,-24.416c-9.833,6.166 -17.833,14.541 -25.166,23.416m-76.167,-15.541c1.875,2.625 1.875,2.625 0,-0m8.417,17.208c2.458,1.958 2.458,1.958 -0,0m49.916,83.125c2.375,2.083 2.375,2.083 0,0m8.084,16.667c-2.625,4.916 0.625,15.416 6.958,14.958c2.292,-4.958 -1.042,-14.875 -6.958,-14.958m12.958,12.541c2.25,2.042 2.25,2.042 0,0m-4.333,8.5c2.291,2.292 2.291,2.292 -0,0Z" style="fill:#00bbe6;fill-rule:nonzero;"></path><path d="M1759.21,1238.5c2.042,2.458 2.042,2.458 0,0Z" style="fill:#00e697;fill-rule:nonzero;"></path></g><g id="_-afabaaff" serif:id="#afabaaff"><path d="M1559.17,371.917c2.166,2.125 2.166,2.125 -0,-0Z" style="fill:#0098e6;fill-rule:nonzero;"></path><path d="M963.833,668c11.167,-43.125 53.709,-76.458 98.667,-74.417c43.458,1.042 84.292,34.292 92.75,77.167c4.667,19.292 -0.167,39 0.208,58.458c-0.416,8.75 9.75,12.917 11.25,20.959c-2.666,8.875 -9.958,15.625 -12.416,24.666c-4.584,15.292 -8.417,31.25 -18.334,44.209c-8.625,13.083 -21.833,27.666 -16.875,44.583c9.417,31.417 35.417,56.125 64.875,69.375c19.5,9.417 41.792,9.167 62.125,16.083c31.834,10.417 60.625,33.417 73.459,64.917c10.583,25.875 12.958,54.167 14.333,81.833c5.833,53.875 -4.542,108.334 3.042,162.125c4.666,66.084 39.291,124.75 53.25,188.709c5,28.5 5.541,57.5 9.125,86.125c3,27.333 0.375,56.166 11.166,82.041c17.542,36.042 56.292,57.167 71.084,94.959c4.125,10.625 8.916,21.791 6.916,33.5c-17.333,-7.875 -21.166,-29.875 -37.875,-39.125c0.542,23.916 2.709,48.291 10.834,70.958c4.416,13.75 11.458,27.375 8.791,42.25c-13.625,-14.042 -24.208,-31.25 -28.791,-50.417c-2.709,-8.041 -3.542,-18.041 -11.917,-22.458c-2.125,29.167 7.625,57.458 7.875,86.458c-8.75,-1.375 -11.125,-10.125 -13.917,-17.125c-8.75,-20.666 -6.416,-43.708 -12.333,-65.083c-17.75,27.208 -6.042,59.625 -6.625,89.333c-11.208,-3.125 -12.5,-15.25 -14.708,-24.833c-4.709,-20.792 -1.167,-42.208 -3.542,-63.167c-5.208,-5.458 -7.542,6.209 -9.458,9.542c-5.417,15.125 3.708,34.583 -8.25,47.083c-6.375,-18.166 -8.792,-37.416 -7.375,-56.541c2,-21.459 -9,-41.625 -6.625,-63.042c2.041,-19.042 2.166,-39 -5.334,-56.958c-14.666,-35.625 -30.875,-70.625 -48.833,-104.709c-15.208,-27.666 -28.708,-56.791 -35.375,-87.791c-5.917,-27.5 1.583,-55.875 -4.833,-83.25c-5.709,-24.459 -11.709,-49.084 -21.792,-72.125c-3.75,50.333 -11.667,100.333 -10.625,150.958c1.042,36.375 -0.667,74 12.667,108.625c22.791,58.125 28.75,121.042 28.875,183c-2.375,62.75 -12.209,124.875 -20.584,187c-4.125,22.042 -4.916,44.667 -10.833,66.333c-50.625,10.209 -102.083,20.292 -153.958,17.709c-4.584,-62.209 -9.959,-124.542 -9.209,-187.042c-10.5,0.042 -20.958,0.292 -31.416,0.792c-0.959,62.208 -0.917,124.708 -9.917,186.458c-51.75,-0.833 -102.75,-11.458 -153.083,-22.75c-11.709,-58.625 -17.542,-118.292 -25.542,-177.5c-9.625,-80.708 -7.25,-164.417 19.25,-241.917c17.875,-41.875 17.667,-88.416 17.75,-133.166c0.458,-47.75 -10.75,-94.667 -9.792,-142.417c-11.375,25.542 -18.166,52.958 -24.291,80.167c-7.75,32.541 3.458,67.25 -8.917,99.041c-23.042,64.459 -63.125,121.542 -83.875,187c-5.375,22.334 0.083,45.5 -3.042,68.084c-7.25,32.125 1.834,66.416 -13.25,97c-8.5,-20.709 0.667,-46.084 -14.333,-64.75c-2.5,28.041 0.5,57 -9.417,84c-0.5,6.416 -7.25,6.958 -11.958,8.625c0.5,-28.834 12.5,-61.584 -5.667,-87.417c-5.208,23.583 -3.416,48.875 -14.875,71c-0.375,4.5 -8.25,11.917 -10.833,4.708c2.083,-27.083 9.25,-53.875 6.542,-81.25c-8.5,6.25 -8.75,17.5 -12,26.667c-4.375,17.292 -14.792,32.292 -26.667,45.333c-5.583,-14.125 5.375,-28.125 8.25,-41.791c9.083,-22.542 7.458,-47.042 12.208,-70.459c-19.75,7.042 -21.583,33.167 -41,39.875c0.334,-18.916 8.667,-36.416 17.667,-52.625c21.042,-31 56.667,-52.875 66.708,-90.708c4.709,-15.208 2.459,-31.292 4.292,-46.875c4.583,-32.375 4.917,-65.208 9.5,-97.583c11.333,-66.5 48.125,-126.125 54.875,-193.75c4.958,-65.167 -3.417,-131 5.542,-195.959c1.958,-28.541 9.625,-58.041 28.291,-80.333c21.167,-24.458 51.917,-39.5 83.834,-43.542c43.666,-5.458 84.333,-34.833 99.75,-76.458c4.875,-17.292 -4.375,-33.167 -15.375,-45.667c-15.875,-18.125 -14.417,-44.291 -28.5,-63.375c-7.959,-8.958 2.958,-16.25 6.958,-23.625c1.875,-21.875 -2.958,-44.041 1.458,-65.708Z" style="fill:#0098e6;fill-rule:nonzero;"></path><path d="M1932.92,1038.58c9.083,-1.041 18.375,-0.583 27.208,2.167c1.208,1.583 3.625,4.792 4.833,6.375c-4.208,7.292 -8.75,14.458 -13.625,21.333c-0.458,-1.625 -1.416,-4.916 -1.916,-6.541c-7.875,-0.417 -15.75,-0.375 -23.542,0.5c8.667,-2.209 17.083,-5.375 25.417,-8.625c-4.209,-7.125 -10.5,-12.5 -18.375,-15.209Z" style="fill:#0098e6;fill-rule:nonzero;"></path><path d="M1938.58,1109.54c2.167,2.041 2.167,2.041 0,-0Z" style="fill:#0098e6;fill-rule:nonzero;"></path><path d="M1902.29,1156.33c4.583,-9.5 14.125,-14.75 21.625,-21.666c1.208,1.125 3.625,3.333 4.833,4.458c-8.25,6.583 -16.833,12.792 -26.458,17.208Z" style="fill:#0098e6;fill-rule:nonzero;"></path><path d="M1709.42,1196.83c2.166,2 2.166,2 -0,0Z" style="fill:#0098e6;fill-rule:nonzero;"></path><path d="M1755.42,1230.58c2.166,2.209 2.166,2.209 -0,0Z" style="fill:#0098e6;fill-rule:nonzero;"></path><path d="M1806.17,1262.21c7.333,-8.875 15.333,-17.25 25.166,-23.416c-4.416,9.666 -12.291,16.875 -19.5,24.416l-5.666,-1Z" style="fill:#0098e6;fill-rule:nonzero;"></path><path d="M1763.5,1247c2.083,2.292 2.083,2.292 0,0Z" style="fill:#0098e6;fill-rule:nonzero;"></path><path d="M1767.5,1255.21c2.167,2.209 2.167,2.209 0,0Z" style="fill:#0098e6;fill-rule:nonzero;"></path><path d="M1783.92,1271.92c4.666,-4.167 9.291,-8.417 13.791,-12.792c5,3.833 10.459,7 16.042,9.958c-11.375,8.084 -20.958,18.292 -30.625,28.334c-4.125,-7.792 -9.333,-15 -12.625,-23.209c4.417,-0.916 8.917,-1.625 13.417,-2.291Z" style="fill:#0098e6;fill-rule:nonzero;"></path><path d="M1698.92,1363.58c12.041,-19.875 30.291,-35.833 49.166,-49.166c-12.041,19.916 -31.958,33.916 -49.166,49.166Z" style="fill:#0098e6;fill-rule:nonzero;"></path><path d="M1796.42,1363.67c5.916,0.083 9.25,10 6.958,14.958c-6.333,0.458 -9.583,-10.042 -6.958,-14.958Z" style="fill:#0098e6;fill-rule:nonzero;"></path><path d="M1809.38,1376.21c2.25,2.042 2.25,2.042 0,0Z" style="fill:#0098e6;fill-rule:nonzero;"></path><path d="M1807.04,1388.96c8.75,5.084 14.583,13.334 20.208,21.5c1.708,0.792 5.042,2.375 6.75,3.209l1.75,0.791c4.208,16.042 12.917,31.459 12.542,48.375c10.791,29.084 10.5,60.709 11.291,91.375c0,8.959 0.625,18.75 -4.708,26.584c-1.958,-21.167 0.458,-42.625 -3.833,-63.625c-4.542,2.375 -5.959,7.416 -7.875,11.791c0.458,-22.583 -8.459,-43.916 -10.417,-66.291c-11.458,-4.959 -12.792,-18.125 -15.875,-28.625c-5.708,-8.167 -4.958,-21.75 -15.958,-24.875c1.125,-1.709 3.458,-5.209 4.583,-6.959c4.042,5.209 7.75,10.667 11.5,16.084c-3.417,-9.75 -6.875,-19.5 -9.958,-29.334Z" style="fill:#0098e6;fill-rule:nonzero;"></path><path d="M1847.12,1539.25c6.458,4.458 3.917,18.708 1.583,26c-5.75,-5.208 -4.375,-18.625 -1.583,-26Z" style="fill:#0098e6;fill-rule:nonzero;"></path></g></svg> 