<?xml version="1.0" encoding="UTF-8" standalone="no"?> <svg xmlns="http://www.w3.org/2000/svg" xmlns:xlink="http://www.w3.org/1999/xlink" xmlns:serif="http://www.serif.com/" width="100%" height="100%" viewBox="0 0 2667 2134" version="1.1" xml:space="preserve" style="fill-rule:evenodd;clip-rule:evenodd;stroke-linejoin:round;stroke-miterlimit:2;"><path d="M1366.67,0l-66.667,0c-36.572,0 -66.667,30.094 -66.667,66.667l0,561.166c61.413,-37.061 138.588,-37.061 200,0l0,-561.166c0,-36.573 -30.094,-66.667 -66.666,-66.667Zm-591.667,400c-183.333,0 -241.667,118.75 -333.833,263.042c-190.54,296.947 -333.911,621.639 -425,962.5c-10.819,40.243 -16.256,81.744 -16.167,123.416c-0,255.209 260.417,439.625 521.875,369.292l247.917,-66.125c86.776,-23.032 163.644,-73.912 218.75,-144.792c-10.887,1.822 -21.906,2.738 -32.943,2.738c-109.488,-0 -199.584,-90.095 -199.584,-199.583c0,-53.049 21.15,-103.968 58.735,-141.405l35.75,-35.75l-50.5,0c-109.717,0 -200,-90.283 -200,-200c-0,-109.716 90.283,-200 200,-200l50.5,0l-35.75,-35.708c-37.875,-37.542 -59.204,-88.716 -59.204,-142.044c0,-109.716 90.284,-200 200,-200c39.554,0 78.233,11.734 111.121,33.711l-0,-115.334c-0,-151.541 -130.709,-273.958 -291.667,-273.958Zm1875.54,1225.54c-91.107,-340.854 -234.477,-665.544 -425,-962.5c-92.209,-144.292 -150.542,-263.042 -333.875,-263.042c-160.917,0 -291.667,122.417 -291.667,273.958l-0,115.5c32.887,-21.976 71.566,-33.71 111.12,-33.71c109.717,0 200,90.283 200,200c0,53.328 -21.329,104.502 -59.203,142.044l-35.75,35.541l50.5,0c109.716,0 200,90.284 200,200c-0,109.717 -90.284,200 -200,200l-50.5,0l35.75,35.75c38.588,37.418 60.392,88.934 60.392,142.685c0,109.031 -89.719,198.75 -198.75,198.75c-11.883,-0 -23.742,-1.066 -35.434,-3.185c55.106,70.88 131.974,121.76 218.75,144.792l247.917,66.125c261.458,70.333 521.875,-114.083 521.875,-369.292c0.082,-41.669 -5.34,-83.167 -16.125,-123.416Z" style="fill:#0098e6;fill-opacity:0.4;fill-rule:nonzero;"></path><path d="M1866.67,1266.67l-50.5,-0c-118.792,-0 -178.292,-143.625 -94.292,-227.584l35.75,-35.75c12.499,-12.499 19.528,-29.469 19.528,-47.145c0,-36.577 -30.097,-66.675 -66.674,-66.675c-17.676,0 -34.647,7.03 -47.146,19.529l-35.708,35.75c-84,84 -227.625,24.5 -227.625,-94.292l-0,-50.5c-0,-36.572 -30.094,-66.667 -66.667,-66.667c-36.572,0 -66.666,30.095 -66.666,66.667l-0,50.5c-0,118.792 -143.625,178.292 -227.625,94.292l-35.709,-35.75c-12.499,-12.499 -29.469,-19.529 -47.145,-19.529c-36.577,0 -66.675,30.098 -66.675,66.675c0,17.676 7.03,34.646 19.529,47.145l35.75,35.75c84,83.959 24.5,227.584 -94.292,227.584l-50.5,-0c-36.572,-0 -66.667,30.094 -66.667,66.666c0,36.573 30.095,66.667 66.667,66.667l50.5,0c118.792,0 178.292,143.625 94.292,227.625l-35.75,35.75c-12.915,12.548 -20.21,29.808 -20.21,47.814c0,36.572 30.094,66.667 66.667,66.667c18.016,-0 35.285,-7.304 47.834,-20.231l35.709,-35.708c84,-84 227.625,-24.5 227.625,94.25l-0,50.5c-0,36.572 30.094,66.666 66.666,66.666c36.573,0 66.667,-30.094 66.667,-66.666l-0,-50.5c-0,-118.75 143.625,-178.25 227.625,-94.25l35.708,35.708c12.55,12.927 29.818,20.231 47.835,20.231c36.572,-0 66.667,-30.095 66.667,-66.667c-0,-18.006 -7.296,-35.266 -20.21,-47.814l-35.75,-35.75c-84,-84 -24.5,-227.625 94.292,-227.625l50.5,0c36.572,0 66.666,-30.094 66.666,-66.667c0,-36.572 -30.094,-66.666 -66.666,-66.666Zm-666.667,-0c-36.572,-0 -66.667,-30.095 -66.667,-66.667c0,-36.572 30.095,-66.667 66.667,-66.667c36.572,0 66.667,30.095 66.667,66.667c-0,36.572 -30.095,66.667 -66.667,66.667Zm266.667,266.666c-36.573,0 -66.667,-30.094 -66.667,-66.666c0,-36.573 30.094,-66.667 66.667,-66.667c36.572,0 66.666,30.094 66.666,66.667c0,36.572 -30.094,66.666 -66.666,66.666Z" style="fill:#0098e6;fill-rule:nonzero;"></path></svg> 