<?xml version="1.0" encoding="UTF-8"?> <svg xmlns="http://www.w3.org/2000/svg" width="512pt" height="512pt" viewBox="0 0 512 512" version="1.1"><g id="#64798aff"><path fill="#64798a" opacity="1.00" d=" M 142.33 0.00 L 292.64 0.00 C 303.03 0.46 312.08 9.61 312.13 20.07 C 312.25 39.79 312.17 59.51 312.17 79.24 C 304.37 79.42 296.57 79.39 288.77 79.27 L 288.37 78.77 C 288.37 60.44 288.39 42.12 288.36 23.80 C 241.17 23.77 193.97 23.77 146.77 23.80 C 146.73 42.22 146.77 60.65 146.75 79.07 C 138.88 79.62 130.90 79.26 122.99 79.25 C 122.98 59.49 122.90 39.73 123.03 19.97 C 123.09 9.61 132.05 0.57 142.33 0.00 Z"></path><path fill="#64798a" opacity="1.00" d=" M 37.39 71.92 C 37.62 69.60 39.73 67.66 42.07 67.63 C 56.70 67.54 71.34 67.62 85.97 67.59 C 88.62 67.28 91.43 69.14 91.66 71.90 C 91.80 74.46 91.85 77.06 91.60 79.62 C 90.16 79.96 88.68 79.94 87.22 79.84 C 79.08 79.45 70.92 79.57 62.78 79.82 C 54.34 79.88 45.84 80.27 37.42 79.62 C 37.24 77.06 37.25 74.48 37.39 71.92 Z"></path><path fill="#64798a" opacity="1.00" d=" M 344.56 72.07 C 344.72 69.34 347.43 67.33 350.09 67.60 C 364.73 67.61 379.37 67.56 394.01 67.62 C 396.38 67.59 398.62 69.48 398.85 71.86 C 399.05 74.33 398.89 76.82 398.93 79.30 C 380.81 79.68 362.65 79.60 344.53 79.36 C 344.50 76.93 344.43 74.50 344.56 72.07 Z"></path><path fill="#64798a" opacity="1.00" d=" M 183.04 352.05 C 184.51 349.17 189.87 349.58 190.31 353.00 C 191.29 355.37 189.28 357.65 187.07 358.25 C 183.74 358.73 181.16 354.83 183.04 352.05 Z"></path><path fill="#64798a" opacity="1.00" d=" M 413.19 358.39 C 417.84 358.20 422.50 358.16 427.15 358.36 C 427.25 376.65 427.15 394.95 427.20 413.24 C 427.16 429.83 427.20 446.42 427.19 463.00 C 427.40 472.27 427.04 482.07 422.18 490.26 C 415.55 503.36 401.28 511.64 386.72 512.00 L 384.54 512.00 C 376.10 511.20 367.56 508.58 360.99 503.01 C 353.70 497.46 348.72 489.22 346.49 480.39 C 344.97 473.35 345.76 465.85 343.20 459.01 C 339.05 445.85 326.77 435.64 313.05 434.04 C 302.66 432.52 291.68 435.83 283.84 442.81 C 277.40 448.20 273.21 456.00 271.59 464.19 C 270.65 472.94 270.66 482.24 265.95 490.00 C 259.35 503.09 245.20 511.44 230.69 512.00 L 224.32 512.00 C 214.48 511.38 204.54 508.34 196.93 501.88 C 188.95 495.74 183.36 486.74 180.96 476.99 C 179.21 469.48 179.59 461.67 179.56 454.01 C 179.55 441.49 179.58 428.97 179.55 416.45 C 179.58 413.88 179.55 411.31 179.65 408.76 C 184.16 409.29 188.74 409.28 193.26 408.79 C 193.41 411.34 193.44 413.91 193.41 416.48 C 193.44 433.29 193.32 450.11 193.47 466.92 C 193.72 476.31 198.17 485.56 205.70 491.27 C 213.23 497.53 223.59 498.98 233.06 497.83 C 245.89 496.56 256.61 484.95 256.97 472.07 C 257.26 463.93 258.44 455.56 262.50 448.37 C 269.93 432.86 285.79 421.75 302.91 420.03 C 323.31 417.65 344.35 429.27 353.38 447.64 C 357.51 454.69 358.99 462.99 359.19 471.07 C 359.38 478.97 362.89 486.85 369.09 491.83 C 376.02 497.81 386.19 499.65 394.82 496.66 C 405.68 493.28 413.40 482.34 413.32 471.01 C 413.37 452.83 413.34 434.65 413.34 416.47 C 413.25 397.11 413.54 377.74 413.19 358.39 Z"></path></g><g id="#27a2dbff"><path fill="#27a2db" opacity="1.00" d=" M 0.00 98.35 C 0.53 88.54 8.98 79.88 18.87 79.55 C 25.04 79.40 31.27 79.28 37.42 79.62 C 45.84 80.27 54.34 79.88 62.78 79.82 C 62.47 188.88 62.78 297.95 62.64 407.02 C 62.85 409.90 62.02 413.06 63.30 415.75 C 66.08 416.70 69.09 416.27 71.98 416.34 C 77.03 416.11 82.10 416.63 87.13 416.09 C 87.43 413.73 87.34 411.36 87.35 409.00 C 87.21 299.28 87.48 189.56 87.22 79.84 C 88.68 79.94 90.16 79.96 91.60 79.62 C 109.70 79.10 127.86 79.73 145.98 79.43 C 192.97 79.44 239.97 79.44 286.96 79.43 C 307.67 79.79 328.39 79.00 349.08 79.71 C 348.71 98.30 349.05 116.89 348.92 135.49 C 338.49 134.80 328.67 143.58 328.61 154.11 C 328.49 181.07 328.59 208.04 328.56 235.00 C 328.61 244.78 328.11 254.73 330.53 264.30 C 333.32 278.90 339.91 292.74 349.38 304.19 C 348.85 307.09 348.88 310.04 348.93 312.97 C 348.92 345.99 348.94 379.01 348.91 412.03 C 349.11 413.37 348.45 415.40 350.04 416.13 C 354.67 416.64 359.35 416.13 364.01 416.31 C 367.19 416.12 370.62 416.89 373.65 415.78 C 373.59 388.84 373.67 361.89 373.61 334.95 C 373.63 331.76 373.39 328.54 374.16 325.42 C 377.02 326.65 379.50 328.82 382.54 329.58 C 382.70 330.78 382.98 332.26 384.39 332.59 C 387.32 333.72 390.34 334.62 393.30 335.71 C 398.56 337.68 404.24 338.03 409.67 339.40 C 410.87 339.66 411.74 340.91 411.60 342.15 C 411.87 347.39 411.16 352.78 411.92 357.94 L 413.19 358.39 C 413.54 377.74 413.25 397.11 413.34 416.47 C 389.89 416.28 366.45 416.85 343.01 416.47 C 293.14 416.47 243.28 416.46 193.41 416.48 C 193.44 413.91 193.41 411.34 193.26 408.79 C 208.34 406.98 222.48 398.59 231.25 386.18 C 240.73 373.11 243.98 355.68 239.70 340.10 C 258.72 335.48 276.39 325.13 289.19 310.25 C 309.80 287.36 317.46 253.96 309.76 224.23 C 303.99 201.46 289.18 181.21 269.47 168.49 C 247.49 153.95 219.25 149.76 193.88 156.55 C 173.41 161.89 154.91 174.43 142.34 191.44 C 129.18 208.88 122.43 231.08 123.77 252.90 C 124.56 275.28 134.21 297.06 149.66 313.19 C 140.52 321.42 134.21 332.76 132.23 344.92 C 129.41 361.08 134.23 378.50 145.33 390.63 C 154.02 400.63 166.50 407.19 179.65 408.76 C 179.55 411.31 179.58 413.88 179.55 416.45 C 126.04 416.38 72.54 416.75 19.04 416.37 C 8.82 416.10 0.09 406.94 0.00 396.77 L 0.00 98.35 Z"></path><path fill="#27a2db" opacity="1.00" d=" M 373.78 79.68 C 388.17 79.98 402.54 79.19 416.92 79.51 C 427.20 79.64 436.22 88.80 436.20 99.08 C 436.32 164.69 436.20 230.29 436.26 295.90 C 415.30 297.73 393.97 295.97 373.79 289.91 C 373.44 253.61 373.72 217.30 373.64 180.99 C 373.83 171.97 373.23 162.90 373.94 153.93 C 374.98 153.64 376.03 153.36 377.08 153.10 C 381.33 151.45 380.87 145.79 381.29 142.05 C 380.81 138.48 381.18 133.21 377.17 131.61 C 376.06 131.39 374.95 131.17 373.85 130.93 C 373.37 127.33 373.70 123.68 373.64 120.06 C 373.75 106.60 373.42 93.14 373.78 79.68 Z"></path><path fill="#27a2db" opacity="1.00" d=" M 342.38 154.91 C 342.18 151.43 345.58 148.71 348.95 149.29 C 348.92 189.85 348.92 230.41 348.93 270.98 C 348.93 272.77 348.77 274.55 348.57 276.34 C 342.53 263.47 342.10 248.97 342.35 235.00 C 342.37 208.30 342.32 181.61 342.38 154.91 Z"></path><path fill="#27a2db" opacity="1.00" d=" M 373.27 296.97 C 393.61 303.05 415.14 304.86 436.25 302.92 C 436.24 308.91 436.26 314.90 436.24 320.89 C 421.72 324.10 406.32 322.83 392.51 317.34 C 390.84 316.38 389.11 317.26 388.27 318.82 L 388.76 317.68 C 382.93 314.87 377.33 311.64 372.21 307.65 C 374.75 304.92 373.04 300.42 373.27 296.97 Z"></path><path fill="#27a2db" opacity="1.00" d=" M 429.10 340.94 C 430.37 338.43 433.94 339.10 436.25 338.32 C 436.25 356.56 436.25 374.79 436.25 393.03 C 437.00 400.81 433.76 408.82 427.20 413.24 C 427.15 394.95 427.25 376.65 427.15 358.36 C 427.58 358.28 428.45 358.12 428.89 358.05 C 429.13 352.35 428.67 346.63 429.10 340.94 Z"></path></g><g id="#1c75a1ff"><path fill="#1c75a1" opacity="1.00" d=" M 62.78 79.82 C 70.92 79.57 79.08 79.45 87.22 79.84 C 87.48 189.56 87.21 299.28 87.35 409.00 C 87.34 411.36 87.43 413.73 87.13 416.09 C 82.10 416.63 77.03 416.11 71.98 416.34 C 69.09 416.27 66.08 416.70 63.30 415.75 C 62.02 413.06 62.85 409.90 62.64 407.02 C 62.78 297.95 62.47 188.88 62.78 79.82 Z"></path><path fill="#1c75a1" opacity="1.00" d=" M 349.08 79.71 C 357.31 79.54 365.55 79.53 373.78 79.68 C 373.42 93.14 373.75 106.60 373.64 120.06 C 373.70 123.68 373.37 127.33 373.85 130.93 C 374.95 131.17 376.06 131.39 377.17 131.61 C 371.62 131.30 366.47 133.51 361.40 135.44 C 357.24 135.57 353.08 135.48 348.92 135.49 C 349.05 116.89 348.71 98.30 349.08 79.71 Z"></path><path fill="#1c75a1" opacity="1.00" d=" M 348.95 149.29 C 353.12 149.36 357.29 149.17 361.46 149.39 C 366.53 151.14 371.60 153.34 377.08 153.10 C 376.03 153.36 374.98 153.64 373.94 153.93 C 373.23 162.90 373.83 171.97 373.64 180.99 C 373.72 217.30 373.44 253.61 373.79 289.91 C 366.28 288.29 359.33 284.96 352.09 282.51 C 349.88 281.32 349.47 278.47 348.57 276.34 C 348.77 274.55 348.93 272.77 348.93 270.98 C 348.92 230.41 348.92 189.85 348.95 149.29 Z"></path><path fill="#1c75a1" opacity="1.00" d=" M 357.35 292.42 C 358.62 291.93 359.75 292.90 360.92 293.22 C 364.90 294.90 369.14 295.78 373.27 296.97 C 373.04 300.42 374.75 304.92 372.21 307.65 C 366.64 303.22 361.78 297.96 357.35 292.42 Z"></path><path fill="#1c75a1" opacity="1.00" d=" M 349.38 304.19 C 356.22 312.70 364.72 319.92 374.16 325.42 C 373.39 328.54 373.63 331.76 373.61 334.95 C 373.67 361.89 373.59 388.84 373.65 415.78 C 370.62 416.89 367.19 416.12 364.01 416.31 C 359.35 416.13 354.67 416.64 350.04 416.13 C 348.45 415.40 349.11 413.37 348.91 412.03 C 348.94 379.01 348.92 345.99 348.93 312.97 C 348.88 310.04 348.85 307.09 349.38 304.19 Z"></path></g><g id="#3a556aff"><path fill="#3a556a" opacity="1.00" d=" M 463.39 131.53 C 468.92 131.08 474.05 133.78 479.19 135.42 C 479.15 139.95 479.19 144.47 479.17 149.00 C 478.88 149.16 478.30 149.48 478.01 149.64 C 473.21 151.34 468.23 153.67 463.03 153.05 C 459.07 151.03 459.57 145.73 459.09 141.98 C 459.65 138.34 459.23 133.06 463.39 131.53 Z"></path><path fill="#3a556a" opacity="1.00" d=" M 361.40 135.44 C 366.47 133.51 371.62 131.30 377.17 131.61 C 381.18 133.21 380.81 138.48 381.29 142.05 C 380.87 145.79 381.33 151.45 377.08 153.10 C 371.60 153.34 366.53 151.14 361.46 149.39 C 361.08 144.77 361.22 140.07 361.40 135.44 Z"></path><path fill="#3a556a" opacity="1.00" d=" M 388.27 318.82 C 389.11 317.26 390.84 316.38 392.51 317.34 C 406.32 322.83 421.72 324.10 436.24 320.89 C 440.99 320.14 445.30 317.69 450.02 316.86 C 450.43 317.08 451.24 317.50 451.65 317.71 C 453.60 321.02 455.47 324.38 457.28 327.77 C 457.68 329.21 458.57 331.06 457.04 332.18 C 450.30 334.80 443.45 337.28 436.25 338.32 C 433.94 339.10 430.37 338.43 429.10 340.94 C 428.67 346.63 429.13 352.35 428.89 358.05 C 428.45 358.12 427.58 358.28 427.15 358.36 C 422.50 358.16 417.84 358.20 413.19 358.39 L 411.92 357.94 C 411.16 352.78 411.87 347.39 411.60 342.15 C 411.74 340.91 410.87 339.66 409.67 339.40 C 404.24 338.03 398.56 337.68 393.30 335.71 C 390.34 334.62 387.32 333.72 384.39 332.59 C 382.98 332.26 382.70 330.78 382.54 329.58 C 384.26 325.90 386.39 322.42 388.27 318.82 Z"></path></g><g id="#f7f9faff"><path fill="#f7f9fa" opacity="1.00" d=" M 328.61 154.11 C 328.67 143.58 338.49 134.80 348.92 135.49 C 353.08 135.48 357.24 135.57 361.40 135.44 C 361.22 140.07 361.08 144.77 361.46 149.39 C 357.29 149.17 353.12 149.36 348.95 149.29 C 345.58 148.71 342.18 151.43 342.38 154.91 C 342.32 181.61 342.37 208.30 342.35 235.00 C 342.10 248.97 342.53 263.47 348.57 276.34 C 349.47 278.47 349.88 281.32 352.09 282.51 C 352.99 286.17 354.86 289.59 357.35 292.42 C 361.78 297.96 366.64 303.22 372.21 307.65 C 377.33 311.64 382.93 314.87 388.76 317.68 L 388.27 318.82 C 386.39 322.42 384.26 325.90 382.54 329.58 C 379.50 328.82 377.02 326.65 374.16 325.42 C 364.72 319.92 356.22 312.70 349.38 304.19 C 339.91 292.74 333.32 278.90 330.53 264.30 C 328.11 254.73 328.61 244.78 328.56 235.00 C 328.59 208.04 328.49 181.07 328.61 154.11 Z"></path><path fill="#f7f9fa" opacity="1.00" d=" M 479.19 135.42 C 486.06 135.94 493.25 134.43 499.87 136.86 C 506.68 139.48 511.42 146.22 512.00 153.43 L 512.00 248.75 C 511.15 276.94 496.80 304.49 473.59 320.67 C 469.07 324.56 463.40 326.66 458.44 329.89 C 458.15 329.36 457.57 328.30 457.28 327.77 C 455.47 324.38 453.60 321.02 451.65 317.71 C 463.78 311.86 474.37 303.13 482.51 292.44 C 484.83 289.46 486.93 286.23 488.09 282.61 C 491.25 278.76 492.23 273.69 494.18 269.21 C 497.07 260.11 498.15 250.56 498.18 241.03 C 498.17 212.33 498.19 183.62 498.17 154.91 C 498.33 151.58 495.20 148.90 491.95 149.27 C 487.32 149.50 482.56 148.81 478.01 149.64 C 478.30 149.48 478.88 149.16 479.17 149.00 C 479.19 144.47 479.15 139.95 479.19 135.42 Z"></path><path fill="#f7f9fa" opacity="1.00" d=" M 193.88 156.55 C 219.25 149.76 247.49 153.95 269.47 168.49 C 289.18 181.21 303.99 201.46 309.76 224.23 C 317.46 253.96 309.80 287.36 289.19 310.25 C 276.39 325.13 258.72 335.48 239.70 340.10 C 235.57 324.41 224.20 311.16 209.68 304.09 C 218.46 304.15 227.25 304.13 236.04 304.10 C 236.12 291.38 236.00 278.65 236.09 265.93 C 248.83 265.88 261.57 265.93 274.31 265.90 C 274.33 253.94 274.32 241.98 274.31 230.02 C 261.57 229.94 248.82 230.08 236.08 229.95 C 236.01 217.21 236.11 204.48 236.03 191.75 C 224.08 191.76 212.13 191.70 200.18 191.78 C 200.11 204.51 200.19 217.25 200.14 229.99 C 187.41 230.03 174.69 229.96 161.96 230.02 C 161.95 241.97 161.86 253.94 162.01 265.89 C 174.71 265.94 187.42 265.88 200.13 265.92 C 200.20 277.57 200.11 289.22 200.18 300.87 C 187.03 297.63 172.55 299.03 160.65 305.66 C 156.66 307.66 153.14 310.42 149.66 313.19 C 134.21 297.06 124.56 275.28 123.77 252.90 C 122.43 231.08 129.18 208.88 142.34 191.44 C 154.91 174.43 173.41 161.89 193.88 156.55 Z"></path><path fill="#f7f9fa" opacity="1.00" d=" M 178.44 304.58 C 188.99 303.39 200.12 304.31 209.60 309.45 C 220.34 315.27 229.50 324.75 233.47 336.45 C 240.25 353.97 236.17 375.47 222.69 388.73 C 214.02 397.89 201.73 403.97 189.01 404.15 C 182.40 404.12 175.66 403.89 169.43 401.42 C 149.62 394.52 135.36 374.14 136.36 353.06 C 136.19 329.51 155.18 307.85 178.44 304.58 M 181.23 330.26 C 171.80 332.29 163.88 340.34 162.50 349.95 C 161.09 355.87 162.91 362.11 165.56 367.44 C 168.74 373.63 175.56 376.55 181.94 378.23 C 185.95 378.48 190.16 378.84 194.00 377.35 C 204.45 374.07 212.04 362.97 210.83 352.04 C 209.98 344.45 206.42 336.14 199.07 332.83 C 193.52 330.38 187.26 328.52 181.23 330.26 Z"></path><path fill="#f7f9fa" opacity="1.00" d=" M 183.32 333.54 C 190.08 332.53 197.46 334.76 202.20 339.77 C 207.05 345.45 208.03 353.53 206.39 360.62 C 204.12 367.05 198.90 372.44 192.26 374.33 C 185.05 375.83 177.16 374.32 171.46 369.51 C 165.91 363.22 164.08 353.87 167.25 346.04 C 169.89 339.35 176.29 334.65 183.32 333.54 M 183.04 352.05 C 181.16 354.83 183.74 358.73 187.07 358.25 C 189.28 357.65 191.29 355.37 190.31 353.00 C 189.87 349.58 184.51 349.17 183.04 352.05 Z"></path></g><g id="#e56353ff"><path fill="#e56353" opacity="1.00" d=" M 200.18 191.78 C 212.13 191.70 224.08 191.76 236.03 191.75 C 236.11 204.48 236.01 217.21 236.08 229.95 C 248.82 230.08 261.57 229.94 274.31 230.02 C 274.32 241.98 274.33 253.94 274.31 265.90 C 261.57 265.93 248.83 265.88 236.09 265.93 C 236.00 278.65 236.12 291.38 236.04 304.10 C 227.25 304.13 218.46 304.15 209.68 304.09 C 206.53 302.96 203.49 301.47 200.18 300.87 C 200.11 289.22 200.20 277.57 200.13 265.92 C 187.42 265.88 174.71 265.94 162.01 265.89 C 161.86 253.94 161.95 241.97 161.96 230.02 C 174.69 229.96 187.41 230.03 200.14 229.99 C 200.19 217.25 200.11 204.51 200.18 191.78 Z"></path></g><g id="#d5d6dbff"><path fill="#d5d6db" opacity="1.00" d=" M 352.09 282.51 C 359.33 284.96 366.28 288.29 373.79 289.91 C 393.97 295.97 415.30 297.73 436.26 295.90 C 446.59 294.64 456.92 293.02 466.88 289.93 C 474.22 288.31 481.04 285.12 488.09 282.61 C 486.93 286.23 484.83 289.46 482.51 292.44 C 467.50 297.23 452.09 301.68 436.25 302.92 C 415.14 304.86 393.61 303.05 373.27 296.97 C 369.14 295.78 364.90 294.90 360.92 293.22 C 359.75 292.90 358.62 291.93 357.35 292.42 C 354.86 289.59 352.99 286.17 352.09 282.51 Z"></path><path fill="#d5d6db" opacity="1.00" d=" M 160.65 305.66 C 172.55 299.03 187.03 297.63 200.18 300.87 C 203.49 301.47 206.53 302.96 209.68 304.09 C 224.20 311.16 235.57 324.41 239.70 340.10 C 243.98 355.68 240.73 373.11 231.25 386.18 C 222.48 398.59 208.34 406.98 193.26 408.79 C 188.74 409.28 184.16 409.29 179.65 408.76 C 166.50 407.19 154.02 400.63 145.33 390.63 C 134.23 378.50 129.41 361.08 132.23 344.92 C 134.21 332.76 140.52 321.42 149.66 313.19 C 153.14 310.42 156.66 307.66 160.65 305.66 M 178.44 304.58 C 155.18 307.85 136.19 329.51 136.36 353.06 C 135.36 374.14 149.62 394.52 169.43 401.42 C 175.66 403.89 182.40 404.12 189.01 404.15 C 201.73 403.97 214.02 397.89 222.69 388.73 C 236.17 375.47 240.25 353.97 233.47 336.45 C 229.50 324.75 220.34 315.27 209.60 309.45 C 200.12 304.31 188.99 303.39 178.44 304.58 Z"></path><path fill="#d5d6db" opacity="1.00" d=" M 181.23 330.26 C 187.26 328.52 193.52 330.38 199.07 332.83 C 206.42 336.14 209.98 344.45 210.83 352.04 C 212.04 362.97 204.45 374.07 194.00 377.35 C 190.16 378.84 185.95 378.48 181.94 378.23 C 175.56 376.55 168.74 373.63 165.56 367.44 C 162.91 362.11 161.09 355.87 162.50 349.95 C 163.88 340.34 171.80 332.29 181.23 330.26 M 183.32 333.54 C 176.29 334.65 169.89 339.35 167.25 346.04 C 164.08 353.87 165.91 363.22 171.46 369.51 C 177.16 374.32 185.05 375.83 192.26 374.33 C 198.90 372.44 204.12 367.05 206.39 360.62 C 208.03 353.53 207.05 345.45 202.20 339.77 C 197.46 334.76 190.08 332.53 183.32 333.54 Z"></path></g></svg> 