<?xml version="1.0" encoding="UTF-8" standalone="no"?> <svg xmlns="http://www.w3.org/2000/svg" xmlns:xlink="http://www.w3.org/1999/xlink" xmlns:serif="http://www.serif.com/" width="100%" height="100%" viewBox="0 0 1084 1150" version="1.1" xml:space="preserve" style="fill-rule:evenodd;clip-rule:evenodd;stroke-linejoin:round;stroke-miterlimit:2;"><g id="_-023965ff" serif:id="#023965ff"><path d="M335.125,133.917c3.042,-15.334 13.5,-33 31.292,-32.417c22.625,-1.792 40.041,27.167 26.458,45.958c-7.458,14.084 -25.792,16.709 -39.542,11.334c-10.416,-4.167 -13.333,-15.917 -18.208,-24.875m24.333,-15.959c-9.416,4.167 -10.708,19.209 -2.75,25.375c7.25,8.459 22.959,4.209 25.417,-6.416c0.417,-5.792 -0.417,-11.584 -0.917,-17.334c-7.125,-1.458 -14.875,-6.625 -21.75,-1.625Z" style="fill:#0098e6;fill-opacity:0.6;fill-rule:nonzero;"></path></g><g id="_-003764ff" serif:id="#003764ff"><path d="M436.708,178.917c42.834,-19.625 91.792,-29.292 138.25,-17.834c54.542,11.625 109,44.625 131.042,97.834c8.917,21.041 17,43.208 16.708,66.375c-0.666,17.208 10.584,31.541 19.125,45.5c10.667,17.208 26.792,30.875 34.667,49.708c3.917,16.042 -12.625,24.917 -22.917,33.458c-1.583,20.875 2.959,44.125 -10.166,62.167c19.083,24.708 1.625,62.708 -25.625,72.75c-21.25,4.25 -46.959,-1.792 -64.084,14.708c-20.083,20.334 -24,50.959 -23.75,78.334c-64.916,0.791 -129.833,-0 -194.75,0.375c-6.666,-56.25 -32.125,-108.125 -62.291,-155.334c-36.5,-49.416 -54.667,-112.708 -46.709,-173.833c3.667,-3.25 7.334,-6.5 10.959,-9.833c1.416,-0.25 4.333,-0.792 5.791,-1.042c0.209,4.375 0.667,13.125 0.875,17.5c5.334,-4.792 10.5,-9.75 15.834,-14.5c0.291,3.625 0.958,10.958 1.291,14.625c1.834,0.375 5.5,1.167 7.334,1.542c1.958,-4.959 3.916,-9.917 5.833,-14.875c4,6.041 8.542,11.666 13.958,16.541c0.542,-4.458 1.667,-13.333 2.209,-17.75c5.375,4.292 10.625,8.75 15.833,13.292c0.292,-4.458 0.833,-13.417 1.125,-17.875c5.458,3.125 10.708,6.458 16.125,9.667c0.083,-5.709 0.083,-11.375 0.042,-17.042c5.791,1.458 11.583,2.833 17.375,4.208c-1.042,-5.375 -2.084,-10.791 -3.167,-16.166c5.667,0.833 11.375,1.666 17.083,2.416c-2.208,-5.583 -4.541,-11.083 -6.875,-16.583c5.875,-0.375 11.792,-0.708 17.667,-1.042c-2.917,-5.333 -5.833,-10.708 -8.667,-16.083c3.292,-0.042 9.834,-0.125 13.084,-0.167l0.083,-6.75c-2.958,-2.75 -5.917,-5.5 -8.833,-8.25c3.916,-2.083 11.708,-6.25 15.583,-8.333c-5.167,-2.875 -10.375,-5.75 -15.542,-8.625c3.917,-2.5 7.834,-5 11.792,-7.458c0.083,-1.625 0.25,-4.917 0.292,-6.542c-3.542,-0.458 -10.667,-1.458 -14.25,-1.958c3.916,-4.709 7.916,-9.417 11.916,-14.042c-5.458,-1.75 -10.958,-3.458 -16.416,-5.167c2.583,-5.125 5.166,-10.333 7.583,-15.583c-4.042,0.167 -12.167,0.5 -16.25,0.667c1.375,-5.125 2.75,-10.25 4.083,-15.375c-5.5,0.75 -11,1.541 -16.458,2.291c1.042,-5.333 2.125,-10.625 3.208,-15.916m29.125,166.791c-0.166,2.167 -0.5,6.5 -0.666,8.667c-2.25,-1.833 -6.709,-5.458 -8.917,-7.292c-0.083,2.834 -0.25,8.459 -0.333,11.292c-2.459,-0.875 -7.417,-2.625 -9.917,-3.5c0.5,2.708 1.417,8.208 1.875,10.917c-2.958,-0.584 -8.917,-1.75 -11.875,-2.334c1.708,3.5 3.458,7 5.208,10.459c-3.083,-0.084 -9.208,-0.25 -12.25,-0.334c1.917,2.75 5.792,8.209 7.75,10.959c-2.333,-0 -6.958,0.083 -9.25,0.125c0.334,5.75 -0.333,11.5 -3.041,16.75c2.458,0.666 7.333,2 9.75,2.666c-2.834,1.209 -8.5,3.584 -11.334,4.792c2.792,1.917 8.417,5.75 11.209,7.625c-2.625,1.417 -7.875,4.208 -10.5,5.583c2.375,0.584 7.125,1.709 9.458,2.25c-0.583,2.959 -1.75,8.875 -2.333,11.834c2.625,-0.459 7.875,-1.417 10.5,-1.917c-0.917,2.792 -2.709,8.417 -3.625,11.208c2.791,-0.708 8.416,-2.083 11.25,-2.791c-0.709,2.833 -2.125,8.458 -2.834,11.291c2.625,-0.916 7.834,-2.75 10.417,-3.708c0.25,3.292 0.792,9.792 1.042,13.083c1.291,-2.083 3.875,-6.25 5.166,-8.333c3.792,5.167 9.167,7.125 15.625,5.792c0.042,1.375 0.125,4.125 0.167,5.5c2.25,-0.834 6.667,-2.5 8.875,-3.334c2.125,0.75 6.292,2.209 8.375,2.959c0.125,-1.292 0.375,-3.917 0.458,-5.209c6.042,0.542 11.875,-0.458 16.292,-5l5.542,4.792c0.041,-2.625 0.083,-7.792 0.083,-10.375c2.542,0.625 7.583,1.958 10.083,2.625c-0.5,-2.583 -1.541,-7.667 -2.041,-10.208c2.666,0.333 7.958,0.958 10.625,1.291c-0.792,-2.416 -2.334,-7.208 -3.125,-9.625c1.916,-0.041 5.666,-0.083 7.583,-0.083c-0.583,-2.75 -1.708,-8.208 -2.292,-10.917c1.459,-0.208 4.375,-0.541 5.875,-0.708c-0.416,-13.5 -0.666,-27.042 -0.666,-40.542c-1.667,-0.125 -5,-0.375 -6.667,-0.5c0.917,-2.333 2.792,-7 3.75,-9.333c-1.875,0 -5.625,0.042 -7.458,0.042c-2.709,-6.75 -7.167,-12.5 -11.667,-18.084c-1.917,0.792 -5.708,2.459 -7.625,3.292c0.125,-2.083 0.333,-6.25 0.458,-8.375c-5.083,-0.5 -10.25,-1.25 -14.791,-3.792c-7.584,-1.208 -15.334,-1.291 -23,-1.916c-0.042,1.458 -0.084,4.375 -0.125,5.875c-2.792,-0.875 -8.334,-2.584 -11.084,-3.459m-64.333,154.375c-2.625,13.709 8.25,22.959 17.167,31.292c8.375,0.125 16.958,1.083 25.25,-0.708c6.416,-3 11.208,-8.584 16.5,-13.125c6.75,-16.417 1.625,-34.792 -13.459,-44.5c-6.166,-1.375 -12.291,-2.834 -18.375,-4.292c-13,5.667 -28.708,14.625 -27.083,31.333Z" style="fill:#0098e6;fill-rule:nonzero;"></path><path d="M352.625,209.875c0.042,-2.042 0.125,-6.208 0.167,-8.25c14.125,-0.042 28.375,-1 42.291,2c2.292,2.042 6.792,6.167 9.042,8.208c1.875,-0.708 5.667,-2.125 7.542,-2.833c-0.167,2.625 -0.542,7.917 -0.75,10.542c2.458,-0.459 7.375,-1.459 9.833,-1.959c-0.542,2.5 -1.583,7.5 -2.125,9.959c1.958,-0.084 5.875,-0.292 7.875,-0.375c-0.208,5.333 1.417,10 4.875,13.958c-0.083,6.708 0.292,13.417 -0.125,20.125c1.417,0 4.25,0.042 5.667,0.083c-3.667,7 -6.209,14.5 -9.75,21.584c0.5,1.833 1.541,5.5 2.041,7.291l-8.333,-0.833c0.833,2.542 2.458,7.625 3.25,10.167c-2.625,-0.334 -7.833,-1.042 -10.458,-1.375c0.416,2.833 1.291,8.541 1.708,11.416c-2.458,-1.125 -7.333,-3.375 -9.792,-4.5c0.042,2.75 0.084,8.209 0.125,10.959c-2.75,-0.875 -8.25,-2.667 -11,-3.542c-0.375,2.583 -1.166,7.792 -1.583,10.417c-2.417,-3.209 -4.833,-6.375 -7.25,-9.542c-0.417,1.542 -1.292,4.708 -1.75,6.292c-10.292,-0.75 -20.667,-1 -31,-0.459c0.083,-1.791 0.208,-5.416 0.292,-7.208c-2.917,1.75 -5.834,3.5 -8.709,5.292c-0.083,-7.042 -3.75,-9.667 -11.041,-7.959l1.583,-7.583c-3.083,-0.167 -9.292,-0.542 -12.375,-0.708l6.042,-8.125c-3,-0.125 -8.959,-0.375 -11.917,-0.5c1.333,-2.459 4,-7.375 5.375,-9.875c-17.792,2.708 -5.333,-7.667 -2.5,-11.917c-3.167,-0.833 -9.5,-2.5 -12.708,-3.292c2.333,-1.166 6.958,-3.458 9.291,-4.625c-0.75,-1.666 -2.208,-5.041 -2.958,-6.75c2.25,-6.416 -2.583,-18.833 9.542,-17.375c-2,-1.916 -6,-5.833 -8.042,-7.75c2.5,-0.083 7.417,-0.166 9.875,-0.25c-0.333,-1.791 -1,-5.416 -1.333,-7.25c6,-0.958 9.375,-4.458 10.083,-10.5c2.417,0.5 7.208,1.459 9.583,1.959c0,-2.875 -0.041,-8.667 -0.083,-11.542c2.375,1.667 7.125,4.958 9.5,6.625m-9.792,52.75c-0.375,17.542 17.084,27.75 32.125,31.167c10.834,-3.917 23.334,-8.334 28.209,-19.875c8.541,-15.625 -0.167,-36.334 -16.125,-43.084c-20.25,-10.916 -48,9 -44.209,31.792Z" style="fill:#0098e6;fill-opacity:0.6;fill-rule:nonzero;"></path></g><g id="_-00aeefff" serif:id="#00aeefff"><path d="M451,391.417c7.667,-25.25 45,-32.417 62.042,-12.75c19.291,17.25 10.416,51.458 -12.917,60.416c-10.167,2.084 -20.625,0.709 -30.917,0.334c-14.166,-11.084 -26.75,-29.584 -18.208,-48m29.333,-6.209c-15.25,3.709 -17.541,27.375 -4.875,35.459c12.209,8.458 31.625,-0.959 31.209,-16.25c0.958,-13.584 -13.875,-23.542 -26.334,-19.209Z" style="fill:#0098e6;fill-opacity:0.6;fill-rule:nonzero;"></path><path d="M422.292,484.792c13.916,-11.042 35.791,7.625 28.166,23.208c-4.291,15.708 -28.708,16.417 -35.75,2.667c-2.791,-9.042 -2.416,-21.542 7.584,-25.875m0.333,10.333c0.208,4.958 0.417,9.958 0.667,14.917c5.041,0.375 10.125,0.708 15.208,1c1.417,-2.875 4.25,-8.625 5.667,-11.5c-3.459,-3.375 -6.917,-6.75 -10.375,-10.084c-2.792,1.417 -8.375,4.25 -11.167,5.667Z" style="fill:#0098e6;fill-opacity:0.6;fill-rule:nonzero;"></path></g><g id="_-f0f9feff" serif:id="#f0f9feff"></g><g id="_-f5fcffff" serif:id="#f5fcffff"></g><g id="_-77777aff" serif:id="#77777aff"><path d="M433.25,724.75c-5.25,-9.833 -2.5,-29.042 12.083,-27.5c51.542,-0.667 103.084,0.208 154.625,-0.333c8.542,0.25 17.417,-0.709 25.709,1.916c6.416,6.125 4.958,15.75 6.875,23.667c-5.542,5.042 -11.834,10 -19.875,8.792c-52.875,0.083 -105.75,-0.167 -158.625,0.125c-7.167,-0.709 -17.042,1.375 -20.792,-6.667Z" style="fill:#0098e6;fill-opacity:0.6;fill-rule:nonzero;"></path><path d="M463.417,746.5c42.458,-3.667 85.708,-0.958 128.458,-1.417c17,-1.541 18.667,22.167 9.333,31.417c-40.541,2.792 -81.375,0.167 -122.041,1.25c-7.542,-0.958 -18.459,2.417 -22,-6.708c-1.042,-8.084 -3.792,-21.042 6.25,-24.542Z" style="fill:#0098e6;fill-opacity:0.6;fill-rule:nonzero;"></path><path d="M474,793.708c38.25,-2.25 76.667,-0.875 114.958,-0.833c-4.208,19.792 -23.333,33.083 -42.958,33.75c-17.542,0.458 -36.917,2.417 -52.125,-8.167c-9.375,-5.666 -14.5,-15.708 -19.875,-24.75Z" style="fill:#0098e6;fill-opacity:0.6;fill-rule:nonzero;"></path></g><g id="_-00325fff" serif:id="#00325fff"></g><g id="_-003763ff" serif:id="#003763ff"></g><g id="_-003662ff" serif:id="#003662ff"></g><g id="_-faffffff" serif:id="#faffffff"></g><g id="_-fbffffff" serif:id="#fbffffff"></g><g id="_-f6ffffff" serif:id="#f6ffffff"></g><g id="_-deebf2ff" serif:id="#deebf2ff"></g></svg> 