<svg xmlns="http://www.w3.org/2000/svg" xmlns:xlink="http://www.w3.org/1999/xlink" width="100%" height="100%" version="1.1" viewBox="0 0 2134 2134" xml:space="preserve" style="fill-rule:evenodd;clip-rule:evenodd;stroke-linejoin:round;stroke-miterlimit:2"><path d="M516.223,95.536c8.943,-45.08 39.689,-97.017 91.996,-95.303c66.516,-5.268 117.717,79.869 77.784,135.113c-21.926,41.406 -75.826,49.123 -116.25,33.321c-30.622,-12.251 -39.198,-46.795 -53.53,-73.131m71.537,-46.918c-27.682,12.251 -31.48,56.473 -8.085,74.601c21.315,24.868 67.498,12.374 74.724,-18.863c1.226,-17.028 -1.226,-34.056 -2.696,-50.96c-20.947,-4.287 -43.731,-19.477 -63.943,-4.778Z" style="fill:#0098e6;fill-opacity:.6;fill-rule:nonzero"/><path d="M814.868,227.833c125.929,-57.696 269.861,-86.116 406.443,-52.431c160.349,34.177 320.451,131.194 385.252,287.624c26.216,61.858 49.979,127.027 49.121,195.136c-1.958,50.59 31.116,92.728 56.225,133.766c31.36,50.59 78.767,90.77 101.918,146.138c11.516,47.162 -37.116,73.253 -67.374,98.363c-4.654,61.371 8.7,129.724 -29.887,182.766c56.103,72.639 4.778,184.356 -75.335,213.878c-62.473,12.495 -138.055,-5.268 -188.401,43.241c-59.043,59.78 -70.558,149.815 -69.823,230.295c-190.848,2.325 -381.698,-0 -572.548,1.102c-19.598,-165.37 -94.445,-317.878 -183.131,-456.668c-107.306,-145.279 -160.716,-331.352 -137.32,-511.054c10.781,-9.555 21.561,-19.109 32.219,-28.908c4.162,-0.735 12.738,-2.329 17.025,-3.064c0.614,12.863 1.961,38.587 2.572,51.449c15.682,-14.088 30.869,-28.664 46.551,-42.629c0.855,10.657 2.816,32.216 3.795,42.996c5.392,1.103 16.17,3.431 21.561,4.534c5.757,-14.579 11.513,-29.155 17.149,-43.732c11.76,17.761 25.113,34.298 41.035,48.63c1.594,-13.107 4.901,-39.198 6.494,-52.184c15.802,12.618 31.237,25.724 46.548,39.077c0.859,-13.106 2.449,-39.444 3.307,-52.55c16.047,9.187 31.481,18.985 47.407,28.42c0.244,-16.784 0.244,-33.442 0.123,-50.102c17.025,4.286 34.053,8.328 51.081,12.371c-3.063,-15.802 -6.127,-31.725 -9.311,-47.527c16.661,2.449 33.442,4.898 50.223,7.103c-6.491,-16.414 -13.35,-32.583 -20.212,-48.753c17.272,-1.102 34.667,-2.081 51.939,-3.063c-8.575,-15.679 -17.148,-31.481 -25.48,-47.283c9.678,-0.123 28.911,-0.367 38.466,-0.491l0.244,-19.844c-8.696,-8.085 -17.395,-16.169 -25.968,-24.254c11.512,-6.124 34.42,-18.375 45.812,-24.499c-15.19,-8.452 -30.501,-16.904 -45.692,-25.356c11.516,-7.35 23.032,-14.7 34.668,-21.926c0.244,-4.778 0.735,-14.456 0.858,-19.233c-10.413,-1.347 -31.36,-4.286 -41.894,-5.756c11.513,-13.844 23.273,-27.686 35.032,-41.283c-16.046,-5.145 -32.215,-10.166 -48.261,-15.19c7.594,-15.067 15.187,-30.378 22.293,-45.813c-11.883,0.491 -35.77,1.47 -47.773,1.961c4.042,-15.067 8.084,-30.134 12.003,-45.201c-16.169,2.205 -32.339,4.53 -48.385,6.735c3.064,-15.678 6.248,-31.236 9.431,-46.791m85.625,490.351c-0.488,6.37 -1.47,19.109 -1.958,25.48c-6.614,-5.389 -19.723,-16.046 -26.215,-21.438c-0.244,8.332 -0.735,24.869 -0.979,33.197c-7.229,-2.572 -21.805,-7.717 -29.155,-10.289c1.47,7.961 4.166,24.131 5.512,32.095c-8.696,-1.717 -26.215,-5.145 -34.911,-6.862c5.021,10.29 10.166,20.579 15.311,30.749c-9.064,-0.247 -27.071,-0.735 -36.014,-0.982c5.636,8.084 17.028,24.133 22.784,32.218c-6.858,0 -20.455,0.244 -27.194,0.368c0.982,16.904 -0.979,33.809 -8.94,49.243c7.226,1.958 21.558,5.88 28.664,7.838c-8.332,3.554 -24.989,10.537 -33.321,14.088c8.208,5.636 24.745,16.905 32.954,22.417c-7.718,4.166 -23.152,12.371 -30.869,16.413c6.982,1.717 20.946,5.025 27.805,6.615c-1.714,8.699 -5.145,26.092 -6.859,34.791c7.718,-1.349 23.152,-4.166 30.87,-5.636c-2.696,8.209 -7.965,24.746 -10.658,32.951c8.206,-2.082 24.743,-6.124 33.074,-8.205c-2.084,8.328 -6.247,24.865 -8.331,33.194c7.717,-2.693 23.031,-8.085 30.625,-10.901c0.735,9.678 2.328,28.788 3.063,38.463c3.796,-6.124 11.392,-18.375 15.188,-24.498c11.148,15.19 26.95,20.946 45.936,17.028c0.123,4.042 0.367,12.127 0.491,16.169c6.615,-2.452 19.6,-7.35 26.092,-9.802c6.247,2.205 18.497,6.495 24.621,8.7c0.368,-3.799 1.103,-11.516 1.347,-15.314c17.763,1.593 34.911,-1.347 47.897,-14.7l16.293,14.088c0.12,-7.717 0.244,-22.908 0.244,-30.502c7.473,1.838 22.293,5.757 29.643,7.718c-1.47,-7.594 -4.53,-22.541 -6,-30.011c7.837,0.979 23.395,2.817 31.236,3.796c-2.328,-7.103 -6.862,-21.191 -9.187,-28.297c5.633,-0.121 16.658,-0.244 22.293,-0.244c-1.714,-8.085 -5.021,-24.131 -6.738,-32.095c4.289,-0.612 12.862,-1.591 17.272,-2.082c-1.223,-39.688 -1.958,-79.501 -1.958,-119.19c-4.901,-0.367 -14.7,-1.102 -19.6,-1.47c2.696,-6.858 8.208,-20.579 11.024,-27.438c-5.512,0 -16.537,0.124 -21.926,0.124c-7.964,-19.845 -21.07,-36.749 -34.3,-53.166c-5.635,2.329 -16.781,7.23 -22.416,9.679c0.367,-6.124 0.979,-18.375 1.346,-24.622c-14.943,-1.47 -30.134,-3.675 -43.484,-11.148c-22.296,-3.552 -45.081,-3.796 -67.618,-5.633c-0.124,4.286 -0.247,12.862 -0.368,17.272c-8.208,-2.573 -24.501,-7.597 -32.586,-10.169m-189.133,453.849c-7.717,40.303 24.254,67.497 50.469,91.995c24.622,0.368 49.856,3.184 74.233,-2.081c18.863,-8.82 32.951,-25.236 48.509,-38.586c19.844,-48.265 4.777,-102.286 -39.568,-130.827c-18.128,-4.042 -36.135,-8.331 -54.021,-12.618c-38.219,16.661 -84.399,42.997 -79.622,92.117Z" style="fill:#0098e6;fill-rule:nonzero"/><path d="M567.672,318.846c0.123,-6.003 0.367,-18.251 0.491,-24.254c41.526,-0.123 83.42,-2.94 124.332,5.88c6.738,6.003 19.967,18.13 26.582,24.131c5.513,-2.082 16.661,-6.248 22.173,-8.329c-0.491,7.717 -1.593,23.275 -2.205,30.993c7.226,-1.35 21.682,-4.29 28.908,-5.76c-1.593,7.35 -4.654,22.05 -6.247,29.279c5.756,-0.247 17.272,-0.859 23.152,-1.103c-0.612,15.679 4.166,29.4 14.332,41.036c-0.244,19.721 0.858,39.444 -0.368,59.165c4.166,0 12.495,0.124 16.661,0.244c-10.781,20.58 -18.254,42.629 -28.664,63.456c1.47,5.388 4.53,16.169 6,21.434l-24.498,-2.449c2.449,7.474 7.226,22.417 9.555,29.891c-7.718,-0.982 -23.029,-3.064 -30.746,-4.043c1.223,8.329 3.795,25.11 5.021,33.562c-7.226,-3.307 -21.558,-9.922 -28.787,-13.229c0.123,8.084 0.247,24.133 0.367,32.218c-8.085,-2.572 -24.254,-7.841 -32.339,-10.413c-1.102,7.594 -3.428,22.908 -4.654,30.625c-7.106,-9.434 -14.208,-18.742 -21.314,-28.053c-1.226,4.534 -3.799,13.842 -5.145,18.498c-30.258,-2.205 -60.759,-2.94 -91.137,-1.349c0.244,-5.265 0.611,-15.923 0.858,-21.191c-8.576,5.145 -17.151,10.29 -25.604,15.558c-0.244,-20.703 -11.024,-28.42 -32.459,-23.399l4.654,-22.293c-9.064,-0.491 -27.318,-1.594 -36.382,-2.082l17.763,-23.886c-8.819,-0.368 -26.338,-1.103 -35.035,-1.47c3.919,-7.23 11.76,-21.682 15.802,-29.032c-52.307,7.961 -15.678,-22.54 -7.349,-35.035c-9.311,-2.449 -27.93,-7.35 -37.361,-9.678c6.859,-3.428 20.456,-10.166 27.315,-13.597c-2.205,-4.898 -6.491,-14.82 -8.696,-19.845c6.614,-18.862 -7.594,-55.367 28.052,-51.081c-5.88,-5.632 -17.639,-17.148 -23.642,-22.784c7.349,-0.244 21.805,-0.488 29.031,-0.735c-0.979,-5.265 -2.94,-15.922 -3.919,-21.314c17.64,-2.817 27.562,-13.106 29.643,-30.869c7.106,1.47 21.191,4.289 28.174,5.759c-0,-8.452 -0.121,-25.48 -0.244,-33.933c6.982,4.901 20.946,14.577 27.929,19.477m-28.788,155.081c-1.102,51.572 50.226,81.582 94.445,91.628c31.851,-11.516 68.6,-24.501 82.932,-58.431c25.11,-45.936 -0.491,-106.818 -47.406,-126.663c-59.534,-32.092 -141.116,26.459 -129.971,93.466Z" style="fill:#0098e6;fill-opacity:.6;fill-rule:nonzero"/><path d="M856.886,852.564c22.54,-74.233 132.296,-95.303 182.398,-37.484c56.714,50.714 30.622,151.282 -37.975,177.618c-29.89,6.127 -60.636,2.084 -90.893,0.982c-41.647,-32.586 -78.643,-86.974 -53.53,-141.116m86.236,-18.254c-44.834,10.904 -51.569,80.48 -14.332,104.247c35.893,24.865 92.975,-2.82 91.752,-47.774c2.816,-39.936 -40.791,-69.211 -77.42,-56.473Z" style="fill:#0098e6;fill-opacity:.6;fill-rule:nonzero"/><path d="M772.487,1127.08c40.911,-32.462 105.222,22.417 82.805,68.23c-12.615,46.18 -84.399,48.265 -105.102,7.841c-8.205,-26.583 -7.102,-63.332 22.297,-76.071m0.979,30.379c0.611,14.576 1.226,29.275 1.961,43.854c14.82,1.103 29.766,2.082 44.71,2.94c4.166,-8.452 12.494,-25.357 16.66,-33.809c-10.169,-9.922 -20.335,-19.844 -30.501,-29.646c-8.209,4.166 -24.622,12.495 -32.83,16.661Z" style="fill:#0098e6;fill-opacity:.6;fill-rule:nonzero"/><path d="M804.702,1832.53c-15.434,-28.908 -7.35,-85.381 35.523,-80.847c151.529,-1.961 303.058,0.611 454.584,-0.979c25.113,0.734 51.205,-2.085 75.582,5.632c18.863,18.007 14.577,46.304 20.212,69.579c-16.293,14.823 -34.791,29.399 -58.43,25.848c-155.448,0.244 -310.896,-0.491 -466.344,0.368c-21.07,-2.085 -50.102,4.042 -61.127,-19.601Z" style="fill:#0098e6;fill-opacity:.6;fill-rule:nonzero"/><path d="M893.391,1896.48c124.822,-10.78 251.974,-2.816 377.655,-4.166c49.978,-4.53 54.879,65.169 27.438,92.364c-119.187,8.208 -239.235,0.491 -358.79,3.674c-22.173,-2.816 -54.268,7.106 -64.678,-19.72c-3.063,-23.767 -11.148,-61.862 18.375,-72.152Z" style="fill:#0098e6;fill-opacity:.6;fill-rule:nonzero"/><path d="M924.504,2035.27c112.451,-6.615 225.394,-2.573 337.966,-2.449c-12.371,58.186 -68.597,97.261 -126.293,99.222c-51.572,1.346 -108.532,7.106 -153.243,-24.011c-27.561,-16.657 -42.628,-46.18 -58.43,-72.762Z" style="fill:#0098e6;fill-opacity:.6;fill-rule:nonzero"/></svg>