<?xml version="1.0" encoding="UTF-8" standalone="no"?> <svg xmlns="http://www.w3.org/2000/svg" xmlns:xlink="http://www.w3.org/1999/xlink" xmlns:serif="http://www.serif.com/" width="100%" height="100%" viewBox="0 0 8892 8892" version="1.1" xml:space="preserve" style="fill-rule:evenodd;clip-rule:evenodd;stroke-linejoin:round;stroke-miterlimit:2;"><path d="M2150.93,398.067c37.263,-187.834 165.371,-404.238 383.317,-397.096c277.15,-21.95 490.487,332.787 324.1,562.971c-91.359,172.525 -315.942,204.679 -484.375,138.837c-127.592,-51.046 -163.325,-194.979 -223.042,-304.712m298.071,-195.492c-115.342,51.046 -131.167,235.304 -33.688,310.837c88.813,103.617 281.242,51.559 311.351,-78.595c5.108,-70.95 -5.109,-141.9 -11.234,-212.334c-87.279,-17.862 -182.212,-81.154 -266.429,-19.908Z" style="fill:#cbd9e6;fill-opacity:0.6;fill-rule:nonzero;stroke:#fff;stroke-width:4.17px;"></path><path d="M3395.28,949.304c524.705,-240.4 1124.42,-358.817 1693.51,-218.462c668.121,142.404 1335.21,546.641 1605.22,1198.43c109.233,257.742 208.245,529.279 204.67,813.067c-8.158,210.791 129.65,386.366 234.271,557.358c130.667,210.792 328.196,378.208 424.659,608.908c47.983,196.509 -154.65,305.221 -280.725,409.846c-19.392,255.713 36.25,540.517 -124.53,761.525c233.763,302.663 19.909,768.15 -313.895,891.159c-260.305,52.062 -575.23,-21.95 -785.005,180.17c-246.012,249.084 -293.991,624.23 -290.929,959.563c-795.2,9.687 -1590.41,-0 -2385.62,4.592c-81.659,-689.042 -393.521,-1324.49 -763.046,-1902.78c-447.109,-605.329 -669.65,-1380.63 -572.167,-2129.39c44.921,-39.813 89.838,-79.621 134.246,-120.45c17.342,-3.063 53.075,-9.705 70.937,-12.767c2.559,53.596 8.171,160.779 10.717,214.371c65.342,-58.7 128.621,-119.434 193.963,-177.621c3.562,44.404 11.733,134.233 15.812,179.15c22.467,4.596 67.375,14.296 89.838,18.892c23.987,-60.746 47.97,-121.48 71.454,-182.217c49,74.004 104.637,142.908 170.979,202.625c6.642,-54.613 20.421,-163.325 27.058,-217.433c65.842,52.575 130.154,107.183 193.95,162.82c3.579,-54.608 10.204,-164.35 13.779,-218.958c66.863,38.279 131.171,79.104 197.53,118.417c1.016,-69.934 1.016,-139.342 0.512,-208.759c70.938,17.859 141.888,34.7 212.838,51.546c-12.763,-65.841 -25.53,-132.187 -38.796,-198.029c69.421,10.204 139.341,20.408 209.262,29.596c-27.046,-68.392 -55.625,-135.763 -84.216,-203.138c71.966,-4.591 144.445,-8.67 216.412,-12.762c-35.729,-65.329 -71.45,-131.171 -106.167,-197.013c40.325,-0.512 120.463,-1.529 160.275,-2.045l1.017,-82.684c-36.233,-33.687 -72.479,-67.371 -108.2,-101.058c47.967,-25.517 143.417,-76.563 190.883,-102.079c-63.291,-35.217 -127.087,-70.434 -190.383,-105.65c47.983,-30.625 95.967,-61.25 144.45,-91.359c1.017,-19.908 3.063,-60.233 3.575,-80.137c-43.387,-5.613 -130.667,-17.858 -174.558,-23.983c47.971,-57.684 96.971,-115.359 145.966,-172.013c-66.858,-21.437 -134.229,-42.358 -201.087,-63.292c31.642,-62.779 63.279,-126.575 92.887,-190.887c-49.512,2.046 -149.041,6.125 -199.054,8.171c16.842,-62.779 33.684,-125.559 50.013,-188.338c-67.371,9.188 -134.746,18.875 -201.604,28.063c12.766,-65.325 26.033,-130.15 39.295,-194.963m356.771,2043.13c-2.033,26.542 -6.125,79.621 -8.158,106.167c-27.558,-22.454 -82.179,-66.858 -109.229,-89.325c-1.017,34.717 -3.063,103.621 -4.079,138.321c-30.121,-10.717 -90.855,-32.154 -121.48,-42.871c6.125,33.171 17.359,100.546 22.967,133.729c-36.233,-7.154 -109.229,-21.437 -145.462,-28.591c20.92,42.875 42.358,85.745 63.795,128.12c-37.766,-1.029 -112.795,-3.062 -150.058,-4.091c23.483,33.683 70.95,100.554 94.933,134.241c-28.575,0 -85.229,1.017 -113.308,1.534c4.092,70.433 -4.079,140.871 -37.25,205.179c30.108,8.158 89.825,24.5 119.433,32.658c-34.716,14.809 -104.12,43.904 -138.837,58.7c34.2,23.484 103.104,70.438 137.308,93.404c-32.158,17.359 -96.467,51.546 -128.621,68.388c29.092,7.154 87.275,20.937 115.854,27.562c-7.141,36.246 -21.437,108.717 -28.579,144.963c32.159,-5.621 96.467,-17.358 128.625,-23.483c-11.233,34.204 -33.187,103.108 -44.408,137.295c34.192,-8.675 103.096,-25.516 137.808,-34.187c-8.683,34.7 -26.029,103.604 -34.712,138.308c32.154,-11.221 95.962,-33.687 127.604,-45.421c3.063,40.325 9.7,119.95 12.762,160.263c15.817,-25.517 47.467,-76.563 63.284,-102.075c46.45,63.292 112.291,87.275 191.4,70.95c0.512,16.842 1.529,50.529 2.046,67.371c27.562,-10.217 81.666,-30.625 108.716,-40.842c26.029,9.188 77.071,27.063 102.588,36.25c1.533,-15.829 4.596,-47.983 5.612,-63.808c74.013,6.637 145.463,-5.613 199.571,-61.25l67.888,58.7c0.5,-32.154 1.016,-95.45 1.016,-127.092c31.138,7.658 92.888,23.988 123.513,32.158c-6.125,-31.641 -18.875,-93.92 -25,-125.045c32.654,4.079 97.479,11.737 130.15,15.816c-9.7,-29.596 -28.592,-88.296 -38.279,-117.904c23.471,-0.504 69.408,-1.017 92.887,-1.017c-7.141,-33.687 -20.921,-100.545 -28.075,-133.729c17.871,-2.55 53.592,-6.629 71.967,-8.675c-5.096,-165.366 -8.158,-331.254 -8.158,-496.625c-20.421,-1.529 -61.25,-4.591 -81.667,-6.125c11.233,-28.575 34.2,-85.746 45.933,-114.325c-22.966,0 -68.904,0.517 -91.358,0.517c-33.183,-82.688 -87.792,-153.121 -142.917,-221.525c-23.479,9.704 -69.921,30.125 -93.4,40.329c1.529,-25.517 4.079,-76.562 5.609,-102.592c-62.263,-6.125 -125.559,-15.312 -181.184,-46.45c-92.9,-14.8 -187.837,-15.816 -281.741,-23.47c-0.517,17.858 -1.03,53.591 -1.534,71.966c-34.2,-10.721 -102.087,-31.654 -135.775,-42.371m-788.054,1891.04c-32.154,167.929 101.058,281.237 210.288,383.312c102.591,1.534 207.733,13.267 309.304,-8.67c78.596,-36.75 137.296,-105.15 202.121,-160.775c82.683,-201.105 19.904,-426.192 -164.867,-545.113c-75.533,-16.842 -150.563,-34.712 -225.088,-52.575c-159.245,69.421 -351.662,179.154 -331.758,383.821Z" style="fill:#cbd9e6;fill-rule:nonzero;stroke:#fff;stroke-width:4.17px;"></path><path d="M2365.3,1328.53c0.513,-25.012 1.529,-76.046 2.046,-101.058c173.025,-0.513 347.583,-12.25 518.05,24.5c28.075,25.012 83.196,75.541 110.758,100.545c22.971,-8.675 69.421,-26.033 92.388,-34.704c-2.046,32.154 -6.638,96.979 -9.188,129.138c30.109,-5.625 90.342,-17.875 120.45,-24c-6.637,30.625 -19.391,91.875 -26.029,121.996c23.983,-1.03 71.967,-3.58 96.467,-4.596c-2.55,65.329 17.358,122.5 59.716,170.983c-1.016,82.171 3.575,164.35 -1.533,246.521c17.358,-0 52.063,0.517 69.421,1.017c-44.921,85.75 -76.058,177.62 -119.433,264.4c6.125,22.45 18.875,67.37 25,89.308l-102.075,-10.204c10.204,31.142 30.108,93.404 39.812,124.546c-32.158,-4.092 -95.954,-12.767 -128.108,-16.846c5.096,34.704 15.812,104.625 20.921,139.842c-30.109,-13.78 -89.825,-41.342 -119.946,-55.121c0.512,33.683 1.029,100.554 1.529,134.241c-33.688,-10.716 -101.058,-32.671 -134.746,-43.387c-4.592,31.642 -14.283,95.45 -19.392,127.604c-29.608,-39.308 -59.2,-78.092 -88.808,-116.887c-5.108,18.891 -15.829,57.675 -21.437,77.075c-126.075,-9.188 -253.163,-12.25 -379.738,-5.621c1.017,-21.938 2.546,-66.346 3.575,-88.296c-35.733,21.437 -71.462,42.875 -106.683,64.825c-1.017,-86.263 -45.934,-118.417 -135.246,-97.496l19.392,-92.887c-37.767,-2.046 -113.825,-6.642 -151.592,-8.675l74.012,-99.525c-36.745,-1.534 -109.741,-4.596 -145.979,-6.125c16.329,-30.125 49,-90.342 65.842,-120.967c-217.946,33.171 -65.325,-93.917 -30.621,-145.979c-38.796,-10.204 -116.375,-30.625 -155.671,-40.325c28.579,-14.284 85.234,-42.359 113.813,-56.654c-9.188,-20.409 -27.046,-61.75 -36.234,-82.688c27.559,-78.592 -31.641,-230.696 116.884,-212.837c-24.5,-23.467 -73.496,-71.45 -98.509,-94.934c30.621,-1.016 90.855,-2.033 120.963,-3.062c-4.079,-21.938 -12.25,-66.342 -16.329,-88.809c73.5,-11.737 114.841,-54.608 123.512,-128.62c29.609,6.125 88.296,17.87 117.392,23.995c-0,-35.216 -0.504,-106.166 -1.017,-141.387c29.092,20.421 87.275,60.737 116.371,81.154m-119.95,646.171c-4.592,214.883 209.275,339.925 393.521,381.783c132.712,-47.983 285.833,-102.087 345.55,-243.462c104.625,-191.4 -2.046,-445.075 -197.525,-527.763c-248.059,-133.716 -587.984,110.246 -541.546,389.442Z" style="fill:#cbd9e6;fill-opacity:0.6;fill-rule:nonzero;stroke:#fff;stroke-width:4.17px;"></path><path d="M3570.36,3552.35c93.917,-309.304 551.234,-397.096 759.992,-156.183c236.308,211.308 127.592,630.341 -158.229,740.075c-124.542,25.529 -252.65,8.683 -378.721,4.091c-173.529,-135.775 -327.679,-362.391 -223.042,-587.983m359.317,-76.058c-186.808,45.433 -214.871,335.333 -59.717,434.362c149.554,103.604 387.396,-11.75 382.3,-199.058c11.734,-166.4 -169.962,-288.379 -322.583,-235.304Z" style="fill:#cbd9e6;fill-opacity:0.6;fill-rule:nonzero;stroke:#fff;stroke-width:4.17px;"></path><path d="M3218.7,4696.17c170.462,-135.259 438.425,93.404 345.021,284.291c-52.563,192.417 -351.663,201.105 -437.925,32.671c-34.188,-110.762 -29.592,-263.883 92.904,-316.962m4.079,126.579c2.546,60.733 5.108,121.979 8.171,182.725c61.75,4.596 124.025,8.675 186.292,12.25c17.358,-35.217 52.058,-105.654 69.416,-140.871c-42.371,-41.342 -84.729,-82.683 -127.087,-123.525c-34.204,17.358 -102.592,52.062 -136.792,69.421Z" style="fill:#cbd9e6;fill-opacity:0.6;fill-rule:nonzero;stroke:#fff;stroke-width:4.17px;"></path><path d="M3352.93,7635.54c-64.308,-120.45 -30.625,-355.755 148.013,-336.863c631.37,-8.171 1262.74,2.546 1894.1,-4.079c104.637,3.058 213.354,-8.688 314.925,23.467c78.595,75.029 60.737,192.933 84.216,289.912c-67.887,61.763 -144.962,122.496 -243.458,107.7c-647.7,1.017 -1295.4,-2.046 -1943.1,1.533c-87.792,-8.687 -208.759,16.842 -254.696,-81.67Z" style="fill:#cbd9e6;fill-opacity:0.6;fill-rule:nonzero;stroke:#fff;stroke-width:4.17px;"></path><path d="M3722.46,7902c520.091,-44.917 1049.89,-11.733 1573.56,-17.358c208.242,-18.875 228.662,271.537 114.325,384.85c-496.613,34.2 -996.813,2.046 -1494.96,15.308c-92.388,-11.733 -226.117,29.608 -269.492,-82.167c-12.762,-99.029 -46.45,-257.758 76.563,-300.633Z" style="fill:#cbd9e6;fill-opacity:0.6;fill-rule:nonzero;stroke:#fff;stroke-width:4.17px;"></path><path d="M3852.1,8480.29c468.546,-27.563 939.142,-10.721 1408.19,-10.204c-51.546,242.441 -285.821,405.254 -526.221,413.425c-214.883,5.608 -452.217,29.608 -638.513,-100.046c-114.837,-69.404 -177.616,-192.417 -243.458,-303.175Z" style="fill:#cbd9e6;fill-opacity:0.6;fill-rule:nonzero;stroke:#fff;stroke-width:4.17px;"></path></svg> 