<svg xmlns="http://www.w3.org/2000/svg" xmlns:xlink="http://www.w3.org/1999/xlink" width="100%" height="100%" version="1.1" viewBox="0 0 2134 2134" xml:space="preserve" style="fill-rule:evenodd;clip-rule:evenodd;stroke-linejoin:round;stroke-miterlimit:2"><path d="M984.706,4.507c46.207,-7.516 94.837,-2.136 137.717,16.922c60.131,25.958 108.637,77.545 130.899,139.113c20.331,55.079 19.715,117.427 -1.807,172.095c-23.042,59.473 -70.563,109.089 -129.256,134.225c-63.17,28.135 -138.949,27.272 -201.133,-3.121c-56.886,-26.081 -102.107,-75.903 -123.957,-134.431c-21.851,-57.748 -20.208,-123.834 4.23,-180.556c31.38,-74.957 102.846,-131.72 183.307,-144.247Z" style="fill:#0098e6;fill-rule:nonzero"/><path d="M758.15,550.692c25.382,-23.042 61.157,-29.244 94.302,-30.271c115.045,-0.123 230.09,-0.123 345.134,0c33.064,1.027 68.797,7.229 94.139,30.188c18.606,17.087 34.583,36.843 53.066,54.052c-213.209,0.288 -426.458,0.247 -639.666,0c18.565,-17.127 34.419,-36.924 53.025,-53.969Z" style="fill:#0098e6;fill-rule:nonzero"/><path d="M628.154,650.539c259.621,-1.684 519.323,-0.205 778.985,-0.739c43.783,-1.438 82.926,37.746 83.624,81.201c0.123,153.324 -0.041,306.689 0.082,460.055c-0.164,17.949 1.561,36.596 -4.847,53.805c-11.171,32.694 -44.112,57.461 -79.064,56.311c-254.733,0.123 -509.425,-0 -764.117,0.041c-41.483,1.971 -81.365,-31.955 -84.856,-73.561c-0.287,-165.482 -0.657,-331.046 -0.369,-496.569c-0.37,-39.512 31.954,-74.794 70.562,-80.544m-2.834,62.554c-4.682,6.777 -9.857,13.924 -9.159,22.713c-0.082,159.937 0,319.956 0.082,479.934c-1.725,12.117 8.174,19.921 16.881,26.246c22.385,0.903 44.811,0.534 67.236,0.616l694.293,-0c9.734,-0.452 21.234,1.232 28.628,-6.695c8.584,-6.859 7.68,-18.852 8.83,-28.669c-1.971,-35.363 -1.478,-70.85 -0.246,-106.214c-2.875,-31.626 1.478,-63.293 -0.822,-94.877c0.082,-60.213 -0.369,-120.426 0.247,-180.638c-1.315,-34.748 1.355,-69.577 -1.479,-104.243c-6.982,-7.516 -15.936,-14.088 -26.82,-12.609l-755.615,0c-7.68,-0.493 -14.95,1.889 -22.056,4.436Z" style="fill:#0098e6;fill-opacity:.8;fill-rule:nonzero"/><path d="M836.393,767.637c3.861,-12.773 19.058,-12.568 29.572,-9.611c2.506,3.779 5.011,7.558 7.599,11.337c-0.329,18.482 16.84,29.284 31.667,36.143c30.476,14.006 64.484,19.346 97.876,18.73c-0,-17.497 -0.041,-34.953 0.164,-52.409c1.109,-2.136 3.286,-6.449 4.395,-8.584c12.363,-12.035 33.105,-7.64 39.717,8.255c-0.534,17.579 -0.205,35.159 -0.369,52.738c37.951,-0.083 77.586,-6.243 110.321,-26.492c12.774,-6.736 17.949,-20.413 19.058,-34.049c7.639,-6.285 17.825,-10.392 27.436,-5.751c13.143,8.051 10.474,25.794 6.038,38.198c-10.597,24.356 -34.707,39.553 -58.488,49.164c-32.899,13.472 -68.755,18.688 -104.119,18.934c-0.246,22.139 -0.123,44.318 -0.123,66.497c39.553,-1.437 81.94,-6.572 114.839,-30.353c12.404,-7.598 11.131,-23.534 18.401,-34.583c4.312,-1.643 8.707,-3.286 13.061,-4.929c4.395,1.479 8.83,2.917 13.307,4.313c9.981,11.254 7.476,28.176 1.397,40.744c-13.349,24.603 -38.978,39.142 -64.525,48.343c-30.805,11.254 -63.827,15.32 -96.439,16.141c-0,22.056 -0.123,44.153 -0,66.251c40.949,-1.561 85.801,-6.572 118.413,-33.968c10.678,-7.639 6.201,-24.232 17.168,-31.543c5.339,-4.724 12.527,-2.999 18.975,-2.875c3.41,2.875 6.86,5.709 10.351,8.502c7.352,28.586 -13.308,54.708 -36.637,68.386c-38.28,22.672 -83.747,30.64 -127.777,30.27c-0.698,12.363 -0.698,24.726 -0.575,37.13c53.23,-3.204 109.746,-9.488 154.844,-40.087c12.938,-13.102 37.622,-10.391 49.164,3.491c7.68,7.352 8.009,18.852 9.282,28.751c0.247,17.784 -0.246,35.569 0.206,53.353c1.519,20.783 -18.237,37.993 -38.198,38.075c-36.842,-3.327 -74.136,2.505 -110.978,-1.643c-15.115,1.396 -30.558,3.491 -45.509,-0.041c-16.265,0.944 -32.94,2.341 -49.041,-0.041c-12.321,2.135 -24.931,2.259 -37.253,0.041c-6.612,2.218 -13.595,1.766 -20.248,0.205c-20.496,2.177 -41.278,0.698 -61.733,-0.041c-12.239,1.725 -24.643,1.972 -36.842,-0.123c-17.086,1.807 -34.953,1.52 -51.793,-2.218c-15.73,-5.422 -21.522,-23.165 -21.07,-38.321c0.945,-21.686 -1.355,-43.455 1.273,-65.018c5.833,-20.577 32.037,-31.215 50.725,-21.07c46.371,35.281 107.036,41.689 163.428,44.276c-0.287,-12.157 -0.369,-24.233 -0.657,-36.349c-48.712,-0.329 -100.217,-8.461 -140.263,-38.116c-18.606,-14.704 -35.856,-40.908 -23.452,-64.689c7.557,-3.779 16.921,-8.338 25.013,-3.122c13.841,6.12 7.064,26.04 19.633,33.885c33.433,26.328 78.243,31.667 119.48,32.858c0.082,-22.056 -0.041,-44.112 0.082,-66.168c-44.523,-0.903 -90.442,-8.05 -129.379,-30.804c-20.167,-11.952 -38.649,-32.078 -39.224,-56.68c-1.315,-13.267 13.431,-26.082 26.204,-20.249c11.87,2.382 13.226,15.69 15.402,25.342c5.217,10.678 16.183,17.004 26.41,22.179c31.092,15.156 66.168,20.084 100.505,20.413c-0.246,-22.179 0.493,-44.359 -0.37,-66.497c-48.26,-0.698 -99.56,-8.584 -139.482,-37.704c-17.21,-13.472 -33.968,-35.98 -26.862,-58.817Z" style="fill:#0098e6;fill-opacity:.6;fill-rule:nonzero"/><path d="M1536.6,800.701c3.039,3.08 6.038,6.161 9.077,9.282c44.728,46.905 90.812,92.537 135.951,139.031c24.274,26.205 16.511,74.506 -16.265,89.826c-21.522,12.199 -50.561,8.092 -68.304,-8.953c-20.783,-20.249 -40.087,-42.018 -61.116,-62.02c0.246,-55.695 -1.109,-111.471 0.657,-167.166Z" style="fill:#0098e6;fill-rule:nonzero"/><path d="M507.36,806.04l5.38,0.247c-0.534,54.175 -0.082,108.309 -0.246,162.483c-20.66,20.906 -40.457,42.716 -61.732,62.965c-25.958,23.904 -73.644,16.388 -89.292,-15.69c-12.815,-21.727 -8.667,-51.012 8.666,-69.084c45.673,-46.987 92.865,-92.701 137.224,-140.921Z" style="fill:#0098e6;fill-rule:nonzero"/><path d="M802.549,1379.91c0.123,-11.5 -1.191,-23.206 2.259,-34.337c99.437,1.438 198.915,0.247 298.352,0.616c47.357,-0.328 94.714,0.74 142.029,-0.616c1.274,4.477 2.054,9.036 2.259,13.718c-0.041,228.775 0.083,457.55 -0.041,686.366c0.493,29.613 -13.061,60.664 -39.265,76.026c-21.974,13.718 -50.396,16.88 -74.67,7.598c-30.641,-11.706 -53.559,-42.469 -53.682,-75.615c-10.474,-194.356 -20.085,-388.794 -30.189,-583.232c0.657,-11.706 -6.9,-20.372 -15.977,-26.533c-16.593,-3.491 -34.419,8.133 -33.064,26.122c-10.391,194.603 -19.797,389.246 -30.352,583.807c-0.206,35.282 -26.246,67.811 -59.884,77.505c-21.974,6.325 -46.453,3.244 -66.168,-8.338c-27.601,-14.868 -42.264,-47.028 -41.566,-77.627c-0.082,-221.793 0,-443.627 -0.041,-665.46Z" style="fill:#0098e6;fill-rule:nonzero"/></svg>