<?xml version="1.0" encoding="UTF-8" standalone="no"?> <svg xmlns="http://www.w3.org/2000/svg" xmlns:xlink="http://www.w3.org/1999/xlink" xmlns:serif="http://www.serif.com/" width="100%" height="100%" viewBox="0 0 8892 8892" version="1.1" xml:space="preserve" style="fill-rule:evenodd;clip-rule:evenodd;stroke-linejoin:round;stroke-miterlimit:2;"><g><path d="M5009.75,103.258c179.212,-72.816 381.088,-122.72 578.083,-87.883c-1.045,15.067 -2.787,45.196 -3.837,60.263c-46.021,60.262 -147.483,54.924 -214.425,92.904c-300.9,139.983 -557.167,353.721 -746.142,606.066c-448.729,607.325 -625.504,1338.94 -696.979,2054.54c-133.192,211.229 52.646,485.229 -104.25,689.242c-24.058,-64.342 -46.375,-130.884 -94.837,-184.238l-14.992,-18.833c-64.504,-703.992 -17.783,-1434.66 286.95,-2092.2c131.096,-103.888 169.8,-261.759 273.35,-383.225c31.729,-45.196 60.671,-91.646 87.167,-139.667c-1.392,-31.075 -1.742,-61.833 -1.742,-92.904c169.8,-209.658 382.833,-400.488 651.654,-504.063Z" style="fill:#cbd9e6;fill-rule:nonzero;stroke:#fff;stroke-width:4.17px;"></path><path d="M1844.21,357.171c113.316,-56.808 246.854,-44.879 371.675,-45.821c479.762,-8.475 976.958,209.029 1240.89,567.463c-0.7,44.254 -8.716,89.45 -0.35,133.704c43.234,77.208 119.942,142.808 123.775,234.141c14.996,150.025 -40.441,296.913 -35.562,446.938c102.158,-156.617 44.629,-344.304 62.758,-515.675c47.421,201.5 38.354,433.446 -94.137,608.892c-85.771,59.633 -153.063,-62.771 -158.642,-125.542c22.663,-60.892 49.508,-120.525 75.658,-180.159c-21.266,-7.22 -64.154,-22.283 -85.42,-29.504c-42.188,-96.041 -86.471,-191.141 -126.567,-287.812c-18.129,0.941 -54.042,3.141 -72.171,4.396l-12.554,0.629c-150.275,-279.025 -415.954,-501.867 -729.404,-628.038c-78.45,-37.037 -162.129,-66.225 -251.388,-68.425c201.529,134.334 420.142,255.171 579.134,433.446c260.8,285.3 414.558,640.279 480.458,1002.48c-35.913,29.504 -62.063,79.721 -118.896,75.642c-289.392,32.954 -600.4,-97.613 -743.004,-329.871c-180.608,-321.079 -174.679,-698.658 -360.867,-1017.54c-49.858,-92.587 -126.912,-175.133 -145.391,-279.337Z" style="fill:#cbd9e6;fill-rule:nonzero;stroke:#fff;stroke-width:4.17px;"></path><path d="M663.983,3494.85c97.63,-13.808 217.917,-43 298.109,26.992c118.2,6.591 235.696,-51.159 351.804,-16.321c83.679,21.029 125.866,95.1 170.146,155.679c106.691,-61.204 223.841,-114.246 354.241,-108.6c63.459,36.096 144.696,68.425 159.692,142.808c32.075,135.588 37.654,275.571 63.804,412.1c37.654,232.575 64.154,467.654 120.288,697.404l55.091,24.167c1.392,-37.979 3.138,-75.954 5.925,-113.304c77.405,-11.929 129.705,-71.563 202.921,-92.904c116.109,-36.721 238.138,-58.379 361.217,-60.888c369.933,-3.766 739.867,5.021 1109.45,-8.475c18.129,90.704 40.446,180.784 66.246,269.921c67.987,33.271 160.383,55.554 182.7,132.138c41.141,152.85 95.883,305.387 95.533,464.2c6.275,70.933 -6.275,144.691 16.037,214.054c34.171,33.583 75.313,60.575 115.063,89.137c17.429,-16.008 51.95,-47.708 69.383,-63.4c23.709,66.85 47.067,133.704 70.779,200.871c18.825,68.108 36.259,136.529 54.042,204.95c-77.404,7.533 -156.2,10.988 -231.512,28.25c-39.05,52.729 -13.946,126.8 -19.525,188.004c-54.046,25.109 -104.25,56.179 -150.625,91.334c-29.288,-1.571 -58.225,-3.138 -87.167,-4.709c-1.046,38.292 -2.788,76.896 -4.529,115.188l-8.717,1.883c-7.671,-123.35 -32.775,-245.125 -55.787,-366.592c-72.521,2.513 -144.696,5.021 -216.871,7.846c-6.621,-13.183 -19.871,-39.546 -26.846,-52.729c-57.529,-142.492 -172.588,-255.167 -249.296,-388.246c195.95,-5.65 390.504,-30.758 586.804,-33.896c-4.883,-203.383 -24.758,-406.766 -57.529,-607.637c-23.362,-108.596 -154.808,-131.196 -258.362,-118.013c-234.65,12.555 -471.392,-0.629 -704.65,28.875c-296.713,10.671 -595.517,2.825 -890.138,37.35c-62.062,25.738 -120.287,57.75 -178.517,89.763c-53.345,1.258 -106.341,3.767 -159.337,6.592c-66.596,-14.438 -140.513,-21.342 -194.904,-62.146c-26.5,-45.821 -31.379,-98.55 -48.813,-147.2c-10.462,-10.671 -31.033,-32.013 -41.491,-42.684c-3.834,-14.437 -11.505,-43.941 -15.342,-58.379c-81.237,-370.983 -157.246,-744.479 -284.508,-1105.11c-85.771,-3.138 -172.242,-0.629 -256.967,12.554c-23.708,54.925 -63.108,101.692 -104.946,145.946c-56.137,7.846 -111.575,16.321 -167.358,23.542c-223.846,18.829 -442.804,75.954 -668.738,75.954c-74.962,-94.159 -139.466,-236.967 -39.75,-335.521c202.575,-41.742 410.03,-60.263 612.95,-100.75Z" style="fill:#cbd9e6;fill-rule:nonzero;stroke:#fff;stroke-width:4.17px;"></path><path d="M5587.83,15.375c78.45,-65.596 127.263,101.379 17.084,77.838l-20.921,-17.575c1.05,-15.067 2.792,-45.196 3.837,-60.263Z" style="fill:#cbd9e6;fill-rule:nonzero;stroke:#fff;stroke-width:4.17px;"></path><path d="M4051.25,1079.68c92.396,-161.954 171.196,-334.891 306.825,-472.362c0,31.071 0.35,61.829 1.742,92.904c-26.496,48.021 -55.438,94.471 -87.167,139.667c-103.55,121.466 -142.254,279.337 -273.35,383.225c9.067,-49.904 23.709,-99.179 51.95,-143.434Z" style="fill:#cbd9e6;fill-rule:nonzero;stroke:#fff;stroke-width:4.17px;"></path><path d="M3456.43,1012.52c-8.366,-44.255 -0.35,-89.45 0.35,-133.705c79.842,84.113 133.538,189.571 150.621,299.109c-18.129,171.371 39.4,359.058 -62.758,515.675c-4.879,-150.025 50.558,-296.913 35.562,-446.938c-3.833,-91.333 -80.541,-156.933 -123.775,-234.141Z" style="fill:#cbd9e6;fill-rule:nonzero;stroke:#fff;stroke-width:4.17px;"></path><path d="M3146.12,1168.19c18.129,-1.255 54.042,-3.455 72.171,-4.396c40.096,96.671 84.379,191.771 126.567,287.812c21.266,7.221 64.154,22.284 85.42,29.504c-26.15,59.634 -52.995,119.267 -75.658,180.159c-60.667,-167.604 -126.912,-333.009 -208.5,-493.079Z" style="fill:#cbd9e6;fill-rule:nonzero;stroke:#fff;stroke-width:4.17px;"></path><path d="M1509.84,2321.01c306.129,-180.787 691.404,-292.833 1054.71,-197.42c249.296,79.72 483.6,251.716 546.008,492.45c-210.591,-0.942 -391.2,-113.617 -595.166,-145.317c-399.221,-65.913 -860.504,-42.375 -1174.3,215.937c187.579,-36.408 368.187,-104.833 562.741,-110.795c332.625,-26.68 663.859,45.195 965.8,167.604c94.138,24.166 196.646,77.521 162.825,181.412c-137.025,142.179 -309.612,300.363 -536.246,290.321c-239.529,17.263 -456.399,-90.392 -664.9,-180.783c-96.929,-43.629 -205.016,-65.913 -296.712,-118.329c-92.396,-82.859 -230.817,-73.755 -348.667,-102.946c-23.358,-35.779 -44.975,-71.875 -67.637,-107.654c-4.534,38.604 -8.717,77.525 -13.25,116.129l-24.754,26.991c2.787,-42.37 7.666,-84.741 13.945,-126.8c120.984,-147.2 254.871,-286.87 415.605,-400.8Z" style="fill:#cbd9e6;fill-rule:nonzero;stroke:#fff;stroke-width:4.17px;"></path><path d="M1341.09,2686.66c313.795,-258.312 775.079,-281.85 1174.3,-215.937c203.966,31.7 384.575,144.375 595.166,145.316c-95.183,35.78 -200.479,13.184 -300.2,15.692c23.713,35.467 34.521,76.583 59.275,111.738c-301.941,-122.409 -633.175,-194.284 -965.8,-167.604c-194.554,5.962 -375.162,74.387 -562.741,110.795Z" style="fill:#cbd9e6;fill-rule:nonzero;stroke:#fff;stroke-width:4.17px;"></path><path d="M1118.3,2705.49c22.662,35.779 44.279,71.875 67.637,107.654c117.85,29.191 256.271,20.087 348.667,102.946c-142.954,-8.471 -280.675,-48.334 -423.629,-57.75l-5.925,-36.721c4.533,-38.604 8.716,-77.525 13.25,-116.129Z" style="fill:#cbd9e6;fill-rule:nonzero;stroke:#fff;stroke-width:4.17px;"></path><path d="M3822.18,3518.39c156.896,-204.013 -28.941,-478.013 104.25,-689.242c-6.975,232.258 -16.037,464.829 -17.083,697.4c5.925,61.833 -59.971,79.721 -115.758,66.225c-76.009,-65.908 -58.925,-172.625 -66.246,-258.621c48.462,53.354 70.779,119.896 94.837,184.238Z" style="fill:#cbd9e6;fill-rule:nonzero;stroke:#fff;stroke-width:4.17px;"></path><path d="M4575.62,6439.83c76.704,2.825 211.292,-36.091 210.242,72.192c23.012,-19.775 46.375,-39.233 69.733,-58.692c-13.246,13.809 -39.746,41.742 -52.996,55.867c9.067,49.904 18.129,100.121 27.196,150.337c-38.004,8.163 -75.658,16.321 -113.317,24.796c-54.391,-77.837 -103.55,-158.812 -140.858,-244.5Z" style="fill:#cbd9e6;fill-rule:nonzero;stroke:#fff;stroke-width:4.17px;"></path><path d="M3633.9,4502.33c103.204,-0.629 231.163,-33.583 311.358,43.938c67.988,57.437 63.109,144.691 65.546,221.9c89.959,46.142 184.096,100.75 218.613,194.596c47.766,125.546 48.466,261.446 55.787,392.954c3.138,91.021 14.992,181.729 27.196,272.121c45.675,-0.317 91.35,0.312 137.375,1.254l11.854,30.446c-17.433,15.691 -51.954,47.391 -69.383,63.4c-39.75,-28.563 -80.892,-55.554 -115.063,-89.138c-22.312,-69.362 -9.762,-143.121 -16.037,-214.054c0.35,-158.813 -54.392,-311.35 -95.533,-464.2c-22.317,-76.583 -114.713,-98.867 -182.7,-132.137c-25.8,-89.138 -48.117,-179.217 -66.246,-269.921c-369.584,13.496 -739.517,4.708 -1109.45,8.475c-123.079,2.508 -245.109,24.166 -361.217,60.887c-73.217,21.342 -125.517,80.975 -202.921,92.904c18.829,-81.916 88.213,-157.875 187.929,-153.791c400.963,-21.029 802.625,-30.134 1202.89,-59.634Z" style="fill:#cbd9e6;fill-rule:nonzero;stroke:#fff;stroke-width:4.17px;"></path><path d="M1109.58,5848.83c124.821,89.45 197.342,220.959 301.942,327.046c109.479,112.988 190.371,256.108 339.946,331.121c8.716,4.396 26.5,13.496 35.216,17.892c-8.716,12.241 -25.8,36.721 -34.516,48.962c40.096,37.038 80.191,74.7 122.379,110.479c-11.854,3.454 -35.563,10.671 -47.417,14.125c-43.237,4.392 -86.471,10.359 -129.008,18.83c28.942,26.995 64.154,47.395 101.462,64.658c24.409,12.867 48.813,26.05 72.521,40.487c-21.616,-1.883 -64.154,-5.962 -85.421,-7.845c-109.829,-113.934 -287.996,-119.584 -442.804,-125.546c-272.304,0.941 -544.612,-5.963 -816.571,-0.942c-0.695,-6.279 -1.395,-19.458 -2.091,-26.05c286.95,8.158 573.9,8.788 860.85,6.275c-176.771,-107.654 -392.596,-145.629 -578.434,-237.279c343.784,76.896 649.563,311.667 1022.28,255.483c-59.621,-75.637 -111.571,-158.5 -190.721,-219.387c-244.758,-150.967 -519.508,-261.446 -758.342,-419.946c223.842,98.55 422.579,242.3 658.279,317.625c-129.358,-181.096 -291.137,-340.538 -429.554,-515.988Z" style="fill:#cbd9e6;fill-rule:nonzero;stroke:#fff;stroke-width:4.17px;"></path><path d="M2158.36,6857.58c169.45,-2.512 339.6,-1.883 507.654,-25.425c-9.762,18.517 -28.591,56.184 -38.004,74.7c-104.25,-29.191 -214.429,-21.97 -321.816,-17.891c72.521,97.3 139.116,208.72 259.404,264.587c195.254,92.588 384.925,195.221 566.233,308.525c-193.858,-67.479 -344.479,-212.171 -549.846,-255.171c152.717,213.113 358.775,390.759 512.538,603.246c-175.029,-160.7 -315.888,-348.704 -477.321,-520.071c-94.488,-137.158 -230.817,-249.52 -403.054,-300.679c16.037,112.05 6.625,233.825 78.1,332.692c159.687,245.754 301.942,500.612 471.742,740.4c55.437,-24.479 111.224,-48.646 166.662,-73.442c-10.113,10.984 -30.683,32.954 -40.796,43.942c-73.566,34.837 -152.712,57.75 -231.162,80.975c19.525,-11.925 58.575,-35.154 78.1,-47.079c-142.255,-217.505 -268.471,-443.488 -417,-657.225c-13.6,-1.884 -40.796,-6.279 -54.392,-8.163c66.592,255.484 70.429,521.325 146.087,774.925l48.467,-8.158c-27.546,6.275 -54.742,12.237 -81.937,17.887c-39.746,-276.512 -90.655,-551.454 -133.538,-827.337c-15.342,-123.038 -93.096,-228.179 -140.862,-341.796c-111.571,121.463 -156.896,288.75 -145.042,444.742c10.108,250.146 -7.325,500.295 -4.533,750.758c-67.292,4.079 -134.238,-4.708 -198.392,-21.342c54.742,5.021 109.829,9.73 165.267,13.809c28.241,-274.317 30.683,-551.142 10.808,-825.771c-78.796,122.091 -134.583,254.541 -186.533,387.304c-49.509,128.683 -130.05,247.325 -152.717,383.542l-22.313,-6.592c25.8,-142.496 119.592,-265.529 165.267,-403c84.375,-239.163 275.446,-465.458 208.5,-729.1c-245.808,82.858 -344.129,319.512 -470,506.258c-94.137,156.617 -219.308,299.113 -291.479,465.459c-12.554,-8.163 -24.758,-16.321 -36.263,-24.796c165.617,-221.275 323.559,-450.392 448.384,-693.008c-70.084,31.387 -137.375,68.737 -196.65,114.874c-166.313,127.43 -353.542,233.2 -501.375,379.771c-10.463,-9.412 -20.225,-18.829 -29.638,-28.558c234.65,-143.438 437.571,-325.475 675.363,-466.088c135.629,-80.662 213.379,-212.483 304.383,-329.241l12.9,-0.942c-0.35,16.638 -0.7,50.533 -1.046,67.483l-20.921,-3.454l-6.275,17.263l18.13,2.825l9.066,-16.634c21.967,-13.183 65.2,-40.175 87.167,-53.67l17.083,5.333c2.092,66.225 5.579,132.137 11.159,198.362c46.37,-46.454 74.962,-103.262 100.066,-161.012c10.809,4.708 32.425,13.812 43.234,18.204c4.879,41.117 27.545,68.738 67.641,82.233c0.346,-25.737 1.742,-76.583 2.438,-102.32c12.204,-5.021 35.912,-15.38 48.116,-20.4c15.342,-1.884 46.721,-5.338 62.063,-7.221l6.975,18.521l23.358,2.508l4.534,17.579l15.691,1.883c-4.883,-4.708 -14.996,-14.754 -20.225,-19.462l-10.112,-19.458l-20.221,-1.571c6.275,-61.517 -69.733,-84.113 -124.471,-75.013c-3.837,-7.533 -11.158,-21.971 -14.646,-29.5Z" style="fill:#cbd9e6;fill-rule:nonzero;stroke:#fff;stroke-width:4.17px;"></path><path d="M4732.54,7600.17c175.029,28.875 350.404,156.616 331.925,331.125c15.691,102.316 -102.505,176.075 -75.309,279.02c-2.441,3.455 -7.671,10.359 -10.112,13.501c-11.159,4.704 -33.125,13.808 -43.934,18.516c12.205,-19.775 36.959,-59.633 49.513,-79.408c-115.758,52.729 -247.204,120.837 -378.65,68.737c-145.742,-38.608 -226.283,-166.35 -247.204,-294.404c-0.346,-0.941 -0.696,-2.825 -1.046,-4.079c21.617,-86 38.354,-187.375 136.679,-230.687c-11.858,64.966 -29.291,128.995 -49.162,192.395c41.491,-6.279 82.979,-12.554 124.821,-18.204c9.412,24.167 27.891,72.5 37.308,96.671c-61.367,-17.579 -122.383,-34.525 -183.746,-51.162c18.479,97.612 71.475,187.691 169.1,238.85c8.021,-53.042 16.738,-106.084 26.15,-158.5c20.221,5.337 60.321,16.32 80.542,21.97c22.662,56.18 -54.392,107.654 -74.963,159.755c86.467,-15.38 244.763,17.579 274.05,-82.859c-47.416,-28.246 -97.625,-51.475 -147.137,-74.7c31.033,-21.654 61.712,-43.625 92.05,-65.908c33.471,44.566 67.637,88.191 102.854,131.821c42.187,-77.838 73.917,-170.742 29.983,-253.917c-54.392,15.067 -104.25,40.804 -153.758,65.283c-26.15,-78.15 58.925,-100.433 117.15,-132.133c-58.225,-73.446 -201.529,-66.542 -207.104,-171.683Z" style="fill:#cbd9e6;fill-rule:nonzero;stroke:#fff;stroke-width:4.17px;"></path><path d="M1588.64,4836.62c10.458,10.671 31.029,32.012 41.491,42.683c17.434,48.65 22.313,101.379 48.813,147.2c54.391,40.804 128.308,47.709 194.904,62.146c-77.054,7.846 -153.413,20.4 -229.421,31.7c-22.316,-93.846 -42.191,-188.316 -55.787,-283.729Z" style="fill:#cbd9e6;fill-rule:nonzero;stroke:#fff;stroke-width:4.17px;"></path><path d="M2033.19,5082.04c58.229,-32.013 116.454,-64.025 178.516,-89.763c0,22.596 0.35,67.792 0.696,90.392c-59.971,-0.942 -119.592,-1.571 -179.213,-0.629Z" style="fill:#cbd9e6;fill-rule:nonzero;stroke:#fff;stroke-width:4.17px;"></path><path d="M2173,6887.08c54.738,-9.1 130.746,13.496 124.471,75.013c-15.342,1.883 -46.721,5.337 -62.062,7.221c-27.546,-23.854 -48.117,-51.159 -62.409,-82.234Z" style="fill:#cbd9e6;fill-rule:nonzero;stroke:#fff;stroke-width:4.17px;"></path><path d="M1698.12,5198.5c208.85,-30.758 421.883,-42.375 632.825,-21.346c419.096,72.817 826.683,257.054 1097.25,559.934c103.904,117.695 198.391,242.612 269.516,378.829c35.913,96.671 102.509,189.887 105.296,293.775c-11.854,44.883 -25.1,89.45 -38.004,134.333c-18.129,-28.562 -36.258,-57.125 -54.042,-85.683c-30.333,31.7 -60.666,63.4 -90.654,95.1c3.142,-103.888 49.513,-242.304 -84.375,-295.971c-5.229,-16.321 -15.342,-49.592 -20.571,-66.225c-159.337,-63.4 -332.275,-11.3 -498.241,-10.675c-149.23,-1.254 -294.621,32.329 -442.805,38.921c-28.587,24.166 -50.554,53.671 -74.612,81.291c5.579,-21.658 17.083,-64.658 22.662,-86.312c-77.054,2.508 -154.108,4.392 -231.162,6.592c-80.542,0.941 -161.083,-0.942 -241.625,-1.884l1.396,16.634c3.487,48.962 6.971,98.237 13.25,147.516c-50.909,40.171 -97.975,83.8 -149.229,123.346c-20.225,-90.704 -48.813,-180.158 -61.713,-272.117c-31.729,-281.537 -110.179,-556.479 -153.762,-836.441c-105.996,6.275 -205.363,41.741 -299.155,83.8c-11.854,5.021 -34.866,15.379 -46.37,20.4c-108.088,53.358 -223.496,102.633 -308.221,185.808c-31.729,52.725 34.866,97.925 55.091,144.063c-35.216,-36.409 -71.825,-71.563 -108.783,-106.088c-83.333,74.071 -164.571,150.654 -237.442,233.2c39.746,26.363 80.192,52.417 119.592,79.721c-44.979,-15.067 -88.562,-32.013 -131.446,-50.846c-79.496,113.933 -157.246,231.946 -187.583,365.65c-58.921,-52.729 -139.117,-17.892 -208.15,-6.279c19.175,-172.308 126.912,-320.767 223.492,-465.771c257.662,-347.758 672.92,-599.475 1127.58,-683.275m590.987,166.346c20.921,121.779 33.121,246.696 72.521,365.021c12.9,-0.942 38.004,-3.454 50.558,-4.396c38.005,-72.813 64.5,-149.708 104.946,-221.583l21.617,-21.659c-43.233,87.884 -76.704,178.9 -109.479,270.238c125.171,-9.104 254.871,3.137 377.254,-24.796c107.737,12.867 272.654,-60.892 329.487,55.867c6.275,-4.396 18.48,-13.184 24.405,-17.575c14.295,-11.3 42.191,-34.525 56.483,-45.825c-16.038,-51.788 -85.071,-42.059 -127.958,-30.13c-103.9,-68.108 -200.134,-153.479 -328.092,-182.354c-50.208,-35.783 -115.758,-51.162 -172.242,-77.525l-27.541,28.563c-52.65,-86.629 -182.005,-68.109 -271.959,-93.846Z" style="fill:#cbd9e6;fill-rule:nonzero;stroke:#fff;stroke-width:4.17px;"></path><path d="M2050.97,6235.79c25.8,1.57 77.75,4.395 103.9,5.962c-9.763,58.379 -30.684,114.875 -62.409,166.663l-28.241,-25.109c-6.279,-49.279 -9.763,-98.554 -13.25,-147.516Z" style="fill:#cbd9e6;fill-rule:nonzero;stroke:#fff;stroke-width:4.17px;"></path><path d="M1859.55,6935.08c21.617,3.454 64.504,10.359 86.121,13.813c-21.967,13.496 -65.2,40.487 -87.167,53.671c0.346,-16.95 0.696,-50.846 1.046,-67.484Z" style="fill:#cbd9e6;fill-rule:nonzero;stroke:#fff;stroke-width:4.17px;"></path><path d="M1400.36,5481.92c93.791,-42.059 193.158,-77.525 299.154,-83.8c43.583,279.962 122.033,554.904 153.762,836.441c12.9,91.959 41.488,181.413 61.713,272.117c-25.454,20.4 -51.95,39.233 -79.146,57.125c32.771,33.583 65.896,67.479 99.021,101.688c-14.996,4.708 -45.329,14.125 -60.321,18.833c-42.188,-35.779 -82.283,-73.442 -122.379,-110.479c8.716,-12.242 25.8,-36.721 34.516,-48.963c-8.716,-4.396 -26.5,-13.496 -35.216,-17.891c29.987,-9.101 90.304,-26.992 120.291,-36.092c-29.287,-59.95 -48.116,-123.35 -63.458,-187.063c63.804,-130.566 -88.908,-237.279 -135.979,-352.779c81.237,-83.487 37.654,-196.479 22.662,-294.091c-14.641,-61.83 -24.404,-132.763 -82.633,-174.821c-71.475,-5.963 -123.079,50.533 -177.471,82.862c-8.716,-15.696 -26.15,-47.396 -34.516,-63.087Z" style="fill:#cbd9e6;fill-rule:nonzero;stroke:#fff;stroke-width:4.17px;"></path><path d="M1962.76,6954.25c27.546,9.417 83.33,28.25 111.225,37.35c-25.104,57.75 -53.695,114.558 -100.066,161.012c-5.58,-66.224 -9.067,-132.137 -11.159,-198.362Z" style="fill:#cbd9e6;fill-rule:nonzero;stroke:#fff;stroke-width:4.17px;"></path><path d="M1353.99,5502.33c11.504,-5.02 34.516,-15.379 46.371,-20.4c8.366,15.692 25.8,47.392 34.516,63.088c82.634,127.112 163.525,254.854 237.442,386.05c47.071,115.5 199.783,222.212 135.979,352.779c-21.967,-67.796 -47.071,-135.587 -89.608,-195.221c-130.746,-190.829 -248.246,-388.25 -364.7,-586.296Z" style="fill:#cbd9e6;fill-rule:nonzero;stroke:#fff;stroke-width:4.17px;"></path><path d="M1045.77,5688.12c84.725,-83.175 200.133,-132.45 308.221,-185.808c116.454,198.046 233.954,395.466 364.7,586.296c42.537,59.633 67.641,127.425 89.608,195.22c15.342,63.713 34.171,127.113 63.458,187.063c-29.987,9.1 -90.304,26.992 -120.291,36.092c-149.575,-75.013 -230.467,-218.134 -339.946,-331.121c-104.6,-106.088 -177.121,-237.596 -301.942,-327.046c138.417,175.45 300.196,334.892 429.554,515.987c-235.7,-75.325 -434.437,-219.075 -658.279,-317.625c238.834,158.5 513.584,268.98 758.342,419.946c79.15,60.888 131.1,143.75 190.721,219.388c-372.721,56.183 -678.5,-178.588 -1022.28,-255.484c185.838,91.65 401.663,129.625 578.434,237.28c-286.95,2.512 -573.9,1.883 -860.85,-6.275c-7.671,-30.13 -23.363,-90.709 -31.029,-120.838c2.787,-21.971 8.366,-65.912 11.154,-88.196c17.433,-32.641 34.171,-65.908 49.858,-99.179c30.338,-133.704 108.088,-251.717 187.583,-365.65c42.884,18.833 86.467,35.779 131.446,50.846c-39.4,-27.304 -79.846,-53.359 -119.591,-79.721c72.87,-82.546 154.108,-159.129 237.441,-233.2c36.959,34.525 73.567,69.679 108.784,106.087c-20.225,-46.137 -86.821,-91.337 -55.092,-144.062Z" style="fill:#cbd9e6;fill-rule:nonzero;stroke:#fff;stroke-width:4.17px;"></path><path d="M4442.12,8189.58c-66.946,-63.4 -155.854,-167.287 -83.333,-252.346c20.92,128.055 101.462,255.796 247.204,294.405c131.446,52.1 262.891,-16.009 378.65,-68.738c-12.554,19.775 -37.309,59.633 -49.513,79.408c-157.246,72.817 -367.141,69.992 -493.008,-52.729Z" style="fill:#cbd9e6;fill-rule:nonzero;stroke:#fff;stroke-width:4.17px;"></path><path d="M4532.42,5860.42c71.825,40.175 76.008,128.37 142.6,173.879c-67.638,81.604 -179.559,91.962 -277.884,124.292c-63.804,95.099 15.342,209.97 -19.875,312.604c-15.687,-63.088 -29.983,-126.171 -41.837,-189.571c5.579,-61.204 -19.525,-135.275 19.525,-188.004c75.312,-17.263 154.108,-20.717 231.512,-28.25c-17.783,-68.421 -35.216,-136.842 -54.041,-204.95Z" style="fill:#cbd9e6;fill-rule:nonzero;stroke:#fff;stroke-width:4.17px;"></path><path d="M3017.12,6180.58c165.966,-0.625 338.904,-52.725 498.241,10.675c5.229,16.634 15.342,49.904 20.571,66.225c1.396,30.442 2.442,60.575 3.838,91.334c31.725,42.683 89.954,112.362 6.275,140.608c-138.071,20.717 -278.934,27.308 -417.35,46.767c-19.875,2.508 -59.625,7.533 -79.15,10.041c-107.038,15.067 -215.125,23.542 -323.559,25.425c200.134,-88.825 387.017,-198.675 583.313,-293.15c48.466,-21.966 89.958,-53.666 122.733,-92.587c-138.421,31.7 -254.179,108.596 -375.862,171.683c-139.117,75.325 -285.555,139.042 -419.442,221.588c-10.458,5.962 -31.029,17.887 -41.492,23.85c-91.695,-0.313 -183.045,1.258 -274.745,2.825c19.875,-35.779 39.4,-71.871 61.362,-106.396c46.375,-58.379 129.358,-100.75 146.092,-174.196c-72.175,-45.825 -123.425,78.154 -180.609,110.479c-28.587,26.367 -58.925,51.475 -90.304,75.329c-17.433,11.296 -52.3,33.896 -69.733,45.196c18.829,-113.621 -64.154,-295.033 103.904,-335.204c77.054,-2.2 154.108,-4.083 231.163,-6.592c-5.58,21.654 -17.084,64.654 -22.663,86.313c24.058,-27.621 46.025,-57.125 74.613,-81.292c148.183,-6.592 293.575,-40.175 442.804,-38.921m-441.059,91.65c-24.058,46.45 -10.462,59.321 40.096,38.917c23.359,-46.763 10.113,-59.633 -40.096,-38.917Z" style="fill:#cbd9e6;fill-rule:nonzero;stroke:#fff;stroke-width:4.17px;"></path><path d="M8596.21,8327.71c69.442,-50.845 131.75,-111.108 217.334,-144.062c-13.138,31.7 -36.413,96.983 14.262,112.362c55.179,-12.554 69.442,-73.758 48.796,-112.991c18.771,32.329 10.887,67.479 9.387,102.004c-153.15,106.4 -260.504,257.367 -439.925,336.775c49.546,-115.5 179.796,-182.667 277.392,-267.725c-42.792,-9.417 -85.208,-18.204 -127.246,-26.363Z" style="fill:#cbd9e6;fill-rule:nonzero;stroke:#fff;stroke-width:4.17px;"></path><path d="M2049.57,6219.17c80.542,0.941 161.083,2.825 241.625,1.883c-168.058,40.171 -85.075,221.583 -103.904,335.204c17.433,-11.3 52.3,-33.9 69.733,-45.196c10.809,8.471 32.775,25.421 43.584,33.896c-48.813,15.067 -97.625,29.504 -146.788,42.684c1.396,-52.1 10.113,-115.188 -34.517,-155.046c-6.975,-6.279 -20.22,-18.204 -26.845,-24.167c31.724,-51.787 52.645,-108.283 62.408,-166.662c-26.15,-1.567 -78.1,-4.392 -103.9,-5.963l-1.396,-16.633Z" style="fill:#cbd9e6;fill-rule:nonzero;stroke:#fff;stroke-width:4.17px;"></path><path d="M3056.17,6357.58c121.683,-63.087 237.441,-139.983 375.862,-171.683c-32.775,38.921 -74.266,70.621 -122.733,92.587c-196.296,94.475 -383.179,204.325 -583.313,293.15c-22.316,1.884 -66.941,5.65 -89.258,7.534c133.888,-82.546 280.325,-146.263 419.442,-221.588Z" style="fill:#cbd9e6;fill-rule:nonzero;stroke:#fff;stroke-width:4.17px;"></path><path d="M218.392,6382.38c-9.763,-59.321 47.071,-101.379 103.554,-117.7l-0,88.196c-8.717,64.654 -23.709,128.054 -32.425,192.712c-14.296,101.375 -16.738,203.696 -17.784,305.7c-1.395,84.742 -0.35,170.113 13.251,254.542c-92.396,-4.708 -104.95,-90.704 -59.971,-148.454c-64.504,-108.913 41.841,-221.904 -8.021,-331.754c-33.471,-79.409 11.158,-161.955 1.396,-243.242Z" style="fill:#cbd9e6;fill-rule:nonzero;stroke:#fff;stroke-width:4.17px;"></path><path d="M2576.06,6272.21c50.209,-20.716 63.455,-7.846 40.096,38.917c-50.558,20.404 -64.154,7.533 -40.096,-38.917Z" style="fill:#cbd9e6;fill-rule:nonzero;stroke:#fff;stroke-width:4.17px;"></path><path d="M3535.93,6257.46c133.888,53.667 87.517,192.084 84.375,295.971c-129.354,-2.825 -268.816,-26.679 -389.108,28.246c-77.054,49.592 -63.108,143.75 -13.596,205.579c135.279,-10.354 270.563,-17.887 405.846,-26.05c-4.533,-64.341 -13.6,-128.054 -25.104,-191.141c113.312,160.383 54.041,357.174 81.587,534.82c23.709,1.571 71.125,4.709 94.834,6.28c21.62,-46.138 42.887,-92.275 60.67,-139.355c11.155,67.792 -0.35,135.9 -23.362,200.871c-68.688,-19.462 -137.375,-39.233 -205.363,-59.321c3.138,-13.808 9.067,-40.804 12.205,-54.3c14.641,-66.225 22.662,-133.704 25.45,-200.871c0.35,-17.574 0.7,-52.729 1.045,-69.991c-296.012,4.708 -590.983,36.408 -885.604,57.75c72.521,8.475 145.392,15.066 218.613,18.204l2.091,37.979c-73.566,-1.571 -146.787,-2.196 -220.008,2.196c-18.479,6.592 -55.437,20.404 -73.567,27.308c-14.991,-6.279 -44.279,-18.52 -58.925,-24.796c9.413,-18.516 28.242,-56.183 38.005,-74.699c97.279,-12.867 195.254,-21.03 293.575,-27.621c2.091,-73.13 3.137,-145.946 2.441,-219.075c-120.987,17.575 -244.066,28.875 -366.796,17.575c10.463,-5.963 31.034,-17.888 41.492,-23.85c22.317,-1.884 66.942,-5.65 89.258,-7.534c108.434,-1.883 216.521,-10.358 323.559,-25.425c-75.659,71.563 -46.721,173.255 -43.584,261.763c47.071,-2.825 94.492,-5.65 141.909,-8.475c-20.571,-87.254 40.095,-187.063 -19.175,-263.329c138.416,-19.459 279.279,-26.05 417.35,-46.767c83.679,-28.246 25.45,-97.925 -6.275,-140.608c-1.396,-30.759 -2.442,-60.892 -3.838,-91.334Z" style="fill:#cbd9e6;fill-rule:nonzero;stroke:#fff;stroke-width:4.17px;"></path><path d="M4184.79,6372.96c46.375,-35.154 96.579,-66.225 150.625,-91.333c11.854,63.4 26.15,126.483 41.837,189.571c-65.546,64.654 -120.983,142.179 -105.296,234.454c3.838,138.1 8.717,276.829 -16.387,413.671c-78.796,-104.2 -79.146,-241.046 -110.525,-361.254c-7.321,-9.105 -22.317,-27.621 -29.988,-37.038c-15.687,-61.829 -20.916,-125.542 -26.15,-188.629c-26.146,-7.533 -78.446,-22.6 -104.595,-30.129c25.104,-4.084 74.962,-12.559 100.066,-16.95l8.717,-1.884c1.741,-38.291 3.483,-76.895 4.529,-115.187c28.942,1.571 57.879,3.137 87.167,4.708Z" style="fill:#cbd9e6;fill-rule:nonzero;stroke:#fff;stroke-width:4.17px;"></path><path d="M347.05,6347.54c69.033,-11.613 149.229,-46.45 208.15,6.279c-15.688,33.271 -32.425,66.537 -49.858,99.179c-111.571,4.079 -174.33,83.8 -199.434,174.196c-3.837,-20.404 -12.204,-61.204 -16.387,-81.604c8.717,-64.659 23.708,-128.059 32.425,-192.713l25.104,-5.337Z" style="fill:#cbd9e6;fill-rule:nonzero;stroke:#fff;stroke-width:4.17px;"></path><path d="M2347.33,6435.75c57.184,-32.325 108.434,-156.304 180.609,-110.479c-16.734,73.446 -99.717,115.816 -146.092,174.196c-8.717,-15.696 -25.8,-47.709 -34.517,-63.717Z" style="fill:#cbd9e6;fill-rule:nonzero;stroke:#fff;stroke-width:4.17px;"></path><path d="M1914.99,6506.67c51.254,-39.546 98.321,-83.175 149.229,-123.346l28.242,25.108c6.624,5.963 19.87,17.888 26.845,24.167c-8.716,41.429 -15.341,83.487 -20.57,125.858c-5.93,-42.683 -12.555,-85.058 -19.875,-127.112c-149.23,70.616 -136.675,237.279 -134.584,367.216c-1.396,60.575 55.088,99.809 103.9,132.45c18.829,9.104 56.834,27.304 75.663,36.409c-1.746,10.67 -4.884,31.7 -6.625,42.37c-10.809,-4.391 -32.425,-13.495 -43.234,-18.204c-27.895,-9.1 -83.679,-27.933 -111.225,-37.35l-17.083,-5.333c-21.617,-3.454 -64.504,-10.358 -86.121,-13.813l-12.9,0.942c-126.566,3.142 -263.241,-0.312 -373.071,65.6c1.742,-22.912 3.834,-45.512 5.925,-68.108c79.496,-17.892 152.367,-52.729 222.796,-90.079c21.271,90.391 178.171,72.816 169.8,-21.029c-23.708,-14.438 -48.112,-27.621 -72.521,-40.488c11.159,-5.65 33.125,-16.95 44.28,-22.912c-4.184,-15.067 -12.55,-45.196 -16.734,-60.575c11.854,-3.455 35.563,-10.671 47.417,-14.126c14.992,-4.708 45.325,-14.124 60.321,-18.833c-33.125,-34.208 -66.25,-68.104 -99.021,-101.687c27.196,-17.892 53.692,-36.725 79.146,-57.125Z" style="fill:#cbd9e6;fill-rule:nonzero;stroke:#fff;stroke-width:4.17px;"></path><path d="M2119.31,6432.58c44.63,39.859 35.913,102.946 34.517,155.046c-12.9,-0.942 -39.4,-3.137 -52.646,-4.079l-2.441,-25.108c5.229,-42.371 11.854,-84.43 20.57,-125.859Z" style="fill:#cbd9e6;fill-rule:nonzero;stroke:#fff;stroke-width:4.17px;"></path><path d="M2257.03,6511.08c31.379,-23.854 61.717,-48.962 90.304,-75.329c8.717,16.009 25.8,48.021 34.517,63.717c-21.962,34.525 -41.487,70.617 -61.362,106.396c91.7,-1.567 183.05,-3.138 274.745,-2.825c-7.67,16.32 -22.662,48.962 -30.333,65.6c-76.358,33.266 -120.637,102.633 -188.279,144.375c-152.713,24.483 -103.204,-194.279 -254.871,-171.055c3.833,72.501 7.671,146.888 36.608,215.626c3.488,7.529 10.809,21.966 14.646,29.499c14.292,31.075 34.863,58.38 62.409,82.234c-12.205,5.021 -35.913,15.379 -48.117,20.4c-15.688,-5.334 -47.767,-16.633 -63.454,-22.284c-18.829,-9.104 -56.834,-27.304 -75.663,-36.408c32.079,-18.517 64.154,-37.037 96.233,-55.554c-43.583,-93.217 -51.604,-192.396 -43.233,-291.892c13.246,0.942 39.746,3.138 52.646,4.079c49.162,-13.179 97.975,-27.616 146.787,-42.683c-10.808,-8.475 -32.774,-25.425 -43.583,-33.896m1.046,150.338c1.746,60.891 35.913,113.621 100.767,136.529c60.666,-52.1 120.983,-105.142 165.962,-169.171c-91,-5.65 -180.608,7.221 -266.729,32.642Z" style="fill:#cbd9e6;fill-rule:nonzero;stroke:#fff;stroke-width:4.17px;"></path><path d="M3765,6544.04c12.904,-44.884 26.15,-89.45 38.004,-134.334c58.229,180.784 47.071,376.009 32.429,562.13c-17.783,47.079 -39.05,93.216 -60.67,139.354c-23.709,-1.571 -71.126,-4.709 -94.834,-6.28c-27.546,-177.645 31.725,-374.437 -81.587,-534.82c11.504,63.087 20.571,126.8 25.104,191.141c-135.283,8.163 -270.567,15.696 -405.846,26.05c-49.513,-61.829 -63.458,-155.987 13.596,-205.579c120.292,-54.925 259.754,-31.071 389.108,-28.246c29.988,-31.7 60.321,-63.4 90.654,-95.1c17.784,28.559 35.913,57.121 54.042,85.684Z" style="fill:#cbd9e6;fill-rule:nonzero;stroke:#fff;stroke-width:4.17px;"></path><path d="M305.908,6627.21c25.105,-90.395 87.863,-170.116 199.434,-174.195c-2.788,22.283 -8.367,66.224 -11.154,88.195c-15.692,118.013 -26.5,236.654 -31.73,355.604c-26.15,73.759 -108.437,-0.625 -125.87,-42.37c-19.525,-74.7 -21.267,-151.596 -30.68,-227.234Z" style="fill:#cbd9e6;fill-rule:nonzero;stroke:#fff;stroke-width:4.17px;"></path><path d="M1944.28,6798.54c-2.091,-129.938 -14.646,-296.6 134.584,-367.217c7.32,42.054 13.945,84.429 19.875,127.113l2.441,25.108c-8.371,99.496 -0.35,198.675 43.234,291.892c-32.08,18.516 -64.155,37.037 -96.234,55.554c-48.812,-32.642 -105.296,-71.875 -103.9,-132.45Z" style="fill:#cbd9e6;fill-rule:nonzero;stroke:#fff;stroke-width:4.17px;"></path><path d="M4377.25,6471.21c65.9,-10.671 132.492,-19.77 198.392,-31.387c37.308,85.687 86.466,166.662 140.858,244.5c37.658,-8.475 75.313,-16.633 113.317,-24.796l23.362,-5.021c-0.35,9.104 -1.396,26.992 -2.091,35.779c-145.396,0.317 -291.138,7.534 -434.088,31.388c51.95,225.666 87.863,455.412 174.329,673.55c63.458,168.541 139.817,333.633 189.325,506.258c23.363,43.625 -33.821,98.55 -84.375,81.604c-57.529,-32.641 -77.754,-94.787 -104.95,-146.887c-62.062,-137.159 -146.787,-264.588 -213.379,-399.863c-43.933,-104.2 -121.337,-203.696 -122.383,-317c25.104,-136.841 20.225,-275.571 16.387,-413.671c-15.687,-92.274 39.75,-169.8 105.296,-234.454Z" style="fill:#cbd9e6;fill-rule:nonzero;stroke:#fff;stroke-width:4.17px;"></path><path d="M3933.41,6491.29l50.905,10.987c26.149,7.529 78.45,22.596 104.595,30.129c5.234,63.088 10.463,126.8 26.15,188.63c-54.041,16.949 -109.829,26.679 -166.658,29.504c-3.838,-86.625 -10.113,-172.938 -14.992,-259.25Z" style="fill:#cbd9e6;fill-rule:nonzero;stroke:#fff;stroke-width:4.17px;"></path><path d="M271.738,6851.29c1.045,-102.005 3.487,-204.325 17.783,-305.7c4.183,20.4 12.55,61.2 16.387,81.604c9.413,75.637 11.155,152.533 30.68,227.233c17.433,41.746 99.72,116.129 125.87,42.371c1.742,10.358 4.88,31.387 6.275,42.058c6.625,53.984 13.25,108.284 19.525,162.584c-59.27,-10.359 -140.162,-0.63 -174.679,-55.555c-23.712,-63.087 -33.125,-129.312 -41.841,-194.595Z" style="fill:#cbd9e6;fill-rule:nonzero;stroke:#fff;stroke-width:4.17px;"></path><path d="M462.458,6896.79c5.229,-118.95 16.038,-237.592 31.729,-355.605c7.667,30.13 23.359,90.709 31.03,120.838c0.696,6.592 1.395,19.771 2.091,26.05c-19.175,93.846 -37.308,188.317 -31.379,284.358l-27.196,-33.583c-1.395,-10.671 -4.533,-31.7 -6.275,-42.058Z" style="fill:#cbd9e6;fill-rule:nonzero;stroke:#fff;stroke-width:4.17px;"></path><path d="M3049.54,6546.21c19.525,-2.508 59.275,-7.533 79.15,-10.041c59.271,76.266 -1.396,176.075 19.175,263.329c-47.417,2.825 -94.838,5.65 -141.909,8.475c-3.137,-88.508 -32.075,-190.2 43.584,-261.763Z" style="fill:#cbd9e6;fill-rule:nonzero;stroke:#fff;stroke-width:4.17px;"></path><path d="M2595.23,6603.04c122.73,11.3 245.809,-0 366.796,-17.575c0.696,73.129 -0.35,145.945 -2.441,219.075c-98.321,6.591 -196.296,14.754 -293.576,27.62c-168.054,23.542 -338.204,22.913 -507.654,25.426c-28.937,-68.738 -32.775,-143.126 -36.608,-215.626c151.667,-23.225 102.158,195.538 254.871,171.055c67.642,-41.742 111.921,-111.109 188.279,-144.375c7.671,-16.638 22.662,-49.28 30.333,-65.6Z" style="fill:#cbd9e6;fill-rule:nonzero;stroke:#fff;stroke-width:4.17px;"></path><path d="M2258.08,6661.42c86.121,-25.421 175.729,-38.292 266.729,-32.642c-44.979,64.029 -105.296,117.071 -165.962,169.171c-64.855,-22.909 -99.021,-75.638 -100.767,-136.529Z" style="fill:#cbd9e6;fill-rule:nonzero;stroke:#fff;stroke-width:4.17px;"></path><path d="M527.308,6688.08c271.959,-5.02 544.267,1.884 816.571,0.942c154.809,5.963 332.975,11.613 442.804,125.546c21.267,1.883 63.804,5.962 85.421,7.846c8.371,93.846 -148.529,111.421 -169.8,21.029c-70.429,37.35 -143.3,72.187 -222.796,90.079c-322.512,30.129 -642.237,77.838 -962.312,122.092c-5.229,-20.717 -16.038,-62.459 -21.267,-83.175c-5.929,-96.042 12.204,-190.513 31.379,-284.359Z" style="fill:#cbd9e6;fill-rule:nonzero;stroke:#fff;stroke-width:4.17px;"></path><path d="M1698.12,6717.25c42.537,-8.471 85.771,-14.437 129.008,-18.829c4.183,15.379 12.55,45.508 16.734,60.575c-11.155,5.962 -33.121,17.262 -44.28,22.912c-37.308,-17.262 -72.52,-37.662 -101.462,-64.658Z" style="fill:#cbd9e6;fill-rule:nonzero;stroke:#fff;stroke-width:4.17px;"></path><path d="M2759.8,6845.96c294.621,-21.341 589.592,-53.041 885.604,-57.75c-0.346,17.263 -0.696,52.417 -1.046,69.992c-41.141,4.079 -81.933,8.163 -122.729,12.554c-180.954,-9.1 -362.262,-6.904 -543.216,-6.592c-73.221,-3.137 -146.092,-9.729 -218.613,-18.204Z" style="fill:#cbd9e6;fill-rule:nonzero;stroke:#fff;stroke-width:4.17px;"></path><path d="M271.738,6851.29c8.716,65.283 18.129,131.508 41.841,194.595c34.517,54.925 115.409,45.196 174.679,55.555c-6.275,-54.3 -12.9,-108.6 -19.525,-162.584l27.196,33.584c5.229,20.716 16.038,62.458 21.267,83.175c-2.438,12.866 -7.321,38.291 -9.763,51.158c30.684,-7.846 61.367,-15.379 92.396,-22.596c-30.679,69.046 -20.571,144.375 -23.708,216.563c-26.15,-49.905 -50.209,-100.75 -82.979,-147.2c-49.863,-25.109 -105.996,-37.038 -159.342,-53.359c5.929,61.204 11.854,122.409 20.221,183.296c-28.588,-57.121 -56.829,-115.5 -69.034,-177.646c-13.6,-84.429 -14.645,-169.8 -13.25,-254.541Z" style="fill:#cbd9e6;fill-rule:nonzero;stroke:#fff;stroke-width:4.17px;"></path><path d="M2978.42,6864.17c180.954,-0.313 362.262,-2.509 543.216,6.591c-53.691,11.93 -106.691,26.68 -160.037,39.863c-127.263,-2.513 -254.175,-5.338 -381.088,-8.475l-2.091,-37.979Z" style="fill:#cbd9e6;fill-rule:nonzero;stroke:#fff;stroke-width:4.17px;"></path><path d="M3521.63,6870.75c40.796,-4.392 81.588,-8.475 122.73,-12.554c-2.788,67.167 -10.809,134.646 -25.45,200.871c-0.35,-45.196 -1.396,-89.763 -2.442,-134.646c-85.075,-5.021 -170.15,-10.042 -254.875,-13.809c53.346,-13.183 106.346,-27.933 160.037,-39.862Z" style="fill:#cbd9e6;fill-rule:nonzero;stroke:#fff;stroke-width:4.17px;"></path><path d="M2306.19,6888.96c107.387,-4.079 217.566,-11.3 321.816,17.892c14.646,6.275 43.934,18.517 58.925,24.796c287.996,111.733 574.25,231.941 876.888,309.779c-42.188,117.7 -109.829,225.983 -167.704,337.404c-89.259,-34.525 -175.029,-75.642 -261.5,-114.875c69.037,50.217 147.137,88.825 228.375,121.15c-97.275,169.488 -275.792,281.85 -432.342,403.942c-55.437,24.796 -111.225,48.962 -166.662,73.441c-169.8,-239.787 -312.055,-494.645 -471.742,-740.399c-71.475,-98.867 -62.063,-220.642 -78.1,-332.692c172.237,51.158 308.567,163.521 403.054,300.679c161.433,171.367 302.292,359.371 477.321,520.071c-153.763,-212.488 -359.821,-390.133 -512.538,-603.246c205.367,43 355.988,187.692 549.846,255.171c-181.308,-113.304 -370.979,-215.938 -566.233,-308.525c-120.288,-55.867 -186.883,-167.288 -259.404,-264.588Z" style="fill:#cbd9e6;fill-rule:nonzero;stroke:#fff;stroke-width:4.17px;"></path><path d="M2686.93,6931.62c18.13,-6.904 55.088,-20.717 73.567,-27.308c272.654,99.495 535.896,219.075 818.663,295.033c-3.834,10.671 -11.505,31.7 -15.342,42.054c-302.638,-77.837 -588.892,-198.046 -876.888,-309.779Z" style="fill:#cbd9e6;fill-rule:nonzero;stroke:#fff;stroke-width:4.17px;"></path><path d="M2760.5,6904.33c73.221,-4.391 146.442,-3.766 220.008,-2.196c126.913,3.138 253.825,5.963 381.088,8.475c84.725,3.767 169.8,8.788 254.875,13.809c1.046,44.883 2.091,89.45 2.442,134.646c-3.138,13.495 -9.067,40.491 -12.205,54.3c-9.066,28.562 -18.129,57.437 -27.545,86c-282.767,-75.959 -546.009,-195.538 -818.663,-295.034Z" style="fill:#cbd9e6;fill-rule:nonzero;stroke:#fff;stroke-width:4.17px;"></path><path d="M517.196,7055.62c320.075,-44.254 639.8,-91.962 962.312,-122.092c-2.091,22.596 -4.183,45.196 -5.925,68.109c-109.133,63.4 -222.45,120.833 -338.554,172.937c-169.1,75.325 -321.116,179.213 -496.846,242.613c-5.925,-10.984 -18.479,-32.954 -24.754,-43.938c266.729,-109.854 516.371,-250.15 769.85,-382.6c-260.8,33.896 -522.646,61.204 -783.45,93.534c-31.029,7.216 -61.712,14.75 -92.396,22.595c2.442,-12.866 7.325,-38.291 9.763,-51.158Z" style="fill:#cbd9e6;fill-rule:nonzero;stroke:#fff;stroke-width:4.17px;"></path><path d="M1473.58,7001.62c109.83,-65.912 246.505,-62.458 373.071,-65.6c-91.004,116.758 -168.754,248.579 -304.383,329.242c-237.792,140.612 -440.713,322.65 -675.363,466.087c-90.654,-95.729 -166.662,-201.816 -228.725,-314.179c175.73,-63.4 327.746,-167.287 496.846,-242.612c116.104,-52.105 229.421,-109.538 338.554,-172.938Z" style="fill:#cbd9e6;fill-rule:nonzero;stroke:#fff;stroke-width:4.17px;"></path><path d="M2123.84,6967.42c15.687,5.65 47.766,16.95 63.454,22.283c-0.696,25.737 -2.092,76.583 -2.438,102.321c-40.096,-13.496 -62.762,-41.117 -67.641,-82.234c1.741,-10.67 4.879,-31.699 6.625,-42.37Z" style="fill:#cbd9e6;fill-rule:nonzero;stroke:#fff;stroke-width:4.17px;"></path><path d="M2297.47,6962.08l20.221,1.571l10.112,19.459l-23.358,-2.509l-6.975,-18.521Z" style="fill:#cbd9e6;fill-rule:nonzero;stroke:#fff;stroke-width:4.17px;"></path><path d="M599.829,7084.17c260.804,-32.329 522.65,-59.638 783.45,-93.534c-253.479,132.45 -503.121,272.746 -769.85,382.6c-9.412,-18.204 -27.892,-54.3 -37.308,-72.504c3.137,-72.187 -6.971,-147.517 23.708,-216.562Z" style="fill:#cbd9e6;fill-rule:nonzero;stroke:#fff;stroke-width:4.17px;"></path><path d="M1837.59,6999.12l20.92,3.454l-9.066,16.633l-18.129,-2.824l6.274,-17.263Z" style="fill:#cbd9e6;fill-rule:nonzero;stroke:#fff;stroke-width:4.17px;"></path><path d="M2327.81,6983.12c5.229,4.708 15.342,14.754 20.225,19.463l-15.691,-1.884l-4.534,-17.579Z" style="fill:#cbd9e6;fill-rule:nonzero;stroke:#fff;stroke-width:4.17px;"></path><path d="M1473.93,7517.62c125.871,-186.746 224.192,-423.4 470,-506.258c66.946,263.641 -124.125,489.937 -208.5,729.1c-45.675,137.47 -139.467,260.504 -165.266,403c-136.676,-37.663 -262.196,-100.438 -387.713,-160.384c72.171,-166.345 197.342,-308.841 291.479,-465.458Z" style="fill:#cbd9e6;fill-rule:nonzero;stroke:#fff;stroke-width:4.17px;"></path><path d="M1958.58,7461.75c-11.854,-155.992 33.471,-323.279 145.042,-444.742c47.766,113.617 125.52,218.759 140.862,341.796c42.883,275.883 93.792,550.825 133.538,827.338c-140.163,22.283 -283.117,15.695 -423.975,26.366c-2.792,-250.462 14.641,-500.612 4.533,-750.758Z" style="fill:#cbd9e6;fill-rule:nonzero;stroke:#fff;stroke-width:4.17px;"></path><path d="M333.8,7100.17c53.346,16.32 109.479,28.25 159.342,53.358c32.77,46.45 56.829,97.296 82.979,147.2c9.416,18.204 27.896,54.3 37.308,72.504c6.275,10.984 18.829,32.954 24.754,43.938c62.063,112.362 138.071,218.45 228.725,314.179c9.413,9.729 19.175,19.146 29.638,28.558c80.887,68.425 164.916,134.021 249.641,198.363c11.505,8.475 23.709,16.633 36.263,24.796c125.517,59.945 251.037,122.72 387.712,160.383l22.313,6.592c54.046,14.12 108.437,28.245 163.175,41.116c64.154,16.633 131.1,25.421 198.392,21.342c140.858,-10.671 283.812,-4.083 423.975,-26.367c27.195,-5.65 54.391,-11.612 81.937,-17.887c67.292,-14.438 133.538,-32.642 198.738,-54.3c78.45,-23.225 157.595,-46.138 231.162,-80.975c10.113,-10.988 30.684,-32.959 40.796,-43.942c156.55,-122.092 335.067,-234.454 432.342,-403.942c-81.238,-32.325 -159.338,-70.933 -228.375,-121.15c86.471,39.234 172.241,80.35 261.5,114.875c57.875,-111.42 125.516,-219.704 167.704,-337.404c3.837,-10.354 11.508,-31.383 15.342,-42.054c9.416,-28.562 18.479,-57.437 27.545,-86c67.988,20.088 136.675,39.858 205.363,59.321c-168.754,601.987 -738.471,1096.95 -1420.8,1203.66c-337.854,38.292 -688.263,22.6 -1006.94,-92.9c-484.296,-175.762 -876.192,-550.516 -1030.3,-999.966c-8.367,-60.888 -14.292,-122.092 -20.221,-183.296Z" style="fill:#cbd9e6;fill-rule:nonzero;stroke:#fff;stroke-width:4.17px;"></path><path d="M1397.92,7380.17c59.275,-46.138 126.566,-83.488 196.65,-114.875c-124.825,242.616 -282.767,471.733 -448.383,693.008c-84.725,-64.342 -168.755,-129.937 -249.642,-198.362c147.833,-146.571 335.062,-252.342 501.375,-379.771Z" style="fill:#cbd9e6;fill-rule:nonzero;stroke:#fff;stroke-width:4.17px;"></path><path d="M4591.33,7395.21c10.463,-9.104 31.384,-27.308 41.842,-36.725c22.313,67.167 45.675,134.021 69.733,200.871c122.73,20.088 253.48,56.496 327.742,154.109c127.962,146.575 91.004,362.824 -41.488,496.841c-27.195,-102.946 91,-176.704 75.309,-279.021c18.479,-174.508 -156.896,-302.25 -331.925,-331.125c5.575,105.142 148.879,98.238 207.104,171.684c-58.225,31.7 -143.3,53.983 -117.15,132.133c49.508,-24.479 99.367,-50.217 153.758,-65.283c43.934,83.175 12.204,176.079 -29.983,253.916c-35.217,-43.629 -69.383,-87.254 -102.854,-131.82c-30.338,22.283 -61.017,44.254 -92.05,65.908c49.512,23.225 99.721,46.454 147.137,74.7c-29.287,100.437 -187.583,67.479 -274.05,82.858c20.571,-52.1 97.625,-103.575 74.963,-159.754c-20.221,-5.65 -60.321,-16.633 -80.542,-21.971c-9.412,52.417 -18.129,105.459 -26.15,158.5c-97.625,-51.158 -150.621,-141.237 -169.1,-238.85c61.363,16.638 122.379,33.584 183.746,51.163c-9.417,-24.171 -27.896,-72.504 -37.308,-96.671c-41.842,5.65 -83.329,11.925 -124.821,18.204c19.871,-63.4 37.304,-127.429 49.162,-192.396c-98.325,43.313 -115.062,144.688 -136.679,230.688c-80.887,-94.788 39.75,-193.654 84.029,-279.025c-28.241,-56.179 -56.833,-112.046 -85.77,-167.288c-143.3,52.1 -215.125,193.025 -254.525,319.196c-67.642,227.238 56.133,468.283 259.754,605.442l19.175,30.445c-182.7,-10.358 -253.825,-178.274 -334.017,-299.425c-25.454,-111.108 -43.583,-227.237 -28.592,-340.541c37.309,-82.229 100.067,-153.479 135.63,-236.65c33.82,-84.429 135.283,-115.188 224.541,-129c66.592,135.275 151.317,262.704 213.379,399.862c27.196,52.1 47.421,114.246 104.95,146.888c50.555,16.946 107.738,-37.979 84.375,-81.604c-49.508,-172.625 -125.866,-337.717 -189.325,-506.259Z" style="fill:#cbd9e6;fill-rule:nonzero;stroke:#fff;stroke-width:4.17px;"></path><path d="M4633.17,7358.5c184.096,-17.887 354.241,50.846 507.654,134.65c112.967,123.033 222.1,268.979 205.362,437.208c12.555,138.1 -54.391,266.155 -142.254,375.38c-204.316,215.62 -580.525,266.783 -842.721,105.77c-203.621,-137.158 -327.396,-378.204 -259.754,-605.441c39.4,-126.171 111.225,-267.096 254.525,-319.196c28.938,55.242 57.529,111.108 85.771,167.287c-44.279,85.371 -164.917,184.238 -84.029,279.025c0.35,1.255 0.7,3.138 1.046,4.08c-72.521,85.058 16.387,188.945 83.333,252.345c125.867,122.721 335.763,125.546 493.008,52.73c10.809,-4.709 32.775,-13.813 43.934,-18.517c2.441,-3.142 7.671,-10.046 10.112,-13.5c132.492,-134.017 169.45,-350.267 41.488,-496.842c-74.263,-97.612 -205.013,-134.021 -327.742,-154.108c-24.058,-66.85 -47.421,-133.704 -69.733,-200.871Z" style="fill:#cbd9e6;fill-rule:nonzero;stroke:#fff;stroke-width:4.17px;"></path><path d="M1745.19,7766.5c51.95,-132.762 107.737,-265.212 186.533,-387.304c19.875,274.629 17.433,551.454 -10.808,825.771c-55.438,-4.079 -110.525,-8.788 -165.267,-13.809c-54.737,-12.87 -109.129,-26.995 -163.175,-41.116c22.667,-136.217 103.208,-254.859 152.717,-383.542Z" style="fill:#cbd9e6;fill-rule:nonzero;stroke:#fff;stroke-width:4.17px;"></path><path d="M2265.4,7401.5c13.596,1.883 40.792,6.279 54.392,8.163c148.529,213.737 274.746,439.72 417,657.225c-19.525,11.925 -58.575,35.154 -78.1,47.079c-65.2,21.658 -131.446,39.862 -198.738,54.3l-48.466,8.158c-75.659,-253.6 -79.496,-519.442 -146.088,-774.925Z" style="fill:#cbd9e6;fill-rule:nonzero;stroke:#fff;stroke-width:4.17px;"></path><path d="M7216.83,3500.22c-47.379,290.925 -73.333,588.375 -25.966,880.658c73.566,271.492 155.504,541.413 236.391,811.021l0.909,1.213c9.629,12.896 26.933,36.841 36.05,49.004c45.675,144.692 133.541,277.454 160.387,427.167c16.671,79.408 -19.937,155.704 -39.175,231.679l-0.225,0.891c-5.229,33.584 -9.412,67.167 -12.9,101.063c-17.366,153.821 6.784,308.571 -3.708,462.704l-0.125,1.813c54.737,335.52 80.192,679.825 217.912,999.337c16.388,35.779 41.842,67.479 65.55,100.121c43.234,2.825 86.817,5.967 130.75,10.046c32.425,61.829 58.575,135.587 132.492,167.916c159.337,59.317 335.067,49.275 503.471,41.742c31.729,31.7 104.946,74.071 61.016,122.092c-93.441,92.904 -232.908,129.941 -359.825,171.37c-292.874,83.8 -607.37,98.55 -911.058,68.421c-105.642,-9.729 -84.725,-120.208 -89.258,-188.004c3.837,-88.821 -28.938,-188.629 32.429,-266.783c66.246,-81.917 19.175,-183.921 -2.792,-271.804c-47.766,-160.067 -108.433,-317.63 -199.783,-462.005c1.129,-1.42 2.258,-2.85 3.396,-4.291c-70.704,-63.592 -107.904,-140.534 -114.063,-220.596c-1.671,1.537 -3.362,3.054 -5.091,4.558c-41.142,-133.708 -93.092,-268.041 -93.092,-408.337c-3.488,-146.888 22.662,-293.775 5.229,-440.346c-24.404,-177.333 -136.675,-335.521 -280.325,-455.1c-162.479,-139.671 -291.833,-305.388 -436.525,-459.496c56.829,261.763 260.45,465.146 435.829,667.271c-67.029,192.9 -97.046,416.317 -265.437,563.538l-1.988,1.729c-55.916,33.137 -113.908,67.837 -180.866,78.654l-0.788,0.125c-73.917,14.75 -149.229,23.854 -224.192,31.387c-123.079,-3.141 -246.158,-8.162 -369.237,-6.591c-62.467,-90.53 -96.888,-192.917 -135.863,-292.488l-1.858,-4.741c-48.462,-103.888 -98.321,-211.23 -112.271,-323.592c188.979,-30.129 369.934,44.571 557.517,26.679c70.779,-115.817 9.762,-242.929 -2.092,-363.767c-20.225,-239.475 -16.041,-480.208 5.925,-719.371c26.5,-177.02 -101.112,-330.495 -107.037,-504.374c-16.042,-151.596 43.579,-296.601 76.704,-442.863c-164.221,-141.238 -371.325,-241.671 -506.958,-408.963c-67.642,-83.487 -150.275,-158.812 -200.48,-252.341c-44.629,-150.654 86.467,-274.629 181.655,-382.913c205.012,-234.454 459.537,-430.933 647.466,-677.629c115.409,-112.675 235,-224.412 373.421,-314.175c100.763,-59.633 121.333,-186.121 105.646,-284.046c-85.425,-139.671 -152.717,-304.133 -101.813,-463.887c37.309,-92.904 81.588,-193.967 176.775,-250.463c203.617,-99.808 456.751,-104.204 664.551,-11.3c-17.084,117.7 136.679,154.734 157.945,259.563c30.334,73.758 5.929,155.991 33.471,229.433c35.567,43 71.479,86.629 81.588,141.242c-104.946,97.608 -75.309,246.066 -123.425,365.962c-70.084,39.546 -153.763,23.538 -231.167,23.855c74.267,89.762 192.462,155.358 213.733,274.312c61.017,344.308 6.625,696.775 -71.825,1035.43c-25.8,116.13 -59.971,231.942 -55.087,351.525c64.85,-70.933 62.062,-169.171 107.733,-248.579c10.813,-0.629 33.125,-2.512 44.283,-3.137c150.971,110.479 297.759,295.971 518.113,260.191l2.104,-1.058c89.113,-44.179 191.442,-26.688 284.5,-2.708c-6.279,32.954 -12.204,66.225 -18.829,99.179c39.05,30.129 78.45,60.575 117.5,91.333c-36.263,119.896 -52.996,250.15 -156.2,342.738c-94.838,-25.738 -192.813,-46.45 -278.933,-91.963c-75.659,-44.879 -131.446,-116.754 -222.446,-138.725c-145.742,-40.487 -278.234,-114.246 -427.463,-144.379l-2.275,13.85Zm1154.77,4349.5l-0.775,-0.067l1.9,0.15l-1.125,-0.083Zm37.154,-2.575l0.954,-0.204l-2.066,0.429l1.112,-0.225Zm-58.862,-2.096l-0.279,-0.112l1.366,0.529l-1.087,-0.417Zm73.346,-1.8l-1.367,0.45l2.033,-0.679l-0.666,0.229Zm6.845,-2.566l0.542,-0.225l-2.804,1.137l2.262,-0.912Zm6.421,-2.992l-2,1.004c0.679,-0.329 1.346,-0.662 2,-1.004Zm9.379,-8.358l0.171,2.104l-0.471,-4.129l0.3,2.025Zm-116.775,-6.4l0.254,1.166c-0.091,-0.383 -0.175,-0.775 -0.254,-1.166Zm112.567,-5.471l-0.137,-0.209l1.166,1.917l-1.029,-1.708Zm-3.062,-3.867l0.479,0.521l-0.975,-1.029c0.166,0.171 0.333,0.337 0.496,0.508Zm-9.171,-6.804l-0.25,-0.129l1.191,0.641l-0.941,-0.512Zm-77.6,-0.679l0.825,-0.271l-1.788,0.592l0.963,-0.321Zm71.929,-1.859l-0.346,-0.129l1.583,0.613l-1.237,-0.484Zm-63.813,-0.5c-0.958,0.242 -1.908,0.496 -2.85,0.759l3.425,-0.904l-0.575,0.145Zm56.859,-1.654l-0.525,-0.129l1.321,0.333l-0.796,-0.204Zm-8.384,-1.612l2.642,0.408c-0.871,-0.146 -1.75,-0.283 -2.642,-0.408Zm-13.616,-0.984l-0.384,-0.004l2.117,0.034l-1.733,-0.03Zm-833.009,-1360.23l1.621,7.296l-2.116,-9.583l0.495,2.287Zm-5.933,-29.825l-0.567,-3.15l2.33,12.592c-0.605,-3.146 -1.192,-6.292 -1.763,-9.442Zm-6.154,-38.112c0.775,5.429 1.592,10.854 2.45,16.279c0.858,5.421 1.762,10.837 2.708,16.25c-1.896,-10.825 -3.604,-21.671 -5.158,-32.529Zm-1.579,-11.429l1.525,11.07c-0.525,-3.691 -1.034,-7.379 -1.525,-11.07Zm-1.559,-12.146l1.38,10.791l-1.721,-13.591l0.341,2.8Zm-367.925,8.841l7.688,0.034c-2.554,0.008 -5.121,-0.004 -7.688,-0.034Zm28.759,-0.562c-3.388,0.196 -6.8,0.337 -10.225,0.433c-3.425,0.1 -6.867,0.15 -10.321,0.163c6.9,-0.025 13.762,-0.204 20.546,-0.596Zm22.008,-2.179l-4.675,0.629c1.567,-0.192 3.129,-0.404 4.675,-0.629Zm-119.517,0.362l5.817,0.146c-1.95,-0.058 -3.887,-0.104 -5.817,-0.146Zm133.7,-2.975l-3.662,0.788c1.225,-0.25 2.446,-0.513 3.662,-0.788Zm7.167,-1.791l0.725,-0.2l-3.692,0.987l2.967,-0.787Zm-211.817,-1.184l2.692,0.475c-0.904,-0.154 -1.8,-0.312 -2.692,-0.475Zm222.075,-2.058l-4.741,1.608c1.596,-0.508 3.175,-1.041 4.741,-1.608Zm6.371,-2.492c-1.35,0.575 -2.712,1.121 -4.083,1.646l4.487,-1.817l-0.404,0.171Zm17.717,-9.466c-1.958,1.304 -3.963,2.533 -6,3.695c-2.042,1.159 -4.121,2.255 -6.238,3.284l12.238,-6.979Zm260.212,3.075l0.455,3.854l-0.792,-6.792l0.337,2.938Zm-2.062,-18.805l0.883,8.309c-0.3,-2.771 -0.596,-5.538 -0.883,-8.309Zm-246,6.196c-0.546,0.504 -1.1,1 -1.658,1.496l1.983,-1.8l-0.325,0.304Zm243.692,-29.929l2.125,21.971l-2.405,-25.05l0.28,3.079Zm-560.675,14.317l0.554,1.433c-0.188,-0.475 -0.375,-0.95 -0.554,-1.433Zm342.325,-25.1l-0.775,2.366l1.025,-3.158l-0.25,0.792Zm-1181.75,-10.192c-1.271,-0.221 -2.538,-0.442 -3.809,-0.658l9.909,1.725c-2.034,-0.359 -4.067,-0.717 -6.1,-1.067Zm1184.6,0.088l0.179,-0.746l-0.363,1.491l0.184,-0.745Zm-46.859,-10.021c0.025,0.337 0.046,0.679 0.067,1.021c0.021,0.341 0.037,0.683 0.058,1.025l-0.125,-2.046Zm258.084,-21.479l1.75,22.733c-0.609,-7.567 -1.188,-15.15 -1.75,-22.733Zm-1479.75,19.579c0.837,0.079 1.675,0.162 2.512,0.25l-3.346,-0.334l0.834,0.084Zm-165.684,-0.425l5.188,0.158c-1.725,-0.058 -3.454,-0.112 -5.188,-0.158Zm-18.704,-0.317c4.059,0.033 8.104,0.083 12.129,0.163l-27.862,-0.2c5.262,-0.013 10.512,-0.005 15.733,0.037Zm-18.65,-0.029l-11.979,0.054c4,-0.021 7.996,-0.046 11.979,-0.054Zm1424.39,-1.2l0.096,1.058l-0.292,-3.075l0.196,2.017Zm-1501.29,0.9l1.688,0.05l-2.963,-0.092l1.275,0.042Zm-21.679,-1.033l16.775,0.862c-5.612,-0.217 -11.208,-0.496 -16.775,-0.862Zm198.633,0.2l-20.429,0.637l24.842,-0.771l-4.413,0.134Zm80.605,0.033l-1.1,-0.075l2.879,0.2l-1.779,-0.125Zm-291.1,-1.138l4.733,0.396c-1.579,-0.125 -3.158,-0.258 -4.733,-0.396Zm262.87,-0.179l-1.525,-0.033l2.534,0.058l-1.009,-0.025Zm944.105,-2.604l0.062,2.608l-0.062,-2.608c-0.034,-1.308 -0.063,-2.612 -0.088,-3.921l0.088,3.921Zm-1224.03,0.946l7.192,0.858c-2.408,-0.266 -4.804,-0.554 -7.192,-0.858Zm278.088,-3.271l-1.067,2.275c0.35,-0.762 0.704,-1.521 1.067,-2.275Zm1273,-0.821l0.137,1.013l-0.429,-3.013l0.292,2Zm-1367.25,-4.941l-4.183,5.516l4.75,-6.246l-0.567,0.73Zm1039.96,-3.08l0.05,2.896l-0.145,-8.7l0.095,5.804Zm325.034,-4.033l-0.334,-1.371l1.667,7.7l-1.333,-6.329Zm-1359.25,-0.15l0.529,-0.65l-3.142,3.913c0.863,-1.092 1.734,-2.18 2.613,-3.263Zm1620.44,-1.833l0.225,3.041l-0.47,-6.42l0.245,3.379Zm-1880.56,0.471l2.054,0.829l-2.604,-1.054l0.55,0.225Zm356.95,-0.596l-0.825,1.308l1.25,-1.971c-0.142,0.217 -0.283,0.442 -0.425,0.663Zm1261.55,-1.296c0.121,0.45 0.242,0.9 0.359,1.354l-0.542,-2.025l0.183,0.671Zm-4.891,-14.113l0.708,1.684c-0.229,-0.563 -0.467,-1.121 -0.708,-1.684Zm-1.334,-2.95l0.917,1.992c-0.3,-0.667 -0.6,-1.325 -0.917,-1.992Zm-1638.6,-0.266c-0.72,-1.046 -1.429,-2.092 -2.133,-3.146l2.567,3.771l-0.434,-0.625Zm402.288,-4.779l-1.921,1.916c0.638,-0.65 1.275,-1.287 1.921,-1.916Zm1233.58,-0.271c0.204,0.358 0.4,0.721 0.596,1.087l-0.896,-1.625l0.3,0.538Zm-1229.75,-3.325l-3.271,3.054l4.746,-4.367c-0.496,0.434 -0.987,0.871 -1.475,1.313Zm1222.44,-7.754c1.212,1.562 2.379,3.175 3.496,4.841c1.12,1.667 2.187,3.388 3.208,5.163l-6.704,-10.004Zm-308.196,2.504c0.004,-0.721 0.004,-1.446 0.008,-2.171c-0.008,1.446 -0.012,2.892 -0.012,4.342l0.004,-2.171Zm582.8,-19.125l-0.375,-5.125l1.762,24.425l-1.387,-19.3Zm-279.838,10.516l4.867,5.638l-5.546,-6.354l0.679,0.716Zm73.692,-2.216c0.358,1.904 0.692,3.808 1,5.721l-1.017,-5.792l0.017,0.071Zm-79.025,-2.979l3.733,3.537c-1.208,-1.217 -2.454,-2.392 -3.733,-3.537Zm-1636.43,-3.646l1.512,2.925c-0.508,-0.975 -1.012,-1.946 -1.512,-2.925Zm458.962,-0.371l-4.446,2.283c1.471,-0.783 2.95,-1.541 4.446,-2.283Zm-100.933,-2.521l-2.4,2.071l3.129,-2.696l-0.729,0.625Zm137.025,-11.296l1.642,-0.475l-1.717,0.496l-1.6,0.471l-1.488,0.45c-6.904,2.104 -13.633,4.462 -20.15,7.125l-1.608,0.662l1.608,-0.662c6.517,-2.663 13.246,-5.021 20.15,-7.125l1.58,-0.475l1.583,-0.467Zm1124.69,5.942l-0.759,-0.429l0.875,0.496c0.259,0.141 0.513,0.287 0.767,0.437l-0.883,-0.504Zm-13.45,-6.508l9.975,4.616c-3.217,-1.671 -6.542,-3.208 -9.975,-4.616Zm-266.98,-3.742l-0.15,6.262c0.046,-2.087 0.096,-4.175 0.15,-6.262Zm233.592,-5.779l-1.337,-0.246l1.308,0.242l0.421,0.079l24.404,6.25l5.5,1.971l-30.296,-8.296Zm-1066.78,7.091c-0.808,0.2 -1.617,0.409 -2.421,0.617l3.029,-0.771l-0.608,0.154Zm-514.708,-0.958l0.558,1.279l-1.054,-2.412l0.496,1.133Zm1716.9,-3.254c0.45,1.412 0.891,2.829 1.316,4.246l-1.545,-4.95l0.229,0.704Zm211.029,-10.167l1.037,13.517c-0.337,-4.513 -0.683,-9.017 -1.037,-13.517Zm-1931.2,5.742l2.462,5.837c-0.837,-1.937 -1.658,-3.883 -2.462,-5.837Zm693.746,-10.221l28.983,15.313c-9.671,-5.125 -19.337,-10.23 -28.983,-15.313Zm885.358,10.783c-11.437,-1.845 -23.421,-2.954 -35.717,-3.554c-12.291,-0.6 -24.895,-0.687 -37.57,-0.504c25.35,-0.371 50.416,0.363 73.287,4.058Zm-1006.48,-1.75l-7.496,0.996c2.488,-0.346 4.988,-0.675 7.496,-0.996Zm836.25,0.709l-4.275,0.004l7.954,-0.029l-3.679,0.025Zm-15.462,-0.167l-1.605,-0.046l4.467,0.117l-2.862,-0.071Zm46.708,-0.571l-0.8,0.029l3.637,-0.137l-2.837,0.108Zm-1445.57,-12.658l4.554,11.704c-1.575,-3.879 -3.091,-7.783 -4.554,-11.704Zm634.275,6.767c-8.637,0.829 -17.333,1.65 -26.046,2.529l28.638,-2.779l-2.592,0.25Zm759.934,1.141l-0.155,-0.291l0.75,1.416l-0.595,-1.125Zm-719.15,-5.508c-0.409,0.05 -0.821,0.104 -1.246,0.154c0.833,-0.1 1.662,-0.208 2.491,-0.312l-1.245,0.158Zm15.812,-2.188l1.383,-0.212l-12.35,1.771l10.967,-1.559Zm1244.3,-10.204l0.854,10.363c-0.279,-3.446 -0.562,-6.904 -0.854,-10.363Zm-1938.39,1.096l2.992,8.271l-3.325,-9.213l0.333,0.942Zm683.592,0.133l2.437,1.7c-0.812,-0.575 -1.625,-1.141 -2.437,-1.7Zm1033.95,-1.979l-0.559,-1.208l1.313,2.858l-0.754,-1.65Zm-1037.78,-0.6l2.408,1.609c-0.804,-0.546 -1.604,-1.08 -2.408,-1.609Zm-683.475,-8.416l2.762,8.15c-0.937,-2.709 -1.858,-5.43 -2.762,-8.15Zm468.125,0.57l3.683,-1.679l-12.425,5.892l8.742,-4.213Zm202.521,0.03l-0.675,-0.375l3.816,2.175l-3.141,-1.8Zm1045.53,-2.013l1.433,2.833c-0.471,-0.95 -0.95,-1.891 -1.433,-2.833Zm-1050.93,-0.917l4.045,2.175c-1.345,-0.741 -2.695,-1.466 -4.045,-2.175Zm-669.605,-11.291l3.917,12.266c-1.342,-4.075 -2.642,-8.162 -3.917,-12.266Zm1402.38,8.391c-0.4,0.967 -0.759,1.955 -1.067,2.963l1.146,-3.142l-0.079,0.179Zm-736.725,0.892l3.512,1.783c-1.171,-0.608 -2.342,-1.204 -3.512,-1.783Zm737.433,-2.462c0.146,-0.3 0.292,-0.596 0.446,-0.892l-0.959,2.004c0.167,-0.375 0.338,-0.746 0.513,-1.112Zm299.054,-7.142c2.763,0.954 5.517,1.946 8.254,2.975l-9.175,-3.292l0.921,0.317Zm-1189.81,-0.646l1.312,-0.387l-5.246,1.587l3.934,-1.2Zm124.866,-1.196l2.7,0.867c-0.9,-0.3 -1.8,-0.588 -2.7,-0.867Zm-120.787,0.021l-2.292,0.65l3.059,-0.862l-0.767,0.212Zm3.796,-1.029l-1.346,0.354l2.492,-0.654l-1.146,0.3Zm110.375,-0.938l4.371,1.255c-1.459,-0.438 -2.913,-0.855 -4.371,-1.255Zm-3.413,-0.9l2.654,0.696c-0.883,-0.237 -1.766,-0.471 -2.654,-0.696Zm-1.554,-0.387l-0.679,-0.167l1.696,0.417l-1.017,-0.25Zm788.925,-1.538c-0.612,0.48 -1.212,0.971 -1.792,1.471l1.959,-1.604l-0.167,0.133Zm-863.262,-2.325c-3.463,0.442 -6.921,0.963 -10.371,1.563c-3.45,0.596 -6.892,1.271 -10.329,2.025l20.7,-3.588Zm64.741,1.763l8.2,1.762c-2.725,-0.65 -5.462,-1.237 -8.2,-1.762Zm-13.65,-2.121l13.225,2.042c-4.404,-0.838 -8.812,-1.517 -13.225,-2.042Zm814.909,0.683l-1.492,1.055c0.487,-0.359 0.987,-0.709 1.492,-1.055Zm-827.625,-1.783l8.058,0.604c-2.688,-0.258 -5.371,-0.458 -8.058,-0.604Zm834.537,-2.271c0.967,-0.487 1.954,-0.954 2.963,-1.4l-7.642,4.004l4.679,-2.604Zm239.65,1.888c-1.15,-0.259 -2.308,-0.509 -3.462,-0.759l5.704,1.267c-0.746,-0.171 -1.492,-0.342 -2.242,-0.508Zm-1079.53,0.166c-3.171,-0.091 -6.342,-0.104 -9.512,-0.045c-3.167,0.058 -6.334,0.187 -9.5,0.387c6.325,-0.4 12.666,-0.521 19.012,-0.342Zm1358.53,-4.42l-0.329,-3.18l0.725,7.055l-0.396,-3.875Zm-292.379,1.504l7.463,1.479c-2.484,-0.517 -4.971,-1.008 -7.463,-1.479Zm-217.029,-3c-0.454,0.154 -0.9,0.312 -1.346,0.475l1.796,-0.629l-0.45,0.154Zm183.571,-2.009l-1.375,-0.154l13.592,1.7l-12.217,-1.546Zm-180.138,0.917c0.596,-0.175 1.196,-0.342 1.805,-0.508l-3.613,1.062l1.808,-0.554Zm163.53,-2.558l14.2,1.371c-4.721,-0.517 -9.455,-0.971 -14.2,-1.371Zm-27.475,-1.579l-10.834,-0.509l4.154,0.129l6.68,0.38l16.9,0.787c3.075,0.204 6.145,0.429 9.212,0.679l-26.112,-1.466Zm-121.542,1.145l0.792,-0.095l-1.717,0.216l0.925,-0.121Zm11.487,-0.77c-1.37,0.012 -2.737,0.054 -4.104,0.12l4.617,-0.125l-0.513,0.005Zm88.459,-1.117l10.383,0.225c-3.462,-0.096 -6.925,-0.171 -10.383,-0.225Zm387.521,-27.417l0.895,7.204c-0.291,-2.391 -0.591,-4.8 -0.895,-7.204Zm-1963.23,-33.087l2.329,7.616c-0.762,-2.537 -1.541,-5.079 -2.329,-7.616Zm-7.221,-22.029l5.067,15.2c-1.633,-5.1 -3.312,-10.167 -5.067,-15.2Zm1961.69,3.7l-0.296,-0.455l1.75,2.725c-0.483,-0.762 -0.971,-1.525 -1.454,-2.27Zm-1963.85,-9.788l1.804,5.079c-0.595,-1.7 -1.195,-3.391 -1.804,-5.079Zm1955.5,-2.229l5.2,7.308c-1.683,-2.466 -3.42,-4.9 -5.2,-7.308Zm-2020.94,3.925l0.35,2.675l-0.521,-4.029l0.171,1.354Zm-0.43,-3.383c-0.212,-1.688 -0.416,-3.38 -0.62,-5.067l0.75,6.083l-0.13,-1.016Zm2013.11,-11.159l4.366,5.471c-1.429,-1.837 -2.887,-3.662 -4.366,-5.471Zm-2014.01,3.729l0.159,1.35l-0.48,-4.054l0.321,2.704Zm-1.221,-10.695l0.242,2.208l-0.475,-4.338l0.233,2.13Zm2007.21,-2.446l-0.809,-0.909l1.967,2.221l-1.158,-1.312Zm-1950.61,-6.217l-0.512,-1.142l2.117,4.796l-1.605,-3.654Zm1862.98,-76.392c12.379,11.434 25.154,22.588 37.741,33.855c12.588,11.266 24.988,22.645 36.617,34.533c-23.25,-23.771 -49.596,-45.517 -74.358,-68.388Zm-1875.12,51.896l3.296,6.146c-1.08,-2.067 -2.175,-4.112 -3.296,-6.146Zm-47.45,2.725l0.166,1.879l-0.283,-3.245l0.117,1.366Zm-2.092,-26.237l1.667,21.275c-0.6,-7.096 -1.15,-14.188 -1.667,-21.275Zm41.25,9.483l3.817,6.225c-1.246,-2.096 -2.517,-4.167 -3.817,-6.225Zm-5.896,-8.912l-0.508,-0.734l1.037,1.5l-0.529,-0.766Zm-35.641,-4.605c-0.142,-2.016 -0.284,-4.033 -0.421,-6.05l0.562,8.067l-0.141,-2.017Zm22.57,-12.604c0.334,0.4 0.667,0.8 0.992,1.196l-1.487,-1.792l0.495,0.596Zm-18.008,-19.296l2.113,2.05c-0.7,-0.687 -1.405,-1.366 -2.113,-2.05Zm-6.362,-5.862l-0.613,-0.542l1.225,1.088c-0.192,-0.171 -0.4,-0.359 -0.612,-0.546Zm1894.48,-18.7l2.57,2.792c-0.866,-0.93 -1.72,-1.859 -2.57,-2.792Zm205.4,-10.425l0.658,1.8l-1.179,-3.225l0.521,1.425Zm-36.209,-3.583c-0.475,-0.284 -0.954,-0.563 -1.421,-0.846l1.896,1.125l-0.475,-0.279Zm-186.258,-6.296l2.012,2.587c-0.675,-0.854 -1.345,-1.721 -2.012,-2.587Zm-1.108,-1.459l0.779,1.025l-1.454,-1.92l0.675,0.895Zm218.058,-4.383l1.662,4.883c-0.562,-1.625 -1.116,-3.254 -1.662,-4.883Zm-69.725,-16c1.046,0.917 2.1,1.825 3.167,2.725l-3.559,-3.067l0.392,0.342Zm-161.754,0.75l0.679,1.104l-1.2,-1.966l0.521,0.862Zm154.65,-7.208l2.341,2.183c-0.787,-0.725 -1.57,-1.45 -2.341,-2.183Zm-171.225,-21.209l2.733,4.359l-3.304,-5.288l0.571,0.929Zm144.35,-8.662l0.966,1.262l-1.687,-2.212l0.721,0.95Zm-24.542,-39.325l2.671,5.167c-0.913,-1.717 -1.8,-3.438 -2.671,-5.167Zm-146.029,-5.788l1.775,4.68c-0.608,-1.559 -1.2,-3.117 -1.775,-4.68Zm246.937,-5.583l0.617,2.921l-1.054,-4.992l0.437,2.071Zm-249.82,-2.579c0.166,0.5 0.337,0.996 0.508,1.487l-0.675,-1.983l0.167,0.496Zm248.737,-2.604l0.475,2.283l-0.9,-4.354l0.425,2.071Zm-124.129,-57.113l0.254,1.392l-0.471,-2.621l0.217,1.229Zm-1.721,-10.821l0.712,4.813c-0.249,-1.596 -0.487,-3.2 -0.712,-4.813Zm-1.592,-13.791l0.321,3.316c-0.112,-1.108 -0.221,-2.212 -0.321,-3.316Zm-0.971,-14.434l0.325,6.088c-0.129,-2.025 -0.237,-4.054 -0.325,-6.088Zm-136.262,-4.183l-0.017,3.738c-0.004,-1.242 0.004,-2.488 0.017,-3.738Zm136.025,-3.721l-0.013,-1.012l0.217,8.083l-0.204,-7.071Zm-132.688,-40.479l-0.504,3.775c0.163,-1.262 0.329,-2.521 0.504,-3.775Zm135.409,-5.987l-0.504,3.966c0.158,-1.321 0.329,-2.646 0.504,-3.966Zm95.908,-10.98l2.7,13.73c-0.883,-4.571 -1.779,-9.15 -2.7,-13.73Zm-95.608,8.775l-0.167,1.205l0.425,-2.988l-0.258,1.783Zm4.154,-23.27l-1.192,5.745c0.379,-1.904 0.775,-3.829 1.192,-5.745Zm0.696,-3.134l-0.288,1.284l0.554,-2.446l-0.266,1.162Zm0.983,-4.2l-0.254,1.067l1.458,-5.9l-1.204,4.833Zm-130.033,-15.162l-3.325,12.296c1.041,-4.109 2.15,-8.209 3.325,-12.296Zm137.587,-11.209l-6.096,20.559l6.538,-21.871l-0.442,1.312Zm72.896,5.196l2.55,11.067c-0.829,-3.696 -1.679,-7.383 -2.55,-11.067Zm-0.404,-1.712l0.254,1.066c-0.221,-0.925 -0.442,-1.85 -0.662,-2.779l0.408,1.713Zm-2.921,-11.975l1.946,7.908c-0.637,-2.646 -1.287,-5.279 -1.946,-7.908Zm-2.392,-9.354l1.963,7.645c-0.642,-2.55 -1.296,-5.095 -1.963,-7.645Zm-3.212,-11.938l3.108,11.546c-1.012,-3.867 -2.046,-7.708 -3.108,-11.546Zm-54.229,4.204l-0.404,0.942l2.458,-5.617c-0.7,1.554 -1.383,3.113 -2.054,4.675Zm7.287,-15.771l-3.687,7.7c1.196,-2.583 2.425,-5.15 3.687,-7.7Zm39.517,-13.604l5.317,17.7c-1.7,-5.912 -3.467,-11.816 -5.317,-17.7Zm-33.312,1.717l-4.363,8.229l4.967,-9.321l-0.604,1.092Zm-134.313,-4.717l4.646,-9.4l-9.1,18.934l4.454,-9.534Zm138.113,-2.012l-1.846,3.225c0.608,-1.075 1.225,-2.15 1.846,-3.225Zm22.283,-16.742l-0.567,-1.608l1.129,3.212l-0.562,-1.604Zm-10.867,-1.45l-0.287,0.425l4.4,-6.358c-1.396,1.966 -2.771,3.946 -4.113,5.933Zm9.388,-2.717c0.179,0.496 0.354,0.992 0.533,1.488l-2.162,-5.971l1.629,4.483Zm-111.629,-55.566c-6.184,8.416 -12.105,17.016 -17.746,25.779c-5.638,8.758 -11,17.679 -16.059,26.737c10.121,-18.125 21.442,-35.683 33.805,-52.516Zm107.05,51.375l-0.396,0.554l1.204,-1.675l-0.808,1.121Zm-1.125,-10.088l3.112,7.346l-1.133,1.554l1.133,-1.554l0.446,1.054l-0.408,-1.104l-3.15,-7.296Zm-96.75,-53.404l-7.759,10.2c2.534,-3.421 5.125,-6.825 7.759,-10.2Zm5.625,-7.075l-5.221,6.554l6.983,-8.725c-0.592,0.721 -1.179,1.446 -1.762,2.171Zm62.291,-6.004l4.034,9.504c-1.355,-3.167 -2.696,-6.333 -4.034,-9.504Zm-41.391,-18.267l-12.625,14.296c4.116,-4.837 8.329,-9.608 12.625,-14.296Zm29.841,-10.029c-0.216,-0.554 -0.437,-1.112 -0.654,-1.671c0.338,0.863 0.675,1.725 1.017,2.588l-0.363,-0.917Zm-6.408,-13.937l0.779,-0.746l-5.771,5.596c1.659,-1.634 3.321,-3.246 4.992,-4.85Zm673.471,-1543.4l25.8,0.791c-7.45,0.009 -14.834,-0.191 -22.146,-0.579l-3.654,-0.212Zm33.021,0.725l-3.496,0.05c1.158,-0.013 2.325,-0.03 3.496,-0.05Zm7.737,-0.217l-0.829,0.029l2.712,-0.104l-1.883,0.075Zm16.942,-0.983c-0.621,0.05 -1.238,0.095 -1.859,0.141c-0.62,0.046 -1.237,0.092 -1.854,0.134c1.229,-0.084 2.471,-0.18 3.713,-0.275Zm21.187,-2.213l-1.383,0.175l2.342,-0.304l-0.959,0.129Zm-111.358,-0.617l3.375,0.463l-6.242,-0.879l2.867,0.416Zm-17.713,-2.883c1.017,0.188 2.034,0.371 3.055,0.55c1.02,0.179 2.041,0.358 3.062,0.529l-6.117,-1.079Zm-24.412,-5.204c3.75,0.908 7.521,1.771 11.304,2.587c3.783,0.813 7.583,1.58 11.4,2.296l-22.704,-4.883Zm166.075,3.454l1.25,-4.55c-0.425,1.517 -0.842,3.033 -1.25,4.55Zm-179.838,-7.012c3.425,0.941 6.859,1.841 10.309,2.708l-13.725,-3.658l3.416,0.95Zm182.638,-2.946c-0.263,0.9 -0.525,1.8 -0.783,2.704l1.583,-5.408l-0.8,2.704Zm-196.258,-1.009l3.337,1.009l-5.654,-1.729l2.317,0.72Zm202.266,-18.42c-0.696,2.166 -1.387,4.333 -2.071,6.5l-0.625,2.004l-0.645,2.075l0.779,-2.517l0.791,-2.517c0.534,-1.679 1.067,-3.358 1.605,-5.037l0.166,-0.508c0.525,-1.634 1.054,-3.263 1.588,-4.896l-1.588,4.896Zm11.7,-35.738l0.596,-1.867l-0.662,2.063l-0.492,1.542l-1.108,3.412l-0.4,1.233l-0.655,2l-0.695,2.117l-1.355,4.121l-3.57,10.817c1.412,-4.288 2.833,-8.58 4.245,-12.871l0.413,-1.25l0.579,-1.759l0.692,-2.125l0.837,-2.566l1.017,-3.129l0.558,-1.738Zm-322.287,8.058c2.508,1.346 5.025,2.68 7.546,3.996c2.52,1.321 5.05,2.621 7.583,3.909c-5.079,-2.58 -10.117,-5.213 -15.129,-7.905Zm-36.404,-20.75c1.529,0.921 3.062,1.838 4.595,2.746c1.534,0.913 3.071,1.821 4.613,2.721l-9.208,-5.467Zm366.308,-12.595c-0.833,3.016 -1.7,6.029 -2.592,9.041c-0.891,3.009 -1.808,6.017 -2.741,9.021c1.866,-6.004 3.666,-12.025 5.333,-18.062Zm-386.696,-0c2.629,1.666 5.267,3.32 7.913,4.962c2.641,1.646 5.295,3.279 7.954,4.896c-5.325,-3.242 -10.609,-6.529 -15.867,-9.858Zm-45.55,-30.271l2.679,1.85l2.688,1.85l2.696,1.846l1.125,0.77l1.583,1.075l1.167,0.796l1.57,1.063l1.159,0.783l2.725,1.838l2.721,1.82l2.666,1.78l2.734,1.812l2.745,1.813l1.171,0.77l1.596,1.05l1.163,0.759l1.65,1.075l1.104,0.716l2.754,1.78l2.754,1.775l-2.933,-1.888l-2.175,-1.408l-2.546,-1.654l-2.542,-1.663l-1.5,-0.983l-1.037,-0.684l-2.538,-1.675l-2.4,-1.595l-2.733,-1.821l-2.892,-1.942l-2.071,-1.392l-2.512,-1.7l-5.017,-3.416l-2.5,-1.717l-2.375,-1.633l-2.679,-1.85c-1.937,-1.342 -3.867,-2.684 -5.796,-4.029l5.796,4.029Zm439.683,-2.484c-0.341,2.025 -0.708,4.05 -1.095,6.071c-0.392,2.021 -0.805,4.038 -1.238,6.054c0.867,-4.033 1.65,-8.075 2.333,-12.125Zm2.175,-16.2l-1.395,11.296c0.562,-3.75 1.029,-7.516 1.395,-11.296Zm-462.208,4.388l2.921,2.075l5.8,4.1c-1.942,-1.367 -3.875,-2.733 -5.8,-4.1l-2.921,-2.075c-0.962,-0.688 -1.929,-1.375 -2.892,-2.067c-4.095,-1.466 -8.187,-2.954 -12.3,-4.466l12.3,4.466l2.892,2.067Zm-42.012,-16.642c-2.517,-0.971 -5.03,-1.941 -7.546,-2.921c2.516,0.98 5.033,1.955 7.546,2.921l2.27,0.875l3.271,1.25l3.271,1.246l2.588,0.983c2.408,0.909 4.82,1.817 7.229,2.717l0.221,0.079c1.291,0.484 2.583,0.967 3.875,1.446l-3.875,-1.446l-3.7,-1.383l-3.892,-1.467l-3.813,-1.45l-3.725,-1.421l-3.72,-1.429Zm504.987,1.113l-0.404,6.912c0.175,-2.296 0.312,-4.6 0.404,-6.912Zm0.138,-9.188l0.004,3.596c0.008,-1.192 0.008,-2.392 -0.004,-3.596Zm-0.421,-10.358l-0.117,-1.517l0.117,1.517c0.062,0.904 0.121,1.808 0.171,2.717l-0.171,-2.717Zm-12.888,-32.554l0.713,1.616l0.625,1.43c0.229,0.525 0.454,1.05 0.683,1.579l0.746,1.725l0.404,0.946l1.558,3.662c-0.516,-1.221 -1.033,-2.446 -1.558,-3.662l-0.587,-1.367c-0.617,-1.442 -1.242,-2.879 -1.871,-4.313l-0.505,-1.141l-0.954,-2.159l0.746,1.684Zm-13.254,-28.417l8.7,18.317c-2.821,-6.138 -5.725,-12.242 -8.7,-18.317Zm-652.487,9.571c1.612,0.625 3.229,1.254 4.841,1.879c1.613,0.629 3.225,1.258 4.838,1.892c-3.229,-1.267 -6.454,-2.521 -9.679,-3.771Zm-21.613,-8.225l13.546,5.125c-4.517,-1.725 -9.029,-3.433 -13.546,-5.125Zm-76.171,-26.196c7.913,2.442 15.796,4.975 23.663,7.592c7.862,2.612 15.704,5.304 23.529,8.062c-15.638,-5.516 -31.367,-10.766 -47.192,-15.654Zm740.513,5.479l1.241,2.413l-1.82,-3.525l0.579,1.112Zm-808.629,-23.829c10.358,2.346 20.662,4.9 30.92,7.629c10.255,2.734 20.467,5.646 30.634,8.717c-20.346,-6.138 -40.846,-11.654 -61.554,-16.346Zm798.479,4.621l1.825,3.4l-2.921,-5.429l1.096,2.029Zm-4.146,-7.646l0.571,1.05l-2.059,-3.758l1.488,2.708Zm-809.008,-0.154l3.241,0.679l-7.216,-1.487l3.975,0.808Zm-74.509,-11.225l-4.162,-0.371c1.387,0.121 2.779,0.242 4.162,0.371l2.971,0.279l2.371,0.233l1.367,0.142c9.025,0.929 18.004,2.054 26.925,3.358c-8.934,-1.304 -17.909,-2.429 -26.925,-3.358l-2.038,-0.208l-2.096,-0.204l-2.125,-0.2l-0.45,-0.042Zm842.825,-60.696l4.317,7.571l-6.646,-11.671l2.329,4.1Zm-22.412,-40.087c1.529,2.8 3.062,5.6 4.604,8.391c1.546,2.796 3.096,5.588 4.65,8.375c-3.113,-5.575 -6.2,-11.166 -9.254,-16.766Zm-2031.46,-118.525c-17.854,-13.505 -36.829,-25.8 -57.17,-36.5c-109.83,-44.567 -97.975,-150.655 -97.975,-241.988c170.495,-121.15 291.133,-282.475 415.258,-440.033c-4.879,-6.592 -14.296,-19.775 -18.825,-26.367c-178.517,164.15 -383.533,301.308 -572.858,454.475c25.454,145.317 150.625,249.833 273.004,335.829l-0.346,13.813c9.983,6.45 20.117,12.7 30.4,18.741l0.292,-11.541c1.045,-27.304 1.395,-54.613 1.395,-81.917c9.217,4.85 18.155,10.025 26.825,15.488Zm1876.9,74.437l0.617,0.054l-1.896,-0.162l1.279,0.108Zm-27.908,-2.221l14.154,1.071c-4.716,-0.379 -9.433,-0.733 -14.154,-1.071Z" style="fill:#cbd9e6;fill-opacity:0.8;fill-rule:nonzero;stroke:#fff;stroke-width:4.17px;"></path><path d="M5309.17,7120.25c-48.067,-80.271 -116.513,-156.063 -134.85,-246.683l-2.105,-3.171c-88.833,-134.429 -151.374,-282.354 -204.304,-430.588l19.35,-1.566c-7.233,0.55 -14.466,1.096 -19.35,1.566l-13.595,1.259c-5.58,-19.775 -16.388,-59.321 -21.621,-79.096c-0.65,-10.396 -1.579,-27.046 -2.438,-42.054c0.859,15.008 1.788,31.658 2.438,42.054c-287.646,-661.933 -454.654,-1363.42 -537.988,-2069.29c-56.133,-396.408 -44.629,-796.896 -34.166,-1195.5c58.92,-779.946 232.208,-1587.51 741.954,-2237.84c222.796,-257.68 509.05,-504.063 871.662,-580.33l3.309,-1.054c281.558,-89.154 594.341,-65.45 872.533,23.338c123.775,32.641 233.258,96.671 357.033,129c6.971,28.558 13.946,57.121 20.921,85.683c-290.438,-65.912 -597.962,-118.012 -894.325,-48.021c-114.012,23.538 -216.171,76.267 -326,109.85c-16.738,-0.629 -50.558,-1.883 -67.642,-2.508l67.642,2.508c-404.8,222.842 -696.979,579.075 -881.421,967.638c-40.1,103.258 -99.721,202.125 -106.346,313.233c-70.079,65.283 -78.795,159.758 -109.829,241.988c-241.971,824.829 -245.458,1693.29 -107.737,2533.18c89.608,512.85 226.283,1020.05 428.858,1506.54l-2.442,12.867l4.588,9.171c96.121,192.6 182.525,389.312 284.804,579.633c29.288,55.242 61.713,108.596 94.838,161.954c-14.992,24.796 -29.288,50.217 -43.934,75.325c14.296,-12.554 42.888,-37.975 57.184,-50.845c50.454,83.112 100.57,166.225 155.333,247.233l2.608,3.858c15.692,22.284 32.079,44.884 48.467,67.167c308.217,432.817 688.958,841.462 1190.69,1099.46c192.809,86.942 397.825,186.121 620.271,163.838c11.159,9.412 33.821,27.617 44.979,36.721c320.771,28.245 653.046,-41.43 907.921,-223.471l20.571,4.396c39.05,8.158 78.45,16.945 118.196,26.362c-90.65,85.058 -211.638,152.225 -257.663,267.725l-8.016,15.379c-235,156.617 -521.95,256.113 -816.921,251.092c-442.104,13.179 -854.225,-181.413 -1192.43,-422.146c-466.513,-348.7 -825.638,-798.779 -1115.38,-1274.91l-1.671,-3.429c-8.842,-18.084 -24.675,-49.438 -32.846,-65.621l-1.129,-1.896Zm2024.42,1383.52c93.096,59.633 205.362,90.391 320.425,81.291c-41.492,-86.625 -151.321,-44.57 -224.542,-82.862c-24.058,0.317 -72.171,1.258 -95.883,1.571Zm1485.31,-320.138c14.646,0 43.933,-0.317 58.575,-0.629c19.179,39.233 5.929,100.437 -45.325,112.992c-47.071,-15.38 -25.45,-80.663 -13.25,-112.363Zm-3066.23,-1012.38l6.621,1.566c-2.196,-0.533 -4.404,-1.054 -6.621,-1.566Zm-401.85,-20.625c-0.271,2.016 -0.542,4.033 -0.821,6.05l2.125,-16.142l-1.304,10.092Zm319.917,4.146l2.291,0.466l-3.966,-0.816l1.675,0.35Zm-66.946,-17.734l2.071,0.725l-12.225,-4.55l10.154,3.825Zm-250.217,-8.358l-0.542,4.533l0.925,-7.833l-0.383,3.3Zm222.417,-3.3l-1.904,-0.954l3.82,1.887c-0.641,-0.308 -1.279,-0.621 -1.916,-0.933Zm-29.379,-17.908c2.266,1.7 4.575,3.341 6.92,4.929c2.35,1.583 4.738,3.112 7.163,4.587c-4.858,-2.954 -9.554,-6.116 -14.083,-9.516Zm-20.438,-18.35c2.917,3.141 5.946,6.129 9.075,8.97c3.129,2.842 6.363,5.538 9.688,8.105c-6.65,-5.13 -12.93,-10.796 -18.763,-17.075Zm-219.308,1.17c0.483,4.975 0.991,9.959 1.525,14.938c-0.534,-4.975 -1.042,-9.95 -1.525,-14.938Zm55.475,-62.866c-0.659,11.379 -1.417,22.75 -2.284,34.116c-0.87,11.367 -1.845,22.725 -2.941,34.08c2.196,-22.717 3.908,-45.446 5.225,-68.196Zm162.691,60.454c0.255,0.283 0.513,0.562 0.767,0.842l-1.592,-1.759l0.825,0.917Zm-1.77,-2.721c0.137,0.404 0.275,0.808 0.416,1.213l-0.55,-1.621l0.134,0.408Zm-219.567,-31.596c0.687,9.05 1.437,18.104 2.267,27.15c-0.68,-7.421 -1.305,-14.841 -1.888,-22.246l-0.379,-4.904Zm216.354,20.321l1.108,4.367l-1.233,-4.9l0.125,0.533Zm-0.846,-3.829l0.35,1.658l-0.979,-4.925l0.629,3.267Zm-1.654,-9.863l-0.4,-3.308c0.121,1.096 0.254,2.204 0.4,3.308Zm-0.246,-47.254c-0.483,5.421 -0.846,10.825 -1.033,16.213c-0.192,5.387 -0.204,10.754 0.012,16.096c-0.433,-10.688 0.059,-21.471 1.021,-32.309Zm-153.716,-9.658l-0.93,18.479c0.338,-6.162 0.65,-12.321 0.93,-18.479Zm0.395,-9.008c-0.058,1.391 -0.116,2.783 -0.179,4.175l0.696,-17.675l-0.517,13.5Zm1.292,-39.321l-0.096,3.641l0.163,-6.5l-0.067,2.859Zm0.754,-51.071c-0.029,5.321 -0.075,10.642 -0.133,15.962c0.058,-5.32 0.104,-10.641 0.133,-15.962c0.046,-8.079 0.063,-16.163 0.05,-24.242l-0.05,24.242Zm159.338,-4.238l0.066,0.605l-0.183,-1.563l0.117,0.958Zm-350.171,-31.004l-0.217,1.238l0.217,-1.238Zm0.687,-3.975l-0.254,1.496l0.254,-1.496Zm0.65,-3.854l-0.266,1.621l0.266,-1.621Zm0.625,-3.825l-0.27,1.696l0.27,-1.696Zm0.609,-3.821l-0.275,1.754l0.275,-1.754Zm0.591,-3.829l-0.275,1.804l0.275,-1.804Zm0.575,-3.837l-0.27,1.85l0.27,-1.85Zm0.559,-3.85l-0.271,1.891l0.271,-1.891Zm0.537,-3.863l-0.262,1.938l0.262,-1.938Zm0.525,-3.875l-0.262,1.979l0.262,-1.979Zm0.504,-3.887l-0.258,2.02l0.258,-2.02Zm0.488,-3.9l-0.254,2.062l0.254,-2.062Zm0.471,-3.913l-0.25,2.108l0.25,-2.108Zm0.45,-3.925l-0.242,2.154l0.242,-2.154Zm0.429,-3.933l-0.238,2.196l0.238,-2.196Zm309.762,-7.092l3.792,8.029c-1.246,-2.683 -2.512,-5.358 -3.792,-8.029Zm-309.354,3.146l-0.225,2.246l0.225,-2.246Zm0.392,-3.954l-0.221,2.287l0.221,-2.287Zm0.371,-3.967l-0.213,2.338l0.213,-2.338Zm302.033,-8.554l4.688,9.458c-1.542,-3.162 -3.105,-6.316 -4.688,-9.458Zm-301.687,4.583l-0.205,2.384l0.205,-2.384Zm0.329,-3.983l-0.196,2.433l0.196,-2.433Zm0.304,-3.992l-0.183,2.488l0.183,-2.488Zm0.371,-5.3c-0.084,1.292 -0.171,2.567 -0.263,3.842l0.263,-3.842Zm0.112,-1.733l-0.104,1.65l0.104,-1.65Zm294.775,-0.863c0.329,0.63 0.654,1.255 0.984,1.884l-5.605,-10.613l4.621,8.729Zm-294.65,-1.141l-0.104,1.679l0.104,-1.679Zm0.117,-2.004l-0.1,1.704l0.1,-1.704Zm0.112,-2.005l-0.095,1.73l0.095,-1.73Zm0.105,-2.008l-0.092,1.758l0.092,-1.758Zm0.1,-2.008l-0.088,1.787l0.088,-1.787Zm0.095,-2.009l-0.083,1.813l0.083,-1.813Zm0.088,-2.012l-0.079,1.842l0.079,-1.842Zm0.079,-2.013l-0.075,1.871l0.075,-1.871Zm0.079,-2.012l-0.071,1.896l0.071,-1.896Zm0.067,-2.013l-0.067,1.925l0.067,-1.925Zm0.062,-2.012l-0.058,1.95l0.058,-1.95Zm0.059,-2.017l-0.059,1.979l0.059,-1.979Zm-155.6,-312.033c125.625,61.608 158.837,188.596 155.6,312.025c3.237,-123.421 -29.975,-250.408 -155.6,-312.025Zm421.971,286.175l13.737,24.021c-4.487,-8.038 -9.079,-16.046 -13.737,-24.021Zm-2.688,-4.588l-13.146,-22.075l-29.808,-49.158l38.308,63.433l4.646,7.8Zm-89.512,-88.612l1.258,42.95c-0.425,-14.325 -0.854,-28.638 -1.258,-42.95Zm-69.963,16.2c0.167,3.229 0.329,6.471 0.483,9.712c-0.154,-3.233 -0.312,-6.475 -0.483,-9.712Zm96.204,-33.004l9.913,16.837c-3.334,-5.604 -6.642,-11.212 -9.913,-16.837Zm-110.683,-121.529c6.092,41.816 10.092,83.783 12.812,125.833c-2.72,-42.071 -6.725,-84.025 -12.812,-125.833Zm94.887,93.641c0.959,1.742 1.921,3.479 2.884,5.217l-3.838,-6.954l0.954,1.737Zm-10.912,-20.4l0.629,1.204l-1.842,-3.55l1.213,2.346Zm-15.571,-40.671c3.121,7.888 6.133,15.792 9.058,23.713l3.775,10.346c-1.241,-3.446 -2.5,-6.896 -3.775,-10.346c-2.92,-7.921 -5.937,-15.829 -9.058,-23.712Zm-11.392,-27.43l7.988,18.959c-2.583,-6.346 -5.242,-12.667 -7.988,-18.959Zm-59.087,-15.012l0.812,1.358l-0.812,-1.358Zm-0.813,-1.354l0.542,0.904l-0.542,-0.904Zm-0.825,-1.346l0.496,0.808l-0.496,-0.808Zm-0.829,-1.342l0.475,0.767l-0.475,-0.767Zm-0.833,-1.337l0.462,0.741l-0.462,-0.741Zm-0.846,-1.329l0.463,0.725l-0.463,-0.726Zm-0.846,-1.325l0.454,0.713l-0.454,-0.713Zm-0.858,-1.316l0.458,0.704l-0.458,-0.704Zm-0.863,-1.309l0.459,0.692l-0.459,-0.692Zm-0.866,-1.308l0.458,0.688l-0.458,-0.688Zm-0.875,-1.3l0.458,0.683l-0.458,-0.683Zm-0.879,-1.292l0.458,0.676l-0.458,-0.676Zm-0.888,-1.287l0.463,0.671l-0.463,-0.671Zm-0.896,-1.283l0.463,0.666l-0.463,-0.666Zm-0.9,-1.275l0.467,0.662l-0.467,-0.662Zm-0.908,-1.271l0.471,0.658l-0.471,-0.658Zm-0.913,-1.263l0.475,0.65l-0.475,-0.65Zm-0.916,-1.258l0.475,0.646l-0.475,-0.646Zm-0.925,-1.254l0.475,0.646l-0.475,-0.646Zm-0.934,-1.246l0.48,0.642l-0.48,-0.642Zm-0.937,-1.242l0.483,0.638l-0.483,-0.638Zm-0.942,-1.233l0.484,0.633l-0.484,-0.633Zm-0.95,-1.229l0.488,0.629l-0.488,-0.629Zm-0.954,-1.225l0.488,0.625l-0.488,-0.625Zm-0.962,-1.217l0.491,0.621l-0.491,-0.621Zm56.266,-4.042l-0.858,-1.579l2.958,5.5c-0.696,-1.308 -1.396,-2.616 -2.1,-3.921Zm-57.233,2.83l0.496,0.62l-0.496,-0.62Zm-0.975,-1.209l0.5,0.617l-0.5,-0.617Zm-0.979,-1.2l0.5,0.613l-0.5,-0.613Zm-0.988,-1.195l0.509,0.612l-0.509,-0.613Zm-0.991,-1.191l0.508,0.608l-0.508,-0.608Zm-0.996,-1.184l0.512,0.609l-0.512,-0.609Zm-1.004,-1.179l0.516,0.604l-0.516,-0.604Zm-1.009,-1.171l0.517,0.601l-0.517,-0.6Zm55.396,-10.121l5.708,10.021l-6.837,-11.946l1.129,1.925Zm-56.408,8.95l0.521,0.6l-0.521,-0.6Zm-1.021,-1.159l0.521,0.592l-0.521,-0.592Zm-1.025,-1.158l0.525,0.592l-0.525,-0.592Zm-1.033,-1.15l0.529,0.587l-0.529,-0.587Zm-211.888,-0.721l1.942,0.946l-0.95,-0.467l-0.992,-0.479Zm210.85,-0.425l0.533,0.588l-0.533,-0.588Zm-212.862,-0.533l1.879,0.896l-0.921,-0.442l-0.958,-0.454Zm211.82,-0.609l0.534,0.588l-0.534,-0.587Zm-213.841,-0.338l1.808,0.846l-0.892,-0.421l-0.916,-0.425Zm-2.042,-0.933l1.738,0.796l-0.859,-0.4l-0.879,-0.396Zm214.833,0.137l0.538,0.584l-0.538,-0.584Zm-216.887,-1.062l1.667,0.746l-0.83,-0.371l-0.837,-0.375Zm215.833,-0.067l0.542,0.579l-0.542,-0.579Zm-217.9,-0.846l1.588,0.7l-0.792,-0.354l-0.796,-0.346Zm216.842,-0.279l0.546,0.579l-0.546,-0.579Zm-218.925,-0.621l1.504,0.65l-0.754,-0.329l-0.75,-0.321Zm217.858,-0.496l0.55,0.575l-0.55,-0.575Zm-219.958,-0.391l1.421,0.6l-0.717,-0.305l-0.704,-0.295Zm218.887,-0.721l0.555,0.571l-0.555,-0.571Zm-221,-0.158l1.334,0.554l-0.675,-0.284l-0.659,-0.27Zm-2.133,-0.867l1.246,0.504l-0.633,-0.258l-0.613,-0.246Zm222.058,-0.083l0.555,0.57l-0.555,-0.57Zm-224.2,-0.771l1.15,0.458l-0.587,-0.238l-0.563,-0.22Zm223.117,-0.334l0.558,0.571l-0.558,-0.571Zm-1.083,-1.095l0.558,0.566l-0.558,-0.566Zm-1.096,-1.092l0.567,0.562l-0.567,-0.562Zm-1.096,-1.088l0.567,0.563l-0.567,-0.563Zm-1.104,-1.079l0.571,0.559l-0.571,-0.559Zm-1.108,-1.075l0.575,0.554l-0.575,-0.554Zm-1.113,-1.071l0.579,0.555l-0.579,-0.555Zm-1.117,-1.066l0.58,0.554l-0.58,-0.554Zm-1.125,-1.059l0.584,0.55l-0.584,-0.55Zm-1.129,-1.058l0.588,0.55l-0.588,-0.55Zm-1.133,-1.05l0.592,0.546l-0.592,-0.546Zm-1.142,-1.042l0.596,0.542l-0.596,-0.542Zm-1.141,-1.041l0.595,0.541l-0.595,-0.541Zm-1.15,-1.034l0.6,0.538l-0.6,-0.538Zm-1.155,-1.029l0.605,0.538l-0.605,-0.538Zm-1.158,-1.025l0.608,0.538l-0.608,-0.538Zm-1.167,-1.021l0.613,0.534l-0.613,-0.534Zm-1.166,-1.012l0.612,0.533l-0.612,-0.533Zm-1.175,-1.013l0.616,0.534l-0.616,-0.534Zm-1.179,-1.004l0.62,0.529l-0.62,-0.529Zm72.179,-4.5l2.879,4.259c-0.95,-1.425 -1.908,-2.846 -2.879,-4.259Zm-73.363,3.5l0.625,0.529l-0.625,-0.529Zm-1.191,-0.991l0.633,0.525l-0.633,-0.525Zm-1.192,-0.992l0.633,0.525l-0.633,-0.525Zm-1.2,-0.984l0.637,0.526l-0.637,-0.525Zm-1.204,-0.98l0.646,0.521l-0.646,-0.521Zm-1.204,-0.975l0.645,0.521l-0.645,-0.521Zm-1.213,-0.97l0.65,0.52l-0.65,-0.52Zm-1.221,-0.967l0.654,0.521l-0.654,-0.521Zm77.842,-2.317l-1.338,-1.883l2.663,3.767c-0.442,-0.634 -0.883,-1.259 -1.325,-1.884Zm-79.063,1.359l0.659,0.516l-0.659,-0.516Zm-1.225,-0.955l0.663,0.513l-0.663,-0.513Zm-1.233,-0.954l0.667,0.517l-0.667,-0.517Zm-1.233,-0.946l0.671,0.513l-0.671,-0.513Zm-1.242,-0.941l0.675,0.512l-0.675,-0.512Zm-1.246,-0.934l0.684,0.509l-0.684,-0.509Zm-1.25,-0.933l0.688,0.508l-0.688,-0.508Zm-1.254,-0.929l0.692,0.512l-0.692,-0.512Zm-1.258,-0.921l0.696,0.508l-0.696,-0.508Zm-1.263,-0.917l0.7,0.509l-0.7,-0.509Zm-1.266,-0.912l0.704,0.504l-0.704,-0.504Zm-1.271,-0.913l0.712,0.509l-0.712,-0.509Zm-1.275,-0.904l0.716,0.508l-0.716,-0.508Zm-1.279,-0.896l0.72,0.505l-0.72,-0.505Zm-1.288,-0.895l0.729,0.504l-0.729,-0.504Zm-1.287,-0.892l0.733,0.504l-0.733,-0.504Zm-1.296,-0.888l0.741,0.509l-0.741,-0.509Zm-1.296,-0.879l0.746,0.504l-0.746,-0.504Zm-1.304,-0.879l0.754,0.508l-0.754,-0.508Zm-1.304,-0.871l0.758,0.504l-0.758,-0.504Zm-1.313,-0.871l0.767,0.509l-0.767,-0.509Zm90.596,-1.637l1.083,1.375l-1.687,-2.138l0.604,0.763Zm-91.908,0.775l0.77,0.508l-0.77,-0.508Zm-1.321,-0.863l0.783,0.509l-0.783,-0.509Zm-1.325,-0.854l0.791,0.509l-0.791,-0.509Zm-1.325,-0.85l0.796,0.509l-0.796,-0.509Zm-1.334,-0.85l0.809,0.513l-0.809,-0.513Zm-1.337,-0.841l0.817,0.512l-0.817,-0.512Zm-1.342,-0.838l0.829,0.517l-0.829,-0.517Zm-1.346,-0.837l0.842,0.52l-0.842,-0.52Zm-1.345,-0.83l0.85,0.521l-0.85,-0.521Zm-1.359,-0.829l0.863,0.525l-0.863,-0.525Zm-1.358,-0.821l0.879,0.53l-0.879,-0.53Zm-1.363,-0.82l0.892,0.533l-0.892,-0.533Zm-1.366,-0.817l0.904,0.537l-0.904,-0.537Zm-1.375,-0.813l0.921,0.546l-0.921,-0.546Zm-1.379,-0.808l0.941,0.55l-0.941,-0.55Zm-1.384,-0.804l0.963,0.558l-0.963,-0.558Zm-1.391,-0.804l0.987,0.566l-0.987,-0.566Zm-0.684,-0.392l0.3,0.171l-0.3,-0.171Zm-2.737,-1.558l0.241,0.137l-0.241,-0.137Zm-3.259,-1.817l1.475,0.821l-0.804,-0.45l-0.671,-0.371Zm-2.783,-1.529l1.483,0.812l-0.795,-0.441l-0.688,-0.371Zm-2.8,-1.517l1.496,0.804l-0.792,-0.429l-0.704,-0.375Zm-2.808,-1.5l1.5,0.8l-0.784,-0.421l-0.716,-0.379Zm110.25,-0.762l-1.317,-1.429l1.713,1.862l-0.396,-0.433Zm-113.075,-0.717l1.512,0.792l-0.779,-0.413l-0.733,-0.379Zm-2.838,-1.467l1.521,0.784l-0.767,-0.4l-0.754,-0.384Zm-2.85,-1.45l1.534,0.775l-0.763,-0.387l-0.771,-0.388Zm-2.858,-1.437l1.542,0.771l-1.542,-0.771Zm-2.875,-1.421l1.554,0.767l-0.75,-0.371l-0.804,-0.396Zm-2.883,-1.404l1.562,0.758l-0.742,-0.362l-0.82,-0.396Zm-2.896,-1.388l1.571,0.75l-0.734,-0.354l-0.837,-0.396Zm-2.904,-1.375l1.579,0.746l-0.725,-0.346l-0.854,-0.4Zm-2.921,-1.358l1.591,0.738l-0.716,-0.334l-0.875,-0.404Zm111.237,-12.687l12.813,12.15c-4.146,-4.13 -8.417,-8.184 -12.813,-12.15Zm-114.162,11.341l1.6,0.733l-0.709,-0.329l-0.891,-0.404Zm-2.942,-1.329l1.613,0.725l-0.7,-0.317l-0.913,-0.408Zm-2.946,-1.317l1.621,0.721l-0.696,-0.308l-0.925,-0.413Zm-2.958,-1.3l1.629,0.713l-0.683,-0.3l-0.946,-0.413Zm-2.971,-1.287l1.642,0.708l-0.675,-0.291l-0.967,-0.417Zm-2.975,-1.271l1.646,0.7l-0.663,-0.283l-0.983,-0.417Zm-2.987,-1.262l1.658,0.7l-0.658,-0.28l-1,-0.42Zm-2.996,-1.242l1.666,0.687l-0.645,-0.27l-1.021,-0.417Zm-3.004,-1.233l1.675,0.683l-0.638,-0.263l-1.037,-0.42Zm-3.017,-1.217l1.687,0.679l-0.625,-0.258l-1.062,-0.421Zm-3.021,-1.208l1.696,0.675l-0.617,-0.246l-1.079,-0.429Zm-3.029,-1.192l1.708,0.671l-0.608,-0.242l-1.1,-0.429Zm-3.038,-1.175l1.717,0.662l-0.6,-0.233l-1.117,-0.429Zm-3.045,-1.167l1.725,0.659l-0.588,-0.23l-1.137,-0.429Zm140.32,-6.15l-1.854,-1.512l9.246,7.754l-7.392,-6.242Zm-143.375,4.996l1.738,0.654l-0.579,-0.221l-1.159,-0.433Zm-3.058,-1.142l1.746,0.65l-0.567,-0.212l-1.179,-0.438Zm-3.067,-1.125l1.755,0.642l-0.555,-0.204l-1.2,-0.438Zm-3.075,-1.116l1.767,0.637l-0.546,-0.2l-1.221,-0.437Zm-3.079,-1.104l1.775,0.633l-0.533,-0.192l-1.242,-0.441Zm-3.087,-1.088l1.787,0.629l-0.525,-0.187l-1.262,-0.442Zm-3.092,-1.079l1.796,0.621l-0.513,-0.179l-1.283,-0.442Zm-3.1,-1.071l1.808,0.621l-0.504,-0.175l-1.304,-0.446Zm-3.104,-1.054l1.817,0.617l-0.488,-0.171l-1.329,-0.446Zm-3.108,-1.046l1.829,0.613l-0.479,-0.163l-1.35,-0.45Zm163.6,-0.979l-1.892,-1.242l3.787,2.5l-1.895,-1.258Zm-166.713,-0.05l1.838,0.604l-0.471,-0.154l-1.367,-0.45Zm-3.121,-1.025l1.85,0.604l-0.458,-0.15l-1.392,-0.454Zm-3.125,-1.008l1.859,0.6l-0.442,-0.146l-1.417,-0.454Zm-3.129,-1.001l1.871,0.596l-0.433,-0.137l-1.438,-0.458Zm-3.133,-0.988l1.883,0.592l-0.421,-0.134l-1.462,-0.458Zm-3.138,-0.979l1.892,0.587l-0.408,-0.129l-1.484,-0.458Zm-3.141,-0.967l1.904,0.583l-0.396,-0.12l-1.508,-0.463Zm172.637,-2.067l3.304,2c-1.096,-0.67 -2.2,-1.337 -3.304,-2Zm-175.779,1.109l1.912,0.583l-1.912,-0.583Zm-3.15,-0.946l1.929,0.579l-1.929,-0.579Zm-3.15,-0.938l1.937,0.575l-1.937,-0.575Zm-3.154,-0.925l1.95,0.571l-1.95,-0.571Zm-3.159,-0.916l1.963,0.566l-1.963,-0.566Zm-3.158,-0.909l1.975,0.567l-1.975,-0.567Zm-3.162,-0.895l1.987,0.562l-1.987,-0.562Zm-3.163,-0.892l2,0.562l-2,-0.562Zm-3.167,-0.879l2.013,0.558l-2.013,-0.558Zm-3.17,-0.867l2.029,0.554l-2.029,-0.554Zm-3.167,-0.862l2.042,0.554l-2.042,-0.554Zm-3.171,-0.855l2.058,0.555l-2.058,-0.555Zm-3.175,-0.841l2.075,0.55l-2.075,-0.55Zm-3.171,-0.838l2.088,0.55l-2.088,-0.55Zm-3.175,-0.825l2.104,0.546l-2.104,-0.546Zm-3.179,-0.821l2.129,0.546l-2.129,-0.546Zm-3.175,-0.808l2.146,0.546l-2.146,-0.546Zm-3.179,-0.804l2.167,0.546l-2.167,-0.546Zm-3.179,-0.796l2.191,0.546l-2.191,-0.546Zm-3.184,-0.792l2.217,0.55l-2.217,-0.55Zm-22.975,-5.487l0.205,3.246l0.166,2.762c-0.129,-2.175 -0.254,-4.191 -0.371,-6.008Zm19.788,4.704l2.25,0.554l-2.25,-0.554Zm-3.196,-0.775l2.292,0.554l-2.292,-0.554Zm-3.204,-0.775l2.346,0.567l-2.346,-0.567Zm-3.229,-0.771l2.425,0.579l-2.425,-0.579Zm-3.309,-0.783l2.588,0.612l-2.588,-0.612Zm-3.704,-0.867l3.146,0.734l-3.146,-0.734Zm214.534,-1.179l-1.5,-0.662l3.466,1.537c-0.654,-0.292 -1.308,-0.583 -1.966,-0.875Zm61.737,-23.829l0.671,-5.433l-3.167,27.183l2.496,-21.75Zm-86.742,13.696l3.5,1.316c-1.166,-0.445 -2.333,-0.883 -3.5,-1.316Zm-29.712,-10.021l26.583,8.871c-8.758,-3.188 -17.625,-6.134 -26.583,-8.871Zm-6.558,-1.963l-2.192,-0.637l6.567,1.937c-1.455,-0.437 -2.913,-0.87 -4.375,-1.3Zm-30.967,-8.275l6.679,1.659c-2.217,-0.563 -4.446,-1.117 -6.679,-1.659Zm-127.546,-4.283l0.279,4.283l-0.616,-9.312l0.337,5.029Zm118.604,2.158l1.121,0.259l-2.562,-0.592l1.441,0.333Zm-55.675,-11.27l13.296,2.508l29.371,5.85l-16.367,-3.4l-13.004,-2.45l-5.796,-1.158l-7.5,-1.35l-1.312,-0.246l-4.038,-0.717l5.35,0.963Zm-44.858,-7.575l17.212,2.808c-5.75,-0.95 -11.487,-1.883 -17.212,-2.808Zm268.612,-10.459l-1.916,13.196c0.612,-4.4 1.254,-8.8 1.916,-13.196Zm4.688,-28.737l-1.475,8.579l2.017,-11.604c-0.184,1.008 -0.363,2.016 -0.542,3.025Zm6.458,-33.434l-3.279,16.234l3.829,-18.825l-0.55,2.591Zm-262.387,-4327.58l-3.35,1.979c1.129,-0.646 2.246,-1.308 3.35,-1.979Zm5.816,-3.729l-3.479,2.275l4.559,-3.008l-1.08,0.733Zm-3.237,-45.288c-1.217,6.138 -2.338,12.284 -3.371,18.425l3.617,-19.654l-0.246,1.229Zm42.158,7.225l0.504,-0.695l-1.3,1.791l0.796,-1.096Zm3.904,-5.608l-2.795,4.067l3.641,-5.346l-0.846,1.279Zm5.934,-9.446l-1.842,3.059c0.621,-1.013 1.233,-2.034 1.842,-3.059Zm-48.742,-7.412l-0.9,4.012c0.292,-1.341 0.592,-2.679 0.9,-4.012Zm61.858,-18.513c-1.162,2.675 -2.366,5.329 -3.612,7.954c-1.246,2.625 -2.533,5.221 -3.871,7.788c2.671,-5.133 5.158,-10.388 7.483,-15.742Zm1.838,-4.325l-1.413,3.346l2.163,-5.171l-0.75,1.825Zm-53.054,-15.683l-0.838,2.558l1.567,-4.75l-0.729,2.192Zm3.066,-8.888l-1.4,3.959c0.459,-1.325 0.925,-2.646 1.4,-3.959Zm5,-13.02l-4.262,10.991c1.354,-3.691 2.775,-7.358 4.262,-10.991Zm5.25,-12.08l-1.829,4.05c0.6,-1.354 1.209,-2.7 1.829,-4.05Zm58.384,-8.237l-2.071,7.917c0.704,-2.634 1.396,-5.275 2.071,-7.917Zm-51.284,-6.058l-3.75,7.291c1.217,-2.45 2.467,-4.883 3.75,-7.291Zm54.867,-8.584c-0.983,4.179 -2,8.363 -3.054,12.55l3.546,-14.637l-0.492,2.087Zm4.442,-19.504l-2.204,9.842c0.745,-3.292 1.479,-6.575 2.204,-9.842Zm-43.254,1.954c-0.913,1.3 -1.817,2.609 -2.705,3.921l3.1,-4.479l-0.395,0.558Zm54.612,-52.191c-1.862,7.508 -3.637,15.258 -5.404,23.179c-1.767,7.916 -3.517,16.008 -5.321,24.191c3.608,-16.366 7.004,-32.358 10.725,-47.37Zm-40.092,33.695l-1.804,2.092c0.596,-0.7 1.196,-1.396 1.804,-2.092Zm12.005,-12.691l0.987,-0.959l-8.792,8.98l7.805,-8.021Zm15.95,-14.125l-9.946,8.483c3.2,-2.9 6.512,-5.725 9.946,-8.483Zm969.991,-1088.81c-7.371,3.475 -14.721,6.971 -22.054,10.484c-7.333,3.508 -14.65,7.033 -21.95,10.566l44.004,-21.05Zm14.842,-6.958l-7.467,3.488l18.496,-8.596l-11.029,5.108Zm30.887,-14.154c-1.862,0.837 -3.72,1.679 -5.575,2.521l11.163,-5.029l-5.588,2.508Zm75.692,-32.25l-32.021,13.154l34.075,-13.971l-2.054,0.817Zm34.746,-13.329l-20.267,7.65c6.738,-2.604 13.492,-5.154 20.267,-7.65Zm40.971,-14.275l-33.904,11.7l37.212,-12.779l-3.308,1.079Zm35.454,-10.959c-1.829,0.53 -3.654,1.067 -5.479,1.605l8.587,-2.5l-3.108,0.895Zm14.95,-4.2l-2.192,0.6l4.371,-1.191l-2.179,0.591Zm63.529,-14.883l-3.6,0.708l5.383,-1.05c-0.595,0.113 -1.187,0.225 -1.783,0.342Zm18.692,-3.412l-9.05,1.6c2.996,-0.55 6.021,-1.084 9.05,-1.6Zm30.166,-4.525l-20.091,2.879c6.687,-1.05 13.379,-2.009 20.091,-2.879Zm22.25,-2.542l-4.041,0.408c1.337,-0.137 2.687,-0.275 4.041,-0.408Zm11.121,-1.013c-0.854,0.071 -1.708,0.142 -2.566,0.217l5.133,-0.429l-2.567,0.212Zm288.438,-1.979c10.146,0.125 20.3,0.217 30.454,0.267l-36.271,-0.338l5.817,0.071Zm-253.634,-0.183l-7.425,0.371c2.475,-0.134 4.95,-0.254 7.425,-0.371Zm19.355,-0.8l-14.755,0.587c4.917,-0.22 9.834,-0.412 14.755,-0.587Zm375.566,-0.871l3.621,-0.187l-25.475,1.12l21.854,-0.933Zm-258.254,-0.021l23.821,0.338c-7.938,-0.129 -15.879,-0.242 -23.821,-0.338Zm-51.629,-0.275l4,-0.008l-15.871,0.067l11.871,-0.059Zm384.775,-5.612l3.958,-0.45l-7.912,0.879c1.316,-0.142 2.637,-0.288 3.954,-0.429Zm15.825,-1.879l-9.804,1.191c3.258,-0.379 6.529,-0.779 9.804,-1.191Zm-22.3,-10.867l2.212,1.058l-3.708,-1.771l1.496,0.713Zm-74.696,-33.375l20.908,8.875c-6.945,-3.008 -13.916,-5.967 -20.908,-8.875Zm-9.867,-4.058c1.092,0.445 2.184,0.891 3.271,1.337l-6.608,-2.692l3.337,1.355Zm-81.733,-30.471l9.95,3.408c-3.308,-1.146 -6.625,-2.283 -9.95,-3.408Zm-80.967,-24.563l31.08,8.759c-10.321,-3.046 -20.68,-5.967 -31.08,-8.759Zm-6.966,-1.846l-20.859,-5.279l24.359,6.2l-3.5,-0.921Zm-27.229,-6.816c0.958,0.229 1.916,0.458 2.879,0.691l-16.979,-3.962l14.1,3.271Zm-90.28,-17.838l17.375,2.946l46.125,9.013l11.98,2.45l-46.084,-9.425l-16.458,-2.905l-12.938,-2.079Zm-540.42,10.029l-7.784,0.046c2.596,-0.008 5.192,-0.025 7.784,-0.046Zm13.004,-0.154c6.929,-0.108 13.858,-0.258 20.783,-0.446c6.929,-0.187 13.854,-0.412 20.775,-0.666l-41.558,1.112Zm105.954,-4.296l-18.7,1.067c6.229,-0.337 12.467,-0.696 18.7,-1.067Zm80.954,-5.341l-16.079,1.108l27.337,-1.883l-11.258,0.775Zm41.521,-2.817l-24.829,1.671l33.121,-2.213l-8.292,0.542Zm264.717,-2.3l21.054,2.85c-7.013,-1.017 -14.029,-1.967 -21.054,-2.85Zm-161.959,-3.133l-26.85,1.079c8.963,-0.408 17.904,-0.771 26.85,-1.079Zm34.521,-0.884l-4.421,0.075l12.463,-0.187l-8.042,0.112Zm16.35,-0.187l4.154,-0.021l-8.308,0.054c1.387,-0.012 2.771,-0.025 4.154,-0.033Zm-1098.97,6783.75c-1.158,-16.358 -2.108,-32.733 -2.9,-49.113c0.871,18.021 1.934,36.03 3.25,54.021l-0.35,-4.908Zm-3.358,-58.946c-0.367,-8.191 -0.692,-16.387 -0.992,-24.587c0.359,9.837 0.759,19.671 1.217,29.504l-0.225,-4.917Zm-1.646,-44.266c-1.654,-54.13 -2.154,-108.334 -3.196,-162.496c1.071,55.796 1.571,111.641 3.35,167.416l-0.154,-4.921Zm-3.825,-192.037l0.225,9.846l0.208,9.846c-0.133,-6.575 -0.275,-13.134 -0.433,-19.692Zm-0.65,-24.604c0.046,1.646 0.092,3.283 0.142,4.921l0.262,9.841c-0.125,-4.933 -0.262,-9.845 -0.404,-14.762Z" style="fill:#cbd9e6;fill-rule:nonzero;stroke:#fff;stroke-width:4.17px;"></path><path d="M1384.33,8283.46c318.679,115.5 669.087,131.192 1006.94,92.9c-38.354,104.834 -180.259,93.846 -278.584,113.621c-160.037,29.5 -308.916,-36.408 -457.446,-77.525c-95.533,-25.737 -236.045,-25.737 -270.912,-128.996Z" style="fill:#cbd9e6;fill-rule:nonzero;stroke:#fff;stroke-width:4.17px;"></path><path d="M7333.58,8503.79c23.713,-0.313 71.825,-1.254 95.884,-1.571c73.221,38.292 183.05,-3.763 224.541,82.862c-115.062,9.1 -227.329,-21.658 -320.425,-81.291Z" style="fill:#cbd9e6;fill-rule:nonzero;stroke:#fff;stroke-width:4.17px;"></path></g></svg> 