<?xml version="1.0" encoding="UTF-8" standalone="no"?> <svg xmlns="http://www.w3.org/2000/svg" xmlns:xlink="http://www.w3.org/1999/xlink" xmlns:serif="http://www.serif.com/" width="100%" height="100%" viewBox="0 0 2134 2134" version="1.1" xml:space="preserve" style="fill-rule:evenodd;clip-rule:evenodd;stroke-linejoin:round;stroke-miterlimit:2;"><path d="M1202.34,24.782c43.011,-17.476 91.461,-29.453 138.74,-21.092c-0.251,3.616 -0.669,10.847 -0.921,14.463c-11.045,14.463 -35.396,13.182 -51.462,22.297c-72.216,33.596 -133.72,84.893 -179.074,145.456c-107.695,145.758 -150.121,321.345 -167.275,493.09c-31.966,50.695 12.635,116.455 -25.02,165.418c-5.774,-15.442 -11.13,-31.412 -22.761,-44.217l-3.598,-4.52c-15.481,-168.958 -4.268,-344.319 68.868,-502.129c31.463,-24.933 40.752,-62.822 65.604,-91.974c7.615,-10.847 14.561,-21.995 20.92,-33.52c-0.334,-7.458 -0.418,-14.84 -0.418,-22.297c40.752,-50.318 91.88,-96.117 156.397,-120.975Z" style="fill:#44bf01;fill-rule:nonzero;"></path><path d="M442.611,85.721c27.196,-13.634 59.245,-10.771 89.202,-10.997c115.143,-2.034 234.47,50.167 297.815,136.191c-0.168,10.621 -2.092,21.468 -0.084,32.089c10.376,18.53 28.786,34.274 29.706,56.194c3.599,36.006 -9.706,71.259 -8.535,107.265c24.518,-37.588 10.711,-82.633 15.062,-123.762c11.381,48.36 9.205,104.027 -22.593,146.134c-20.585,14.312 -36.735,-15.065 -38.074,-30.13c5.439,-14.614 11.882,-28.926 18.158,-43.238c-5.104,-1.733 -15.397,-5.348 -20.501,-7.081c-10.125,-23.05 -20.753,-45.874 -30.376,-69.075c-4.351,0.226 -12.97,0.754 -17.321,1.055l-3.013,0.151c-36.066,-66.966 -99.829,-120.448 -175.057,-150.729c-18.828,-8.889 -38.911,-15.894 -60.333,-16.422c48.367,32.24 100.834,61.241 138.992,104.027c62.592,68.472 99.494,153.667 115.31,240.594c-8.619,7.081 -14.895,19.133 -28.535,18.154c-69.454,7.909 -144.096,-23.427 -178.321,-79.169c-43.346,-77.059 -41.923,-167.678 -86.608,-244.21c-11.966,-22.221 -30.459,-42.032 -34.894,-67.041Z" style="fill:#44bf01;fill-rule:nonzero;"></path><path d="M159.356,838.764c23.431,-3.314 52.3,-10.32 71.546,6.478c28.368,1.582 56.567,-12.278 84.433,-3.917c20.083,5.047 30.208,22.824 40.835,37.363c25.606,-14.689 53.722,-27.419 85.018,-26.064c15.23,8.663 34.727,16.422 38.326,34.274c7.698,32.541 9.037,66.137 15.313,98.904c9.037,55.818 15.397,112.237 28.869,167.377l13.222,5.8c0.334,-9.115 0.753,-18.229 1.422,-27.193c18.577,-2.863 31.129,-17.175 48.701,-22.297c27.866,-8.813 57.153,-14.011 86.692,-14.613c88.784,-0.904 177.568,1.205 266.268,-2.034c4.351,21.769 9.707,43.388 15.899,64.781c16.317,7.985 38.492,13.333 43.848,31.713c9.874,36.684 23.012,73.293 22.928,111.408c1.506,17.024 -1.506,34.726 3.849,51.373c8.201,8.06 18.075,14.538 27.615,21.393c4.183,-3.842 12.468,-11.45 16.652,-15.216c5.69,16.044 11.296,32.089 16.987,48.209c4.518,16.346 8.702,32.767 12.97,49.188c-18.577,1.808 -37.488,2.637 -55.563,6.78c-9.372,12.655 -3.347,30.432 -4.686,45.121c-12.971,6.026 -25.02,13.483 -36.15,21.92c-7.029,-0.377 -13.974,-0.753 -20.92,-1.13c-0.251,9.19 -0.669,18.455 -1.087,27.645l-2.092,0.452c-1.841,-29.604 -7.866,-58.83 -13.389,-87.982c-17.405,0.603 -34.727,1.205 -52.049,1.883c-1.589,-3.164 -4.769,-9.491 -6.443,-12.655c-13.807,-34.198 -41.421,-61.24 -59.831,-93.179c47.028,-1.356 93.721,-7.382 140.833,-8.135c-1.172,-48.812 -5.942,-97.624 -13.807,-145.833c-5.607,-26.063 -37.154,-31.487 -62.007,-28.323c-56.316,3.013 -113.134,-0.151 -169.116,6.93c-71.211,2.561 -142.924,0.678 -213.633,8.964c-14.895,6.177 -28.869,13.86 -42.844,21.543c-12.803,0.302 -25.522,0.904 -38.241,1.582c-15.983,-3.465 -33.723,-5.122 -46.777,-14.915c-6.36,-10.997 -7.531,-23.652 -11.715,-35.328c-2.511,-2.561 -7.448,-7.683 -9.958,-10.244c-0.92,-3.465 -2.761,-10.546 -3.682,-14.011c-19.497,-89.036 -37.739,-178.675 -68.282,-265.226c-20.585,-0.753 -41.338,-0.151 -61.672,3.013c-5.69,13.182 -15.146,24.406 -25.187,35.027c-13.473,1.883 -26.778,3.917 -40.166,5.65c-53.723,4.519 -106.273,18.229 -160.497,18.229c-17.991,-22.598 -33.472,-56.872 -9.54,-80.525c48.618,-10.018 98.407,-14.463 147.108,-24.18Z" style="fill:#44bf01;fill-rule:nonzero;"></path><path d="M1341.08,3.69c18.828,-15.743 30.543,24.331 4.1,18.681l-5.021,-4.218c0.252,-3.616 0.67,-10.847 0.921,-14.463Z" style="fill:#63a544;fill-rule:nonzero;"></path><path d="M972.301,259.124c22.175,-38.869 41.087,-80.374 73.638,-113.367c-0,7.457 0.084,14.839 0.418,22.297c-6.359,11.525 -13.305,22.673 -20.92,33.52c-24.852,29.152 -34.141,67.041 -65.604,91.974c2.176,-11.977 5.69,-23.803 12.468,-34.424Z" style="fill:#6cbd42;fill-rule:nonzero;"></path><path d="M829.544,243.004c-2.008,-10.621 -0.084,-21.468 0.084,-32.089c19.162,20.187 32.049,45.497 36.149,71.786c-4.351,41.129 9.456,86.174 -15.062,123.762c-1.171,-36.006 12.134,-71.259 8.535,-107.265c-0.92,-21.92 -19.33,-37.664 -29.706,-56.194Z" style="fill:#63b62f;fill-rule:nonzero;"></path><path d="M755.07,280.366c4.351,-0.301 12.97,-0.829 17.321,-1.055c9.623,23.201 20.251,46.025 30.376,69.075c5.104,1.733 15.397,5.348 20.501,7.081c-6.276,14.312 -12.719,28.624 -18.158,43.238c-14.56,-40.225 -30.459,-79.922 -50.04,-118.339Z" style="fill:#54b625;fill-rule:nonzero;"></path><path d="M362.362,557.042c73.471,-43.389 165.937,-70.28 253.13,-47.381c59.831,19.133 116.064,60.412 131.042,118.188c-50.542,-0.226 -93.888,-27.268 -142.84,-34.876c-95.813,-15.819 -206.521,-10.17 -281.832,51.825c45.019,-8.738 88.365,-25.16 135.058,-26.591c79.83,-6.403 159.326,10.847 231.792,40.225c22.593,5.8 47.195,18.605 39.078,43.539c-32.886,34.123 -74.307,72.087 -128.699,69.677c-57.487,4.143 -109.536,-21.694 -159.576,-43.388c-23.263,-10.471 -49.204,-15.819 -71.211,-28.399c-22.175,-19.886 -55.396,-17.701 -83.68,-24.707c-5.606,-8.587 -10.794,-17.25 -16.233,-25.837c-1.088,9.265 -2.092,18.606 -3.18,27.871l-5.941,6.478c0.669,-10.169 1.84,-20.338 3.347,-30.432c29.036,-35.328 61.169,-68.849 99.745,-96.192Z" style="fill:#44bf02;fill-rule:nonzero;"></path><path d="M321.862,644.798c75.311,-61.995 186.019,-67.644 281.832,-51.825c48.952,7.608 92.298,34.65 142.84,34.876c-22.844,8.587 -48.115,3.164 -72.048,3.766c5.691,8.512 8.285,18.38 14.226,26.817c-72.466,-29.378 -151.962,-46.628 -231.792,-40.225c-46.693,1.431 -90.039,17.853 -135.058,26.591Z" style="fill:#f8fff1;fill-rule:nonzero;"></path><path d="M268.391,649.317c5.439,8.587 10.627,17.25 16.233,25.837c28.284,7.006 61.505,4.821 83.68,24.707c-34.309,-2.033 -67.362,-11.6 -101.671,-13.86l-1.422,-8.813c1.088,-9.265 2.092,-18.606 3.18,-27.871Z" style="fill:#63bb3f;fill-rule:nonzero;"></path><path d="M917.324,844.414c37.655,-48.963 -6.946,-114.723 25.02,-165.418c-1.674,55.742 -3.849,111.559 -4.1,167.376c1.422,14.84 -14.393,19.133 -27.782,15.894c-18.242,-15.818 -14.142,-41.43 -15.899,-62.069c11.631,12.805 16.987,28.775 22.761,44.217Z" style="fill:#4fb61d;fill-rule:nonzero;"></path><path d="M1098.15,1545.56c18.409,0.678 50.71,-8.662 50.458,17.326c5.523,-4.746 11.13,-9.416 16.736,-14.086c-3.179,3.314 -9.539,10.018 -12.719,13.408c2.176,11.977 4.351,24.029 6.527,36.081c-9.121,1.959 -18.158,3.917 -27.196,5.951c-13.054,-18.681 -24.852,-38.115 -33.806,-58.68Z" style="fill:#4fb61d;fill-rule:nonzero;"></path><path d="M872.137,1080.56c24.769,-0.151 55.479,-8.06 74.726,10.545c16.317,13.785 15.146,34.726 15.731,53.256c21.59,11.074 44.183,24.18 52.467,46.703c11.464,30.131 11.632,62.747 13.389,94.309c0.753,21.845 3.598,43.615 6.527,65.309c10.962,-0.076 21.924,0.075 32.97,0.301l2.845,7.307c-4.184,3.766 -12.469,11.374 -16.652,15.216c-9.54,-6.855 -19.414,-13.333 -27.615,-21.393c-5.355,-16.647 -2.343,-34.349 -3.849,-51.373c0.084,-38.115 -13.054,-74.724 -22.928,-111.408c-5.356,-18.38 -27.531,-23.728 -43.848,-31.713c-6.192,-21.393 -11.548,-43.012 -15.899,-64.781c-88.7,3.239 -177.484,1.13 -266.268,2.034c-29.539,0.602 -58.826,5.8 -86.692,14.613c-17.572,5.122 -30.124,19.434 -48.701,22.297c4.519,-19.66 21.171,-37.89 45.103,-36.91c96.231,-5.047 192.63,-7.232 288.694,-14.312Z" style="fill:#55a32b;fill-rule:nonzero;"></path><path d="M266.299,1403.72c29.957,21.468 47.362,53.03 72.466,78.491c26.275,27.117 45.689,61.466 81.587,79.469c2.092,1.055 6.36,3.239 8.452,4.294c-2.092,2.938 -6.192,8.813 -8.284,11.751c9.623,8.889 19.246,17.928 29.371,26.515c-2.845,0.829 -8.535,2.561 -11.38,3.39c-10.377,1.054 -20.753,2.486 -30.962,4.519c6.946,6.479 15.397,11.375 24.351,15.518c5.858,3.088 11.715,6.252 17.405,9.717c-5.188,-0.452 -15.397,-1.431 -20.501,-1.883c-26.359,-27.344 -69.119,-28.7 -106.273,-30.131c-65.353,0.226 -130.707,-1.431 -195.977,-0.226c-0.167,-1.507 -0.335,-4.67 -0.502,-6.252c68.868,1.958 137.736,2.109 206.604,1.506c-42.425,-25.837 -94.223,-34.951 -138.824,-56.947c82.508,18.455 155.895,74.8 245.348,61.316c-14.309,-18.153 -26.777,-38.04 -45.773,-52.653c-58.742,-36.232 -124.682,-62.747 -182.002,-100.787c53.722,23.652 101.419,58.152 157.987,76.23c-31.046,-43.463 -69.873,-81.729 -103.093,-123.837Z" style="fill:#55a32b;fill-rule:nonzero;"></path><path d="M518.006,1645.82c40.668,-0.603 81.504,-0.452 121.837,-6.102c-2.343,4.444 -6.862,13.484 -9.121,17.928c-25.02,-7.006 -51.463,-5.273 -77.236,-4.294c17.405,23.352 33.388,50.093 62.257,63.501c46.861,22.221 92.382,46.853 135.896,74.046c-46.526,-16.195 -82.675,-50.921 -131.963,-61.241c36.652,51.147 86.106,93.782 123.009,144.779c-42.007,-38.568 -75.813,-83.689 -114.557,-124.817c-22.677,-32.918 -55.396,-59.885 -96.733,-72.163c3.849,26.892 1.59,56.118 18.744,79.846c38.325,58.981 72.466,120.147 113.218,177.696c13.305,-5.875 26.694,-11.675 39.999,-17.626c-2.427,2.636 -7.364,7.909 -9.791,10.546c-17.656,8.361 -36.651,13.86 -55.479,19.434c4.686,-2.862 14.058,-8.437 18.744,-11.299c-34.141,-52.201 -64.433,-106.437 -100.08,-157.734c-3.264,-0.452 -9.791,-1.507 -13.054,-1.959c15.982,61.316 16.903,125.118 35.061,185.982l11.632,-1.958c-6.611,1.506 -13.138,2.937 -19.665,4.293c-9.539,-66.363 -21.757,-132.349 -32.049,-198.561c-3.682,-29.529 -22.343,-54.763 -33.807,-82.031c-26.777,29.151 -37.655,69.3 -34.81,106.738c2.426,60.035 -1.758,120.071 -1.088,180.182c-16.15,0.979 -32.217,-1.13 -47.614,-5.122c13.138,1.205 26.359,2.335 39.664,3.314c6.778,-65.836 7.364,-132.274 2.594,-198.185c-18.911,29.302 -32.3,61.09 -44.768,92.953c-11.882,30.884 -31.212,59.358 -36.652,92.05l-5.355,-1.582c6.192,-34.199 28.702,-63.727 39.664,-96.72c20.25,-57.399 66.107,-111.71 50.04,-174.984c-58.994,19.886 -82.591,76.683 -112.8,121.502c-22.593,37.588 -52.634,71.787 -69.955,111.71c-3.013,-1.959 -5.942,-3.917 -8.703,-5.951c39.748,-53.106 77.654,-108.094 107.612,-166.322c-16.82,7.533 -32.97,16.497 -47.196,27.57c-39.915,30.583 -84.85,55.968 -120.33,91.145c-2.511,-2.259 -4.854,-4.519 -7.113,-6.854c56.316,-34.425 105.017,-78.114 162.087,-111.861c32.551,-19.359 51.211,-50.996 73.052,-79.018l3.096,-0.226c-0.084,3.993 -0.168,12.128 -0.251,16.196l-5.021,-0.829l-1.506,4.143l4.351,0.678l2.176,-3.992c5.272,-3.164 15.648,-9.642 20.92,-12.881l4.1,1.28c0.502,15.894 1.339,31.713 2.678,47.607c11.129,-11.149 17.991,-24.783 24.016,-38.643c2.594,1.13 7.782,3.315 10.376,4.369c1.171,9.868 6.611,16.497 16.234,19.736c0.083,-6.177 0.418,-18.38 0.585,-24.557c2.929,-1.205 8.619,-3.691 11.548,-4.896c3.682,-0.452 11.213,-1.281 14.895,-1.733l1.674,4.445l5.606,0.602l1.088,4.219l3.766,0.452c-1.172,-1.13 -3.599,-3.541 -4.854,-4.671l-2.427,-4.67l-4.853,-0.377c1.506,-14.764 -16.736,-20.187 -29.873,-18.003c-0.921,-1.808 -2.678,-5.273 -3.515,-7.08Z" style="fill:#55a32b;fill-rule:nonzero;"></path><path d="M1135.81,1824.04c42.007,6.93 84.097,37.588 79.662,79.47c3.766,24.556 -24.601,42.258 -18.074,66.965c-0.586,0.829 -1.841,2.486 -2.427,3.24c-2.678,1.129 -7.95,3.314 -10.544,4.444c2.929,-4.746 8.87,-14.312 11.883,-19.058c-27.782,12.655 -59.329,29.001 -90.876,16.497c-34.978,-9.266 -54.308,-39.924 -59.329,-70.657c-0.083,-0.226 -0.167,-0.678 -0.251,-0.979c5.188,-20.64 9.205,-44.97 32.803,-55.365c-2.846,15.592 -7.03,30.959 -11.799,46.175c9.958,-1.507 19.915,-3.013 29.957,-4.369c2.259,5.8 6.694,17.4 8.954,23.201c-14.728,-4.219 -29.372,-8.286 -44.099,-12.279c4.435,23.427 17.154,45.046 40.584,57.324c1.925,-12.73 4.017,-25.46 6.276,-38.04c4.853,1.281 14.477,3.917 19.33,5.273c5.439,13.483 -13.054,25.837 -17.991,38.341c20.752,-3.691 58.743,4.219 65.772,-19.886c-11.38,-6.779 -23.43,-12.354 -35.313,-17.928c7.448,-5.197 14.811,-10.47 22.092,-15.818c8.033,10.696 16.233,21.166 24.685,31.637c10.125,-18.681 17.74,-40.978 7.196,-60.94c-13.054,3.616 -25.02,9.793 -36.902,15.668c-6.276,-18.756 14.142,-24.104 28.116,-31.712c-13.974,-17.627 -48.367,-15.97 -49.705,-41.204Z" style="fill:#55a32b;fill-rule:nonzero;"></path><path d="M381.274,1160.79c2.51,2.561 7.447,7.683 9.958,10.244c4.184,11.676 5.355,24.331 11.715,35.328c13.054,9.793 30.794,11.45 46.777,14.915c-18.493,1.883 -36.819,4.896 -55.061,7.608c-5.356,-22.523 -10.126,-45.196 -13.389,-68.095Z" style="fill:#6cbc40;fill-rule:nonzero;"></path><path d="M487.965,1219.69c13.975,-7.683 27.949,-15.366 42.844,-21.543c-0,5.423 0.084,16.27 0.167,21.694c-14.393,-0.226 -28.702,-0.377 -43.011,-0.151Z" style="fill:#62ac33;fill-rule:nonzero;"></path><path d="M521.521,1652.9c13.137,-2.184 31.379,3.239 29.873,18.003c-3.682,0.452 -11.213,1.281 -14.895,1.733c-6.611,-5.725 -11.548,-12.278 -14.978,-19.736Z" style="fill:#f5f8f9;fill-rule:nonzero;"></path><path d="M407.549,1247.64c50.124,-7.382 101.252,-10.17 151.878,-5.123c100.583,17.476 198.404,61.693 263.339,134.384c24.937,28.247 47.614,58.227 64.684,90.919c8.619,23.201 24.602,45.573 25.271,70.506c-2.845,10.772 -6.024,21.468 -9.121,32.24c-4.351,-6.855 -8.702,-13.71 -12.97,-20.564c-7.28,7.608 -14.56,15.216 -21.757,22.824c0.754,-24.933 11.883,-58.153 -20.25,-71.033c-1.255,-3.917 -3.682,-11.902 -4.937,-15.894c-38.241,-15.216 -79.746,-2.712 -119.578,-2.562c-35.815,-0.301 -70.709,7.759 -106.273,9.341c-6.861,5.8 -12.133,12.881 -17.907,19.51c1.339,-5.198 4.1,-15.518 5.439,-20.715c-18.493,0.602 -36.986,1.054 -55.479,1.582c-19.33,0.226 -38.66,-0.226 -57.99,-0.452l0.335,3.992c0.837,11.751 1.673,23.577 3.18,35.404c-12.218,9.641 -23.514,20.112 -35.815,29.603c-4.854,-21.769 -11.715,-43.238 -14.811,-65.308c-7.615,-67.569 -26.443,-133.555 -36.903,-200.746c-25.439,1.506 -49.287,10.018 -71.797,20.112c-2.845,1.205 -8.368,3.691 -11.129,4.896c-25.941,12.806 -53.639,24.632 -73.973,44.594c-7.615,12.654 8.368,23.502 13.222,34.575c-8.452,-8.738 -17.238,-17.175 -26.108,-25.461c-20,17.777 -39.497,36.157 -56.986,55.968c9.539,6.327 19.246,12.58 28.702,19.133c-10.795,-3.616 -21.255,-7.683 -31.547,-12.203c-19.079,27.344 -37.739,55.667 -45.02,87.756c-14.141,-12.655 -33.388,-4.294 -49.956,-1.507c4.602,-41.354 30.459,-76.984 53.638,-111.785c61.839,-83.462 161.501,-143.874 270.619,-163.986m141.837,39.923c5.021,29.227 7.949,59.207 17.405,87.605c3.096,-0.226 9.121,-0.829 12.134,-1.055c9.121,-17.475 15.48,-35.93 25.187,-53.18l5.188,-5.198c-10.376,21.092 -18.409,42.936 -26.275,64.857c30.041,-2.185 61.169,0.753 90.541,-5.951c25.857,3.088 65.437,-14.614 79.077,13.408c1.506,-1.055 4.435,-3.164 5.857,-4.218c3.431,-2.712 10.126,-8.286 13.556,-10.998c-3.849,-12.429 -20.417,-10.094 -30.71,-7.231c-24.936,-16.346 -48.032,-36.835 -78.742,-43.765c-12.05,-8.588 -27.782,-12.279 -41.338,-18.606l-6.61,6.855c-12.636,-20.791 -43.681,-16.346 -65.27,-22.523Z" style="fill:#44be02;fill-rule:nonzero;"></path><path d="M492.233,1496.59c6.192,0.377 18.66,1.055 24.936,1.431c-2.343,14.011 -7.364,27.57 -14.978,39.999l-6.778,-6.026c-1.507,-11.827 -2.343,-23.653 -3.18,-35.404Z" style="fill:#e6ffca;fill-rule:nonzero;"></path><path d="M446.293,1664.42c5.188,0.829 15.481,2.486 20.669,3.315c-5.272,3.239 -15.648,9.717 -20.92,12.881c0.083,-4.068 0.167,-12.203 0.251,-16.196Z" style="fill:#e6ffca;fill-rule:nonzero;"></path><path d="M336.087,1315.66c22.51,-10.094 46.358,-18.606 71.797,-20.112c10.46,67.191 29.288,133.177 36.903,200.746c3.096,22.07 9.957,43.539 14.811,65.308c-6.109,4.896 -12.468,9.416 -18.995,13.71c7.865,8.06 15.815,16.195 23.765,24.405c-3.599,1.13 -10.879,3.39 -14.477,4.52c-10.125,-8.587 -19.748,-17.626 -29.371,-26.515c2.092,-2.938 6.192,-8.813 8.284,-11.751c-2.092,-1.055 -6.36,-3.239 -8.452,-4.294c7.197,-2.184 21.673,-6.478 28.87,-8.662c-7.029,-14.388 -11.548,-29.604 -15.23,-44.895c15.313,-31.336 -21.338,-56.947 -32.635,-84.667c19.497,-20.037 9.037,-47.155 5.439,-70.582c-3.514,-14.839 -5.857,-31.863 -19.832,-41.957c-17.154,-1.431 -29.539,12.128 -42.593,19.887c-2.092,-3.767 -6.276,-11.375 -8.284,-15.141Z" style="fill:#e9ffd3;fill-rule:nonzero;"></path><path d="M471.062,1669.02c6.611,2.26 19.999,6.78 26.694,8.964c-6.025,13.86 -12.887,27.494 -24.016,38.643c-1.339,-15.894 -2.176,-31.713 -2.678,-47.607Z" style="fill:#e9ffd3;fill-rule:nonzero;"></path><path d="M324.958,1320.56c2.761,-1.205 8.284,-3.691 11.129,-4.896c2.008,3.766 6.192,11.374 8.284,15.141c19.832,30.507 39.246,61.165 56.986,92.652c11.297,27.72 47.948,53.331 32.635,84.667c-5.272,-16.271 -11.297,-32.541 -21.506,-46.853c-31.379,-45.799 -59.579,-93.18 -87.528,-140.711Z" style="fill:#b8cda9;fill-rule:nonzero;"></path><path d="M250.985,1365.15c20.334,-19.962 48.032,-31.788 73.973,-44.594c27.949,47.531 56.149,94.912 87.528,140.711c10.209,14.312 16.234,30.582 21.506,46.853c3.682,15.291 8.201,30.507 15.23,44.895c-7.197,2.184 -21.673,6.478 -28.87,8.662c-35.898,-18.003 -55.312,-52.352 -81.587,-79.469c-25.104,-25.461 -42.509,-57.023 -72.466,-78.491c33.22,42.108 72.047,80.374 103.093,123.837c-56.568,-18.078 -104.265,-52.578 -157.987,-76.23c57.32,38.04 123.26,64.555 182.002,100.787c18.996,14.613 31.464,34.5 45.773,52.653c-89.453,13.484 -162.84,-42.861 -245.348,-61.316c44.601,21.996 96.399,31.11 138.824,56.947c-68.868,0.603 -137.736,0.452 -206.604,-1.506c-1.841,-7.231 -5.607,-21.77 -7.447,-29.001c0.669,-5.273 2.008,-15.819 2.677,-21.167c4.184,-7.834 8.201,-15.818 11.966,-23.803c7.281,-32.089 25.941,-60.412 45.02,-87.756c10.292,4.52 20.752,8.587 31.547,12.203c-9.456,-6.553 -19.163,-12.806 -28.702,-19.133c17.489,-19.811 36.986,-38.191 56.986,-55.968c8.87,8.286 17.656,16.723 26.108,25.461c-4.854,-11.073 -20.837,-21.921 -13.222,-34.575Z" style="fill:#f7fdf4;fill-rule:nonzero;"></path><path d="M1066.11,1965.5c-16.067,-15.216 -37.405,-40.149 -20,-60.563c5.021,30.733 24.351,61.391 59.329,70.657c31.547,12.504 63.094,-3.842 90.876,-16.497c-3.013,4.746 -8.954,14.312 -11.883,19.058c-37.739,17.476 -88.114,16.798 -118.322,-12.655Z" style="fill:#e0ffc9;fill-rule:nonzero;"></path><path d="M1087.78,1406.5c17.238,9.642 18.242,30.809 34.224,41.731c-16.233,19.585 -43.094,22.071 -66.692,29.83c-15.313,22.824 3.682,50.393 -4.77,75.025c-3.765,-15.141 -7.196,-30.281 -10.041,-45.497c1.339,-14.689 -4.686,-32.466 4.686,-45.121c18.075,-4.143 36.986,-4.972 55.563,-6.78c-4.268,-16.421 -8.452,-32.842 -12.97,-49.188Z" style="fill:#d2f5b8;fill-rule:nonzero;"></path><path d="M724.108,1483.34c39.832,-0.15 81.337,-12.654 119.578,2.562c1.255,3.992 3.682,11.977 4.937,15.894c0.335,7.306 0.586,14.538 0.921,21.92c7.614,10.244 21.589,26.967 1.506,33.746c-33.137,4.972 -66.944,6.554 -100.164,11.224c-4.77,0.602 -14.31,1.808 -18.996,2.41c-25.689,3.616 -51.63,5.65 -77.654,6.102c48.032,-21.318 92.884,-47.682 139.995,-70.356c11.632,-5.272 21.59,-12.88 29.456,-22.221c-33.221,7.608 -61.003,26.063 -90.207,41.204c-33.388,18.078 -68.533,33.37 -100.666,53.181c-2.51,1.431 -7.447,4.293 -9.958,5.724c-22.007,-0.075 -43.931,0.302 -65.939,0.678c4.77,-8.587 9.456,-17.249 14.727,-25.535c11.13,-14.011 31.046,-24.18 35.062,-41.807c-17.322,-10.998 -29.622,18.757 -43.346,26.515c-6.861,6.328 -14.142,12.354 -21.673,18.079c-4.184,2.711 -12.552,8.135 -16.736,10.847c4.519,-27.269 -15.397,-70.808 24.937,-80.449c18.493,-0.528 36.986,-0.98 55.479,-1.582c-1.339,5.197 -4.1,15.517 -5.439,20.715c5.774,-6.629 11.046,-13.71 17.907,-19.51c35.564,-1.582 70.458,-9.642 106.273,-9.341m-105.854,21.996c-5.774,11.148 -2.511,14.237 9.623,9.34c5.606,-11.223 2.427,-14.312 -9.623,-9.34Z" style="fill:#f5fef4;fill-rule:nonzero;"></path><path d="M2063.09,1998.65c16.666,-12.203 31.62,-26.666 52.16,-34.575c-3.153,7.608 -8.739,23.276 3.423,26.967c13.243,-3.013 16.666,-17.702 11.711,-27.118c4.505,7.759 2.613,16.195 2.253,24.481c-36.756,25.536 -62.521,61.768 -105.582,80.826c11.891,-27.72 43.151,-43.84 66.574,-64.254c-10.27,-2.26 -20.45,-4.369 -30.539,-6.327Z" style="fill:#17a7e2;fill-rule:nonzero;"></path><path d="M491.898,1492.6c19.33,0.226 38.66,0.678 57.99,0.452c-40.334,9.641 -20.418,53.18 -24.937,80.449c4.184,-2.712 12.552,-8.136 16.736,-10.847c2.594,2.033 7.866,6.101 10.46,8.135c-11.715,3.616 -23.43,7.081 -35.229,10.244c0.335,-12.504 2.427,-27.645 -8.284,-37.211c-1.674,-1.507 -4.853,-4.369 -6.443,-5.8c7.614,-12.429 12.635,-25.988 14.978,-39.999c-6.276,-0.376 -18.744,-1.054 -24.936,-1.431l-0.335,-3.992Z" style="fill:#8ec275;fill-rule:nonzero;"></path><path d="M733.48,1525.82c29.204,-15.141 56.986,-33.596 90.207,-41.204c-7.866,9.341 -17.824,16.949 -29.456,22.221c-47.111,22.674 -91.963,49.038 -139.995,70.356c-5.356,0.452 -16.066,1.356 -21.422,1.808c32.133,-19.811 67.278,-35.103 100.666,-53.181Z" style="fill:#b2c8aa;fill-rule:nonzero;"></path><path d="M52.414,1531.77c-2.343,-14.237 11.297,-24.331 24.853,-28.248l-0,21.167c-2.092,15.517 -5.69,30.733 -7.782,46.251c-3.431,24.33 -4.017,48.887 -4.268,73.368c-0.335,20.338 -0.084,40.827 3.18,61.09c-22.175,-1.13 -25.188,-21.769 -14.393,-35.629c-15.481,-26.139 10.042,-53.257 -1.925,-79.621c-8.033,-19.058 2.678,-38.869 0.335,-58.378Z" style="fill:#e8f8da;fill-rule:nonzero;"></path><path d="M618.254,1505.33c12.05,-4.972 15.229,-1.883 9.623,9.34c-12.134,4.897 -15.397,1.808 -9.623,-9.34Z" style="fill:#a0be91;fill-rule:nonzero;"></path><path d="M848.623,1501.79c32.133,12.88 21.004,46.1 20.25,71.033c-31.045,-0.678 -64.516,-6.403 -93.386,6.779c-18.493,11.902 -15.146,34.5 -3.263,49.339c32.467,-2.485 64.935,-4.293 97.403,-6.252c-1.088,-15.442 -3.264,-30.733 -6.025,-45.874c27.195,38.492 12.97,85.722 19.581,128.357c5.69,0.377 17.07,1.13 22.76,1.507c5.189,-11.073 10.293,-22.146 14.561,-33.445c2.677,16.27 -0.084,32.616 -5.607,48.209c-16.485,-4.671 -32.97,-9.416 -49.287,-14.237c0.753,-3.314 2.176,-9.793 2.929,-13.032c3.514,-15.894 5.439,-32.089 6.108,-48.209c0.084,-4.218 0.168,-12.655 0.251,-16.798c-71.043,1.13 -141.836,8.738 -212.545,13.86c17.405,2.034 34.894,3.616 52.467,4.369l0.502,9.115c-17.656,-0.377 -35.229,-0.527 -52.802,0.527c-4.435,1.582 -13.305,4.897 -17.656,6.554c-3.598,-1.507 -10.627,-4.445 -14.142,-5.951c2.259,-4.444 6.778,-13.484 9.121,-17.928c23.347,-3.088 46.861,-5.047 70.458,-6.629c0.502,-17.551 0.753,-35.027 0.586,-52.578c-29.037,4.218 -58.576,6.93 -88.031,4.218c2.511,-1.431 7.448,-4.293 9.958,-5.724c5.356,-0.452 16.066,-1.356 21.422,-1.808c26.024,-0.452 51.965,-2.486 77.654,-6.102c-18.158,17.175 -11.213,41.581 -10.46,62.823c11.297,-0.678 22.678,-1.356 34.058,-2.034c-4.937,-20.941 9.623,-44.895 -4.602,-63.199c33.22,-4.67 67.027,-6.252 100.164,-11.224c20.083,-6.779 6.108,-23.502 -1.506,-33.746c-0.335,-7.382 -0.586,-14.614 -0.921,-21.92Z" style="fill:#83ce5b;fill-rule:nonzero;"></path><path d="M1004.35,1529.51c11.13,-8.437 23.179,-15.894 36.15,-21.92c2.845,15.216 6.276,30.356 10.041,45.497c-15.731,15.517 -29.036,34.123 -25.271,56.269c0.921,33.144 2.092,66.439 -3.933,99.281c-18.911,-25.008 -18.995,-57.851 -26.526,-86.701c-1.757,-2.185 -5.356,-6.629 -7.197,-8.889c-3.765,-14.839 -5.02,-30.13 -6.276,-45.271c-6.275,-1.808 -18.827,-5.424 -25.103,-7.231c6.025,-0.98 17.991,-3.014 24.016,-4.068l2.092,-0.452c0.418,-9.19 0.836,-18.455 1.087,-27.645c6.946,0.377 13.891,0.753 20.92,1.13Z" style="fill:#47ba0e;fill-rule:nonzero;"></path><path d="M83.292,1523.41c16.568,-2.787 35.815,-11.148 49.956,1.507c-3.765,7.985 -7.782,15.969 -11.966,23.803c-26.777,0.979 -41.839,20.112 -47.864,41.807c-0.921,-4.897 -2.929,-14.689 -3.933,-19.585c2.092,-15.518 5.69,-30.734 7.782,-46.251l6.025,-1.281Z" style="fill:#4eb807;fill-rule:nonzero;"></path><path d="M563.36,1544.58c13.724,-7.758 26.024,-37.513 43.346,-26.515c-4.016,17.627 -23.932,27.796 -35.062,41.807c-2.092,-3.767 -6.192,-11.45 -8.284,-15.292Z" style="fill:#9ebc8e;fill-rule:nonzero;"></path><path d="M459.598,1561.6c12.301,-9.491 23.597,-19.962 35.815,-29.603l6.778,6.026c1.59,1.431 4.769,4.293 6.443,5.8c-2.092,9.943 -3.682,20.037 -4.937,30.206c-1.423,-10.244 -3.013,-20.414 -4.77,-30.507c-35.815,16.948 -32.802,56.947 -32.3,88.132c-0.335,14.538 13.221,23.954 24.936,31.788c4.519,2.185 13.64,6.553 18.159,8.738c-0.419,2.561 -1.172,7.608 -1.59,10.169c-2.594,-1.054 -7.782,-3.239 -10.376,-4.369c-6.695,-2.184 -20.083,-6.704 -26.694,-8.964l-4.1,-1.28c-5.188,-0.829 -15.481,-2.486 -20.669,-3.315l-3.096,0.226c-30.376,0.754 -63.178,-0.075 -89.537,15.744c0.418,-5.499 0.92,-10.923 1.422,-16.346c19.079,-4.294 36.568,-12.655 53.471,-21.619c5.105,21.694 42.761,17.476 40.752,-5.047c-5.69,-3.465 -11.547,-6.629 -17.405,-9.717c2.678,-1.356 7.95,-4.068 10.627,-5.499c-1.004,-3.616 -3.012,-10.847 -4.016,-14.538c2.845,-0.829 8.535,-2.561 11.38,-3.39c3.598,-1.13 10.878,-3.39 14.477,-4.52c-7.95,-8.21 -15.9,-16.345 -23.765,-24.405c6.527,-4.294 12.886,-8.814 18.995,-13.71Z" style="fill:#8dcd6c;fill-rule:nonzero;"></path><path d="M508.634,1543.82c10.711,9.566 8.619,24.707 8.284,37.211c-3.096,-0.226 -9.456,-0.753 -12.635,-0.979l-0.586,-6.026c1.255,-10.169 2.845,-20.263 4.937,-30.206Z" style="fill:#c8fdae;fill-rule:nonzero;"></path><path d="M541.687,1562.66c7.531,-5.725 14.812,-11.751 21.673,-18.079c2.092,3.842 6.192,11.525 8.284,15.292c-5.271,8.286 -9.957,16.948 -14.727,25.535c22.008,-0.376 43.932,-0.753 65.939,-0.678c-1.841,3.917 -5.439,11.751 -7.28,15.744c-18.326,7.984 -28.953,24.632 -45.187,34.65c-36.651,5.876 -24.769,-46.627 -61.169,-41.053c0.92,17.4 1.841,35.253 8.786,51.75c0.837,1.807 2.594,5.272 3.515,7.08c3.43,7.458 8.367,14.011 14.978,19.736c-2.929,1.205 -8.619,3.691 -11.548,4.896c-3.765,-1.28 -11.464,-3.992 -15.229,-5.348c-4.519,-2.185 -13.64,-6.553 -18.159,-8.738c7.699,-4.444 15.397,-8.889 23.096,-13.333c-10.46,-22.372 -12.385,-46.175 -10.376,-70.054c3.179,0.226 9.539,0.753 12.635,0.979c11.799,-3.163 23.514,-6.628 35.229,-10.244c-2.594,-2.034 -7.866,-6.102 -10.46,-8.135m0.251,36.081c0.419,14.614 8.619,27.269 24.184,32.767c14.56,-12.504 29.036,-25.234 39.831,-40.601c-21.84,-1.356 -43.346,1.733 -64.015,7.834Z" style="fill:#9fe175;fill-rule:nonzero;"></path><path d="M903.6,1570.57c3.097,-10.772 6.276,-21.468 9.121,-32.24c13.975,43.388 11.297,90.242 7.783,134.911c-4.268,11.299 -9.372,22.372 -14.561,33.445c-5.69,-0.377 -17.07,-1.13 -22.76,-1.507c-6.611,-42.635 7.614,-89.865 -19.581,-128.357c2.761,15.141 4.937,30.432 6.025,45.874c-32.468,1.959 -64.936,3.767 -97.403,6.252c-11.883,-14.839 -15.23,-37.437 3.263,-49.339c28.87,-13.182 62.341,-7.457 93.386,-6.779c7.197,-7.608 14.477,-15.216 21.757,-22.824c4.268,6.854 8.619,13.709 12.97,20.564Z" style="fill:#43bb05;fill-rule:nonzero;"></path><path d="M73.418,1590.53c6.025,-21.695 21.087,-40.828 47.864,-41.807c-0.669,5.348 -2.008,15.894 -2.677,21.167c-3.766,28.323 -6.36,56.797 -7.615,85.345c-6.276,17.702 -26.025,-0.15 -30.209,-10.169c-4.686,-17.928 -5.104,-36.383 -7.363,-54.536Z" style="fill:#4bb615;fill-rule:nonzero;"></path><path d="M466.627,1631.65c-0.502,-31.185 -3.515,-71.184 32.3,-88.132c1.757,10.093 3.347,20.263 4.77,30.507l0.586,6.026c-2.009,23.879 -0.084,47.682 10.376,70.054c-7.699,4.444 -15.397,8.889 -23.096,13.333c-11.715,-7.834 -25.271,-17.25 -24.936,-31.788Z" style="fill:#4cbb13;fill-rule:nonzero;"></path><path d="M1050.54,1553.09c15.816,-2.561 31.798,-4.745 47.614,-7.533c8.954,20.565 20.752,39.999 33.806,58.68c9.038,-2.034 18.075,-3.992 27.196,-5.951l5.607,-1.205c-0.084,2.185 -0.335,6.478 -0.502,8.587c-34.895,0.076 -69.873,1.808 -104.181,7.533c12.468,54.16 21.087,109.299 41.839,161.652c15.23,40.45 33.556,80.072 45.438,121.502c5.607,10.47 -8.117,23.652 -20.25,19.585c-13.807,-7.834 -18.661,-22.749 -25.188,-35.253c-14.895,-32.918 -35.229,-63.501 -51.211,-95.967c-10.544,-25.008 -29.121,-48.887 -29.372,-76.08c6.025,-32.842 4.854,-66.137 3.933,-99.281c-3.765,-22.146 9.54,-40.752 25.271,-56.269Z" style="fill:#4bb90a;fill-rule:nonzero;"></path><path d="M944.018,1557.91l12.217,2.637c6.276,1.807 18.828,5.423 25.103,7.231c1.256,15.141 2.511,30.432 6.276,45.271c-12.97,4.068 -26.359,6.403 -39.998,7.081c-0.921,-20.79 -2.427,-41.505 -3.598,-62.22Z" style="fill:#47ba0d;fill-rule:nonzero;"></path><path d="M65.217,1644.31c0.251,-24.481 0.837,-49.038 4.268,-73.368c1.004,4.896 3.012,14.688 3.933,19.585c2.259,18.153 2.677,36.608 7.363,54.536c4.184,10.019 23.933,27.871 30.209,10.169c0.418,2.486 1.171,7.533 1.506,10.094c1.59,12.956 3.18,25.988 4.686,39.02c-14.225,-2.486 -33.639,-0.151 -41.923,-13.333c-5.691,-15.141 -7.95,-31.035 -10.042,-46.703Z" style="fill:#48bb00;fill-rule:nonzero;"></path><path d="M110.99,1655.23c1.255,-28.548 3.849,-57.022 7.615,-85.345c1.84,7.231 5.606,21.77 7.447,29.001c0.167,1.582 0.335,4.745 0.502,6.252c-4.602,22.523 -8.954,45.196 -7.531,68.246l-6.527,-8.06c-0.335,-2.561 -1.088,-7.608 -1.506,-10.094Z" style="fill:#c4f5a3;fill-rule:nonzero;"></path><path d="M731.89,1571.09c4.686,-0.602 14.226,-1.808 18.996,-2.41c14.225,18.304 -0.335,42.258 4.602,63.199c-11.38,0.678 -22.761,1.356 -34.058,2.034c-0.753,-21.242 -7.698,-45.648 10.46,-62.823Z" style="fill:#4db512;fill-rule:nonzero;"></path><path d="M622.856,1584.73c29.455,2.712 58.994,0 88.031,-4.218c0.167,17.551 -0.084,35.027 -0.586,52.578c-23.597,1.582 -47.111,3.541 -70.458,6.629c-40.333,5.65 -81.169,5.499 -121.837,6.102c-6.945,-16.497 -7.866,-34.35 -8.786,-51.75c36.4,-5.574 24.518,46.929 61.169,41.053c16.234,-10.018 26.861,-26.666 45.187,-34.65c1.841,-3.993 5.439,-11.827 7.28,-15.744Z" style="fill:#44c003;fill-rule:nonzero;"></path><path d="M541.938,1598.74c20.669,-6.101 42.175,-9.19 64.015,-7.834c-10.795,15.367 -25.271,28.097 -39.831,40.601c-15.565,-5.498 -23.765,-18.153 -24.184,-32.767Z" style="fill:#4ab015;fill-rule:nonzero;"></path><path d="M126.554,1605.14c65.27,-1.205 130.624,0.452 195.977,0.226c37.154,1.431 79.914,2.787 106.273,30.131c5.104,0.452 15.313,1.431 20.501,1.883c2.009,22.523 -35.647,26.741 -40.752,5.047c-16.903,8.964 -34.392,17.325 -53.471,21.619c-77.403,7.231 -154.137,18.681 -230.955,29.302c-1.255,-4.972 -3.849,-14.99 -5.104,-19.962c-1.423,-23.05 2.929,-45.723 7.531,-68.246Z" style="fill:#f7f9f4;fill-rule:nonzero;"></path><path d="M407.549,1612.14c10.209,-2.033 20.585,-3.465 30.962,-4.519c1.004,3.691 3.012,10.922 4.016,14.538c-2.677,1.431 -7.949,4.143 -10.627,5.499c-8.954,-4.143 -17.405,-9.039 -24.351,-15.518Z" style="fill:#dffed6;fill-rule:nonzero;"></path><path d="M662.353,1643.03c70.709,-5.122 141.502,-12.73 212.545,-13.86c-0.083,4.143 -0.167,12.58 -0.251,16.798c-9.874,0.979 -19.664,1.959 -29.455,3.013c-43.429,-2.184 -86.943,-1.657 -130.372,-1.582c-17.573,-0.753 -35.062,-2.335 -52.467,-4.369Z" style="fill:#e9ffdb;fill-rule:nonzero;"></path><path d="M65.217,1644.31c2.092,15.668 4.351,31.562 10.042,46.703c8.284,13.182 27.698,10.847 41.923,13.333c-1.506,-13.032 -3.096,-26.064 -4.686,-39.02l6.527,8.06c1.255,4.972 3.849,14.99 5.104,19.962c-0.585,3.088 -1.757,9.19 -2.343,12.278c7.364,-1.883 14.728,-3.691 22.175,-5.423c-7.363,16.571 -4.937,34.65 -5.69,51.975c-6.276,-11.977 -12.05,-24.18 -19.915,-35.328c-11.967,-6.026 -25.439,-8.889 -38.242,-12.806c1.423,14.689 2.845,29.378 4.853,43.991c-6.861,-13.709 -13.639,-27.72 -16.568,-42.635c-3.264,-20.263 -3.515,-40.752 -3.18,-61.09Z" style="fill:#93d376;fill-rule:nonzero;"></path><path d="M714.82,1647.4c43.429,-0.075 86.943,-0.602 130.372,1.582c-12.886,2.863 -25.606,6.403 -38.409,9.567c-30.543,-0.603 -61.002,-1.281 -91.461,-2.034l-0.502,-9.115Z" style="fill:#abc6a1;fill-rule:nonzero;"></path><path d="M845.192,1648.98c9.791,-1.054 19.581,-2.034 29.455,-3.013c-0.669,16.12 -2.594,32.315 -6.108,48.209c-0.084,-10.847 -0.335,-21.543 -0.586,-32.315c-20.418,-1.205 -40.836,-2.41 -61.17,-3.314c12.803,-3.164 25.523,-6.704 38.409,-9.567Z" style="fill:#bae2b3;fill-rule:nonzero;"></path><path d="M553.486,1653.35c25.773,-0.979 52.216,-2.712 77.236,4.294c3.515,1.506 10.544,4.444 14.142,5.951c69.119,26.816 137.82,55.666 210.453,74.347c-10.125,28.248 -26.359,54.236 -40.249,80.977c-21.422,-8.286 -42.007,-18.154 -62.76,-27.57c16.569,12.052 35.313,21.318 54.81,29.076c-23.346,40.677 -66.19,67.644 -103.762,96.946c-13.305,5.951 -26.694,11.751 -39.999,17.626c-40.752,-57.549 -74.893,-118.715 -113.218,-177.696c-17.154,-23.728 -14.895,-52.954 -18.744,-79.846c41.337,12.278 74.056,39.245 96.733,72.163c38.744,41.128 72.55,86.249 114.557,124.817c-36.903,-50.997 -86.357,-93.632 -123.009,-144.779c49.288,10.32 85.437,45.046 131.963,61.241c-43.514,-27.193 -89.035,-51.825 -135.896,-74.046c-28.869,-13.408 -44.852,-40.149 -62.257,-63.501Z" style="fill:#fbfefa;fill-rule:nonzero;"></path><path d="M644.864,1663.59c4.351,-1.657 13.221,-4.972 17.656,-6.554c65.437,23.879 128.615,52.578 196.479,70.808c-0.92,2.561 -2.761,7.608 -3.682,10.093c-72.633,-18.681 -141.334,-47.531 -210.453,-74.347Z" style="fill:#bed2b3;fill-rule:nonzero;"></path><path d="M662.52,1657.04c17.573,-1.054 35.146,-0.904 52.802,-0.527c30.459,0.753 60.918,1.431 91.461,2.034c20.334,0.904 40.752,2.109 61.17,3.314c0.251,10.772 0.502,21.468 0.586,32.315c-0.753,3.239 -2.176,9.718 -2.929,13.032c-2.176,6.855 -4.351,13.785 -6.611,20.64c-67.864,-18.23 -131.042,-46.929 -196.479,-70.808Z" style="fill:#effceb;fill-rule:nonzero;"></path><path d="M124.127,1693.35c76.818,-10.621 153.552,-22.071 230.955,-29.302c-0.502,5.423 -1.004,10.847 -1.422,16.346c-26.192,15.216 -53.388,29 -81.253,41.505c-40.584,18.078 -77.068,43.011 -119.243,58.227c-1.422,-2.636 -4.435,-7.909 -5.941,-10.545c64.015,-26.365 123.929,-60.036 184.764,-91.824c-62.592,8.135 -125.435,14.689 -188.028,22.448c-7.447,1.732 -14.811,3.54 -22.175,5.423c0.586,-3.088 1.758,-9.19 2.343,-12.278Z" style="fill:#b6cba9;fill-rule:nonzero;"></path><path d="M353.66,1680.39c26.359,-15.819 59.161,-14.99 89.537,-15.744c-21.841,28.022 -40.501,59.659 -73.052,79.018c-57.07,33.747 -105.771,77.436 -162.087,111.861c-21.757,-22.975 -39.999,-48.436 -54.894,-75.403c42.175,-15.216 78.659,-40.149 119.243,-58.227c27.865,-12.505 55.061,-26.289 81.253,-41.505Z" style="fill:#fafefb;fill-rule:nonzero;"></path><path d="M509.722,1672.18c3.765,1.356 11.464,4.068 15.229,5.348c-0.167,6.177 -0.502,18.38 -0.585,24.557c-9.623,-3.239 -15.063,-9.868 -16.234,-19.736c0.418,-2.561 1.171,-7.608 1.59,-10.169Z" style="fill:#e1fec9;fill-rule:nonzero;"></path><path d="M551.394,1670.9l4.853,0.377l2.427,4.67l-5.606,-0.602l-1.674,-4.445Z" style="fill:#f1ffd3;fill-rule:nonzero;"></path><path d="M143.959,1700.2c62.593,-7.759 125.436,-14.313 188.028,-22.448c-60.835,31.788 -120.749,65.459 -184.764,91.824c-2.259,-4.369 -6.694,-13.032 -8.954,-17.401c0.753,-17.325 -1.673,-35.404 5.69,-51.975Z" style="fill:#f5fef2;fill-rule:nonzero;"></path><path d="M441.021,1679.79l5.021,0.829l-2.176,3.992l-4.351,-0.678l1.506,-4.143Z" style="fill:#e3ffdd;fill-rule:nonzero;"></path><path d="M558.674,1675.95c1.255,1.13 3.682,3.541 4.854,4.671l-3.766,-0.452l-1.088,-4.219Z" style="fill:#e7feca;fill-rule:nonzero;"></path><path d="M353.743,1804.23c30.209,-44.819 53.806,-101.616 112.8,-121.502c16.067,63.274 -29.79,117.585 -50.04,174.984c-10.962,32.993 -33.472,62.521 -39.664,96.72c-32.802,-9.039 -62.927,-24.105 -93.051,-38.492c17.321,-39.923 47.362,-74.122 69.955,-111.71Z" style="fill:#fefdfa;fill-rule:nonzero;"></path><path d="M470.058,1790.82c-2.845,-37.438 8.033,-77.587 34.81,-106.738c11.464,27.268 30.125,52.502 33.807,82.031c10.292,66.212 22.51,132.198 32.049,198.561c-33.639,5.348 -67.948,3.767 -101.754,6.328c-0.67,-60.111 3.514,-120.147 1.088,-180.182Z" style="fill:#fcfffb;fill-rule:nonzero;"></path><path d="M80.112,1704.04c12.803,3.917 26.275,6.78 38.242,12.806c7.865,11.148 13.639,23.351 19.915,35.328c2.26,4.369 6.695,13.032 8.954,17.401c1.506,2.636 4.519,7.909 5.941,10.545c14.895,26.967 33.137,52.428 54.894,75.403c2.259,2.335 4.602,4.595 7.113,6.854c19.413,16.422 39.58,32.165 59.914,47.607c2.761,2.034 5.69,3.992 8.703,5.951c30.124,14.387 60.249,29.453 93.051,38.492l5.355,1.582c12.971,3.389 26.025,6.779 39.162,9.868c15.397,3.992 31.464,6.101 47.614,5.122c33.806,-2.561 68.115,-0.98 101.754,-6.328c6.527,-1.356 13.054,-2.787 19.665,-4.293c16.15,-3.465 32.049,-7.834 47.697,-13.032c18.828,-5.574 37.823,-11.073 55.479,-19.434c2.427,-2.637 7.364,-7.91 9.791,-10.546c37.572,-29.302 80.416,-56.269 103.762,-96.946c-19.497,-7.758 -38.241,-17.024 -54.81,-29.076c20.753,9.416 41.338,19.284 62.76,27.57c13.89,-26.741 30.124,-52.729 40.249,-80.977c0.921,-2.485 2.762,-7.532 3.682,-10.093c2.26,-6.855 4.435,-13.785 6.611,-20.64c16.317,4.821 32.802,9.566 49.287,14.237c-40.501,144.477 -177.233,263.267 -340.993,288.878c-81.085,9.19 -165.183,5.424 -241.666,-22.296c-116.231,-42.183 -210.286,-132.124 -247.273,-239.992c-2.008,-14.613 -3.43,-29.302 -4.853,-43.991Z" style="fill:#47be06;fill-rule:nonzero;"></path><path d="M335.501,1771.24c14.226,-11.073 30.376,-20.037 47.196,-27.57c-29.958,58.228 -67.864,113.216 -107.612,166.322c-20.334,-15.442 -40.501,-31.185 -59.914,-47.607c35.48,-35.177 80.415,-60.562 120.33,-91.145Z" style="fill:#f8fffc;fill-rule:nonzero;"></path><path d="M1101.92,1774.85c2.511,-2.185 7.532,-6.554 10.042,-8.814c5.355,16.12 10.962,32.165 16.736,48.209c29.455,4.821 60.835,13.559 78.658,36.986c30.711,35.178 21.841,87.078 -9.957,119.242c-6.527,-24.707 21.84,-42.409 18.074,-66.965c4.435,-41.882 -37.655,-72.54 -79.662,-79.47c1.338,25.234 35.731,23.577 49.705,41.204c-13.974,7.608 -34.392,12.956 -28.116,31.712c11.882,-5.875 23.848,-12.052 36.902,-15.668c10.544,19.962 2.929,42.259 -7.196,60.94c-8.452,-10.471 -16.652,-20.941 -24.685,-31.637c-7.281,5.348 -14.644,10.621 -22.092,15.818c11.883,5.574 23.933,11.149 35.313,17.928c-7.029,24.105 -45.02,16.195 -65.772,19.886c4.937,-12.504 23.43,-24.858 17.991,-38.341c-4.853,-1.356 -14.477,-3.992 -19.33,-5.273c-2.259,12.58 -4.351,25.31 -6.276,38.04c-23.43,-12.278 -36.149,-33.897 -40.584,-57.324c14.727,3.993 29.371,8.06 44.099,12.279c-2.26,-5.801 -6.695,-17.401 -8.954,-23.201c-10.042,1.356 -19.999,2.862 -29.957,4.369c4.769,-15.216 8.953,-30.583 11.799,-46.175c-23.598,10.395 -27.615,34.725 -32.803,55.365c-19.413,-22.749 9.54,-46.477 20.167,-66.966c-6.778,-13.483 -13.64,-26.891 -20.585,-40.149c-34.392,12.504 -51.63,46.326 -61.086,76.607c-16.234,54.537 13.472,112.388 62.341,145.306l4.602,7.307c-43.848,-2.486 -60.918,-42.786 -80.164,-71.862c-6.109,-26.666 -10.46,-54.537 -6.862,-81.73c8.954,-19.735 24.016,-36.835 32.551,-56.796c8.117,-20.263 32.468,-27.645 53.89,-30.96c15.982,32.466 36.316,63.049 51.211,95.967c6.527,12.504 11.381,27.419 25.188,35.253c12.133,4.067 25.857,-9.115 20.25,-19.585c-11.882,-41.43 -30.208,-81.052 -45.438,-121.502Z" style="fill:#eaffe0;fill-rule:nonzero;"></path><path d="M1111.96,1766.04c44.183,-4.293 85.018,12.203 121.837,32.316c27.112,29.528 53.304,64.555 49.287,104.93c3.013,33.144 -13.054,63.877 -34.141,90.091c-49.036,51.749 -139.326,64.028 -202.253,25.385c-48.869,-32.918 -78.575,-90.769 -62.341,-145.306c9.456,-30.281 26.694,-64.103 61.086,-76.607c6.945,13.258 13.807,26.666 20.585,40.149c-10.627,20.489 -39.58,44.217 -20.167,66.966c0.084,0.301 0.168,0.753 0.251,0.979c-17.405,20.414 3.933,45.347 20,60.563c30.208,29.453 80.583,30.131 118.322,12.655c2.594,-1.13 7.866,-3.315 10.544,-4.444c0.586,-0.754 1.841,-2.411 2.427,-3.24c31.798,-32.164 40.668,-84.064 9.957,-119.242c-17.823,-23.427 -49.203,-32.165 -78.658,-36.986c-5.774,-16.044 -11.381,-32.089 -16.736,-48.209Z" style="fill:#47bd07;fill-rule:nonzero;"></path><path d="M418.846,1863.96c12.468,-31.863 25.857,-63.651 44.768,-92.953c4.77,65.911 4.184,132.349 -2.594,198.185c-13.305,-0.979 -26.526,-2.109 -39.664,-3.314c-13.137,-3.089 -26.191,-6.479 -39.162,-9.868c5.44,-32.692 24.77,-61.166 36.652,-92.05Z" style="fill:#fafff5;fill-rule:nonzero;"></path><path d="M543.696,1776.36c3.263,0.452 9.79,1.507 13.054,1.959c35.647,51.297 65.939,105.533 100.08,157.734c-4.686,2.862 -14.058,8.437 -18.744,11.299c-15.648,5.198 -31.547,9.567 -47.697,13.032l-11.632,1.958c-18.158,-60.864 -19.079,-124.666 -35.061,-185.982Z" style="fill:#f7fff3;fill-rule:nonzero;"></path><path d="M1732.04,840.054c-11.371,69.822 -17.6,141.21 -6.232,211.358c17.656,65.158 37.321,129.939 56.734,194.645l0.218,0.291c2.311,3.095 6.464,8.842 8.652,11.761c10.962,34.726 32.05,66.589 38.493,102.52c4.001,19.058 -4.785,37.369 -9.402,55.603l-0.054,0.214c-1.255,8.06 -2.259,16.12 -3.096,24.255c-4.168,36.917 1.628,74.057 -0.89,111.049l-0.03,0.435c13.137,80.525 19.246,163.158 52.299,239.841c3.933,8.587 10.042,16.195 15.732,24.029c10.376,0.678 20.836,1.432 31.38,2.411c7.782,14.839 14.058,32.541 31.798,40.3c38.241,14.236 80.416,11.826 120.833,10.018c7.615,7.608 25.187,17.777 14.644,29.302c-22.426,22.297 -55.898,31.186 -86.358,41.129c-70.29,20.112 -145.769,23.652 -218.654,16.421c-25.354,-2.335 -20.334,-28.85 -21.422,-45.121c0.921,-21.317 -6.945,-45.271 7.783,-64.028c15.899,-19.66 4.602,-44.141 -0.67,-65.233c-11.464,-38.416 -26.024,-76.231 -47.948,-110.881c0.271,-0.341 0.542,-0.684 0.815,-1.03c-16.969,-15.262 -25.897,-33.728 -27.375,-52.943c-0.401,0.369 -0.807,0.733 -1.222,1.094c-9.874,-32.09 -22.342,-64.33 -22.342,-98.001c-0.837,-35.253 5.439,-70.506 1.255,-105.683c-5.857,-42.56 -32.802,-80.525 -67.278,-109.224c-38.995,-33.521 -70.04,-73.293 -104.766,-110.279c13.639,62.823 62.508,111.635 104.599,160.145c-16.087,46.296 -23.291,99.916 -63.705,135.249l-0.477,0.415c-13.42,7.953 -27.338,16.281 -43.408,18.877l-0.189,0.03c-17.74,3.54 -35.815,5.725 -53.806,7.533c-29.539,-0.754 -59.078,-1.959 -88.617,-1.582c-14.992,-21.727 -23.253,-46.3 -32.607,-70.197l-0.446,-1.138c-11.631,-24.933 -23.597,-50.695 -26.945,-77.662c45.355,-7.231 88.784,10.697 133.804,6.403c16.987,-27.796 2.343,-58.303 -0.502,-87.304c-4.854,-57.474 -3.85,-115.25 1.422,-172.649c6.36,-42.485 -24.267,-79.319 -25.689,-121.05c-3.85,-36.383 10.459,-71.184 18.409,-106.287c-39.413,-33.897 -89.118,-58.001 -121.67,-98.151c-16.234,-20.037 -36.066,-38.115 -48.115,-60.562c-10.711,-36.157 20.752,-65.911 43.597,-91.899c49.203,-56.269 110.289,-103.424 155.392,-162.631c27.698,-27.042 56.4,-53.859 89.621,-75.402c24.183,-14.312 29.12,-44.669 25.355,-68.171c-20.502,-33.521 -36.652,-72.992 -24.435,-111.333c8.954,-22.297 19.581,-46.552 42.426,-60.111c48.868,-23.954 109.62,-25.009 159.492,-2.712c-4.1,28.248 32.803,37.136 37.907,62.295c7.28,17.702 1.423,37.438 8.033,55.064c8.536,10.32 17.155,20.791 19.581,33.898c-25.187,23.426 -18.074,59.056 -29.622,87.831c-16.82,9.491 -36.903,5.649 -55.48,5.725c17.824,21.543 46.191,37.286 51.296,65.835c14.644,82.634 1.59,167.226 -17.238,248.504c-6.192,27.871 -14.393,55.666 -13.221,84.366c15.564,-17.024 14.895,-40.601 25.856,-59.659c2.595,-0.151 7.95,-0.603 10.628,-0.753c36.233,26.515 71.462,71.033 124.347,62.446l0.505,-0.254c21.387,-10.603 45.946,-6.405 68.28,-0.65c-1.507,7.909 -2.929,15.894 -4.519,23.803c9.372,7.231 18.828,14.538 28.2,21.92c-8.703,28.775 -12.719,60.036 -37.488,82.257c-22.761,-6.177 -46.275,-11.148 -66.944,-22.071c-18.158,-10.771 -31.547,-28.021 -53.387,-33.294c-34.978,-9.717 -66.776,-27.419 -102.591,-34.651l-0.546,3.324Zm277.144,1043.88l-0.186,-0.016l0.456,0.036l-0.27,-0.02Zm8.917,-0.618l0.229,-0.049l-0.496,0.103l0.267,-0.054Zm-14.127,-0.503l-0.067,-0.027l0.328,0.127l-0.261,-0.1Zm17.603,-0.432l-0.328,0.108l0.488,-0.163l-0.16,0.055Zm1.643,-0.616l0.13,-0.054l-0.673,0.273l0.543,-0.219Zm1.541,-0.718l-0.48,0.241c0.163,-0.079 0.323,-0.159 0.48,-0.241Zm2.251,-2.006l0.041,0.505l-0.113,-0.991l0.072,0.486Zm-28.026,-1.536l0.061,0.28c-0.022,-0.092 -0.042,-0.186 -0.061,-0.28Zm27.016,-1.313l-0.033,-0.05l0.28,0.46l-0.247,-0.41Zm-0.735,-0.928l0.115,0.125l-0.234,-0.247c0.04,0.041 0.08,0.081 0.119,0.122Zm-2.201,-1.633l-0.06,-0.031l0.286,0.154l-0.226,-0.123Zm-18.624,-0.163l0.198,-0.065l-0.429,0.142l0.231,-0.077Zm17.263,-0.446l-0.083,-0.031l0.38,0.147l-0.297,-0.116Zm-15.315,-0.12c-0.23,0.058 -0.458,0.119 -0.684,0.182l0.822,-0.217l-0.138,0.035Zm13.646,-0.397l-0.126,-0.031l0.317,0.08l-0.191,-0.049Zm-2.012,-0.387l0.634,0.098c-0.209,-0.035 -0.42,-0.068 -0.634,-0.098Zm-3.268,-0.236l-0.092,-0.001l0.508,0.008l-0.416,-0.007Zm-199.922,-326.455l0.389,1.751l-0.508,-2.3l0.119,0.549Zm-1.424,-7.158l-0.136,-0.756l0.559,3.022c-0.145,-0.755 -0.286,-1.51 -0.423,-2.266Zm-1.477,-9.147c0.186,1.303 0.382,2.605 0.588,3.907c0.206,1.301 0.423,2.601 0.65,3.9c-0.455,-2.598 -0.865,-5.201 -1.238,-7.807Zm-0.379,-2.743l0.366,2.657c-0.126,-0.886 -0.248,-1.771 -0.366,-2.657Zm-0.374,-2.915l0.331,2.59l-0.413,-3.262l0.082,0.672Zm-88.302,2.122l1.845,0.008c-0.613,0.002 -1.229,-0.001 -1.845,-0.008Zm6.902,-0.135c-0.813,0.047 -1.632,0.081 -2.454,0.104c-0.822,0.024 -1.648,0.036 -2.477,0.039c1.656,-0.006 3.303,-0.049 4.931,-0.143Zm5.282,-0.523l-1.122,0.151c0.376,-0.046 0.751,-0.097 1.122,-0.151Zm-28.684,0.087l1.396,0.035c-0.468,-0.014 -0.933,-0.025 -1.396,-0.035Zm32.088,-0.714l-0.879,0.189c0.294,-0.06 0.587,-0.123 0.879,-0.189Zm1.72,-0.43l0.174,-0.048l-0.886,0.237l0.712,-0.189Zm-50.836,-0.284l0.646,0.114c-0.217,-0.037 -0.432,-0.075 -0.646,-0.114Zm53.298,-0.494l-1.138,0.386c0.383,-0.122 0.762,-0.25 1.138,-0.386Zm1.529,-0.598c-0.324,0.138 -0.651,0.269 -0.98,0.395l1.077,-0.436l-0.097,0.041Zm4.252,-2.272c-0.47,0.313 -0.951,0.608 -1.44,0.887c-0.49,0.278 -0.989,0.541 -1.497,0.788l2.937,-1.675Zm62.451,0.738l0.109,0.925l-0.19,-1.63l0.081,0.705Zm-0.495,-4.513l0.212,1.994c-0.072,-0.665 -0.143,-1.329 -0.212,-1.994Zm-59.04,1.487c-0.131,0.121 -0.264,0.24 -0.398,0.359l0.476,-0.432l-0.078,0.073Zm58.486,-7.183l0.51,5.273l-0.577,-6.012l0.067,0.739Zm-134.562,3.436l0.133,0.344c-0.045,-0.114 -0.09,-0.228 -0.133,-0.344Zm82.158,-6.024l-0.186,0.568l0.246,-0.758l-0.06,0.19Zm-283.619,-2.446c-0.305,-0.053 -0.609,-0.106 -0.914,-0.158l2.378,0.414c-0.488,-0.086 -0.976,-0.172 -1.464,-0.256Zm284.303,0.021l0.043,-0.179l-0.087,0.358l0.044,-0.179Zm-11.246,-2.405c0.006,0.081 0.011,0.163 0.016,0.245c0.005,0.082 0.009,0.164 0.014,0.246l-0.03,-0.491Zm61.94,-5.155l0.42,5.456c-0.146,-1.816 -0.285,-3.636 -0.42,-5.456Zm-355.139,4.699c0.201,0.019 0.402,0.039 0.603,0.06l-0.803,-0.08l0.2,0.02Zm-39.764,-0.102l1.245,0.038c-0.414,-0.014 -0.829,-0.027 -1.245,-0.038Zm-4.489,-0.076c0.974,0.008 1.945,0.02 2.911,0.039l-6.687,-0.048c1.263,-0.003 2.523,-0.001 3.776,0.009Zm-4.476,-0.007l-2.875,0.013c0.96,-0.005 1.919,-0.011 2.875,-0.013Zm341.854,-0.288l0.023,0.254l-0.07,-0.738l0.047,0.484Zm-360.31,0.216l0.405,0.012l-0.711,-0.022l0.306,0.01Zm-5.203,-0.248l4.026,0.207c-1.347,-0.052 -2.69,-0.119 -4.026,-0.207Zm47.672,0.048l-4.903,0.153l5.962,-0.185l-1.059,0.032Zm19.345,0.008l-0.264,-0.018l0.691,0.048l-0.427,-0.03Zm-69.864,-0.273l1.136,0.095c-0.379,-0.03 -0.758,-0.062 -1.136,-0.095Zm63.089,-0.043l-0.366,-0.008l0.608,0.014l-0.242,-0.006Zm226.585,-0.625l0.015,0.626l-0.015,-0.626c-0.008,-0.314 -0.015,-0.627 -0.021,-0.941l0.021,0.941Zm-293.768,0.227l1.726,0.206c-0.578,-0.064 -1.153,-0.133 -1.726,-0.206Zm66.741,-0.785l-0.256,0.546c0.084,-0.183 0.169,-0.365 0.256,-0.546Zm305.521,-0.197l0.033,0.243l-0.103,-0.723l0.07,0.48Zm-328.14,-1.186l-1.004,1.324l1.14,-1.499l-0.136,0.175Zm249.591,-0.739l0.012,0.695l-0.035,-2.088l0.023,1.393Zm78.008,-0.968l-0.08,-0.329l0.4,1.848l-0.32,-1.519Zm-326.22,-0.036l0.127,-0.156l-0.754,0.939c0.207,-0.262 0.416,-0.523 0.627,-0.783Zm388.906,-0.44l0.054,0.73l-0.113,-1.541l0.059,0.811Zm-451.334,0.113l0.493,0.199l-0.625,-0.253l0.132,0.054Zm85.668,-0.143l-0.198,0.314l0.3,-0.473c-0.034,0.052 -0.068,0.106 -0.102,0.159Zm302.773,-0.311c0.029,0.108 0.058,0.216 0.086,0.325l-0.13,-0.486l0.044,0.161Zm-1.174,-3.387l0.17,0.404c-0.055,-0.135 -0.112,-0.269 -0.17,-0.404Zm-0.32,-0.708l0.22,0.478c-0.072,-0.16 -0.144,-0.318 -0.22,-0.478Zm-393.263,-0.064c-0.173,-0.251 -0.343,-0.502 -0.512,-0.755l0.616,0.905l-0.104,-0.15Zm96.549,-1.147l-0.461,0.46c0.153,-0.156 0.306,-0.309 0.461,-0.46Zm296.059,-0.065c0.049,0.086 0.096,0.173 0.143,0.261l-0.215,-0.39l0.072,0.129Zm-295.14,-0.798l-0.785,0.733l1.139,-1.048c-0.119,0.104 -0.237,0.209 -0.354,0.315Zm293.386,-1.861c0.291,0.375 0.571,0.762 0.839,1.162c0.269,0.4 0.525,0.813 0.77,1.239l-1.609,-2.401Zm-73.967,0.601c0.001,-0.173 0.001,-0.347 0.002,-0.521c-0.002,0.347 -0.003,0.694 -0.003,1.042l0.001,-0.521Zm139.872,-4.59l-0.09,-1.23l0.423,5.862l-0.333,-4.632Zm-67.161,2.524l1.168,1.353l-1.331,-1.525l0.163,0.172Zm17.686,-0.532c0.086,0.457 0.166,0.914 0.24,1.373l-0.244,-1.39l0.004,0.017Zm-18.966,-0.715l0.896,0.849c-0.29,-0.292 -0.589,-0.574 -0.896,-0.849Zm-392.744,-0.875l0.363,0.702c-0.122,-0.234 -0.243,-0.467 -0.363,-0.702Zm110.151,-0.089l-1.067,0.548c0.353,-0.188 0.708,-0.37 1.067,-0.548Zm-24.224,-0.605l-0.576,0.497l0.751,-0.647l-0.175,0.15Zm32.886,-2.711l0.394,-0.114l-0.412,0.119l-0.384,0.113l-0.357,0.108c-1.657,0.505 -3.272,1.071 -4.836,1.71l-0.386,0.159l0.386,-0.159c1.564,-0.639 3.179,-1.205 4.836,-1.71l0.379,-0.114l0.38,-0.112Zm269.926,1.426l-0.182,-0.103l0.21,0.119c0.062,0.034 0.123,0.069 0.184,0.105l-0.212,-0.121Zm-3.228,-1.562l2.394,1.108c-0.772,-0.401 -1.57,-0.77 -2.394,-1.108Zm-64.075,-0.898l-0.036,1.503c0.011,-0.501 0.023,-1.002 0.036,-1.503Zm56.062,-1.387l-0.321,-0.059l0.314,0.058l0.101,0.019l5.857,1.5l1.32,0.473l-7.271,-1.991Zm-256.027,1.702c-0.194,0.048 -0.388,0.098 -0.581,0.148l0.727,-0.185l-0.146,0.037Zm-123.53,-0.23l0.134,0.307l-0.253,-0.579l0.119,0.272Zm412.057,-0.781c0.108,0.339 0.214,0.679 0.316,1.019l-0.371,-1.188l0.055,0.169Zm50.647,-2.44l0.249,3.244c-0.081,-1.083 -0.164,-2.164 -0.249,-3.244Zm-463.488,1.378l0.591,1.401c-0.201,-0.465 -0.398,-0.932 -0.591,-1.401Zm166.499,-2.453l6.956,3.675c-2.321,-1.23 -4.641,-2.455 -6.956,-3.675Zm212.486,2.588c-2.745,-0.443 -5.621,-0.709 -8.572,-0.853c-2.95,-0.144 -5.975,-0.165 -9.017,-0.121c6.084,-0.089 12.1,0.087 17.589,0.974Zm-241.554,-0.42l-1.799,0.239c0.597,-0.083 1.197,-0.162 1.799,-0.239Zm200.7,0.17l-1.026,0.001l1.909,-0.007l-0.883,0.006Zm-3.711,-0.04l-0.385,-0.011l1.072,0.028l-0.687,-0.017Zm11.21,-0.137l-0.192,0.007l0.873,-0.033l-0.681,0.026Zm-346.936,-3.038l1.093,2.809c-0.378,-0.931 -0.742,-1.868 -1.093,-2.809Zm152.226,1.624c-2.073,0.199 -4.16,0.396 -6.251,0.607l6.873,-0.667l-0.622,0.06Zm182.384,0.274l-0.037,-0.07l0.18,0.34l-0.143,-0.27Zm-172.596,-1.322c-0.098,0.012 -0.197,0.025 -0.299,0.037c0.2,-0.024 0.399,-0.05 0.598,-0.075l-0.299,0.038Zm3.795,-0.525l0.332,-0.051l-2.964,0.425l2.632,-0.374Zm298.631,-2.449l0.205,2.487c-0.067,-0.827 -0.135,-1.657 -0.205,-2.487Zm-465.214,0.263l0.718,1.985l-0.798,-2.211l0.08,0.226Zm164.062,0.032l0.585,0.408c-0.195,-0.138 -0.39,-0.274 -0.585,-0.408Zm248.147,-0.475l-0.134,-0.29l0.315,0.686l-0.181,-0.396Zm-249.066,-0.144l0.578,0.386c-0.193,-0.131 -0.385,-0.259 -0.578,-0.386Zm-164.034,-2.02l0.663,1.956c-0.225,-0.65 -0.446,-1.303 -0.663,-1.956Zm112.35,0.137l0.884,-0.403l-2.982,1.414l2.098,-1.011Zm48.605,0.007l-0.162,-0.09l0.916,0.522l-0.754,-0.432Zm250.928,-0.483l0.344,0.68c-0.113,-0.228 -0.228,-0.454 -0.344,-0.68Zm-252.224,-0.22l0.971,0.522c-0.323,-0.178 -0.647,-0.352 -0.971,-0.522Zm-160.705,-2.71l0.94,2.944c-0.322,-0.978 -0.634,-1.959 -0.94,-2.944Zm336.571,2.014c-0.096,0.232 -0.182,0.469 -0.256,0.711l0.275,-0.754l-0.019,0.043Zm-176.814,0.214l0.843,0.428c-0.281,-0.146 -0.562,-0.289 -0.843,-0.428Zm176.984,-0.591c0.035,-0.072 0.07,-0.143 0.107,-0.214l-0.23,0.481c0.04,-0.09 0.081,-0.179 0.123,-0.267Zm71.773,-1.714c0.663,0.229 1.324,0.467 1.981,0.714l-2.202,-0.79l0.221,0.076Zm-285.554,-0.155l0.315,-0.093l-1.259,0.381l0.944,-0.288Zm29.968,-0.287l0.648,0.208c-0.216,-0.072 -0.432,-0.141 -0.648,-0.208Zm-28.989,0.005l-0.55,0.156l0.734,-0.207l-0.184,0.051Zm0.911,-0.247l-0.323,0.085l0.598,-0.157l-0.275,0.072Zm26.49,-0.225l1.049,0.301c-0.35,-0.105 -0.699,-0.205 -1.049,-0.301Zm-0.819,-0.216l0.637,0.167c-0.212,-0.057 -0.424,-0.113 -0.637,-0.167Zm-0.373,-0.093l-0.163,-0.04l0.407,0.1l-0.244,-0.06Zm189.342,-0.369c-0.147,0.115 -0.291,0.233 -0.43,0.353l0.47,-0.385l-0.04,0.032Zm-207.183,-0.558c-0.831,0.106 -1.661,0.231 -2.489,0.375c-0.828,0.143 -1.654,0.305 -2.479,0.486l4.968,-0.861Zm15.538,0.423l1.968,0.423c-0.654,-0.156 -1.311,-0.297 -1.968,-0.423Zm-3.276,-0.509l3.174,0.49c-1.057,-0.201 -2.115,-0.364 -3.174,-0.49Zm195.578,0.164l-0.358,0.253c0.117,-0.086 0.237,-0.17 0.358,-0.253Zm-198.63,-0.428l1.934,0.145c-0.645,-0.062 -1.289,-0.11 -1.934,-0.145Zm200.289,-0.545c0.232,-0.117 0.469,-0.229 0.711,-0.336l-1.834,0.961l1.123,-0.625Zm57.516,0.453c-0.276,-0.062 -0.554,-0.122 -0.831,-0.182l1.369,0.304c-0.179,-0.041 -0.358,-0.082 -0.538,-0.122Zm-259.086,0.04c-0.761,-0.022 -1.522,-0.025 -2.283,-0.011c-0.76,0.014 -1.52,0.045 -2.28,0.093c1.518,-0.096 3.04,-0.125 4.563,-0.082Zm326.048,-1.061l-0.079,-0.763l0.174,1.693l-0.095,-0.93Zm-70.171,0.361l1.791,0.355c-0.596,-0.124 -1.193,-0.242 -1.791,-0.355Zm-52.087,-0.72c-0.109,0.037 -0.216,0.075 -0.323,0.114l0.431,-0.151l-0.108,0.037Zm44.057,-0.482l-0.33,-0.037l3.262,0.408l-2.932,-0.371Zm-43.233,0.22c0.143,-0.042 0.287,-0.082 0.433,-0.122l-0.867,0.255l0.434,-0.133Zm39.247,-0.614l3.408,0.329c-1.133,-0.124 -2.269,-0.233 -3.408,-0.329Zm-6.594,-0.379l-2.6,-0.122l0.997,0.031l1.603,0.091l4.056,0.189c0.738,0.049 1.475,0.103 2.211,0.163l-6.267,-0.352Zm-29.17,0.275l0.19,-0.023l-0.412,0.052l0.222,-0.029Zm2.757,-0.185c-0.329,0.003 -0.657,0.013 -0.985,0.029l1.108,-0.03l-0.123,0.001Zm21.23,-0.268l2.492,0.054c-0.831,-0.023 -1.662,-0.041 -2.492,-0.054Zm93.005,-6.58l0.215,1.729c-0.07,-0.574 -0.142,-1.152 -0.215,-1.729Zm-471.176,-7.941l0.559,1.828c-0.183,-0.609 -0.37,-1.219 -0.559,-1.828Zm-1.733,-5.287l1.216,3.648c-0.392,-1.224 -0.795,-2.44 -1.216,-3.648Zm470.806,0.888l-0.071,-0.109l0.42,0.654c-0.116,-0.183 -0.233,-0.366 -0.349,-0.545Zm-471.323,-2.349l0.433,1.219c-0.143,-0.408 -0.287,-0.814 -0.433,-1.219Zm469.321,-0.535l1.248,1.754c-0.404,-0.592 -0.821,-1.176 -1.248,-1.754Zm-485.027,0.942l0.084,0.642l-0.125,-0.967l0.041,0.325Zm-0.103,-0.812c-0.051,-0.405 -0.1,-0.811 -0.149,-1.216l0.18,1.46l-0.031,-0.244Zm483.145,-2.678l1.048,1.313c-0.343,-0.441 -0.693,-0.879 -1.048,-1.313Zm-483.362,0.895l0.038,0.324l-0.115,-0.973l0.077,0.649Zm-0.293,-2.567l0.058,0.53l-0.114,-1.041l0.056,0.511Zm481.73,-0.587l-0.194,-0.218l0.472,0.533l-0.278,-0.315Zm-468.146,-1.492l-0.123,-0.274l0.508,1.151l-0.385,-0.877Zm447.116,-18.334c2.971,2.744 6.037,5.421 9.058,8.125c3.021,2.704 5.997,5.435 8.788,8.288c-5.58,-5.705 -11.903,-10.924 -17.846,-16.413Zm-450.03,12.455l0.791,1.475c-0.259,-0.496 -0.522,-0.987 -0.791,-1.475Zm-11.388,0.654l0.04,0.451l-0.068,-0.779l0.028,0.328Zm-0.502,-6.297l0.4,5.106c-0.144,-1.703 -0.276,-3.405 -0.4,-5.106Zm9.9,2.276l0.916,1.494c-0.299,-0.503 -0.604,-1 -0.916,-1.494Zm-1.415,-2.139l-0.122,-0.176l0.249,0.36l-0.127,-0.184Zm-8.554,-1.105c-0.034,-0.484 -0.068,-0.968 -0.101,-1.452l0.135,1.936l-0.034,-0.484Zm5.417,-3.025c0.08,0.096 0.16,0.192 0.238,0.287l-0.357,-0.43l0.119,0.143Zm-4.322,-4.631l0.507,0.492c-0.168,-0.165 -0.337,-0.328 -0.507,-0.492Zm-1.527,-1.407l-0.147,-0.13l0.294,0.261c-0.046,-0.041 -0.096,-0.086 -0.147,-0.131Zm454.674,-4.488l0.617,0.67c-0.208,-0.223 -0.413,-0.446 -0.617,-0.67Zm49.296,-2.502l0.158,0.432l-0.283,-0.774l0.125,0.342Zm-8.69,-0.86c-0.114,-0.068 -0.229,-0.135 -0.341,-0.203l0.455,0.27l-0.114,-0.067Zm-44.702,-1.511l0.483,0.621c-0.162,-0.205 -0.323,-0.413 -0.483,-0.621Zm-0.266,-0.35l0.187,0.246l-0.349,-0.461l0.162,0.215Zm52.334,-1.052l0.399,1.172c-0.135,-0.39 -0.268,-0.781 -0.399,-1.172Zm-16.734,-3.84c0.251,0.22 0.504,0.438 0.76,0.654l-0.854,-0.736l0.094,0.082Zm-38.821,0.18l0.163,0.265l-0.288,-0.472l0.125,0.207Zm37.116,-1.73l0.562,0.524c-0.189,-0.174 -0.377,-0.348 -0.562,-0.524Zm-41.094,-5.09l0.656,1.046l-0.793,-1.269l0.137,0.223Zm34.644,-2.079l0.232,0.303l-0.405,-0.531l0.173,0.228Zm-5.89,-9.438l0.641,1.24c-0.219,-0.412 -0.432,-0.825 -0.641,-1.24Zm-35.047,-1.389l0.426,1.123c-0.146,-0.374 -0.288,-0.748 -0.426,-1.123Zm59.265,-1.34l0.148,0.701l-0.253,-1.198l0.105,0.497Zm-59.957,-0.619c0.04,0.12 0.081,0.239 0.122,0.357l-0.162,-0.476l0.04,0.119Zm59.697,-0.625l0.114,0.548l-0.216,-1.045l0.102,0.497Zm-29.791,-13.707l0.061,0.334l-0.113,-0.629l0.052,0.295Zm-0.413,-2.597l0.171,1.155c-0.06,-0.383 -0.117,-0.768 -0.171,-1.155Zm-0.382,-3.31l0.077,0.796c-0.027,-0.266 -0.053,-0.531 -0.077,-0.796Zm-0.233,-3.464l0.078,1.461c-0.031,-0.486 -0.057,-0.973 -0.078,-1.461Zm-32.703,-1.004l-0.004,0.897c-0.001,-0.298 0.001,-0.597 0.004,-0.897Zm32.646,-0.893l-0.003,-0.243l0.052,1.94l-0.049,-1.697Zm-31.845,-9.715l-0.121,0.906c0.039,-0.303 0.079,-0.605 0.121,-0.906Zm32.498,-1.437l-0.121,0.952c0.038,-0.317 0.079,-0.635 0.121,-0.952Zm23.018,-2.635l0.648,3.295c-0.212,-1.097 -0.427,-2.196 -0.648,-3.295Zm-22.946,2.106l-0.04,0.289l0.102,-0.717l-0.062,0.428Zm0.997,-5.585l-0.286,1.379c0.091,-0.457 0.186,-0.919 0.286,-1.379Zm0.167,-0.752l-0.069,0.308l0.133,-0.587l-0.064,0.279Zm0.236,-1.008l-0.061,0.256l0.35,-1.416l-0.289,1.16Zm-31.208,-3.639l-0.798,2.951c0.25,-0.986 0.516,-1.97 0.798,-2.951Zm33.021,-2.69l-1.463,4.934l1.569,-5.249l-0.106,0.315Zm17.495,1.247l0.612,2.656c-0.199,-0.887 -0.403,-1.772 -0.612,-2.656Zm-0.097,-0.411l0.061,0.256c-0.053,-0.222 -0.106,-0.444 -0.159,-0.667l0.098,0.411Zm-0.701,-2.874l0.467,1.898c-0.153,-0.635 -0.309,-1.267 -0.467,-1.898Zm-0.574,-2.245l0.471,1.835c-0.154,-0.612 -0.311,-1.223 -0.471,-1.835Zm-0.771,-2.865l0.746,2.771c-0.243,-0.928 -0.491,-1.85 -0.746,-2.771Zm-13.015,1.009l-0.097,0.226l0.59,-1.348c-0.168,0.373 -0.332,0.747 -0.493,1.122Zm1.749,-3.785l-0.885,1.848c0.287,-0.62 0.582,-1.236 0.885,-1.848Zm9.484,-3.265l1.276,4.248c-0.408,-1.419 -0.832,-2.836 -1.276,-4.248Zm-7.995,0.412l-1.047,1.975l1.192,-2.237l-0.145,0.262Zm-32.235,-1.132l1.115,-2.256l-2.184,4.544l1.069,-2.288Zm33.147,-0.483l-0.443,0.774c0.146,-0.258 0.294,-0.516 0.443,-0.774Zm5.348,-4.018l-0.136,-0.386l0.271,0.771l-0.135,-0.385Zm-2.608,-0.348l-0.069,0.102l1.056,-1.526c-0.335,0.472 -0.665,0.947 -0.987,1.424Zm2.253,-0.652c0.043,0.119 0.085,0.238 0.128,0.357l-0.519,-1.433l0.391,1.076Zm-26.791,-13.336c-1.484,2.02 -2.905,4.084 -4.259,6.187c-1.353,2.102 -2.64,4.243 -3.854,6.417c2.429,-4.35 5.146,-8.564 8.113,-12.604Zm25.692,12.33l-0.095,0.133l0.289,-0.402l-0.194,0.269Zm-0.27,-2.421l0.747,1.763l-0.272,0.373l0.272,-0.373l0.107,0.253l-0.098,-0.265l-0.756,-1.751Zm-23.22,-12.817l-1.862,2.448c0.608,-0.821 1.23,-1.638 1.862,-2.448Zm1.35,-1.698l-1.253,1.573l1.676,-2.094c-0.142,0.173 -0.283,0.347 -0.423,0.521Zm14.95,-1.441l0.968,2.281c-0.325,-0.76 -0.647,-1.52 -0.968,-2.281Zm-9.934,-4.384l-3.03,3.431c0.988,-1.161 1.999,-2.306 3.03,-3.431Zm7.162,-2.407c-0.052,-0.133 -0.105,-0.267 -0.157,-0.401c0.081,0.207 0.162,0.414 0.244,0.621l-0.087,-0.22Zm-1.538,-3.345l0.187,-0.179l-1.385,1.343c0.398,-0.392 0.797,-0.779 1.198,-1.164Zm161.633,-370.416l6.192,0.19c-1.788,0.002 -3.56,-0.046 -5.315,-0.139l-0.877,-0.051Zm7.925,0.174l-0.839,0.012c0.278,-0.003 0.558,-0.007 0.839,-0.012Zm1.857,-0.052l-0.199,0.007l0.651,-0.025l-0.452,0.018Zm4.066,-0.236c-0.149,0.012 -0.297,0.023 -0.446,0.034c-0.149,0.011 -0.297,0.022 -0.445,0.032c0.295,-0.02 0.593,-0.043 0.891,-0.066Zm5.085,-0.531l-0.332,0.042l0.562,-0.073l-0.23,0.031Zm-26.726,-0.148l0.81,0.111l-1.498,-0.211l0.688,0.1Zm-4.251,-0.692c0.244,0.045 0.488,0.089 0.733,0.132c0.245,0.043 0.49,0.086 0.735,0.127l-1.468,-0.259Zm-5.859,-1.249c0.9,0.218 1.805,0.425 2.713,0.621c0.908,0.195 1.82,0.379 2.736,0.551l-5.449,-1.172Zm39.858,0.829l0.3,-1.092c-0.102,0.364 -0.202,0.728 -0.3,1.092Zm-43.161,-1.683c0.822,0.226 1.646,0.442 2.474,0.65l-3.294,-0.878l0.82,0.228Zm43.833,-0.707c-0.063,0.216 -0.126,0.432 -0.188,0.649l0.38,-1.298l-0.192,0.649Zm-47.102,-0.242l0.801,0.242l-1.357,-0.415l0.556,0.173Zm48.544,-4.421c-0.167,0.52 -0.333,1.04 -0.497,1.56l-0.15,0.481l-0.155,0.498l0.187,-0.604l0.19,-0.604c0.128,-0.403 0.256,-0.806 0.385,-1.209l0.04,-0.122c0.126,-0.392 0.253,-0.783 0.381,-1.175l-0.381,1.175Zm2.808,-8.577l0.143,-0.448l-0.159,0.495l-0.118,0.37l-0.266,0.819l-0.096,0.296l-0.157,0.48l-0.167,0.508l-0.325,0.989l-0.857,2.596c0.339,-1.029 0.68,-2.059 1.019,-3.089l0.099,-0.3l0.139,-0.422l0.166,-0.51l0.201,-0.616l0.244,-0.751l0.134,-0.417Zm-77.349,1.934c0.602,0.323 1.206,0.643 1.811,0.959c0.605,0.317 1.212,0.629 1.82,0.938c-1.219,-0.619 -2.428,-1.251 -3.631,-1.897Zm-8.737,-4.98c0.367,0.221 0.735,0.441 1.103,0.659c0.368,0.219 0.737,0.437 1.107,0.653l-2.21,-1.312Zm87.914,-3.023c-0.2,0.724 -0.408,1.447 -0.622,2.17c-0.214,0.722 -0.434,1.444 -0.658,2.165c0.448,-1.441 0.88,-2.886 1.28,-4.335Zm-92.807,-0c0.631,0.4 1.264,0.797 1.899,1.191c0.634,0.395 1.271,0.787 1.909,1.175c-1.278,-0.778 -2.546,-1.567 -3.808,-2.366Zm-10.932,-7.265l0.643,0.444l0.645,0.444l0.647,0.443l0.27,0.185l0.38,0.258l0.28,0.191l0.377,0.255l0.278,0.188l0.654,0.441l0.653,0.437l0.64,0.427l0.656,0.435l0.659,0.435l0.281,0.185l0.383,0.252l0.279,0.182l0.396,0.258l0.265,0.172l0.661,0.427l0.661,0.426l-0.704,-0.453l-0.522,-0.338l-0.611,-0.397l-0.61,-0.399l-0.36,-0.236l-0.249,-0.164l-0.609,-0.402l-0.576,-0.383l-0.656,-0.437l-0.694,-0.466l-0.497,-0.334l-0.603,-0.408l-0.602,-0.41l-0.602,-0.41l-0.6,-0.412l-0.57,-0.392l-0.643,-0.444c-0.465,-0.322 -0.928,-0.644 -1.391,-0.967l1.391,0.967Zm105.524,-0.596c-0.082,0.486 -0.17,0.972 -0.263,1.457c-0.094,0.485 -0.193,0.969 -0.297,1.453c0.208,-0.968 0.396,-1.938 0.56,-2.91Zm0.522,-3.888l-0.335,2.711c0.135,-0.9 0.247,-1.804 0.335,-2.711Zm-110.93,1.053l0.701,0.498l1.392,0.984c-0.466,-0.328 -0.93,-0.656 -1.392,-0.984l-0.701,-0.498c-0.231,-0.165 -0.463,-0.33 -0.694,-0.496c-0.983,-0.352 -1.965,-0.709 -2.952,-1.072l2.952,1.072l0.694,0.496Zm-10.083,-3.994c-0.604,-0.233 -1.207,-0.466 -1.811,-0.701c0.604,0.235 1.208,0.469 1.811,0.701l0.545,0.21l0.785,0.3l0.785,0.299l0.621,0.236c0.578,0.218 1.157,0.436 1.735,0.652l0.053,0.019c0.31,0.116 0.62,0.232 0.93,0.347l-0.93,-0.347l-0.888,-0.332l-0.934,-0.352l-0.915,-0.348l-0.894,-0.341l-0.893,-0.343Zm121.197,0.267l-0.097,1.659c0.042,-0.551 0.075,-1.104 0.097,-1.659Zm0.033,-2.205l0.001,0.863c0.002,-0.286 0.002,-0.574 -0.001,-0.863Zm-0.101,-2.486l-0.028,-0.364l0.028,0.364c0.015,0.217 0.029,0.434 0.041,0.652l-0.041,-0.652Zm-3.093,-7.813l0.171,0.388l0.15,0.343c0.055,0.126 0.109,0.252 0.164,0.379l0.179,0.414l0.097,0.227l0.374,0.879c-0.124,-0.293 -0.248,-0.587 -0.374,-0.879l-0.141,-0.328c-0.148,-0.346 -0.298,-0.691 -0.449,-1.035l-0.121,-0.274l-0.229,-0.518l0.179,0.404Zm-3.181,-6.82l2.088,4.396c-0.677,-1.473 -1.374,-2.938 -2.088,-4.396Zm-156.597,2.297c0.387,0.15 0.775,0.301 1.162,0.451c0.387,0.151 0.774,0.302 1.161,0.454c-0.775,-0.304 -1.549,-0.605 -2.323,-0.905Zm-5.187,-1.974l3.251,1.23c-1.084,-0.414 -2.167,-0.824 -3.251,-1.23Zm-18.281,-6.287c1.899,0.586 3.791,1.194 5.679,1.822c1.887,0.627 3.769,1.273 5.647,1.935c-3.753,-1.324 -7.528,-2.584 -11.326,-3.757Zm177.723,1.315l0.298,0.579l-0.437,-0.846l0.139,0.267Zm-194.071,-5.719c2.486,0.563 4.959,1.176 7.421,1.831c2.461,0.656 4.912,1.355 7.352,2.092c-4.883,-1.473 -9.803,-2.797 -14.773,-3.923Zm191.635,1.109l0.438,0.816l-0.701,-1.303l0.263,0.487Zm-0.995,-1.835l0.137,0.252l-0.494,-0.902l0.357,0.65Zm-194.162,-0.037l0.778,0.163l-1.732,-0.357l0.954,0.194Zm-17.882,-2.694l-0.999,-0.089c0.333,0.029 0.667,0.058 0.999,0.089l0.713,0.067l0.569,0.056l0.328,0.034c2.166,0.223 4.321,0.493 6.462,0.806c-2.144,-0.313 -4.298,-0.583 -6.462,-0.806l-0.489,-0.05l-0.503,-0.049l-0.51,-0.048l-0.108,-0.01Zm202.278,-14.567l1.036,1.817l-1.595,-2.801l0.559,0.984Zm-5.379,-9.621c0.367,0.672 0.735,1.344 1.105,2.014c0.371,0.671 0.743,1.341 1.116,2.01c-0.747,-1.338 -1.488,-2.68 -2.221,-4.024Zm-487.55,-28.446c-4.285,-3.241 -8.839,-6.192 -13.721,-8.76c-26.359,-10.696 -23.514,-36.157 -23.514,-58.077c40.919,-29.076 69.872,-67.794 99.662,-105.608c-1.171,-1.582 -3.431,-4.746 -4.518,-6.328c-42.844,39.396 -92.048,72.314 -137.486,109.074c6.109,34.876 36.15,59.96 65.521,80.599l-0.083,3.315c2.396,1.548 4.828,3.048 7.296,4.498l0.07,-2.77c0.251,-6.553 0.335,-13.107 0.335,-19.66c2.212,1.164 4.357,2.406 6.438,3.717Zm450.456,17.865l0.148,0.013l-0.455,-0.039l0.307,0.026Zm-6.698,-0.533l3.397,0.257c-1.132,-0.091 -2.264,-0.176 -3.397,-0.257Z" style="fill:#0098e6;fill-opacity:0.8;fill-rule:nonzero;"></path><path d="M1274.2,1708.86c-11.536,-19.265 -27.963,-37.455 -32.364,-59.204l-0.505,-0.761c-21.32,-32.263 -36.33,-67.765 -49.033,-103.341l4.644,-0.376c-1.736,0.132 -3.472,0.263 -4.644,0.376l-3.263,0.302c-1.339,-4.746 -3.933,-14.237 -5.189,-18.983c-0.156,-2.495 -0.379,-6.491 -0.585,-10.093c0.206,3.602 0.429,7.598 0.585,10.093c-69.035,-158.864 -109.117,-327.22 -129.117,-496.63c-13.472,-95.138 -10.711,-191.255 -8.2,-286.92c14.141,-187.187 55.73,-381.003 178.069,-537.081c53.471,-61.843 122.172,-120.975 209.199,-139.279l0.794,-0.253c67.574,-21.397 142.642,-15.708 209.408,5.601c29.706,7.834 55.982,23.201 85.688,30.96c1.673,6.854 3.347,13.709 5.021,20.564c-69.705,-15.819 -143.511,-28.323 -214.638,-11.525c-27.363,5.649 -51.881,18.304 -78.24,26.364c-4.017,-0.151 -12.134,-0.452 -16.234,-0.602l16.234,0.602c-97.152,53.482 -167.275,138.978 -211.541,232.233c-9.624,24.782 -23.933,48.51 -25.523,75.176c-16.819,15.668 -18.911,38.342 -26.359,58.077c-58.073,197.959 -58.91,406.389 -25.857,607.964c21.506,123.084 54.308,244.812 102.926,361.569l-0.586,3.088l1.101,2.201c23.069,46.224 43.806,93.435 68.353,139.112c7.029,13.258 14.811,26.063 22.761,38.869c-3.598,5.951 -7.029,12.052 -10.544,18.078c3.431,-3.013 10.293,-9.114 13.724,-12.203c12.109,19.947 24.137,39.894 37.28,59.336l0.626,0.926c3.766,5.348 7.699,10.772 11.632,16.12c73.972,103.876 165.35,201.951 285.765,263.87c46.274,20.866 95.478,44.669 148.865,39.321c2.678,2.259 8.117,6.628 10.795,8.813c76.985,6.779 156.731,-9.943 217.901,-53.633l4.937,1.055c9.372,1.958 18.828,4.067 28.367,6.327c-21.756,20.414 -50.793,36.534 -61.839,64.254l-1.924,3.691c-56.4,37.588 -125.268,61.467 -196.061,60.262c-106.105,3.163 -205.014,-43.539 -286.183,-101.315c-111.963,-83.688 -198.153,-191.707 -267.691,-305.978l-0.401,-0.823c-2.122,-4.34 -5.922,-11.865 -7.883,-15.749l-0.271,-0.455Zm485.862,332.044c22.343,14.312 49.287,21.694 76.902,19.51c-9.958,-20.79 -36.317,-10.697 -53.89,-19.887c-5.774,0.076 -17.321,0.302 -23.012,0.377Zm356.474,-76.833c3.515,-0 10.544,-0.076 14.058,-0.151c4.603,9.416 1.423,24.105 -10.878,27.118c-11.297,-3.691 -6.108,-19.359 -3.18,-26.967Zm-735.895,-242.972l1.589,0.376c-0.527,-0.128 -1.057,-0.253 -1.589,-0.376Zm-96.444,-4.95c-0.065,0.484 -0.13,0.968 -0.197,1.452l0.51,-3.874l-0.313,2.422Zm76.78,0.995l0.55,0.112l-0.952,-0.196l0.402,0.084Zm-16.067,-4.256l0.497,0.174l-2.934,-1.092l2.437,0.918Zm-60.052,-2.006l-0.13,1.088l0.222,-1.88l-0.092,0.792Zm53.38,-0.792l-0.457,-0.229l0.917,0.453c-0.154,-0.074 -0.307,-0.149 -0.46,-0.224Zm-7.051,-4.298c0.544,0.408 1.098,0.802 1.661,1.183c0.564,0.38 1.137,0.747 1.719,1.101c-1.166,-0.709 -2.293,-1.468 -3.38,-2.284Zm-4.905,-4.404c0.7,0.754 1.427,1.471 2.178,2.153c0.751,0.682 1.527,1.329 2.325,1.945c-1.596,-1.231 -3.103,-2.591 -4.503,-4.098Zm-52.634,0.281c0.116,1.194 0.238,2.39 0.366,3.585c-0.128,-1.194 -0.25,-2.388 -0.366,-3.585Zm13.314,-15.088c-0.158,2.731 -0.34,5.46 -0.548,8.188c-0.209,2.728 -0.443,5.454 -0.706,8.179c0.527,-5.452 0.938,-10.907 1.254,-16.367Zm39.046,14.509c0.061,0.068 0.123,0.135 0.184,0.202l-0.382,-0.422l0.198,0.22Zm-0.425,-0.653c0.033,0.097 0.066,0.194 0.1,0.291l-0.132,-0.389l0.032,0.098Zm-52.696,-7.583c0.165,2.172 0.345,4.345 0.544,6.516c-0.163,-1.781 -0.313,-3.562 -0.453,-5.339l-0.091,-1.177Zm51.925,4.877l0.266,1.048l-0.296,-1.176l0.03,0.128Zm-0.203,-0.919l0.084,0.398l-0.235,-1.182l0.151,0.784Zm-0.397,-2.367l-0.096,-0.794c0.029,0.263 0.061,0.529 0.096,0.794Zm-0.059,-11.341c-0.116,1.301 -0.203,2.598 -0.248,3.891c-0.046,1.293 -0.049,2.581 0.003,3.863c-0.104,-2.565 0.014,-5.153 0.245,-7.754Zm-36.892,-2.318l-0.223,4.435c0.081,-1.479 0.156,-2.957 0.223,-4.435Zm0.095,-2.162c-0.014,0.334 -0.028,0.668 -0.043,1.002l0.167,-4.242l-0.124,3.24Zm0.31,-9.437l-0.023,0.874l0.039,-1.56l-0.016,0.686Zm0.181,-12.257c-0.007,1.277 -0.018,2.554 -0.032,3.831c0.014,-1.277 0.025,-2.554 0.032,-3.831c0.011,-1.939 0.015,-3.879 0.012,-5.818l-0.012,5.818Zm38.241,-1.017l0.016,0.145l-0.044,-0.375l0.028,0.23Zm-84.041,-7.441l-0.052,0.297l0.052,-0.297Zm0.165,-0.954l-0.061,0.359l0.061,-0.359Zm0.156,-0.925l-0.064,0.389l0.064,-0.389Zm0.15,-0.918l-0.065,0.407l0.065,-0.407Zm0.146,-0.917l-0.066,0.421l0.066,-0.421Zm0.142,-0.919l-0.066,0.433l0.066,-0.433Zm0.138,-0.921l-0.065,0.444l0.065,-0.444Zm0.134,-0.924l-0.065,0.454l0.065,-0.454Zm0.129,-0.927l-0.063,0.465l0.063,-0.465Zm0.126,-0.93l-0.063,0.475l0.063,-0.475Zm0.121,-0.933l-0.062,0.485l0.062,-0.485Zm0.117,-0.936l-0.061,0.495l0.061,-0.495Zm0.113,-0.939l-0.06,0.506l0.06,-0.506Zm0.108,-0.942l-0.058,0.517l0.058,-0.517Zm0.103,-0.944l-0.057,0.527l0.057,-0.527Zm74.343,-1.702l0.91,1.927c-0.299,-0.644 -0.603,-1.286 -0.91,-1.927Zm-74.245,0.755l-0.054,0.539l0.054,-0.539Zm0.094,-0.949l-0.053,0.549l0.053,-0.549Zm0.089,-0.952l-0.051,0.561l0.051,-0.561Zm72.488,-2.053l1.125,2.27c-0.37,-0.759 -0.745,-1.516 -1.125,-2.27Zm-72.405,1.1l-0.049,0.572l0.049,-0.572Zm0.079,-0.956l-0.047,0.584l0.047,-0.584Zm0.073,-0.958l-0.044,0.597l0.044,-0.597Zm0.089,-1.272c-0.02,0.31 -0.041,0.616 -0.063,0.922l0.063,-0.922Zm0.027,-0.416l-0.025,0.396l0.025,-0.396Zm70.746,-0.207c0.079,0.151 0.157,0.301 0.236,0.452l-1.345,-2.547l1.109,2.095Zm-70.716,-0.274l-0.025,0.403l0.025,-0.403Zm0.028,-0.481l-0.024,0.409l0.024,-0.409Zm0.027,-0.481l-0.023,0.415l0.023,-0.415Zm0.025,-0.482l-0.022,0.422l0.022,-0.422Zm0.024,-0.482l-0.021,0.429l0.021,-0.429Zm0.023,-0.482l-0.02,0.435l0.02,-0.435Zm0.021,-0.483l-0.019,0.442l0.019,-0.442Zm0.019,-0.483l-0.018,0.449l0.018,-0.449Zm0.019,-0.483l-0.017,0.455l0.017,-0.455Zm0.016,-0.483l-0.016,0.462l0.016,-0.462Zm0.015,-0.483l-0.014,0.468l0.014,-0.468Zm0.014,-0.484l-0.014,0.475l0.014,-0.475Zm-37.344,-74.888c30.15,14.786 38.121,45.263 37.344,74.886c0.777,-29.621 -7.194,-60.098 -37.344,-74.886Zm101.273,68.682l3.297,5.765c-1.077,-1.929 -2.179,-3.851 -3.297,-5.765Zm-0.645,-1.101l-3.155,-5.298l-7.154,-11.798l9.194,15.224l1.115,1.872Zm-21.483,-21.267l0.302,10.308c-0.102,-3.438 -0.205,-6.873 -0.302,-10.308Zm-16.791,3.888c0.04,0.775 0.079,1.553 0.116,2.331c-0.037,-0.776 -0.075,-1.554 -0.116,-2.331Zm23.089,-7.921l2.379,4.041c-0.8,-1.345 -1.594,-2.691 -2.379,-4.041Zm-26.564,-29.167c1.462,10.036 2.422,20.108 3.075,30.2c-0.653,-10.097 -1.614,-20.166 -3.075,-30.2Zm22.773,22.474c0.23,0.418 0.461,0.835 0.692,1.252l-0.921,-1.669l0.229,0.417Zm-2.619,-4.896l0.151,0.289l-0.442,-0.852l0.291,0.563Zm-3.737,-9.761c0.749,1.893 1.472,3.79 2.174,5.691l0.906,2.483c-0.298,-0.827 -0.6,-1.655 -0.906,-2.483c-0.701,-1.901 -1.425,-3.799 -2.174,-5.691Zm-2.734,-6.583l1.917,4.55c-0.62,-1.523 -1.258,-3.04 -1.917,-4.55Zm-14.181,-3.603l0.195,0.326l-0.195,-0.326Zm-0.195,-0.325l0.13,0.217l-0.13,-0.217Zm-0.198,-0.323l0.119,0.194l-0.119,-0.194Zm-0.199,-0.322l0.114,0.184l-0.114,-0.184Zm-0.2,-0.321l0.111,0.178l-0.111,-0.178Zm-0.203,-0.319l0.111,0.174l-0.111,-0.174Zm-0.203,-0.318l0.109,0.171l-0.109,-0.171Zm-0.206,-0.316l0.11,0.169l-0.11,-0.169Zm-0.207,-0.314l0.11,0.166l-0.11,-0.166Zm-0.208,-0.314l0.11,0.165l-0.11,-0.165Zm-0.21,-0.312l0.11,0.164l-0.11,-0.164Zm-0.211,-0.31l0.11,0.162l-0.11,-0.162Zm-0.213,-0.309l0.111,0.161l-0.111,-0.161Zm-0.215,-0.308l0.111,0.16l-0.111,-0.16Zm-0.216,-0.306l0.112,0.159l-0.112,-0.159Zm-0.218,-0.305l0.113,0.158l-0.113,-0.158Zm-0.219,-0.303l0.114,0.156l-0.114,-0.156Zm-0.22,-0.302l0.114,0.155l-0.114,-0.155Zm-0.222,-0.301l0.114,0.155l-0.114,-0.155Zm-0.224,-0.299l0.115,0.154l-0.115,-0.154Zm-0.225,-0.298l0.116,0.153l-0.116,-0.153Zm-0.226,-0.296l0.116,0.152l-0.116,-0.152Zm-0.228,-0.295l0.117,0.151l-0.117,-0.151Zm-0.229,-0.294l0.117,0.15l-0.117,-0.15Zm-0.231,-0.292l0.118,0.149l-0.118,-0.149Zm13.504,-0.97l-0.206,-0.379l0.71,1.32c-0.167,-0.314 -0.335,-0.628 -0.504,-0.941Zm-13.736,0.679l0.119,0.149l-0.119,-0.149Zm-0.234,-0.29l0.12,0.148l-0.12,-0.148Zm-0.235,-0.288l0.12,0.147l-0.12,-0.147Zm-0.237,-0.287l0.122,0.147l-0.122,-0.147Zm-0.238,-0.286l0.122,0.146l-0.122,-0.146Zm-0.239,-0.284l0.123,0.146l-0.123,-0.146Zm-0.241,-0.283l0.124,0.145l-0.124,-0.145Zm-0.242,-0.281l0.124,0.144l-0.124,-0.144Zm13.295,-2.429l1.37,2.405l-1.641,-2.867l0.271,0.462Zm-13.538,2.148l0.125,0.144l-0.125,-0.144Zm-0.245,-0.278l0.125,0.142l-0.125,-0.142Zm-0.246,-0.278l0.126,0.142l-0.126,-0.142Zm-0.248,-0.276l0.127,0.141l-0.127,-0.141Zm-50.853,-0.173l0.466,0.227l-0.228,-0.112l-0.238,-0.115Zm50.604,-0.102l0.128,0.141l-0.128,-0.141Zm-51.087,-0.128l0.451,0.215l-0.221,-0.106l-0.23,-0.109Zm50.837,-0.146l0.128,0.141l-0.128,-0.141Zm-51.322,-0.081l0.434,0.203l-0.214,-0.101l-0.22,-0.102Zm-0.49,-0.224l0.417,0.191l-0.206,-0.096l-0.211,-0.095Zm51.56,0.033l0.129,0.14l-0.129,-0.14Zm-52.053,-0.255l0.4,0.179l-0.199,-0.089l-0.201,-0.09Zm51.8,-0.016l0.13,0.139l-0.13,-0.139Zm-52.296,-0.203l0.381,0.168l-0.19,-0.085l-0.191,-0.083Zm52.042,-0.067l0.131,0.139l-0.131,-0.139Zm-52.542,-0.149l0.361,0.156l-0.181,-0.079l-0.18,-0.077Zm52.286,-0.119l0.132,0.138l-0.132,-0.138Zm-52.79,-0.094l0.341,0.144l-0.172,-0.073l-0.169,-0.071Zm52.533,-0.173l0.133,0.137l-0.133,-0.137Zm-53.04,-0.038l0.32,0.133l-0.162,-0.068l-0.158,-0.065Zm-0.512,-0.208l0.299,0.121l-0.152,-0.062l-0.147,-0.059Zm53.294,-0.02l0.133,0.137l-0.133,-0.137Zm-53.808,-0.185l0.276,0.11l-0.141,-0.057l-0.135,-0.053Zm53.548,-0.08l0.134,0.137l-0.134,-0.137Zm-0.26,-0.263l0.134,0.136l-0.134,-0.136Zm-0.263,-0.262l0.136,0.135l-0.136,-0.135Zm-0.263,-0.261l0.136,0.135l-0.136,-0.135Zm-0.265,-0.259l0.137,0.134l-0.137,-0.134Zm-0.266,-0.258l0.138,0.133l-0.138,-0.133Zm-0.267,-0.257l0.139,0.133l-0.139,-0.133Zm-0.268,-0.256l0.139,0.133l-0.139,-0.133Zm-0.27,-0.254l0.14,0.132l-0.14,-0.132Zm-0.271,-0.254l0.141,0.132l-0.141,-0.132Zm-0.272,-0.252l0.142,0.131l-0.142,-0.131Zm-0.274,-0.25l0.143,0.13l-0.143,-0.13Zm-0.274,-0.25l0.143,0.13l-0.143,-0.13Zm-0.276,-0.248l0.144,0.129l-0.144,-0.129Zm-0.277,-0.247l0.145,0.129l-0.145,-0.129Zm-0.278,-0.246l0.146,0.129l-0.146,-0.129Zm-0.28,-0.245l0.147,0.128l-0.147,-0.128Zm-0.28,-0.243l0.147,0.128l-0.147,-0.128Zm-0.282,-0.243l0.148,0.128l-0.148,-0.128Zm-0.283,-0.241l0.149,0.127l-0.149,-0.127Zm17.323,-1.08l0.691,1.022c-0.228,-0.342 -0.458,-0.683 -0.691,-1.022Zm-17.607,0.84l0.15,0.127l-0.15,-0.127Zm-0.286,-0.238l0.152,0.126l-0.152,-0.126Zm-0.286,-0.238l0.152,0.126l-0.152,-0.126Zm-0.288,-0.236l0.153,0.126l-0.153,-0.126Zm-0.289,-0.235l0.155,0.125l-0.155,-0.125Zm-0.289,-0.234l0.155,0.125l-0.155,-0.125Zm-0.291,-0.233l0.156,0.125l-0.156,-0.125Zm-0.293,-0.232l0.157,0.125l-0.157,-0.125Zm18.682,-0.556l-0.321,-0.452l0.639,0.904c-0.106,-0.152 -0.212,-0.302 -0.318,-0.452Zm-18.975,0.326l0.158,0.124l-0.158,-0.124Zm-0.294,-0.229l0.159,0.123l-0.159,-0.123Zm-0.296,-0.229l0.16,0.124l-0.16,-0.124Zm-0.296,-0.227l0.161,0.123l-0.161,-0.123Zm-0.298,-0.226l0.162,0.123l-0.162,-0.123Zm-0.299,-0.224l0.164,0.122l-0.164,-0.122Zm-0.3,-0.224l0.165,0.122l-0.165,-0.122Zm-0.301,-0.223l0.166,0.123l-0.166,-0.123Zm-0.302,-0.221l0.167,0.122l-0.167,-0.122Zm-0.303,-0.22l0.168,0.122l-0.168,-0.122Zm-0.304,-0.219l0.169,0.121l-0.169,-0.121Zm-0.305,-0.219l0.171,0.122l-0.171,-0.122Zm-0.306,-0.217l0.172,0.122l-0.172,-0.122Zm-0.307,-0.215l0.173,0.121l-0.173,-0.121Zm-0.309,-0.215l0.175,0.121l-0.175,-0.121Zm-0.309,-0.214l0.176,0.121l-0.176,-0.121Zm-0.311,-0.213l0.178,0.122l-0.178,-0.122Zm-0.311,-0.211l0.179,0.121l-0.179,-0.121Zm-0.313,-0.211l0.181,0.122l-0.181,-0.122Zm-0.313,-0.209l0.182,0.121l-0.182,-0.121Zm-0.315,-0.209l0.184,0.122l-0.184,-0.122Zm21.743,-0.393l0.26,0.33l-0.405,-0.513l0.145,0.183Zm-22.058,0.186l0.185,0.122l-0.185,-0.122Zm-0.317,-0.207l0.188,0.122l-0.188,-0.122Zm-0.318,-0.205l0.19,0.122l-0.19,-0.122Zm-0.318,-0.204l0.191,0.122l-0.191,-0.122Zm-0.32,-0.204l0.194,0.123l-0.194,-0.123Zm-0.321,-0.202l0.196,0.123l-0.196,-0.123Zm-0.322,-0.201l0.199,0.124l-0.199,-0.124Zm-0.323,-0.201l0.202,0.125l-0.202,-0.125Zm-0.323,-0.199l0.204,0.125l-0.204,-0.125Zm-0.326,-0.199l0.207,0.126l-0.207,-0.126Zm-0.326,-0.197l0.211,0.127l-0.211,-0.127Zm-0.327,-0.197l0.214,0.128l-0.214,-0.128Zm-0.328,-0.196l0.217,0.129l-0.217,-0.129Zm-0.33,-0.195l0.221,0.131l-0.221,-0.131Zm-0.331,-0.194l0.226,0.132l-0.226,-0.132Zm-0.332,-0.193l0.231,0.134l-0.231,-0.134Zm-0.334,-0.193l0.237,0.136l-0.237,-0.136Zm-0.164,-0.094l0.072,0.041l-0.072,-0.041Zm-0.657,-0.374l0.058,0.033l-0.058,-0.033Zm-0.782,-0.436l0.354,0.197l-0.193,-0.108l-0.161,-0.089Zm-0.668,-0.367l0.356,0.195l-0.191,-0.106l-0.165,-0.089Zm-0.672,-0.364l0.359,0.193l-0.19,-0.103l-0.169,-0.09Zm-0.674,-0.36l0.36,0.192l-0.188,-0.101l-0.172,-0.091Zm26.46,-0.183l-0.316,-0.343l0.411,0.447l-0.095,-0.104Zm-27.138,-0.172l0.363,0.19l-0.187,-0.099l-0.176,-0.091Zm-0.681,-0.352l0.365,0.188l-0.184,-0.096l-0.181,-0.092Zm-0.684,-0.348l0.368,0.186l-0.183,-0.093l-0.185,-0.093Zm-0.686,-0.345l0.37,0.185l-0.182,-0.091l-0.188,-0.094Zm-0.69,-0.341l0.373,0.184l-0.18,-0.089l-0.193,-0.095Zm-0.692,-0.337l0.375,0.182l-0.178,-0.087l-0.197,-0.095Zm-0.695,-0.333l0.377,0.18l-0.176,-0.085l-0.201,-0.095Zm-0.697,-0.33l0.379,0.179l-0.174,-0.083l-0.205,-0.096Zm-0.701,-0.326l0.382,0.177l-0.172,-0.08l-0.21,-0.097Zm26.697,-3.045l3.075,2.916c-0.995,-0.991 -2.02,-1.964 -3.075,-2.916Zm-27.399,2.722l0.384,0.176l-0.17,-0.079l-0.214,-0.097Zm-0.706,-0.319l0.387,0.174l-0.168,-0.076l-0.219,-0.098Zm-0.707,-0.316l0.389,0.173l-0.167,-0.074l-0.222,-0.099Zm-0.71,-0.312l0.391,0.171l-0.164,-0.072l-0.227,-0.099Zm-0.713,-0.309l0.394,0.17l-0.162,-0.07l-0.232,-0.1Zm-0.714,-0.305l0.395,0.168l-0.159,-0.068l-0.236,-0.1Zm-0.717,-0.303l0.398,0.168l-0.158,-0.067l-0.24,-0.101Zm-0.719,-0.298l0.4,0.165l-0.155,-0.065l-0.245,-0.1Zm-0.721,-0.296l0.402,0.164l-0.153,-0.063l-0.249,-0.101Zm-0.724,-0.292l0.405,0.163l-0.15,-0.062l-0.255,-0.101Zm-0.725,-0.29l0.407,0.162l-0.148,-0.059l-0.259,-0.103Zm-0.727,-0.286l0.41,0.161l-0.146,-0.058l-0.264,-0.103Zm-0.729,-0.282l0.412,0.159l-0.144,-0.056l-0.268,-0.103Zm-0.731,-0.28l0.414,0.158l-0.141,-0.055l-0.273,-0.103Zm33.677,-1.476l-0.445,-0.363l2.219,1.861l-1.774,-1.498Zm-34.41,1.199l0.417,0.157l-0.139,-0.053l-0.278,-0.104Zm-0.734,-0.274l0.419,0.156l-0.136,-0.051l-0.283,-0.105Zm-0.736,-0.27l0.421,0.154l-0.133,-0.049l-0.288,-0.105Zm-0.738,-0.268l0.424,0.153l-0.131,-0.048l-0.293,-0.105Zm-0.739,-0.265l0.426,0.152l-0.128,-0.046l-0.298,-0.106Zm-0.741,-0.261l0.429,0.151l-0.126,-0.045l-0.303,-0.106Zm-0.742,-0.259l0.431,0.149l-0.123,-0.043l-0.308,-0.106Zm-0.744,-0.257l0.434,0.149l-0.121,-0.042l-0.313,-0.107Zm-0.745,-0.253l0.436,0.148l-0.117,-0.041l-0.319,-0.107Zm-0.746,-0.251l0.439,0.147l-0.115,-0.039l-0.324,-0.108Zm39.264,-0.235l-0.454,-0.298l0.909,0.6l-0.455,-0.302Zm-40.011,-0.012l0.441,0.145l-0.113,-0.037l-0.328,-0.108Zm-0.749,-0.246l0.444,0.145l-0.11,-0.036l-0.334,-0.109Zm-0.75,-0.242l0.446,0.144l-0.106,-0.035l-0.34,-0.109Zm-0.751,-0.24l0.449,0.143l-0.104,-0.033l-0.345,-0.11Zm-0.752,-0.237l0.452,0.142l-0.101,-0.032l-0.351,-0.11Zm-0.753,-0.235l0.454,0.141l-0.098,-0.031l-0.356,-0.11Zm-0.754,-0.232l0.457,0.14l-0.095,-0.029l-0.362,-0.111Zm41.433,-0.496l0.793,0.48c-0.263,-0.161 -0.528,-0.321 -0.793,-0.48Zm-42.187,0.266l0.459,0.14l-0.459,-0.14Zm-0.756,-0.227l0.463,0.139l-0.463,-0.139Zm-0.756,-0.225l0.465,0.138l-0.465,-0.138Zm-0.757,-0.222l0.468,0.137l-0.468,-0.137Zm-0.758,-0.22l0.471,0.136l-0.471,-0.136Zm-0.758,-0.218l0.474,0.136l-0.474,-0.136Zm-0.759,-0.215l0.477,0.135l-0.477,-0.135Zm-0.759,-0.214l0.48,0.135l-0.48,-0.135Zm-0.76,-0.211l0.483,0.134l-0.483,-0.134Zm-0.761,-0.208l0.487,0.133l-0.487,-0.133Zm-0.76,-0.207l0.49,0.133l-0.49,-0.133Zm-0.761,-0.205l0.494,0.133l-0.494,-0.133Zm-0.762,-0.202l0.498,0.132l-0.498,-0.132Zm-0.761,-0.201l0.501,0.132l-0.501,-0.132Zm-0.762,-0.198l0.505,0.131l-0.505,-0.131Zm-0.763,-0.197l0.511,0.131l-0.511,-0.131Zm-0.762,-0.194l0.515,0.131l-0.515,-0.131Zm-0.763,-0.193l0.52,0.131l-0.52,-0.131Zm-0.763,-0.191l0.526,0.131l-0.526,-0.131Zm-0.764,-0.19l0.532,0.132l-0.532,-0.132Zm-5.514,-1.317l0.049,0.779l0.04,0.663c-0.031,-0.522 -0.061,-1.006 -0.089,-1.442Zm4.749,1.129l0.54,0.133l-0.54,-0.133Zm-0.767,-0.186l0.55,0.133l-0.55,-0.133Zm-0.769,-0.186l0.563,0.136l-0.563,-0.136Zm-0.775,-0.185l0.582,0.139l-0.582,-0.139Zm-0.794,-0.188l0.621,0.147l-0.621,-0.147Zm-0.889,-0.208l0.755,0.176l-0.755,-0.176Zm51.488,-0.283l-0.36,-0.159l0.832,0.369c-0.157,-0.07 -0.314,-0.14 -0.472,-0.21Zm14.817,-5.719l0.161,-1.304l-0.76,6.524l0.599,-5.22Zm-20.818,3.287l0.84,0.316c-0.28,-0.107 -0.56,-0.212 -0.84,-0.316Zm-7.131,-2.405l6.38,2.129c-2.102,-0.765 -4.23,-1.472 -6.38,-2.129Zm-1.574,-0.471l-0.526,-0.153l1.576,0.465c-0.349,-0.105 -0.699,-0.209 -1.05,-0.312Zm-7.432,-1.986l1.603,0.398c-0.532,-0.135 -1.067,-0.268 -1.603,-0.398Zm-30.611,-1.028l0.067,1.028l-0.148,-2.235l0.081,1.207Zm28.465,0.518l0.269,0.062l-0.615,-0.142l0.346,0.08Zm-13.362,-2.705l3.191,0.602l7.049,1.404l-3.928,-0.816l-3.121,-0.588l-1.391,-0.278l-1.8,-0.324l-0.315,-0.059l-0.969,-0.172l1.284,0.231Zm-10.766,-1.818l4.131,0.674c-1.38,-0.228 -2.757,-0.452 -4.131,-0.674Zm64.467,-2.51l-0.46,3.167c0.147,-1.056 0.301,-2.112 0.46,-3.167Zm1.125,-6.897l-0.354,2.059l0.484,-2.785c-0.044,0.242 -0.087,0.484 -0.13,0.726Zm1.55,-8.024l-0.787,3.896l0.919,-4.518l-0.132,0.622Zm-62.973,-1038.62l-0.804,0.475c0.271,-0.155 0.539,-0.314 0.804,-0.475Zm1.396,-0.895l-0.835,0.546l1.094,-0.722l-0.259,0.176Zm-0.777,-10.869c-0.292,1.473 -0.561,2.948 -0.809,4.422l0.868,-4.717l-0.059,0.295Zm10.118,1.734l0.121,-0.167l-0.312,0.43l0.191,-0.263Zm0.937,-1.346l-0.671,0.976l0.874,-1.283l-0.203,0.307Zm1.424,-2.267l-0.442,0.734c0.149,-0.243 0.296,-0.488 0.442,-0.734Zm-11.698,-1.779l-0.216,0.963c0.07,-0.322 0.142,-0.643 0.216,-0.963Zm14.846,-4.443c-0.279,0.642 -0.568,1.279 -0.867,1.909c-0.299,0.63 -0.608,1.253 -0.929,1.869c0.641,-1.232 1.238,-2.493 1.796,-3.778Zm0.441,-1.038l-0.339,0.803l0.519,-1.241l-0.18,0.438Zm-12.733,-3.764l-0.201,0.614l0.376,-1.14l-0.175,0.526Zm0.736,-2.133l-0.336,0.95c0.11,-0.318 0.222,-0.635 0.336,-0.95Zm1.2,-3.125l-1.023,2.638c0.325,-0.886 0.666,-1.766 1.023,-2.638Zm1.26,-2.899l-0.439,0.972c0.144,-0.325 0.29,-0.648 0.439,-0.972Zm14.012,-1.977l-0.497,1.9c0.169,-0.632 0.335,-1.266 0.497,-1.9Zm-12.308,-1.454l-0.9,1.75c0.292,-0.588 0.592,-1.172 0.9,-1.75Zm13.168,-2.06c-0.236,1.003 -0.48,2.007 -0.733,3.012l0.851,-3.513l-0.118,0.501Zm1.066,-4.681l-0.529,2.362c0.179,-0.79 0.355,-1.578 0.529,-2.362Zm-10.381,0.469c-0.219,0.312 -0.436,0.626 -0.649,0.941l0.744,-1.075l-0.095,0.134Zm13.107,-12.526c-0.447,1.802 -0.873,3.662 -1.297,5.563c-0.424,1.9 -0.844,3.842 -1.277,5.806c0.866,-3.928 1.681,-7.766 2.574,-11.369Zm-9.622,8.087l-0.433,0.502c0.143,-0.168 0.287,-0.335 0.433,-0.502Zm2.881,-3.046l0.237,-0.23l-2.11,2.155l1.873,-1.925Zm3.828,-3.39l-2.387,2.036c0.768,-0.696 1.563,-1.374 2.387,-2.036Zm232.798,-261.314c-1.769,0.834 -3.533,1.673 -5.293,2.516c-1.76,0.842 -3.516,1.688 -5.268,2.536l10.561,-5.052Zm3.562,-1.67l-1.792,0.837l4.439,-2.063l-2.647,1.226Zm7.413,-3.397c-0.447,0.201 -0.893,0.403 -1.338,0.605l2.679,-1.207l-1.341,0.602Zm18.166,-7.74l-7.685,3.157l8.178,-3.353l-0.493,0.196Zm8.339,-3.199l-4.864,1.836c1.617,-0.625 3.238,-1.237 4.864,-1.836Zm9.833,-3.426l-8.137,2.808l8.931,-3.067l-0.794,0.259Zm8.509,-2.63c-0.439,0.127 -0.877,0.256 -1.315,0.385l2.061,-0.6l-0.746,0.215Zm3.588,-1.008l-0.526,0.144l1.049,-0.286l-0.523,0.142Zm15.247,-3.572l-0.864,0.17l1.292,-0.252c-0.143,0.027 -0.285,0.054 -0.428,0.082Zm4.486,-0.819l-2.172,0.384c0.719,-0.132 1.445,-0.26 2.172,-0.384Zm7.24,-1.086l-4.822,0.691c1.605,-0.252 3.211,-0.482 4.822,-0.691Zm5.34,-0.61l-0.97,0.098c0.321,-0.033 0.645,-0.066 0.97,-0.098Zm2.669,-0.243c-0.205,0.017 -0.41,0.034 -0.616,0.052l1.232,-0.103l-0.616,0.051Zm69.225,-0.475c2.435,0.03 4.872,0.052 7.309,0.064l-8.705,-0.081l1.396,0.017Zm-60.872,-0.044l-1.782,0.089c0.594,-0.032 1.188,-0.061 1.782,-0.089Zm4.645,-0.192l-3.541,0.141c1.18,-0.053 2.36,-0.099 3.541,-0.141Zm90.136,-0.209l0.869,-0.045l-6.114,0.269l5.245,-0.224Zm-61.981,-0.005l5.717,0.081c-1.905,-0.031 -3.811,-0.058 -5.717,-0.081Zm-12.391,-0.066l0.96,-0.002l-3.809,0.016l2.849,-0.014Zm92.346,-1.347l0.95,-0.108l-1.899,0.211c0.316,-0.034 0.633,-0.069 0.949,-0.103Zm3.798,-0.451l-2.353,0.286c0.782,-0.091 1.567,-0.187 2.353,-0.286Zm-5.352,-2.608l0.531,0.254l-0.89,-0.425l0.359,0.171Zm-17.927,-8.01l5.018,2.13c-1.667,-0.722 -3.34,-1.432 -5.018,-2.13Zm-2.368,-0.974c0.262,0.107 0.524,0.214 0.785,0.321l-1.586,-0.646l0.801,0.325Zm-19.616,-7.313l2.388,0.818c-0.794,-0.275 -1.59,-0.548 -2.388,-0.818Zm-19.432,-5.895l7.459,2.102c-2.477,-0.731 -4.963,-1.432 -7.459,-2.102Zm-1.672,-0.443l-5.006,-1.267l5.846,1.488l-0.84,-0.221Zm-6.535,-1.636c0.23,0.055 0.46,0.11 0.691,0.166l-4.075,-0.951l3.384,0.785Zm-21.667,-4.281l4.17,0.707l11.07,2.163l2.875,0.588l-11.06,-2.262l-3.95,-0.697l-3.105,-0.499Zm-129.701,2.407l-1.868,0.011c0.623,-0.002 1.246,-0.006 1.868,-0.011Zm3.121,-0.037c1.663,-0.026 3.326,-0.062 4.988,-0.107c1.663,-0.045 3.325,-0.099 4.986,-0.16l-9.974,0.267Zm25.429,-1.031l-4.488,0.256c1.495,-0.081 2.992,-0.167 4.488,-0.256Zm19.429,-1.282l-3.859,0.266l6.561,-0.452l-2.702,0.186Zm9.965,-0.676l-5.959,0.401l7.949,-0.531l-1.99,0.13Zm63.532,-0.552l5.053,0.684c-1.683,-0.244 -3.367,-0.472 -5.053,-0.684Zm-38.87,-0.752l-6.444,0.259c2.151,-0.098 4.297,-0.185 6.444,-0.259Zm8.285,-0.212l-1.061,0.018l2.991,-0.045l-1.93,0.027Zm3.924,-0.045l0.997,-0.005l-1.994,0.013c0.333,-0.003 0.665,-0.006 0.997,-0.008Zm-263.753,1628.1c-0.278,-3.926 -0.506,-7.856 -0.696,-11.787c0.209,4.325 0.464,8.647 0.78,12.965l-0.084,-1.178Zm-0.806,-14.147c-0.088,-1.966 -0.166,-3.933 -0.238,-5.901c0.086,2.361 0.182,4.721 0.292,7.081l-0.054,-1.18Zm-0.395,-10.624c-0.397,-12.991 -0.517,-26 -0.767,-38.999c0.257,13.391 0.377,26.794 0.804,40.18l-0.037,-1.181Zm-0.918,-46.089l0.054,2.363l0.05,2.363c-0.032,-1.578 -0.066,-3.152 -0.104,-4.726Zm-0.156,-5.905c0.011,0.395 0.022,0.788 0.034,1.181l0.063,2.362c-0.03,-1.184 -0.063,-2.363 -0.097,-3.543Z" style="fill:#0baff3;fill-rule:nonzero;"></path><path d="M332.238,1988.03c76.483,27.72 160.581,31.486 241.666,22.296c-9.205,25.16 -43.262,22.523 -66.86,27.269c-38.409,7.08 -74.14,-8.738 -109.787,-18.606c-22.928,-6.177 -56.651,-6.177 -65.019,-30.959Z" style="fill:#f1ffdf;fill-rule:nonzero;"></path><path d="M1760.06,2040.91c5.691,-0.075 17.238,-0.301 23.012,-0.377c17.573,9.19 43.932,-0.903 53.89,19.887c-27.615,2.184 -54.559,-5.198 -76.902,-19.51Z" style="fill:#22afdd;fill-rule:nonzero;"></path></svg> 