<?xml version="1.0" encoding="UTF-8" standalone="no"?> <svg xmlns="http://www.w3.org/2000/svg" xmlns:xlink="http://www.w3.org/1999/xlink" xmlns:serif="http://www.serif.com/" width="100%" height="100%" viewBox="0 0 2134 2134" version="1.1" xml:space="preserve" style="fill-rule:evenodd;clip-rule:evenodd;stroke-linejoin:round;stroke-miterlimit:2;"><path d="M451.072,284.854c71.36,-39.573 138.347,-50.581 199.125,-32.768c62.998,18.432 109.739,64.192 137.75,98.944c-71.723,53.696 -115.947,139.243 -117.654,232.192c-0.149,6.059 0.896,11.478 1.92,16.875c4.288,23.659 18.795,41.856 43.627,52.501c1.408,0.576 5.632,1.92 14.656,1.92c24.619,0 54.656,-9.898 54.933,-9.984l397.824,-112.682c30.55,-8.875 46.443,-25.366 48.299,-50.432l0.576,-3.99l0,-0.746c3.179,-18.112 -16.043,-48.811 -32.661,-57.984c-25.515,-14.272 -48.96,-27.883 -70.848,-40.662c-81.046,-47.168 -139.606,-81.322 -198.827,-81.322c-6.507,-0 -13.077,0.725 -19.669,1.557c-34.368,-49.408 -108.395,-136.213 -222.144,-170.005c-95.68,-28.459 -196.459,-13.888 -299.691,43.413c-40.235,22.293 -245.141,124.864 -387.328,-3.285l0,155.136c190.613,93.098 403.371,-12.715 450.112,-38.678Z" style="fill:#0098e6;fill-opacity:0.6;fill-rule:nonzero;"></path><path d="M1645.2,587.148c-56.938,-13.163 -205.418,-28.096 -205.418,-28.096l-129.11,-51.158c-7.488,32.982 -30.912,81.92 -104.341,103.296l-397.888,112.704c-13.184,4.139 -45.845,13.248 -77.952,13.248c-17.152,0 -31.872,-2.517 -44.949,-7.68c-36.459,-15.616 -63.147,-40.085 -79.254,-70.762c-37.717,46.208 -60.565,104.917 -60.629,169.194l0.064,106.71l-107.072,-0.064c-101.099,-139.819 -258.219,-236.331 -438.656,-255.403l0,1239.62c181.013,-19.2 338.667,-116.309 439.595,-256.789l476.053,-0c124.608,158.464 318.485,260.352 535.893,260.416c376.534,-0.064 681.643,-305.11 681.792,-681.622c0,-309.376 -232.341,-594.304 -488.128,-653.61Zm-274.986,105.002c-0,-20.117 16.789,-34.624 34.688,-34.624c20.117,0 34.602,14.507 34.602,34.624l0,149.526c0,17.877 -14.485,34.666 -34.602,34.666c-17.899,0 -34.688,-16.789 -34.688,-34.666l-0,-149.526Zm99.392,636.587c-0,113.515 -91.99,205.867 -205.142,205.867c-113.28,-0 -205.482,-92.352 -205.482,-205.867l-0,-15.531l69.056,0l-0,15.531c0.149,75.136 61.29,136.512 136.362,136.747c75.072,-0.235 136.15,-61.611 136.214,-136.747l-0,-15.531l68.992,0l-0,15.531Z" style="fill:#0098e6;fill-rule:nonzero;"></path></svg> 