<?xml version="1.0" encoding="UTF-8" standalone="no"?> <svg xmlns="http://www.w3.org/2000/svg" xmlns:xlink="http://www.w3.org/1999/xlink" xmlns:serif="http://www.serif.com/" width="100%" height="100%" viewBox="0 0 2134 2134" version="1.1" xml:space="preserve" style="fill-rule:evenodd;clip-rule:evenodd;stroke-linejoin:round;stroke-miterlimit:2;"><path d="M1013.58,7.723l7.958,-2.219c-63.123,80.874 -142.696,147.44 -213.623,221.351c-117.906,88.984 -196.867,219.591 -242.315,358.384c-6.657,-106.811 77.889,-189.674 124.791,-276.822c-2.218,-38.562 42.847,-43.995 53.406,-77.125c7.498,-29.151 58.991,-15.761 47.208,-52.487c-24.025,3.137 -80.414,51.34 -74.293,-3.673c37.797,-10.252 52.64,-54.171 34.43,-87.071c-31.064,0.23 -55.854,29.075 -88.754,20.123c-77.507,20.735 -150.041,63.123 -212.934,112.167c-6.504,2.525 -13.314,2.831 -20.506,0.995c132.749,-108.342 301.306,-176.361 470.552,-202.911c12.319,1.53 25.096,1.377 36.65,-3.902c6.121,-0.919 18.439,-2.755 24.56,-3.673c18.057,2.448 35.655,1.454 52.87,-3.137Z" style="fill:#0e6685;fill-opacity:0.7;fill-rule:nonzero;"></path><path d="M1021.54,5.504c49.044,0.153 122.649,-11.4 159.069,4.055c-73.146,23.719 -114.539,107.424 -170.087,159.529c-147.669,139.176 -327.474,275.139 -359.15,490.292c-5.432,49.121 -13.39,100.844 -0.689,149.505c30.911,142.39 139.253,261.291 268.024,324.949c47.284,26.779 101.532,35.961 153.637,49.351c42.77,3.902 91.356,17.062 132.443,-0.995c106.199,-22.112 210.945,-70.545 281.872,-154.632c62.205,-64.423 59.909,-167.333 23.719,-243.998c-50.728,-126.858 -187.456,-200.616 -209.338,-341.858c0.841,-34.584 0.994,-69.014 1.147,-103.522c9.641,-101.455 90.209,-186.996 101.762,-281.489c35.578,21.194 76.513,22.495 106.046,48.356c-8.952,14.537 -18.056,28.922 -26.549,43.765c-39.175,65.265 -69.703,136.728 -82.175,212.246c-4.667,21.576 -8.034,43.994 -1.377,65.418c11.094,68.096 59.221,121.961 108.954,166.568c75.441,100.996 143.155,218.902 123.338,350.733c-11.783,6.733 -9.87,21.5 -5.05,32.059c-50.422,150.882 -197.402,250.349 -346.525,289.6c-140.324,34.354 -290.901,16.756 -419.901,-47.821c-116.222,-65.647 -214.847,-162.589 -274.603,-282.713c-45.372,-110.561 -52.182,-234.358 -20.505,-349.663c45.448,-138.793 124.409,-269.4 242.315,-358.384c70.927,-73.911 150.5,-140.477 213.623,-221.351Z" style="fill:#d0d0d1;fill-rule:nonzero;"></path><path d="M1010.52,169.088c55.548,-52.105 96.941,-135.81 170.087,-159.529c75.747,8.264 149.429,29.534 223.34,47.132c-11.553,94.493 -92.121,180.034 -101.762,281.489c-6.044,33.742 -12.395,70.162 -1.147,103.522c21.882,141.242 158.61,215 209.338,341.858c36.19,76.665 38.486,179.575 -23.719,243.998c-70.927,84.087 -175.673,132.52 -281.872,154.632c-44.224,-0.306 -88.372,0.23 -132.443,0.995c-52.105,-13.39 -106.353,-22.572 -153.637,-49.351c53.712,0.23 111.938,22.036 160.753,-15.073c-2.449,-25.326 -17.828,-45.831 -27.928,-68.173c2.525,-25.478 18.21,-49.044 16.145,-75.976c-8.34,12.701 -16.91,18.669 -19.97,0.382c32.441,-80.108 2.372,-168.863 18.439,-252.568c-16.679,-176.897 -4.82,-355.324 1.913,-532.068c3.826,-36.037 -35.043,-19.51 -57.537,-21.27m234.511,425.333c-26.321,7.422 -40.093,38.409 -31.447,64.423c38.103,60.981 87.071,126.323 82.634,201.305c5.967,90.514 -101.762,121.272 -173.531,133.208c-35.808,7.192 -43.842,58.838 -19.74,82.787c57.155,35.119 129.383,-6.886 184.012,-33.513c108.189,-53.406 136.193,-194.342 86.689,-298.016c-30.146,-54.936 -52.946,-154.096 -128.617,-150.194Z" style="fill:#0098e6;fill-rule:nonzero;"></path><path d="M662.389,108.184c32.9,8.952 57.69,-19.893 88.754,-20.123c18.21,32.9 3.367,76.819 -34.43,87.071c-6.121,55.013 50.268,6.81 74.293,3.673c11.783,36.726 -39.71,23.336 -47.208,52.487c-10.559,33.13 -55.624,38.563 -53.406,77.125c-46.902,87.148 -131.448,170.011 -124.791,276.822c-31.677,115.305 -24.867,239.102 20.505,349.663c18.975,103.674 107.806,187.532 187.456,257.082c11.247,24.025 -23.949,8.263 -34.89,3.519c-43.536,-37.644 -86.306,-77.66 -134.433,-110.254c-14.154,-22.648 -29.38,-46.826 -58.838,-49.198c-68.708,-83.781 -172.689,33.666 -177.279,113.009c-4.438,33.972 -11.554,70.162 -0.459,103.675c44.683,203.676 194.494,356.777 317.067,516.383c4.897,30.911 2.525,74.293 38.41,85.081c24.331,34.202 20.735,85.082 55.548,112.474c27.391,22.418 25.708,63.046 36.114,94.646c-105.894,-2.831 -193.5,-66.719 -292.508,-91.203c-101.149,-54.936 -201.381,-137.111 -267.64,-229.997c74.676,42.771 126.781,145.374 222.039,153.408c-1.76,-90.974 3.52,-182.253 6.197,-272.614c20.735,-80.109 -56.772,-138.641 -80.72,-211.634c-73.529,-138.181 -90.285,-351.804 66.566,-436.58c-10.789,-21.424 -20.506,-41.24 5.968,-55.089c-7.422,-81.945 29.533,-163.661 7.421,-244.611c-10.405,-105.434 -3.137,-211.939 -4.743,-317.756c-1.837,-15.532 12.242,-24.408 20.658,-35.196c-14.843,-18.057 -43.612,-16.144 -57.155,-35.961c-6.121,-33.895 84.087,-26.626 51.646,-64.194c-43.153,6.427 -74.217,35.425 -111.326,54.554c-35.272,24.637 -46.902,76.512 -95.411,81.562c31.217,-55.778 89.443,-101.838 143.155,-134.662c7.192,1.836 14.002,1.53 20.506,-0.995c62.893,-49.044 135.427,-91.432 212.934,-112.167Z" style="fill:#057494;fill-opacity:0.7;fill-rule:nonzero;"></path><path d="M1509.99,105.047c101.992,44.607 203.447,106.429 277.052,190.593c-23.107,25.708 -59.603,46.825 -58.991,85.847c-11.553,260.295 3.749,521.432 8.417,781.192c18.056,22.878 19.51,106.659 -21.807,66.949c-13.313,-18.134 -18.516,0.306 -23.106,13.925c-14.614,-34.89 -39.098,-64.577 -73.07,-81.639c-9.946,0.306 -29.84,0.995 -39.786,1.301c-83.399,69.626 -179.728,125.557 -284.091,156.774c5.815,-17.368 27.085,-20.964 34.201,-37.338c-6.198,-11.4 -73.605,13.772 -48.203,-17.215c149.123,-39.251 296.103,-138.718 346.525,-289.6c8.263,-8.723 8.57,-21.194 5.05,-32.059c19.817,-131.831 -47.897,-249.737 -123.338,-350.733c41.546,6.886 63.505,42.617 92.274,69.167c22.418,-26.55 -4.132,-57.614 -20.046,-79.65c-22.954,-19.204 22.494,-42.77 5.049,-66.795c-1.989,-107.806 7.499,-217.525 -3.672,-324.337c-3.061,-31.905 -73.758,-89.672 -82.787,-35.807c-4.055,-1.684 -12.165,-5.127 -16.22,-6.81c8.493,-14.843 17.597,-29.228 26.549,-43.765Z" style="fill:#04375a;fill-opacity:0.72;fill-rule:nonzero;"></path><path d="M1499.66,155.622c9.029,-53.865 79.726,3.902 82.787,35.807c11.171,106.812 1.683,216.531 3.672,324.337c17.445,24.025 -28.003,47.591 -5.049,66.795c15.914,22.036 42.464,53.1 20.046,79.65c-28.769,-26.55 -50.728,-62.281 -92.274,-69.167c-49.733,-44.607 -97.86,-98.472 -108.954,-166.568c0.229,-21.883 0.765,-43.612 1.377,-65.418c12.472,-75.518 43,-146.981 82.175,-212.246c4.055,1.683 12.165,5.126 16.22,6.81Z" style="fill:#043e62;fill-opacity:0.72;fill-rule:nonzero;"></path><path d="M1010.52,169.088c22.494,1.76 61.363,-14.767 57.537,21.27c-6.733,176.744 -18.592,355.171 -1.913,532.068c-16.067,83.705 14.002,172.46 -18.439,252.568c3.06,18.287 11.63,12.319 19.97,-0.382c2.065,26.932 -13.62,50.498 -16.145,75.976c10.1,22.342 25.479,42.847 27.928,68.173c-48.815,37.109 -107.041,15.303 -160.753,15.073c-128.771,-63.658 -237.113,-182.559 -268.024,-324.949c2.525,-49.809 3.061,-99.695 0.689,-149.505c31.676,-215.153 211.481,-351.116 359.15,-490.292Z" style="fill:#0098e6;fill-rule:nonzero;"></path><path d="M381.205,274.446c37.109,-19.129 68.173,-48.127 111.326,-54.554c32.441,37.568 -57.767,30.299 -51.646,64.194c13.543,19.817 42.312,17.904 57.155,35.961c-8.416,10.788 -22.495,19.664 -20.658,35.196c1.606,105.817 -5.662,212.322 4.743,317.756c22.112,80.95 -14.843,162.666 -7.421,244.611c-26.474,13.849 -16.757,33.665 -5.968,55.089c-156.851,84.776 -140.095,298.399 -66.566,436.58c23.948,72.993 101.455,131.525 80.72,211.634c-2.677,90.361 -7.957,181.64 -6.197,272.614c-95.258,-8.034 -147.363,-110.637 -222.039,-153.408c-59.757,-56.007 -101.762,-134.432 -136.575,-207.731c42.694,9.028 31.523,67.866 70.621,83.016c39.327,13.16 24.254,70.621 66.107,78.731c21.117,-81.333 -7.116,-168.71 -7.192,-252.262c0.841,-334.359 -3.291,-671.856 7.727,-1003.31c-58.991,42.617 -109.566,109.642 -134.126,181.029c-7.957,10.252 -13.313,30.528 -28.769,29.304c46.29,-106.659 105.74,-215.842 193.347,-292.89c48.509,-5.05 60.139,-56.925 95.411,-81.562Z" style="fill:#02809f;fill-opacity:0.7;fill-rule:nonzero;"></path><path d="M1787.05,295.64c1.913,0.994 5.662,3.06 7.499,4.131c9.793,26.78 24.943,50.805 49.733,66.03c10.023,24.791 13.619,55.013 43.994,63.047c18.593,40.628 26.474,85.694 56.084,120.66c25.173,47.744 -32.671,46.061 -43.077,82.021c2.066,12.089 8.952,21.271 22.266,18.823c-32.518,228.925 -7.346,461.447 -15.992,691.902c-7.345,63.353 31.218,123.95 13.314,187.379c-22.572,6.351 -48.509,25.556 -26.091,48.815c43.765,17.828 11.247,-71.156 67.713,-37.72c-50.421,64.041 -58.073,154.019 -119.971,210.639c-11.477,10.635 -10.406,22.647 3.902,29.763c-51.263,58.685 -111.555,109.489 -176.591,152.183c-31.37,-23.948 40.093,-47.59 48.739,-76.895c-16.298,-87.913 20.046,-183.247 13.925,-277.205c-28.004,-80.491 17.751,-163.277 22.954,-244.763c-64.883,-1.76 -37.721,83.093 -75.748,115.993c-20.735,15.991 -26.932,47.897 -55.548,53.023c30.376,-52.334 59.68,-106.964 71.157,-167.027c5.738,-24.178 9.487,-49.121 1.147,-72.916c-1.224,-5.05 -3.672,-14.997 -4.896,-19.97c4.59,-13.619 9.793,-32.059 23.106,-13.925c41.317,39.71 39.863,-44.071 21.807,-66.949c-4.668,-259.76 -19.97,-520.897 -8.417,-781.192c-0.612,-39.022 35.884,-60.139 58.991,-85.847Z" style="fill:#012c51;fill-opacity:0.72;fill-rule:nonzero;"></path><path d="M1794.55,299.771c178.197,158.458 294.114,392.815 320.128,630.616c-1.836,9.947 -0.765,20.276 4.208,29.228c3.137,9.947 4.361,20.199 3.673,30.758c-0.306,48.356 -0.842,96.865 -0,145.297c-0.536,12.701 1.224,26.168 -3.673,38.333c-4.973,8.876 -6.044,19.205 -4.208,29.228c-21.73,215 -125.328,417.988 -268.253,577.899c-14.308,-7.116 -15.379,-19.128 -3.902,-29.763c61.898,-56.62 69.55,-146.598 119.971,-210.639c-56.466,-33.436 -23.948,55.548 -67.713,37.72c-22.418,-23.259 3.519,-42.464 26.091,-48.815c17.904,-63.429 -20.659,-124.026 -13.314,-187.379c8.646,-230.455 -16.526,-462.977 15.992,-691.902c-13.314,2.448 -20.2,-6.734 -22.266,-18.823c10.406,-35.96 68.25,-34.277 43.077,-82.021c-29.61,-34.966 -37.491,-80.032 -56.084,-120.66c-30.375,-8.034 -33.971,-38.256 -43.994,-63.047c-24.79,-15.225 -39.94,-39.25 -49.733,-66.03Z" style="fill:#042146;fill-opacity:0.72;fill-rule:nonzero;"></path><path d="M1301.04,441.702c-11.248,-33.36 -4.897,-69.78 1.147,-103.522c-0.153,34.508 -0.306,68.938 -1.147,103.522Z" style="fill:#0098e6;fill-rule:nonzero;"></path><path d="M1399.89,426.476c-6.657,-21.424 -3.29,-43.842 1.377,-65.418c-0.612,21.806 -1.148,43.535 -1.377,65.418Z" style="fill:#778a9e;fill-rule:nonzero;"></path><path d="M121.216,619.594c24.56,-71.387 75.135,-138.412 134.126,-181.029c-11.018,331.452 -6.886,668.949 -7.727,1003.31c0.076,83.552 28.309,170.929 7.192,252.262c-41.853,-8.11 -26.78,-65.571 -66.107,-78.731c-39.098,-15.15 -27.927,-73.988 -70.621,-83.016c-65.036,-116.07 -98.089,-254.863 -107.653,-388.99c0.076,-53.712 0.459,-107.27 -0,-160.829c5.509,-113.086 35.348,-234.664 82.021,-333.671c15.456,1.224 20.812,-19.052 28.769,-29.304Z" style="fill:#048da9;fill-opacity:0.7;fill-rule:nonzero;"></path><path d="M1245.03,594.421c75.671,-3.902 98.471,95.258 128.617,150.194c49.504,103.674 21.5,244.61 -86.689,298.016c-54.629,26.627 -126.857,68.632 -184.012,33.513c-24.102,-23.949 -16.068,-75.595 19.74,-82.787c71.769,-11.936 179.498,-42.694 173.531,-133.208c4.437,-74.982 -44.531,-140.324 -82.634,-201.305c-8.646,-26.014 5.126,-57.001 31.447,-64.423Z" style="fill:#d9cdc9;fill-rule:nonzero;"></path><path d="M650.682,808.885c-12.701,-48.661 -4.743,-100.384 0.689,-149.505c2.372,49.81 1.836,99.696 -0.689,149.505Z" style="fill:#c57f59;fill-rule:nonzero;"></path><path d="M2114.67,930.387c13.925,-1.224 12.395,22.725 4.208,29.228c-4.973,-8.952 -6.044,-19.281 -4.208,-29.228Z" style="fill:#7f8799;fill-rule:nonzero;"></path><path d="M586.106,934.902c59.756,120.124 158.381,217.066 274.603,282.713c-31.217,3.826 13.696,60.139 -50.268,41.929c-100.691,-57.461 -193.577,-131.831 -265.04,-223.493c29.458,2.372 44.684,26.55 58.838,49.198c48.127,32.594 90.897,72.61 134.433,110.254c10.941,4.744 46.137,20.506 34.89,-3.519c-79.65,-69.55 -168.481,-153.408 -187.456,-257.082Z" style="fill:#176b86;fill-opacity:0.7;fill-rule:nonzero;"></path><path d="M1627.13,975.836c-4.82,-10.559 -6.733,-25.326 5.05,-32.059c3.52,10.865 3.213,23.336 -5.05,32.059Z" style="fill:#698599;fill-rule:nonzero;"></path><path d="M10.426,1143.4c-9.947,-32.824 -17.369,-128.617 -0,-160.829c0.459,53.559 0.076,107.117 -0,160.829Z" style="fill:#91d3de;fill-rule:nonzero;"></path><path d="M2122.55,990.373c8.263,28.616 19.434,115.611 -0,145.297c-0.842,-48.432 -0.306,-96.941 -0,-145.297Z" style="fill:#b2b6ca;fill-rule:nonzero;"></path><path d="M368.122,1149.06c4.59,-79.343 108.571,-196.79 177.279,-113.009c71.463,91.662 164.349,166.032 265.04,223.493c81.103,44.148 169.322,76.13 261.825,84.47c33.972,4.744 69.856,10.865 103.598,1.071c39.787,-6.886 80.568,-11.324 118.748,-25.096c104.363,-31.217 200.692,-87.148 284.091,-156.774c11.706,8.952 28.539,8.187 39.786,-1.301c33.972,17.062 58.456,46.749 73.07,81.639c1.224,4.973 3.672,14.92 4.896,19.97c-0.612,24.101 -0.918,48.662 -1.147,72.916c-11.477,60.063 -40.781,114.693 -71.157,167.027c-30.069,43.995 -61.822,86.765 -94.416,128.924c-120.89,106.199 -142.237,281.336 -106.506,430.765c-23.642,7.422 -64.576,20.276 -96.712,28.31c-3.596,-19.434 -7.421,-39.098 -10.405,-58.303c3.366,-62.587 3.902,-125.251 0.994,-187.838c8.34,-203.906 211.94,-311.406 272.768,-493.506c7.574,-23.336 10.329,-48.203 11.859,-72.457c-36.803,14.843 -70.315,37.415 -101.226,62.128c-92.504,49.58 -191.587,82.404 -294.497,101.762c-54.783,-1.148 -109.489,-2.449 -164.272,-0.306c-19.434,-3.596 -38.639,-8.723 -58.073,-12.242c-60.981,-11.401 -117.6,-35.885 -174.831,-58.609c-120.431,-64.576 -229.691,-148.128 -324.337,-246.294c-58.914,84.317 10.789,189.981 46.137,270.089c70.315,131.296 179.193,235.659 268.636,353.488c63.505,95.488 122.802,195.643 157.233,305.744c6.274,21.959 12.165,44.071 19.128,65.878c-38.256,-12.855 -101.762,1.3 -131.066,-20.812c5.662,-0.382 17.062,-1.071 22.724,-1.454c-39.71,-119.512 -99.007,-234.97 -182.559,-329.615c-122.573,-159.606 -272.384,-312.707 -317.067,-516.383c0.994,-34.661 0.994,-69.168 0.459,-103.675Z" style="fill:#d0d1d2;fill-opacity:0.7;fill-rule:nonzero;"></path><path d="M530.634,1395.89c-35.348,-80.108 -105.051,-185.772 -46.137,-270.089c94.646,98.166 203.906,181.718 324.337,246.294c-30.682,19.434 -64.73,-31.829 -88.678,-1.148c-36.114,39.863 -125.634,98.702 -64.959,152.413c-5.05,47.056 31.599,26.168 59.756,17.063c-23.566,31.293 -16.144,70.085 19.817,87.606c16.909,42.082 63.582,76.896 64.5,121.349c-89.443,-117.829 -198.321,-222.192 -268.636,-353.488Z" style="fill:#0098e6;fill-rule:nonzero;"></path><path d="M367.663,1252.74c-11.095,-33.513 -3.979,-69.703 0.459,-103.675c0.535,34.507 0.535,69.014 -0.459,103.675Z" style="fill:#7db6c7;fill-rule:nonzero;"></path><path d="M1578.7,1163.21c9.946,-0.306 29.84,-0.995 39.786,-1.301c-11.247,9.488 -28.08,10.253 -39.786,1.301Z" style="fill:#6b87a2;fill-rule:nonzero;"></path><path d="M2114.67,1203.23c-1.836,-10.023 -0.765,-20.352 4.208,-29.228c8.187,6.427 9.717,30.376 -4.208,29.228Z" style="fill:#8d95a4;fill-rule:nonzero;"></path><path d="M1072.34,1183.18c44.071,-0.765 88.219,-1.301 132.443,-0.995c-41.087,18.057 -89.673,4.897 -132.443,0.995Z" style="fill:#e8aa9d;fill-rule:nonzero;"></path><path d="M810.441,1259.54c63.964,18.21 19.051,-38.103 50.268,-41.929c129,64.577 279.577,82.175 419.901,47.821c-25.402,30.987 42.005,5.815 48.203,17.215c-7.116,16.374 -28.386,19.97 -34.201,37.338c-38.18,13.772 -78.961,18.21 -118.748,25.096c-34.583,-1.454 -69.09,-1.377 -103.598,-1.071c-92.503,-8.34 -180.722,-40.322 -261.825,-84.47Z" style="fill:#0e5875;fill-opacity:0.7;fill-rule:nonzero;"></path><path d="M1696.45,1263.52c8.34,23.795 4.591,48.738 -1.147,72.916c0.229,-24.254 0.535,-48.815 1.147,-72.916Z" style="fill:#7793a9;fill-rule:nonzero;"></path><path d="M1500.51,1341.49c30.911,-24.713 64.423,-47.285 101.226,-62.128c-1.53,24.254 -4.285,49.121 -11.859,72.457c-2.755,-14.384 -1.684,-46.213 -24.484,-39.174c-19.205,14.461 -39.175,30.911 -64.883,28.845Z" style="fill:#0098e6;fill-rule:nonzero;"></path><path d="M1500.51,1341.49c25.708,2.066 45.678,-14.384 64.883,-28.845c22.8,-7.039 21.729,24.79 24.484,39.174c-60.828,182.1 -264.428,289.6 -272.768,493.506c-5.968,61.899 -13.313,126.169 -0.994,187.838c2.984,19.205 6.809,38.869 10.405,58.303c-40.934,8.493 -81.562,23.489 -123.72,23.183c-11.018,1.071 -32.977,3.214 -43.995,4.285c-3.826,0.841 -11.553,2.525 -15.379,3.366c-48.738,0.536 -97.324,0.306 -145.986,0.536c-5.432,-0.459 -16.297,-1.377 -21.806,-1.836c-6.963,-21.807 -12.854,-43.919 -19.128,-65.878c0.842,-35.195 21.5,1.684 22.877,16.757c1.836,40.245 66.949,35.119 87.99,28.615c-1.148,-198.55 -1.378,-399.625 0.994,-598.557c-1.071,-61.593 -68.785,-40.246 -102.45,-66.566c4.438,-1.148 13.313,-3.443 17.751,-4.667c19.434,3.519 38.639,8.646 58.073,12.242c53.865,8.799 110.56,11.706 164.272,0.306c102.91,-19.358 201.993,-52.182 294.497,-101.762Z" style="fill:#0098e6;fill-rule:nonzero;"></path><path d="M1679.7,1450.44c38.027,-32.9 10.865,-117.753 75.748,-115.993c-5.203,81.486 -50.958,164.272 -22.954,244.763c6.121,93.958 -30.223,189.292 -13.925,277.205c-8.646,29.305 -80.109,52.947 -48.739,76.895c-53.1,38.333 -114.616,75.442 -177.585,99.62c-8.493,-44.913 80.72,-35.808 80.797,-83.552c-26.703,9.564 -27.621,-2.372 -15.685,-23.719c-3.826,-86.689 28.921,-170.852 11.553,-258.23c-17.521,-6.35 -33.818,-15.838 -39.174,-35.042c32.594,-42.159 64.347,-84.929 94.416,-128.924c28.616,-5.126 34.813,-37.032 55.548,-53.023Z" style="fill:#03365b;fill-opacity:0.7;fill-rule:nonzero;"></path><path d="M1072.27,1344.01c34.508,-0.306 69.015,-0.383 103.598,1.071c-33.742,9.794 -69.626,3.673 -103.598,-1.071Z" style="fill:#799baf;fill-rule:nonzero;"></path><path d="M720.156,1370.95c23.948,-30.681 57.996,20.582 88.678,1.148c57.231,22.724 113.85,47.208 174.831,58.609c-4.438,1.224 -13.313,3.519 -17.751,4.667c33.665,26.32 101.379,4.973 102.45,66.566c-2.372,198.932 -2.142,400.007 -0.994,598.557c-21.041,6.504 -86.154,11.63 -87.99,-28.615c-1.377,-15.073 -22.035,-51.952 -22.877,-16.757c-34.431,-110.101 -93.728,-210.256 -157.233,-305.744c-0.918,-44.453 -47.591,-79.267 -64.5,-121.349c-35.961,-17.521 -43.383,-56.313 -19.817,-87.606c-28.157,9.105 -64.806,29.993 -59.756,-17.063c-60.675,-53.711 28.845,-112.55 64.959,-152.413m-67.255,109.26c1.071,14.538 2.219,42.006 23.031,38.257c1.377,-19.97 6.58,-48.662 -23.031,-38.257Z" style="fill:#0098e6;fill-rule:nonzero;"></path><path d="M1041.74,1442.94c54.783,-2.143 109.489,-0.842 164.272,0.306c-53.712,11.4 -110.407,8.493 -164.272,-0.306Z" style="fill:#0098e6;fill-rule:nonzero;"></path><path d="M652.901,1480.21c29.611,-10.405 24.408,18.287 23.031,38.257c-20.812,3.749 -21.96,-23.719 -23.031,-38.257Z" style="fill:#0098e6;fill-rule:nonzero;"></path><path d="M1423.23,2063.16c-35.731,-149.429 -14.384,-324.566 106.506,-430.765c5.356,19.204 21.653,28.692 39.174,35.042c17.368,87.378 -15.379,171.541 -11.553,258.23c-11.936,21.347 -11.018,33.283 15.685,23.719c-0.077,47.744 -89.29,38.639 -80.797,83.552c-13.543,12.777 -48.28,18.057 -69.015,30.222Z" style="fill:#063f62;fill-opacity:0.7;fill-rule:nonzero;"></path><path d="M684.73,1769.12c83.552,94.645 142.849,210.103 182.559,329.615c-5.662,0.383 -17.062,1.072 -22.724,1.454c-113.697,-20.811 -227.625,-66.489 -322.271,-130.071c99.008,24.484 186.614,88.372 292.508,91.203c-10.406,-31.6 -8.723,-72.228 -36.114,-94.646c-34.813,-27.392 -31.217,-78.272 -55.548,-112.474c-35.885,-10.788 -33.513,-54.17 -38.41,-85.081Z" style="fill:#166a85;fill-opacity:0.7;fill-rule:nonzero;"></path><path d="M1316.11,2033.16c-12.319,-61.669 -4.974,-125.939 0.994,-187.838c2.908,62.587 2.372,125.251 -0.994,187.838Z" style="fill:#d89a8c;fill-rule:nonzero;"></path><path d="M1158.8,2118.93c11.018,-1.071 32.977,-3.214 43.995,-4.285c-2.602,17.215 -33.436,13.466 -43.995,4.285Z" style="fill:#e9b392;fill-rule:nonzero;"></path><path d="M997.437,2122.84c48.662,-0.23 97.248,-0 145.986,-0.536c-29.381,9.564 -115.687,19.97 -145.986,0.536Z" style="fill:#fedcc2;fill-rule:nonzero;"></path></svg> 