<?xml version="1.0" encoding="UTF-8"?> <!-- Generator: Adobe Illustrator 24.1.3, SVG Export Plug-In . SVG Version: 6.00 Build 0) --> <svg xmlns="http://www.w3.org/2000/svg" xmlns:xlink="http://www.w3.org/1999/xlink" version="1.1" x="0px" y="0px" viewBox="0 0 500 500" style="enable-background:new 0 0 500 500;" xml:space="preserve"> <g id="Layer_2"> <g> <path style="fill:#336699;" d="M451.574,70.343C446.812,57.985,435.341,50,422.352,50c-10.351,0-20.509,5.188-28.601,14.609 c-14.427,16.793-59.174,67.693-135.374,151.948l-2.152,2.38l-0.869,0.96l-5.237,5.785l-0.397,0.439l-0.37,0.409l-2.654,2.929 l-5.635,6.218l-1.117,1.232l-1.909,2.105l-4.493,4.952l-4.173,4.597l-2.703,2.975l-5.969,6.567 c-1.259,1.386-2.525,2.778-3.797,4.176l-4.876,5.358c-1.87,2.055-3.751,4.121-5.645,6.199l-4.969,5.453v0l-3.714,4.074 l-0.805,0.883l-2.228,2.441c-9.949,10.904-20.038,21.94-29.987,32.803l-3.744,4.088l-0.082-0.017l-3.635,3.867 c-42.522,45.227-78.168,82.783-91.519,96.83l-1.795,1.888l-1.161,1.222c-3.132,3.293-4.825,5.069-4.827,5.072l-11.726,12.305 l16.617,3.576c5.18,1.115,10.468,1.68,15.717,1.68c46.491,0,78.482-43.252,79.821-45.093l2.233-3.069l-0.491-3.763l-0.84-6.443 l-0.909-6.973l32.374-37.444l11.508,3.883l23.98-24.131l3.849-3.872v0.001l7.205-7.251l3.379-3.4v-0.001l6.703-6.745l5.854-5.89 l5.436-5.47v0l3.56-3.582l5.436-5.47v-0.001l6.702-6.744l0.706-0.71l8.291-8.343l0.706-0.71l8.29-8.343l146.107-147.021 C452.208,100.832,457.124,84.747,451.574,70.343z M78.522,440.476c-4.442,0-9.022-0.457-13.714-1.467c0,0,1.695-1.779,4.833-5.079 c2.418,0.298,4.852,0.464,7.303,0.464c16.07,0,32.771-6.391,49.32-19.028c9.956-7.601,18.066-16.115,23.537-22.505l0.84,6.443 C150.642,399.305,120.698,440.476,78.522,440.476z M148.341,381.659l0.849,6.513c-5.258,6.388-14.011,16.013-25.109,24.474 c-16.04,12.23-31.734,18.361-46.904,18.361c-1.531,0-3.058-0.062-4.578-0.187c14.716-15.484,48.837-51.444,89.794-94.996 l19.276,7.287L148.341,381.659z M201.668,338.143l-31.162-10.914c10.18-11.115,21.578-23.584,31.193-34.122l17.747,27.147 L201.668,338.143z M222.587,317.093l-17.853-27.312c1.895-2.077,3.78-4.145,5.652-6.199l18.056,27.621L222.587,317.093z M231.584,308.04l-18.166-27.788c1.895-2.08,3.778-4.148,5.649-6.204l18.37,28.1L231.584,308.04z M240.581,298.987l-18.481-28.269 c1.895-2.083,3.777-4.151,5.646-6.208l18.689,28.586L240.581,298.987z M249.576,289.934l-18.799-28.757 c1.894-2.083,3.777-4.156,5.644-6.212l19.01,29.079L249.576,289.934z M258.573,280.882L239.45,251.63 c1.894-2.086,3.775-4.16,5.641-6.217l19.336,29.578L258.573,280.882z M267.569,271.829l-19.451-29.754 c1.895-2.089,3.773-4.162,5.638-6.221l19.667,30.085L267.569,271.829z M276.565,262.777l-19.783-30.263 c1.895-2.093,3.771-4.166,5.635-6.225l20.002,30.598L276.565,262.777z M431.839,106.531L285.562,253.724l-20.121-30.779 c70.948-78.448,118.388-132.173,135.534-152.13c6.865-7.991,14.475-11.291,21.378-11.291 C441.617,59.524,455.352,85.25,431.839,106.531z M149.607,358.666c-0.344,0-0.687,0.067-1.009,0.2 c-0.337,0.138-0.651,0.344-0.915,0.628l-35.555,38.17c-0.984,1.057-0.925,2.712,0.131,3.697c0.504,0.469,1.145,0.702,1.783,0.702 c0.7,0,1.4-0.28,1.915-0.833l12.535-13.457l23.02-24.713c0.985-1.057,0.926-2.713-0.131-3.697 C150.878,358.896,150.242,358.666,149.607,358.666z M404.919,99.133c-0.699,0-1.398,0.279-1.913,0.831l-118.17,126.581 l2.855,4.609l119.139-127.619c0.986-1.057,0.929-2.712-0.126-3.697C406.199,99.366,405.558,99.133,404.919,99.133z M421.188,76.036c-4.171,0.001-7.553,3.383-7.553,7.554c0,4.172,3.382,7.553,7.553,7.553c4.172,0,7.553-3.382,7.553-7.554 C428.741,79.417,425.36,76.036,421.188,76.036z"></path> </g> </g> <g id="Layer_3"> </g> </svg> 