<svg xmlns="http://www.w3.org/2000/svg" xmlns:xlink="http://www.w3.org/1999/xlink" width="100%" height="100%" version="1.1" viewBox="0 0 2084 2084" xml:space="preserve" style="fill-rule:evenodd;clip-rule:evenodd;stroke-linejoin:round;stroke-miterlimit:2"><g id="Layer_2"><g><path d="M2071.9,123.451c-24.338,-63.161 -82.966,-103.972 -149.352,-103.972c-52.903,-0 -104.82,26.516 -146.177,74.666c-73.736,85.827 -302.435,345.974 -691.888,776.595l-10.998,12.164l-4.442,4.907l-26.766,29.567l-2.029,2.243l-1.891,2.091l-13.564,14.97l-28.8,31.779l-5.709,6.297l-9.757,10.759l-22.963,25.309l-21.328,23.495l-13.815,15.205l-30.507,33.563c-6.435,7.084 -12.905,14.199 -19.406,21.344l-24.921,27.384c-9.558,10.503 -19.171,21.062 -28.852,31.683l-25.396,27.87l-18.982,20.821l-4.114,4.513l-11.387,12.476c-50.849,55.73 -102.413,112.134 -153.262,167.654l-19.135,20.894l-0.419,-0.087l-18.578,19.764c-217.327,231.152 -399.512,423.098 -467.748,494.891l-9.174,9.65l-5.934,6.245c-16.007,16.83 -24.66,25.907 -24.67,25.923l-59.931,62.89l84.929,18.276c26.474,5.699 53.501,8.587 80.328,8.587c237.612,-0 401.116,-221.058 407.96,-230.467l11.412,-15.686l-2.509,-19.232l-4.293,-32.93l-4.646,-35.639l165.461,-191.373l58.817,19.846l122.56,-123.332l19.672,-19.79l-0,0.005l36.824,-37.059l17.27,-17.377l-0,-0.005l34.259,-34.474l29.919,-30.103l27.783,-27.957l18.195,-18.307l27.783,-27.957l-0,-0.005l34.253,-34.468l3.609,-3.629l42.374,-42.64l3.609,-3.629l42.369,-42.641l746.743,-751.414c70.454,-64.326 95.58,-146.535 67.214,-220.153Zm-1906.64,1891.72c-22.703,0 -46.111,-2.336 -70.091,-7.498c-0,0 8.663,-9.092 24.701,-25.958c12.358,1.523 24.798,2.371 37.325,2.371c82.133,0 167.49,-32.664 252.071,-97.25c50.884,-38.849 92.334,-82.363 120.296,-115.022l4.293,32.93c0.005,0.005 -153.036,210.427 -368.595,210.427Zm356.84,-300.61l4.339,33.288c-26.873,32.648 -71.609,81.841 -128.33,125.085c-81.98,62.506 -162.19,93.842 -239.723,93.842c-7.825,-0 -15.63,-0.317 -23.398,-0.956c75.212,-79.138 249.602,-262.927 458.931,-485.518l98.518,37.243l-170.337,197.016Zm272.551,-222.407l-159.267,-55.781c52.029,-56.808 110.283,-120.536 159.425,-174.395l90.704,138.747l-90.862,91.429Zm106.915,-107.585l-91.245,-139.59c9.685,-10.615 19.319,-21.185 28.887,-31.682l92.283,141.169l-29.925,30.103Zm45.983,-46.269l-92.845,-142.023c9.685,-10.631 19.309,-21.2 28.872,-31.708l93.888,143.617l-29.915,30.114Zm45.983,-46.27l-94.455,-144.48c9.685,-10.647 19.304,-21.216 28.857,-31.729l95.518,146.101l-29.92,30.108Zm45.973,-46.269l-96.08,-146.975c9.68,-10.646 19.304,-21.241 28.846,-31.749l97.159,148.621l-29.925,30.103Zm45.983,-46.264l-97.736,-149.505c9.68,-10.661 19.294,-21.261 28.831,-31.775l98.825,151.172l-29.92,30.108Zm45.978,-46.269l-99.413,-152.071c9.686,-10.677 19.284,-21.272 28.816,-31.795l100.517,153.762l-29.92,30.104Zm45.978,-46.264l-101.109,-154.672c9.685,-10.698 19.273,-21.293 28.8,-31.816l102.228,156.384l-29.919,30.104Zm793.595,-798.563l-747.612,752.293l-102.837,-157.309c362.61,-400.942 605.073,-675.527 692.705,-777.526c35.087,-40.841 73.981,-57.708 109.262,-57.708c98.457,0 168.655,131.484 48.482,240.25Zm-1442.47,1288.64c-1.758,-0 -3.511,0.342 -5.156,1.022c-1.723,0.705 -3.328,1.758 -4.677,3.21l-181.719,195.084c-5.029,5.402 -4.728,13.861 0.669,18.895c2.576,2.397 5.852,3.588 9.113,3.588c3.578,-0 7.155,-1.431 9.788,-4.258l64.065,-68.777l117.654,-126.307c5.034,-5.402 4.732,-13.866 -0.67,-18.895c-2.571,-2.387 -5.821,-3.562 -9.067,-3.562Zm1304.88,-1326.46c-3.573,0 -7.146,1.426 -9.778,4.248l-603.958,646.946l14.591,23.557l608.912,-652.252c5.039,-5.403 4.748,-13.861 -0.644,-18.895c-2.581,-2.413 -5.858,-3.604 -9.123,-3.604Zm83.149,-118.047c-21.317,0.005 -38.603,17.29 -38.603,38.608c0,21.323 17.286,38.603 38.603,38.603c21.323,0 38.603,-17.285 38.603,-38.608c0,-21.323 -17.28,-38.603 -38.603,-38.603Z" style="fill:#0098e6;fill-rule:nonzero"/></g></g></svg>