<svg xmlns="http://www.w3.org/2000/svg" xmlns:xlink="http://www.w3.org/1999/xlink" width="100%" height="100%" version="1.1" viewBox="0 0 900 971" xml:space="preserve" style="fill-rule:evenodd;clip-rule:evenodd;stroke-linejoin:round;stroke-miterlimit:2"><g id="_-35bd99ff"><path d="M299.375,170.25c103.292,-57.5 238.833,-49.083 334.458,20.417c64.334,45.583 111.042,115.666 127,193c15.625,72.791 4.542,151.083 -31.291,216.416c-30.792,57.459 -79.875,104.917 -138.459,133.584c-63.166,31.333 -136.833,41.166 -205.916,26.5c-70.5,-14.792 -135.709,-54 -181.125,-110.042c-52.834,-63.208 -77.292,-147.542 -70.667,-229.292c-3.292,0 -9.875,-0.041 -13.167,-0.041c-17.333,-1.959 -37.541,5.041 -52.875,-4.834c-10.375,-7.625 -7.291,-21.666 -7.916,-32.708c0.833,-32 -0.209,-64 0.5,-95.958c0.041,-8.875 4.166,-20.959 15,-20.292c24.833,-2 49.75,0.417 74.625,-1.292c1.041,-24.666 -1.209,-49.416 0.666,-74.083c-0.75,-12.792 14.875,-15.667 24.709,-15.375c28.916,0.208 57.875,-0.5 86.75,0.875c12.958,0.917 26.5,0.583 37.708,-6.875m-142.25,25.5c-1.417,25.833 -0.083,51.792 -0.417,77.667c-22.541,-0 -45.125,-0.875 -67.666,0.833c-5.792,-1.458 -12.084,-1.625 -17.25,1.792c-4.542,5.541 -3.5,13.166 -3.959,19.833c0.042,25.167 0.292,50.375 0.417,75.542c0.958,12.958 -3.833,28.166 3.958,39.583c10.042,4.458 21.709,1.917 32.417,2.5c17.333,-0.292 34.708,-0.208 52.042,0.167c0.625,26 -0.959,52.083 0.625,78.041c-0.125,9.209 10.791,10.334 17.666,10.209c34.75,0.166 69.542,0.041 104.292,0.083c6.25,-0.417 16.542,-0.25 17.25,-8.5c0.875,-26.708 0.292,-53.417 0.458,-80.125c27.375,-0.917 54.917,1.375 82.25,-1.083c7.667,-3.875 6.125,-13.542 6.584,-20.584c-0.417,-34.833 0.291,-69.666 -0.292,-104.5c0.375,-6.125 -3.042,-13.916 -10.333,-13.375c-25.959,-1.5 -51.959,0 -77.959,-0.583c-1.291,-27.042 1.417,-54.292 -1.333,-81.208c-2.958,-8.709 -13.667,-6.959 -20.792,-7.459c-34.833,0.417 -69.666,-0.333 -104.5,0.334c-6.333,-0.459 -13.875,3.583 -13.458,10.833m226.417,25.25c-19.125,2.292 -43.75,16.958 -38.959,39.292c12.709,-4.667 24.25,-16.75 38.792,-12.292c-3.208,5.458 -6.333,10.917 -9.417,16.417c15.334,-0.959 23.584,-14.75 31.292,-26.125c27.5,-2.917 54.583,6.25 82.083,2.208c0.542,18 8.334,34.5 20.209,47.792c-7.417,7.458 -14.792,15.041 -20.5,23.958c-12.375,18.167 -17.625,42.083 -38.167,53.5c-9.667,-1.5 -17.5,7.125 -24.167,13c-14.791,13.875 -16.625,34.833 -21.916,53.208c-7.542,15.25 -24.625,22.125 -35.584,34.5c-14.583,16.209 -24.083,36.167 -37.791,53.125c-4.417,4.5 -7.917,9.75 -11.584,14.875c-35.833,12.917 -53.041,51.417 -87.208,67.042c-11.167,6.042 -25.75,7.833 -33.125,19.333c4.708,15.167 17,26.375 26.583,38.625c16.042,17.959 33.959,41.75 61.334,37.25c-2.25,-15.791 -15.542,-26.25 -20.875,-40.708c-2.459,-8.25 -2.584,-17 -3.75,-25.5c8.25,-23.833 34.25,-29.75 54.041,-40.667c17.209,-8.125 31.834,-20.416 47.75,-30.708c7.834,21.542 13.875,44.208 26.667,63.542c5.833,8.25 17.083,17.666 27.375,11.083c-0.333,-16.917 -10.5,-32.833 -6.542,-49.917c2.5,-15.958 15.25,-30.916 32.125,-31.666c33,-4.292 67.542,-5.167 98.125,-19.75c14.542,-6.959 20.417,-25.375 15.709,-40.209c-8.375,-27.583 -28.5,-49.541 -48.542,-69.416c6.958,-8.125 14.958,-15.209 23.875,-21.125c19.583,-6.334 36.625,-18.25 52.375,-31.209c9.333,24.209 31.792,40.334 56.125,47.167c9.458,2.917 18.167,-4.625 23.875,-11.333c14.625,-19.792 13.292,-45.584 13.333,-68.917c-1.333,-19 12.584,-35 11.542,-53.958c-0.083,-14.875 -7.292,-31.209 -21.708,-37.167c-2.334,2.042 -7.084,6.167 -9.459,8.25c0.084,-15.125 -5.291,-31.042 -18.958,-39.083c-22.875,-16.5 -59.875,1.875 -59.833,30.375c-2.459,8 2.583,21.041 -7.75,24.25c-8.125,-15.417 -25.25,-21.542 -37.042,-33.417c-14.458,-11.875 -25.917,-30.208 -46,-32.583c-36,-7.917 -69.375,12.666 -104.333,16.958Z" style="fill:#0098e6;fill-rule:nonzero"/><path d="M383.167,224.917c28.541,-3.709 54.833,-17.709 83.791,-18.875c12.084,0.75 23.875,4.791 35.084,9.25c10.291,6.625 17.666,16.75 25.833,25.666c-4.792,2.542 -9.583,5.125 -14.375,7.667c15.625,1.083 32.375,3.167 44.292,14.5c17.25,13.5 8.041,48.875 -16,46.583c-22.417,-2.375 -26.542,-28.583 -23.834,-46.791c-1.958,6.916 -4.041,13.791 -6.125,20.666c-13.333,-14.166 -20.083,-33.625 -17.875,-53.041c-17.875,9.708 -37.875,2.791 -56.875,2.541c-11.375,-0.833 -23.5,1.292 -33.916,-4.5c-3.334,9.167 -7.75,17.875 -13.125,26c-0.875,-8.5 -6.167,-15.666 -15.334,-12.541c-10,2.125 -18.916,7.541 -28.333,11.375c5.25,-16.167 20.375,-26.417 36.792,-28.5Z" style="fill:#0098e6;fill-opacity:.6;fill-rule:nonzero"/><path d="M602.083,243.917c8.417,-6.417 13.167,6.708 14.875,12.708c2.709,-0.417 8.167,-1.25 10.875,-1.667c2.709,-5.583 7.917,-18.125 15.542,-10.958c10.875,9.958 0,24.917 -12.375,25.833c4.583,17.292 -14.833,25.959 -27.875,31.5c3.875,-8.041 8.75,-15.5 13.292,-23.166c-7.292,4.25 -13.5,10 -18.5,16.75c-2.5,-0.542 -5,-1.125 -7.5,-1.667c-1.084,2.833 -3.167,8.5 -4.209,11.333c-8.666,-5.208 -5.875,-18.791 -9.541,-27.208c4.583,-1.292 9.208,-2.583 13.833,-3.833c1.625,-1.542 4.833,-4.709 6.458,-6.292c1.834,0.708 5.5,2.167 7.334,2.917c-3.875,-7.709 -12.834,-20 -2.209,-26.25Z" style="fill:#0098e6;fill-opacity:.6;fill-rule:nonzero"/><path d="M665.625,252.125c23.417,11.375 21.208,44.708 8.958,63.667c-1.458,23.666 2.959,48.166 -4.5,71.083c-4.625,11.875 -13.25,26.708 -27.916,25.875c-21.584,-7.25 -46.042,-21.167 -48.167,-46.5c2.125,-14.333 3.833,-29.125 10.042,-42.375c6.458,8.292 8.958,18.125 5.791,28.25c8.084,4.292 17.292,7.875 22.584,15.792c6.25,8.541 6.458,19.625 8.416,29.625c1.917,-25.625 16.875,-47.625 20.042,-72.959c1.083,-1.583 3.333,-4.666 4.458,-6.208c-7.958,-10.875 -12.541,-23.583 -12.083,-37.167c7.958,6.5 15.125,13.917 21.792,21.75c-3.042,-8.375 -8.75,-15.5 -11.625,-23.875c-0.5,-9.041 1.041,-18.041 2.208,-26.958Z" style="fill:#0098e6;fill-opacity:.6;fill-rule:nonzero"/><path d="M633.75,295.917c5.25,-16.375 15.458,-30.209 26.667,-42.959c-0.667,9.125 0.208,20 -9.667,24.417c-0.333,11.958 1,23.875 4.083,35.458c5.375,20.209 -6.041,39.084 -13.375,57.125c-6.958,-9.208 -15.75,-16.75 -23.25,-25.458c-3.875,-14.417 -10.625,-27.875 -23.166,-36.75c14.041,0.083 25.25,-9.375 38.708,-11.833Z" style="fill:#0098e6;fill-opacity:.6;fill-rule:nonzero"/><path d="M573.125,295.167c2.042,7 4.125,13.958 6.167,20.958c4.541,-1.042 9.125,-2.042 13.708,-3.083c0.542,18.708 -0.5,39.416 -13.917,53.916c-14.291,15.209 -33.25,25.542 -52.875,32.125c-1.208,0.375 -3.666,1.125 -4.916,1.5c-5.625,4.917 -10.584,10.584 -16.334,15.459c-3.875,-1.959 -7.625,-4.042 -11.375,-6.25c12.125,-13.834 19.292,-30.709 27.125,-47.084c9.209,-12.375 23.209,-20.541 31.584,-33.791c-15.25,10.25 -31.375,21 -40.292,37.625c-6.833,12.708 -14.625,24.833 -24.042,35.75c-7.041,-2.667 -14.125,-5.334 -21.208,-7.917c15.958,13.333 23.125,32.958 27,52.833c1.375,-8 2.833,-16.041 4.417,-24c4.25,10.084 7.25,20.625 9.458,31.334c1.458,-6.334 2.958,-12.625 4.542,-18.917c7.875,9.458 16.666,18.75 20.875,30.583c-10.959,12.334 -26.042,30.667 -44.417,23.875c-29.875,-9.125 -60.583,-25.791 -71.625,-57c1.333,7.125 2.667,14.25 4,21.375c-6.917,10.25 -14.042,20.375 -20.667,30.792c9.375,-7.583 18.042,-16.042 26.25,-24.917c3.375,3.709 6.792,7.417 10.209,11.125c-14.25,22.209 -32.917,42.834 -57,54.375c-12.375,-6.75 -20.292,-18.833 -29.292,-29.25c13.083,-19.833 29.667,-37 47.792,-52.333c17.291,-12.625 10.958,-38.75 27.5,-51.875c11.625,-12.125 29.375,-7.25 43.958,-5.792l0.875,-2.708c-10.25,-2.458 -20.542,-4.917 -30.792,-7.375c5.375,-3.083 10.834,-6.125 16.375,-8.958c1.875,0.458 5.584,1.375 7.459,1.791c6.375,-14.125 13.375,-28.041 22.5,-40.625c-2.584,15.042 -7.917,29.375 -14.292,43.167c13.458,-15.083 20.417,-34.667 33.875,-49.667c8.917,-10.791 24,-2.416 35.833,-4.333c14.875,0.917 23.459,-12.625 31.542,-22.708Z" style="fill:#0098e6;fill-opacity:.6;fill-rule:nonzero"/><path d="M517.292,492.208c7.25,-7.791 14.916,-15.25 22.875,-22.291c8.833,15.125 19.791,35.833 6.75,51.833c-5.542,8.917 -16.75,7.167 -25.625,8.333c-24.667,20.125 -58.709,11.625 -87.542,19.542c-14.333,2.708 -36.958,13.292 -42.542,-7.292c-4,13.292 9.417,18.917 20.625,18.25c-5.125,9.625 -11.083,19.75 -9.625,31.125c1.542,13.375 6.584,26.084 8.375,39.5c-6.166,-4.958 -12.333,-10.25 -15.708,-17.541c-12.375,-24 -18.167,-50.625 -24.375,-76.667c15.208,-4.208 31.542,-1.375 46.458,-7.167c32.834,-9.958 64.375,-33.75 100.375,-24.708c-1.583,4.625 -0.833,11.292 -6.416,13.292c-21.959,8.791 -46.167,7.375 -69.084,11.958c26.875,3.625 53.75,-0.875 79.584,-8.333c0.666,-14.209 14.125,-18 25.791,-20.167c-10.333,-1.917 -20.625,-4.583 -29.916,-9.667m-113.167,46.875c-9.75,4.875 7.458,17.75 10.625,8.834c-1.958,-4.084 -5.875,-8.375 -10.625,-8.834Z" style="fill:#0098e6;fill-opacity:.6;fill-rule:nonzero"/><path d="M451.125,481c13.833,6.125 27.917,11.542 42.167,16.667c-35.084,5.083 -63.5,31.75 -99.625,32.125c19.541,-15.792 39.291,-31.375 57.458,-48.792Z" style="fill:#0098e6;fill-opacity:.6;fill-rule:nonzero"/><path d="M347.083,503.542c8.084,8.791 16.209,17.541 24.417,26.208c-4.167,2.542 -8.333,5.083 -12.5,7.625c0.417,4.583 0.833,9.167 1.25,13.792c-15.292,8.041 -24.542,23.958 -40.542,30.958c-20.791,10.167 -42.166,19.5 -60.833,33.417c-5.333,3.083 -10.667,6.916 -16.958,7.583c-5,-2.542 -9.709,-5.542 -14.542,-8.417c4.75,10.584 14.417,14.167 25.625,12.792c-4.042,25.542 14.792,44.667 26.375,65.042c-33.583,-13.125 -51,-47.25 -70.417,-75.334c12,-5.541 24.667,-10.166 35.334,-18.166c24,-17.584 41.916,-42.959 68.708,-56.75c7.958,-4.5 17.417,-4.125 26.208,-4.834c-3.125,6.792 -5.583,14.667 -12.291,18.917c-17.584,12.417 -37.959,19.958 -56.75,30.208c26.916,-5.25 51.375,-18.333 72.75,-35.208c-0.042,-11.708 6.791,-20.875 15.083,-28.375c-8.583,-1.167 -26.792,9.167 -25.958,-5.917c4.916,-4.625 10,-9.083 15.041,-13.541Z" style="fill:#0098e6;fill-opacity:.6;fill-rule:nonzero"/></g><g id="_-fcfcfcff"><path d="M157.125,195.75c-0.417,-7.25 7.125,-11.292 13.458,-10.833c34.834,-0.667 69.667,0.083 104.5,-0.334c7.125,0.5 17.834,-1.25 20.792,7.459c2.75,26.916 0.042,54.166 1.333,81.208c26,0.583 52,-0.917 77.959,0.583c7.291,-0.541 10.708,7.25 10.333,13.375c0.583,34.834 -0.125,69.667 0.292,104.5c-0.459,7.042 1.083,16.709 -6.584,20.584c-27.333,2.458 -54.875,0.166 -82.25,1.083c-0.166,26.708 0.417,53.417 -0.458,80.125c-3.833,-12.458 -8.958,-24.917 -17.958,-34.583c-53.792,-59.709 -108.334,-118.667 -161.417,-179c-9.375,-1.709 -18.75,-3.625 -28.083,-5.667c22.541,-1.708 45.125,-0.833 67.666,-0.833c0.334,-25.875 -1,-51.834 0.417,-77.667Z" style="fill:#fcfcfc;fill-rule:nonzero"/></g><g id="_-1a1019ff"><path d="M383.542,221c34.958,-4.292 68.333,-24.875 104.333,-16.958c20.083,2.375 31.542,20.708 46,32.583c11.792,11.875 28.917,18 37.042,33.417c10.333,-3.209 5.291,-16.25 7.75,-24.25c-0.042,-28.5 36.958,-46.875 59.833,-30.375c13.667,8.041 19.042,23.958 18.958,39.083c2.375,-2.083 7.125,-6.208 9.459,-8.25c14.416,5.958 21.625,22.292 21.708,37.167c1.042,18.958 -12.875,34.958 -11.542,53.958c-0.041,23.333 1.292,49.125 -13.333,68.917c-5.708,6.708 -14.417,14.25 -23.875,11.333c-24.333,-6.833 -46.792,-22.958 -56.125,-47.167c-15.75,12.959 -32.792,24.875 -52.375,31.209l-5.167,-2.584c19.625,-6.583 38.584,-16.916 52.875,-32.125c13.417,-14.5 14.459,-35.208 13.917,-53.916c-4.583,1.041 -9.167,2.041 -13.708,3.083c-2.042,-7 -4.125,-13.958 -6.167,-20.958c-8.083,10.083 -16.667,23.625 -31.542,22.708c-11.833,1.917 -26.916,-6.458 -35.833,4.333c-13.458,15 -20.417,34.584 -33.875,49.667c6.375,-13.792 11.708,-28.125 14.292,-43.167c-9.125,12.584 -16.125,26.5 -22.5,40.625c-1.875,-0.416 -5.584,-1.333 -7.459,-1.791c-1.833,-0.459 -5.5,-1.375 -7.333,-1.792c20.542,-11.417 25.792,-35.333 38.167,-53.5c5.708,-8.917 13.083,-16.5 20.5,-23.958c-11.875,-13.292 -19.667,-29.792 -20.209,-47.792c-27.5,4.042 -54.583,-5.125 -82.083,-2.208c-7.708,11.375 -15.958,25.166 -31.292,26.125c3.084,-5.5 6.209,-10.959 9.417,-16.417c-14.542,-4.458 -26.083,7.625 -38.792,12.292c-4.791,-22.334 19.834,-37 38.959,-39.292m-0.375,3.917c-16.417,2.083 -31.542,12.333 -36.792,28.5c9.417,-3.834 18.333,-9.25 28.333,-11.375c9.167,-3.125 14.459,4.041 15.334,12.541c5.375,-8.125 9.791,-16.833 13.125,-26c10.416,5.792 22.541,3.667 33.916,4.5c19,0.25 39,7.167 56.875,-2.541c-2.208,19.416 4.542,38.875 17.875,53.041c2.084,-6.875 4.167,-13.75 6.125,-20.666c-2.708,18.208 1.417,44.416 23.834,46.791c24.041,2.292 33.25,-33.083 16,-46.583c-11.917,-11.333 -28.667,-13.417 -44.292,-14.5c4.792,-2.542 9.583,-5.125 14.375,-7.667c-8.167,-8.916 -15.542,-19.041 -25.833,-25.666c-11.209,-4.459 -23,-8.5 -35.084,-9.25c-28.958,1.166 -55.25,15.166 -83.791,18.875m218.916,19c-10.625,6.25 -1.666,18.541 2.209,26.25c-1.834,-0.75 -5.5,-2.209 -7.334,-2.917c-1.625,1.583 -4.833,4.75 -6.458,6.292c-4.625,1.25 -9.25,2.541 -13.833,3.833c3.666,8.417 0.875,22 9.541,27.208c1.042,-2.833 3.125,-8.5 4.209,-11.333c2.5,0.542 5,1.125 7.5,1.667c5,-6.75 11.208,-12.5 18.5,-16.75c-4.542,7.666 -9.417,15.125 -13.292,23.166c13.042,-5.541 32.458,-14.208 27.875,-31.5c12.375,-0.916 23.25,-15.875 12.375,-25.833c-7.625,-7.167 -12.833,5.375 -15.542,10.958c-2.708,0.417 -8.166,1.25 -10.875,1.667c-1.708,-6 -6.458,-19.125 -14.875,-12.708m63.542,8.208c-1.167,8.917 -2.708,17.917 -2.208,26.958c2.875,8.375 8.583,15.5 11.625,23.875c-6.667,-7.833 -13.834,-15.25 -21.792,-21.75c-0.458,13.584 4.125,26.292 12.083,37.167c-1.125,1.542 -3.375,4.625 -4.458,6.208c-3.167,25.334 -18.125,47.334 -20.042,72.959c-1.958,-10 -2.166,-21.084 -8.416,-29.625c-5.292,-7.917 -14.5,-11.5 -22.584,-15.792c3.167,-10.125 0.667,-19.958 -5.791,-28.25c-6.209,13.25 -7.917,28.042 -10.042,42.375c2.125,25.333 26.583,39.25 48.167,46.5c14.666,0.833 23.291,-14 27.916,-25.875c7.459,-22.917 3.042,-47.417 4.5,-71.083c12.25,-18.959 14.459,-52.292 -8.958,-63.667m-31.875,43.792c-13.458,2.458 -24.667,11.916 -38.708,11.833c12.541,8.875 19.291,22.333 23.166,36.75c7.5,8.708 16.292,16.25 23.25,25.458c7.334,-18.041 18.75,-36.916 13.375,-57.125c-3.083,-11.583 -4.416,-23.5 -4.083,-35.458c9.875,-4.417 9,-15.292 9.667,-24.417c-11.209,12.75 -21.417,26.584 -26.667,42.959Z" style="fill:#1a1019;fill-rule:nonzero"/><path d="M404.125,539.083c4.75,0.459 8.667,4.75 10.625,8.834c-3.167,8.916 -20.375,-3.959 -10.625,-8.834Z" style="fill:#1a1019;fill-rule:nonzero"/></g><g id="_-eeeeeeff"><path d="M71.792,276.042c5.166,-3.417 11.458,-3.25 17.25,-1.792c9.333,2.042 18.708,3.958 28.083,5.667c53.083,60.333 107.625,119.291 161.417,179c9,9.666 14.125,22.125 17.958,34.583c-0.708,8.25 -11,8.083 -17.25,8.5c-34.75,-0.042 -69.542,0.083 -104.292,-0.083c-6.875,0.125 -17.791,-1 -17.666,-10.209c-1.584,-25.958 -0,-52.041 -0.625,-78.041c-17.334,-0.375 -34.709,-0.459 -52.042,-0.167c1.167,-2.5 3.542,-7.5 4.75,-10c-12,-12.458 -22.25,-30 -41.125,-32.083c-0.125,-25.167 -0.375,-50.375 -0.417,-75.542c0.459,-6.667 -0.583,-14.292 3.959,-19.833Z" style="fill:#eee;fill-rule:nonzero"/></g><g id="_-332635ff"><path d="M512,366.542c8.917,-16.625 25.042,-27.375 40.292,-37.625c-8.375,13.25 -22.375,21.416 -31.584,33.791c-7.833,16.375 -15,33.25 -27.125,47.084c3.75,2.208 7.5,4.291 11.375,6.25c5.75,-4.875 10.709,-10.542 16.334,-15.459c1.25,-0.375 3.708,-1.125 4.916,-1.5l5.167,2.584c-8.917,5.916 -16.917,13 -23.875,21.125c20.042,19.875 40.167,41.833 48.542,69.416c4.708,14.834 -1.167,33.25 -15.709,40.209c-30.583,14.583 -65.125,15.458 -98.125,19.75c-16.875,0.75 -29.625,15.708 -32.125,31.666c-3.958,17.084 6.209,33 6.542,49.917c-10.292,6.583 -21.542,-2.833 -27.375,-11.083c-12.792,-19.334 -18.833,-42 -26.667,-63.542c-15.916,10.292 -30.541,22.583 -47.75,30.708c-19.791,10.917 -45.791,16.834 -54.041,40.667c-0.625,-5 -1.25,-9.958 -1.917,-14.958c18.667,-13.917 40.042,-23.25 60.833,-33.417c16,-7 25.25,-22.917 40.542,-30.958c-0.417,-4.625 -0.833,-9.209 -1.25,-13.792c4.167,-2.542 8.333,-5.083 12.5,-7.625c-8.208,-8.667 -16.333,-17.417 -24.417,-26.208c-5.041,4.458 -10.125,8.916 -15.041,13.541l-2.625,2.5c13.708,-16.958 23.208,-36.916 37.791,-53.125c10.959,-12.375 28.042,-19.25 35.584,-34.5c5.291,-18.375 7.125,-39.333 21.916,-53.208c6.667,-5.875 14.5,-14.5 24.167,-13c1.833,0.417 5.5,1.333 7.333,1.792c-5.541,2.833 -11,5.875 -16.375,8.958c10.25,2.458 20.542,4.917 30.792,7.375l-0.875,2.708c-14.583,-1.458 -32.333,-6.333 -43.958,5.792c-16.542,13.125 -10.209,39.25 -27.5,51.875c-18.125,15.333 -34.709,32.5 -47.792,52.333c9,10.417 16.917,22.5 29.292,29.25c24.083,-11.541 42.75,-32.166 57,-54.375c-3.417,-3.708 -6.834,-7.416 -10.209,-11.125c-8.208,8.875 -16.875,17.334 -26.25,24.917c6.625,-10.417 13.75,-20.542 20.667,-30.792c-1.333,-7.125 -2.667,-14.25 -4,-21.375c11.042,31.209 41.75,47.875 71.625,57c18.375,6.792 33.458,-11.541 44.417,-23.875c-4.209,-11.833 -13,-21.125 -20.875,-30.583c-1.584,6.292 -3.084,12.583 -4.542,18.917c-2.208,-10.709 -5.208,-21.25 -9.458,-31.334c-1.584,7.959 -3.042,16 -4.417,24c-3.875,-19.875 -11.042,-39.5 -27,-52.833c7.083,2.583 14.167,5.25 21.208,7.917c9.417,-10.917 17.209,-23.042 24.042,-35.75m5.292,125.666c9.291,5.084 19.583,7.75 29.916,9.667c-11.666,2.167 -25.125,5.958 -25.791,20.167c-25.834,7.458 -52.709,11.958 -79.584,8.333c22.917,-4.583 47.125,-3.167 69.084,-11.958c5.583,-2 4.833,-8.667 6.416,-13.292c-36,-9.042 -67.541,14.75 -100.375,24.708c-14.916,5.792 -31.25,2.959 -46.458,7.167c6.208,26.042 12,52.667 24.375,76.667c3.375,7.291 9.542,12.583 15.708,17.541c-1.791,-13.416 -6.833,-26.125 -8.375,-39.5c-1.458,-11.375 4.5,-21.5 9.625,-31.125c-11.208,0.667 -24.625,-4.958 -20.625,-18.25c5.584,20.584 28.209,10 42.542,7.292c28.833,-7.917 62.875,0.583 87.542,-19.542c8.875,-1.166 20.083,0.584 25.625,-8.333c13.041,-16 2.083,-36.708 -6.75,-51.833c-7.959,7.041 -15.625,14.5 -22.875,22.291m-66.167,-11.208c-18.167,17.417 -37.917,33 -57.458,48.792c36.125,-0.375 64.541,-27.042 99.625,-32.125c-14.25,-5.125 -28.334,-10.542 -42.167,-16.667Z" style="fill:#332635;fill-rule:nonzero"/></g><g id="_-dededeff"><path d="M68.25,371.417c18.875,2.083 29.125,19.625 41.125,32.083c-1.208,2.5 -3.583,7.5 -4.75,10c-10.708,-0.583 -22.375,1.958 -32.417,-2.5c-7.791,-11.417 -3,-26.625 -3.958,-39.583Z" style="fill:#dedede;fill-rule:nonzero"/></g><g id="_-1b191fff"><path d="M329.417,519.583l2.625,-2.5c-0.834,15.084 17.375,4.75 25.958,5.917c-8.292,7.5 -15.125,16.667 -15.083,28.375c-21.375,16.875 -45.834,29.958 -72.75,35.208c18.791,-10.25 39.166,-17.791 56.75,-30.208c6.708,-4.25 9.166,-12.125 12.291,-18.917c-8.791,0.709 -18.25,0.334 -26.208,4.834c-26.792,13.791 -44.708,39.166 -68.708,56.75c-10.667,8 -23.334,12.625 -35.334,18.166c19.417,28.084 36.834,62.209 70.417,75.334c-11.583,-20.375 -30.417,-39.5 -26.375,-65.042c-11.208,1.375 -20.875,-2.208 -25.625,-12.792c4.833,2.875 9.542,5.875 14.542,8.417c6.291,-0.667 11.625,-4.5 16.958,-7.583c0.667,5 1.292,9.958 1.917,14.958c1.166,8.5 1.291,17.25 3.75,25.5c5.333,14.458 18.625,24.917 20.875,40.708c-27.375,4.5 -45.292,-19.291 -61.334,-37.25c-9.583,-12.25 -21.875,-23.458 -26.583,-38.625c7.375,-11.5 21.958,-13.291 33.125,-19.333c34.167,-15.625 51.375,-54.125 87.208,-67.042c3.667,-5.125 7.167,-10.375 11.584,-14.875Z" style="fill:#1b191f;fill-rule:nonzero"/></g><g id="_-eaeaeaff"><path d="M368.923,770.629c-66.737,-17.426 -128.138,-55.379 -172.34,-108.462c-56.125,-65.959 -85.041,-155.042 -76.375,-241.375c3.292,-0 9.875,0.041 13.167,0.041c-6.625,81.75 17.833,166.084 70.667,229.292c45.416,56.042 110.625,95.25 181.125,110.042c-1.731,1.196 -3.467,2.396 -5.205,3.598c1.738,-1.202 3.474,-2.402 5.205,-3.598c69.083,14.666 142.75,4.833 205.916,-26.5l0.686,-0.337c58.28,-28.7 107.101,-76.012 137.773,-133.247c35.833,-65.333 46.916,-143.625 31.291,-216.416c-15.958,-77.334 -62.666,-147.417 -127,-193c-95.625,-69.5 -231.166,-77.917 -334.458,-20.417c-11.208,7.458 -24.75,7.792 -37.708,6.875c61.958,-42.25 138.125,-63.958 213.083,-57.542c78.417,5.209 154.292,40.334 209.458,96.209c44.542,43.708 75.334,100.833 89.25,161.541c18.084,80.292 4.917,167.209 -37.083,238.084c-31.292,55 -79.625,99.333 -135.417,128.875l-0.828,0.426c-70.448,36.1 -153.639,44.709 -230.422,26.115l-0.785,-0.204Zm8.53,-5.129l-1.096,0.757l1.096,-0.757l1.627,-1.125l-1.627,1.125Z" style="fill:#fff;fill-rule:nonzero"/></g></svg>