<?xml version="1.0" encoding="UTF-8" standalone="no"?> <svg xmlns="http://www.w3.org/2000/svg" xmlns:xlink="http://www.w3.org/1999/xlink" xmlns:serif="http://www.serif.com/" width="100%" height="100%" viewBox="0 0 8892 8892" version="1.1" xml:space="preserve" style="fill-rule:evenodd;clip-rule:evenodd;stroke-linejoin:round;stroke-miterlimit:2;"><g><path d="M8333.33,4017.71l0,1954.51c0,1607.64 -1371.53,2916.67 -3055.55,2916.67c-1656.08,-0.001 -3008.33,-1263.54 -3053.82,-2832.81l1112.85,0c46.875,956.6 901.042,1722.23 1942.71,1722.23c1072.92,0 1944.45,-810.767 1944.45,-1805.56l0,-1954.17c-1.737,9.204 1109.38,9.204 1109.38,-0.867Z" style="fill:#cbd9e6;fill-opacity:0.4;fill-rule:nonzero;stroke:#fff;stroke-width:4.17px;"></path><path d="M7777.79,1944.45c-609.538,-0 -1111.11,501.571 -1111.11,1111.11c0,609.538 501.575,1111.11 1111.11,1111.11c609.537,-0 1111.11,-501.575 1111.11,-1111.11c0,-609.537 -501.571,-1111.11 -1111.11,-1111.11Zm-0,1388.89c-152.388,0 -277.779,-125.391 -277.779,-277.779c-0,-152.383 125.391,-277.775 277.779,-277.775c152.383,0 277.775,125.392 277.775,277.775c-0,152.388 -125.392,277.779 -277.775,277.779Zm-2557.29,-3106.43l-1092.02,-218.75c-26.975,-5.425 -54.425,-8.158 -81.941,-8.158c-197.53,-0 -369.109,140.817 -407.642,334.55l-55.554,273.088c-5.425,26.979 -8.159,54.429 -8.159,81.945c0.001,197.525 140.813,369.105 334.546,407.638l532.988,105.904l1.737,2130.21c0,914.309 -752.362,1666.67 -1666.67,1666.67c-914.309,0 -1666.67,-752.358 -1666.67,-1666.67l-1.738,-1250l0,-878.991l532.988,-105.904c193.733,-38.534 334.546,-210.113 334.546,-407.642c-0,-27.517 -2.734,-54.967 -8.159,-81.942l-53.82,-272.571c-38.534,-193.733 -210.113,-334.545 -407.638,-334.545c-27.517,-0 -54.967,2.733 -81.946,8.158l-1090.28,215.8c-193.975,39.354 -334.75,211.275 -335.071,409.2l0,2698.44c0,1531.6 1246.18,2777.78 2777.78,2777.78c1531.6,-0 2777.78,-1246.18 2777.78,-2777.78l-0,-2698.44c-0.288,-197.679 -141.217,-369.275 -335.067,-407.988Z" style="fill:#cbd9e6;fill-rule:nonzero;stroke:#fff;stroke-width:4.17px;"></path></g></svg> 