<?xml version="1.0" encoding="UTF-8" standalone="no"?> <svg xmlns="http://www.w3.org/2000/svg" xmlns:xlink="http://www.w3.org/1999/xlink" xmlns:serif="http://www.serif.com/" width="100%" height="100%" viewBox="0 0 2134 2134" version="1.1" xml:space="preserve" style="fill-rule:evenodd;clip-rule:evenodd;stroke-linejoin:round;stroke-miterlimit:2;"><path d="M2000,964.25l0,469.083c0,385.834 -329.167,700 -733.333,700c-397.459,0 -722,-303.25 -732.917,-679.875l267.083,0c11.25,229.584 216.25,413.334 466.25,413.334c257.5,-0 466.667,-194.584 466.667,-433.334l0,-469c-0.417,2.209 266.25,2.209 266.25,-0.208Z" style="fill:#0098e6;fill-opacity:0.4;fill-rule:nonzero;"></path><path d="M1866.67,466.667c-146.289,-0 -266.667,120.377 -266.667,266.666c0,146.289 120.378,266.667 266.667,266.667c146.289,0 266.666,-120.378 266.666,-266.667c0,-146.289 -120.377,-266.666 -266.666,-266.666Zm-0,333.333c-36.573,-0 -66.667,-30.094 -66.667,-66.667c0,-36.572 30.094,-66.666 66.667,-66.666c36.572,-0 66.666,30.094 66.666,66.666c0,36.573 -30.094,66.667 -66.666,66.667Zm-613.75,-745.542l-262.084,-52.5c-6.474,-1.302 -13.062,-1.958 -19.666,-1.958c-47.407,0 -88.586,33.796 -97.834,80.292l-13.333,65.541c-1.302,6.475 -1.958,13.063 -1.958,19.667c0,47.406 33.795,88.585 80.291,97.833l127.917,25.417l0.417,511.25c-0,219.434 -180.567,400 -400,400c-219.434,0 -400,-180.566 -400,-400l-0.417,-300l0,-210.958l127.917,-25.417c46.496,-9.248 80.291,-50.427 80.291,-97.834c-0,-6.604 -0.656,-13.192 -1.958,-19.666l-12.917,-65.417c-9.248,-46.496 -50.427,-80.291 -97.833,-80.291c-6.604,0 -13.192,0.656 -19.667,1.958l-261.666,51.792c-46.554,9.445 -80.34,50.706 -80.417,98.208l0,647.625c0,367.583 299.083,666.667 666.667,666.667c367.583,-0 666.666,-299.084 666.666,-666.667l0,-647.625c-0.069,-47.443 -33.892,-88.626 -80.416,-97.917Z" style="fill:#0098e6;fill-rule:nonzero;"></path></svg> 