<?xml version="1.0" encoding="UTF-8" standalone="no"?> <svg xmlns="http://www.w3.org/2000/svg" xmlns:xlink="http://www.w3.org/1999/xlink" xmlns:serif="http://www.serif.com/" width="100%" height="100%" viewBox="0 0 2134 2134" version="1.1" xml:space="preserve" style="fill-rule:evenodd;clip-rule:evenodd;stroke-linejoin:round;stroke-miterlimit:2;"><path d="M1600,1333.33c-71.958,-71.958 -177.583,-91.916 -271.708,-58.583c-29.709,217.708 -186.084,360 -321.625,417c-20.41,8.377 -33.806,28.356 -33.806,50.418c0,19.572 10.543,37.697 27.556,47.374c37.88,21.801 78.019,39.418 119.708,52.541c180.708,56.625 409.417,19.125 573.75,-143.375c82.61,-82.127 138.756,-187.147 161.167,-301.458c-89.75,25.125 -187.334,3.792 -255.042,-63.917Zm-461.958,-666.666l-71.375,-0c-146.289,-0 -266.667,-120.378 -266.667,-266.667l0,-333.333c0,-36.573 -30.094,-66.667 -66.667,-66.667l-133.333,0c-36.572,0 -66.667,30.094 -66.667,66.667l0,333.333c0,292.578 240.756,533.333 533.334,533.333c-0.138,-93.62 24.489,-185.632 71.375,-266.666Z" style="fill:#ff0800;fill-opacity:0.4;fill-rule:nonzero;"></path><path d="M1600,400c-72.208,0 -317.292,16.667 -461.958,266.667c-37.882,65.551 -61.323,138.447 -68.75,213.791c-2.334,23.709 -2.625,44.959 -2.625,52.875l-0,266.667c-0,146.289 -120.378,266.667 -266.667,266.667l-266.667,-0c-292.578,-0 -533.333,240.755 -533.333,533.333l0,66.667c0,36.572 30.094,66.666 66.667,66.666l133.333,0c36.572,0 66.667,-30.094 66.667,-66.666l-0,-66.667c-0,-156.792 141.666,-213.375 224.666,-213.375c71.292,0 123.292,27.958 171.125,75.833c262.792,262.792 541,270.834 611.292,270.834l11.083,-0c468.667,0.041 848.5,-379.834 848.5,-848.5l0,-351.459c0,-292.578 -240.755,-533.333 -533.333,-533.333Zm266.667,879.167c-0,157.208 -61.042,309.166 -172.834,419.666c-164.333,162.5 -393.041,200 -573.75,143.375c-41.689,-13.123 -81.828,-30.74 -119.708,-52.541c-17.123,-9.645 -27.752,-27.833 -27.752,-47.485c-0,-22.155 13.509,-42.2 34.044,-50.515c150.458,-63.292 326.666,-231.667 326.666,-491.667l0,-266.667c3.459,-91.083 83.959,-266.666 266.667,-266.666c146.229,0.159 266.507,120.438 266.667,266.666l-0,345.834Z" style="fill:#0098e6;fill-rule:nonzero;"></path></svg> 