<svg xmlns="http://www.w3.org/2000/svg" xmlns:xlink="http://www.w3.org/1999/xlink" width="100%" height="100%" version="1.1" viewBox="0 0 8892 8892" xml:space="preserve" style="fill-rule:evenodd;clip-rule:evenodd;stroke-linejoin:round;stroke-miterlimit:2"><g><path d="M6666.67,5555.54c-299.825,-299.825 -739.93,-382.984 -1132.12,-244.096c-123.788,907.117 -775.35,1500 -1340.1,1737.5c-85.042,34.904 -140.859,118.15 -140.859,210.075c0,81.55 43.93,157.071 114.817,197.391c157.833,90.838 325.079,164.242 498.783,218.921c752.95,235.938 1705.9,79.688 2390.63,-597.396c344.208,-342.195 578.149,-779.779 671.529,-1256.08c-373.959,104.688 -780.559,15.8 -1062.67,-266.32Zm-1924.83,-2777.78l-297.396,-0c-609.538,-0 -1111.11,-501.575 -1111.11,-1111.11l0,-1388.89c0,-152.388 -125.391,-277.78 -277.779,-277.78l-555.554,0c-152.383,0 -277.779,125.392 -277.779,277.78l-0,1388.89c-0,1219.08 1003.15,2222.22 2222.22,2222.22c-0.575,-390.083 102.037,-773.467 297.396,-1111.11Z" style="fill:#cbd9e6;fill-opacity:.4;fill-rule:nonzero;stroke:#fff;stroke-width:4.17px"/><path d="M6666.67,1666.67c-300.867,-0 -1322.05,69.446 -1924.83,1111.11c-157.842,273.129 -255.513,576.863 -286.459,890.796c-9.725,98.787 -10.937,187.329 -10.937,220.312l-0,1111.11c-0,609.537 -501.575,1111.11 -1111.11,1111.11l-1111.11,0c-1219.08,0 -2222.22,1003.15 -2222.22,2222.22l0,277.779c0,152.384 125.392,277.775 277.779,277.775l555.554,0c152.384,0 277.78,-125.391 277.78,-277.775l-0,-277.779c-0,-653.3 590.275,-889.062 936.108,-889.062c297.05,-0 513.717,116.491 713.021,315.971c1094.97,1094.97 2254.17,1128.48 2547.05,1128.48l46.179,-0c1952.78,0.17 3535.42,-1582.64 3535.42,-3535.42l-0.001,-1464.41c0.001,-1219.08 -1003.14,-2222.22 -2222.22,-2222.22Zm1111.11,3663.2c0,655.034 -254.341,1288.19 -720.142,1748.61c-684.72,677.083 -1637.67,833.333 -2390.62,597.396c-173.704,-54.68 -340.95,-128.084 -498.783,-218.921c-71.346,-40.188 -115.633,-115.971 -115.633,-197.854c-0,-92.313 56.287,-175.834 141.85,-210.48c626.908,-263.716 1361.11,-965.279 1361.11,-2048.61l0,-1111.11c14.413,-379.512 349.829,-1111.11 1111.11,-1111.11c609.287,0.663 1110.44,501.825 1111.11,1111.11l0,1440.98Z" style="fill:#cbd9e6;fill-rule:nonzero;stroke:#fff;stroke-width:4.17px"/></g></svg>