<?xml version="1.0" encoding="UTF-8" standalone="no"?> <svg xmlns="http://www.w3.org/2000/svg" xmlns:xlink="http://www.w3.org/1999/xlink" xmlns:serif="http://www.serif.com/" width="100%" height="100%" viewBox="0 0 500 500" version="1.1" xml:space="preserve" style="fill-rule:evenodd;clip-rule:evenodd;stroke-linejoin:round;stroke-miterlimit:2;"> <g> <path d="M421.188,76.037C417.016,76.037 413.635,79.418 413.635,83.59C413.635,87.762 417.016,91.144 421.188,91.144C425.36,91.144 428.741,87.761 428.741,83.589C428.741,79.417 425.36,76.037 421.188,76.037ZM404.919,99.133C404.22,99.133 403.521,99.413 403.006,99.964L284.836,226.545L287.692,231.154L406.831,103.534C407.816,102.478 407.76,100.822 406.704,99.837C406.199,99.367 405.558,99.133 404.919,99.133ZM149.607,358.666C149.262,358.666 148.919,358.733 148.598,358.866C148.261,359.005 147.947,359.211 147.682,359.494L112.127,397.664C111.143,398.721 111.202,400.376 112.258,401.361C112.762,401.83 113.403,402.063 114.041,402.063C114.741,402.063 115.441,401.783 115.956,401.23L128.491,387.773L151.51,363.061C152.495,362.004 152.437,360.348 151.379,359.363C150.878,358.896 150.242,358.666 149.607,358.666ZM431.839,106.531L285.562,253.724L265.441,222.945C336.389,144.498 383.829,90.774 400.975,70.816C407.84,62.825 415.449,59.524 422.352,59.524C441.617,59.524 455.352,85.25 431.839,106.531ZM276.565,262.776L256.782,232.514C258.677,230.421 260.553,228.348 262.417,226.288L282.419,256.887L276.565,262.776ZM267.569,271.829L248.118,242.075C250.012,239.985 251.891,237.912 253.756,235.854L273.423,265.939L267.569,271.829ZM258.573,280.882L239.449,251.63C241.343,249.543 243.225,247.47 245.09,245.413L264.426,274.991L258.573,280.882ZM249.576,289.935L230.777,261.177C232.67,259.094 234.554,257.021 236.42,254.965L255.431,284.044L249.576,289.935ZM240.581,298.987L222.099,270.718C223.995,268.635 225.876,266.567 227.746,264.511L246.434,293.097L240.581,298.987ZM231.584,308.04L213.418,280.252C215.313,278.173 217.196,276.104 219.067,274.049L237.438,302.149L231.584,308.04ZM222.587,317.093L204.733,289.78C206.628,287.703 208.513,285.636 210.385,283.581L228.441,311.202L222.587,317.093ZM201.668,338.144L170.505,327.229C180.685,316.114 192.083,303.645 201.698,293.107L219.445,320.255L201.668,338.144ZM148.341,381.659L149.19,388.172C143.932,394.56 135.179,404.185 124.081,412.646C108.042,424.876 92.346,431.007 77.177,431.007C75.646,431.007 74.119,430.944 72.599,430.819C87.315,415.336 121.437,379.376 162.393,335.823L181.669,343.11L148.341,381.659ZM78.522,440.477C74.08,440.477 69.5,440.02 64.808,439.01C64.808,439.01 66.503,437.23 69.642,433.931C72.06,434.229 74.494,434.395 76.944,434.395C93.014,434.395 109.716,428.004 126.265,415.367C136.221,407.766 144.331,399.252 149.802,392.862L150.642,399.306C150.642,399.306 120.698,440.477 78.522,440.477ZM451.574,70.344C446.812,57.986 435.341,50 422.352,50C412.001,50 401.844,55.189 393.751,64.61C379.324,81.403 334.577,132.303 258.377,216.558L256.225,218.938L255.356,219.897L250.119,225.683L249.722,226.122L249.352,226.53L246.698,229.46L241.062,235.678L239.945,236.909L238.036,239.015L233.543,243.967L229.37,248.563L226.667,251.538L220.698,258.104C219.438,259.491 218.173,260.883 216.9,262.28L212.024,267.638C210.155,269.692 208.273,271.759 206.379,273.837L201.41,279.289L197.696,283.363L196.891,284.246L194.663,286.688C184.715,297.591 174.625,308.627 164.677,319.49L160.932,323.577L160.85,323.561L157.216,327.428C114.693,372.655 79.047,410.211 65.696,424.259L63.901,426.146L62.741,427.367C59.609,430.66 57.915,432.437 57.914,432.439L46.187,444.744L62.805,448.32C67.984,449.436 73.272,450 78.522,450C125.013,450 157.004,406.748 158.344,404.907L160.577,401.838L160.086,398.074L159.246,391.632L158.337,384.659L190.712,347.215L202.22,351.099L226.2,326.968L230.048,323.096L230.048,323.097L237.254,315.846L240.633,312.446L240.633,312.445L247.335,305.7L253.189,299.81L258.625,294.34L262.186,290.758L267.622,285.288L267.622,285.287L274.324,278.543L275.03,277.833L283.32,269.49L284.026,268.78L292.317,260.438L438.424,113.416C452.208,100.832 457.124,84.748 451.574,70.344Z" style="fill:rgb(0,180,255);fill-rule:nonzero;"></path> </g> </svg> 