<?xml version="1.0" encoding="UTF-8" standalone="no"?> <svg xmlns="http://www.w3.org/2000/svg" xmlns:xlink="http://www.w3.org/1999/xlink" xmlns:serif="http://www.serif.com/" width="100%" height="100%" viewBox="0 0 2084 2084" version="1.1" xml:space="preserve" style="fill-rule:evenodd;clip-rule:evenodd;stroke-linejoin:round;stroke-miterlimit:2;"><g><path d="M1754.95,316.821c-17.383,-0 -31.471,14.087 -31.471,31.471c0,17.383 14.088,31.475 31.471,31.475c17.383,-0 31.471,-14.096 31.471,-31.48c-0,-17.383 -14.088,-31.466 -31.471,-31.466Zm-67.787,96.233c-2.913,0 -5.825,1.167 -7.971,3.463l-492.375,527.42l11.9,19.205l496.412,-531.75c4.104,-4.4 3.871,-11.3 -0.529,-15.404c-2.104,-1.959 -4.775,-2.934 -7.438,-2.934Zm-1063.8,1081.39c-1.437,-0 -2.866,0.279 -4.204,0.833c-1.404,0.579 -2.712,1.438 -3.816,2.617l-148.146,159.041c-4.1,4.405 -3.854,11.3 0.546,15.405c2.1,1.954 4.77,2.925 7.429,2.925c2.916,-0 5.833,-1.167 7.979,-3.471l52.229,-56.071l95.913,-102.967c4.104,-4.404 3.862,-11.304 -0.546,-15.408c-2.088,-1.946 -4.738,-2.904 -7.383,-2.904Zm1175.97,-1050.56l-609.487,613.304l-83.838,-128.245c295.617,-326.863 493.284,-550.713 564.725,-633.871c28.604,-33.296 60.308,-47.05 89.071,-47.05c80.271,-0 137.5,107.191 39.529,195.862Zm-646.975,651.021l-82.429,-126.092c7.896,-8.721 15.712,-17.358 23.479,-25.941l83.342,127.496l-24.392,24.537Zm-37.483,37.721l-81.046,-123.975c7.892,-8.708 15.721,-17.346 23.492,-25.921l81.945,125.354l-24.391,24.542Zm-37.484,37.721l-79.683,-121.884c7.892,-8.695 15.733,-17.333 23.504,-25.904l80.567,123.242l-24.388,24.546Zm-37.487,37.721l-78.329,-119.825c7.887,-8.68 15.737,-17.317 23.512,-25.884l79.213,121.163l-24.396,24.546Zm-37.479,37.716l-77.009,-117.787c7.901,-8.679 15.738,-17.296 23.53,-25.863l77.866,119.109l-24.387,24.541Zm-37.488,37.721l-75.691,-115.783c7.896,-8.663 15.741,-17.284 23.537,-25.846l76.546,117.083l-24.392,24.546Zm-37.487,37.721l-74.392,-113.804c7.896,-8.654 15.75,-17.267 23.55,-25.829l75.234,115.087l-24.392,24.546Zm-87.163,87.712l-129.846,-45.479c42.417,-46.312 89.909,-98.266 129.971,-142.175l73.946,113.117l-74.071,74.537Zm-222.195,181.313l3.537,27.137c-21.908,26.617 -58.379,66.721 -104.621,101.975c-66.829,50.959 -132.229,76.505 -195.433,76.505c-6.379,-0 -12.742,-0.263 -19.075,-0.784c61.316,-64.512 203.491,-214.346 374.142,-395.816l80.316,30.362l-138.866,160.621Zm-290.913,245.075c-18.508,-0 -37.592,-1.904 -57.142,-6.113c0,0 7.063,-7.416 20.142,-21.162c10.075,1.242 20.217,1.933 30.425,1.933c66.958,0 136.55,-26.629 205.504,-79.283c41.484,-31.671 75.275,-67.146 98.071,-93.771l3.5,26.85c0,0 -124.767,171.546 -300.5,171.546Zm1554.38,-1542.22c-19.841,-51.492 -67.637,-84.767 -121.758,-84.767c-43.129,0 -85.45,21.621 -119.171,60.875c-60.112,69.971 -246.558,282.055 -564.058,633.117l-8.967,9.917l-3.621,3.996l-21.82,24.108l-1.655,1.829l-1.541,1.7l-11.059,12.208l-23.483,25.909l-4.654,5.129l-7.954,8.775l-18.721,20.633l-17.388,19.15l-11.262,12.396l-24.871,27.358c-5.25,5.78 -10.521,11.58 -15.825,17.4l-20.317,22.325c-7.787,8.559 -15.629,17.171 -23.52,25.83l-20.705,22.716l-15.475,16.975l-3.354,3.679l-9.283,10.175c-41.45,45.43 -83.492,91.413 -124.942,136.675l-15.604,17.03l-0.342,-0.067l-15.141,16.112c-177.179,188.446 -325.704,344.93 -381.334,403.463l-7.479,7.862l-4.833,5.088c-13.05,13.721 -20.108,21.125 -20.113,21.133l-48.862,51.271l69.242,14.9c21.579,4.65 43.612,7 65.487,7c193.713,0 327.008,-180.217 332.592,-187.887l9.304,-12.788l-2.046,-15.683l-3.5,-26.842l-3.787,-29.054l134.895,-156.017l47.95,16.184l99.917,-100.546l16.033,-16.134l0,0.005l30.025,-30.213l14.08,-14.167l-0,-0.004l27.925,-28.104l24.391,-24.542l22.65,-22.791l14.838,-14.925l22.65,-22.792l-0,-0.004l27.925,-28.1l2.941,-2.958l34.542,-34.763l2.942,-2.958l34.546,-34.759l608.779,-612.591c57.433,-52.434 77.916,-119.45 54.791,-179.467Z" style="fill:#cbd9e6;fill-rule:nonzero;stroke:#fff;stroke-width:4.17px;"></path></g></svg> 