<svg xmlns="http://www.w3.org/2000/svg" xmlns:xlink="http://www.w3.org/1999/xlink" width="100%" height="100%" version="1.1" viewBox="0 0 2134 2134" xml:space="preserve" style="fill-rule:evenodd;clip-rule:evenodd;stroke-linejoin:round;stroke-miterlimit:2"><g><path d="M1110.12,457.625l565.375,565.375l-757.875,757.958c-71.408,71.821 -171.896,107.155 -272.542,95.834l-264.958,-29.625l-276.25,276.25c-12.929,12.92 -34.196,12.92 -47.125,-0l-47.083,-47.084c-12.892,-12.925 -12.892,-34.158 -0,-47.083l276.708,-276.667l-29.625,-265.083c-11.162,-100.617 24.146,-201.021 95.833,-272.5l109.917,-109.833l232.542,232.833c12.925,12.892 34.158,12.892 47.083,-0l47.125,-47.042c12.788,-12.987 12.788,-34.137 0,-47.125l-232.75,-232.708l188.708,-188.667l232.334,232.667c12.929,12.921 34.196,12.921 47.125,-0l47.083,-47.125c12.892,-12.925 12.892,-34.158 0,-47.083l-232.375,-232.625l270.75,-270.667Z" style="fill:#cbd9e6;fill-opacity:.78;fill-rule:nonzero;stroke:#fff;stroke-width:4.17px"/><path d="M695.083,1338l-232.583,-232.875l94.167,-93.75l232.541,232.458c12.788,12.988 12.788,34.138 0,47.125l-47.125,47.042c-12.916,12.838 -34.083,12.838 -47,0Zm329.625,-282.875l47.084,-47.125c12.891,-12.925 12.891,-34.158 -0,-47.083l-232.125,-232.459l-94.125,94.125l232.041,232.542c12.93,12.921 34.196,12.921 47.125,0Zm1099.12,-667.958l-47.083,47.125c-12.925,12.891 -34.158,12.891 -47.083,-0l-117.917,-117.959l-188.75,188.792l306.25,306.25c12.788,12.933 12.75,34.071 -0.083,46.958l-141.25,141.667c-12.925,12.892 -34.159,12.892 -47.084,0l-70.833,-70.833l-565.333,-566.167l-70.834,-70.833c-12.866,-12.921 -12.866,-34.121 0,-47.042l141.167,-141.292c12.925,-12.891 34.158,-12.891 47.083,0l70.834,70.834l235.875,235.833l188.75,-188.708l-117.917,-117.959c-12.892,-12.925 -12.892,-34.158 0,-47.083l47.083,-47.042c12.921,-12.866 34.121,-12.866 47.042,0l330.042,329.959c12.846,13.104 12.862,34.37 0.041,47.5Z" style="fill:#cbd9e6;fill-rule:nonzero;stroke:#fff;stroke-width:4.17px"/></g></svg>