<svg xmlns="http://www.w3.org/2000/svg" xmlns:xlink="http://www.w3.org/1999/xlink" width="100%" height="100%" version="1.1" viewBox="0 0 512 512" xml:space="preserve" style="fill-rule:evenodd;clip-rule:evenodd;stroke-linejoin:round;stroke-miterlimit:2"><path d="M266.43,109.83L402.12,245.52L220.23,427.43C203.092,444.667 178.975,453.147 154.82,450.43L91.23,443.32L24.93,509.62C21.827,512.721 16.723,512.721 13.62,509.62L2.32,498.32C-0.774,495.218 -0.774,490.122 2.32,487.02L68.73,420.62L61.62,357C58.941,332.852 67.415,308.755 84.62,291.6L111,265.24L166.81,321.12C169.912,324.214 175.008,324.214 178.11,321.12L189.42,309.83C192.489,306.713 192.489,301.637 189.42,298.52L133.56,242.67L178.85,197.39L234.61,253.23C237.713,256.331 242.817,256.331 245.92,253.23L257.22,241.92C260.314,238.818 260.314,233.722 257.22,230.62L201.45,174.79L266.43,109.83Z" style="fill:#0098e6;fill-opacity:.78;fill-rule:nonzero"/><path d="M166.82,321.12L111,265.23L133.6,242.73L189.41,298.52C192.479,301.637 192.479,306.713 189.41,309.83L178.1,321.12C175,324.201 169.92,324.201 166.82,321.12ZM245.93,253.23L257.23,241.92C260.324,238.818 260.324,233.722 257.23,230.62L201.52,174.83L178.93,197.42L234.62,253.23C237.723,256.331 242.827,256.331 245.93,253.23ZM509.72,92.92L498.42,104.23C495.318,107.324 490.222,107.324 487.12,104.23L458.82,75.92L413.52,121.23L487.02,194.73C490.089,197.834 490.08,202.907 487,206L453.1,240C449.998,243.094 444.902,243.094 441.8,240L424.8,223L289.12,87.12L272.12,70.12C269.032,67.019 269.032,61.931 272.12,58.83L306,24.92C309.102,21.826 314.198,21.826 317.3,24.92L334.3,41.92L390.91,98.52L436.21,53.23L407.91,24.92C404.816,21.818 404.816,16.722 407.91,13.62L419.21,2.33C422.311,-0.758 427.399,-0.758 430.5,2.33L509.71,81.52C512.793,84.665 512.797,89.769 509.72,92.92Z" style="fill:#0098e6;fill-rule:nonzero"/></svg>