<svg xmlns="http://www.w3.org/2000/svg" xmlns:xlink="http://www.w3.org/1999/xlink" width="100%" height="100%" version="1.1" viewBox="0 0 1867 2134" xml:space="preserve" style="fill-rule:evenodd;clip-rule:evenodd;stroke-linejoin:round;stroke-miterlimit:2"><path d="M1850,401.042c42.208,173.458 1.75,336.75 -89.708,460.125c-97.375,131.541 -136.209,286.041 -151.25,447.166c-18.375,196.5 -43.042,392.375 -87.25,584.667l-32.5,141.458c-13.033,57.55 -64.613,98.755 -123.62,98.755c-58.158,0 -109.211,-40.027 -123.089,-96.505l-143.625,-576.625c-18.725,-75.97 -87.423,-129.79 -165.666,-129.79c-78.244,-0 -146.942,53.82 -165.667,129.79l-143.625,576.75c-13.878,56.478 -64.931,96.505 -123.089,96.505c-59.007,0 -110.587,-41.205 -123.619,-98.755l-32.5,-141.458c-44.209,-192.333 -68.917,-388.167 -87.25,-584.792c-15.042,-161.208 -53.875,-315.75 -151.209,-447.291c-91.333,-123.292 -131.791,-286.584 -89.666,-460c45.833,-188.542 196.375,-341.875 383.333,-390.5c97.625,-25.375 192.125,-2.25 278.375,42.958l418.917,269.25c10.575,6.588 22.789,10.081 35.248,10.081c36.572,-0 66.667,-30.095 66.667,-66.667c-0,-22.313 -11.202,-43.197 -29.79,-55.539l-118,-75.875c14.75,-7.292 30.208,-12.875 43.75,-22.833c109,-80.125 237.291,-136.209 371.5,-101.375c187,48.583 337.5,201.958 383.333,390.5Z" style="fill:#0098e6;fill-opacity:.4;fill-rule:nonzero"/></svg>