<svg xmlns="http://www.w3.org/2000/svg" xmlns:xlink="http://www.w3.org/1999/xlink" width="100%" height="100%" version="1.1" viewBox="0 0 1867 2134" xml:space="preserve" style="fill-rule:evenodd;clip-rule:evenodd;stroke-linejoin:round;stroke-miterlimit:2"><path d="M1275,127l-275,206.333l427.125,0c-33.133,-80.143 -85.362,-150.984 -152.125,-206.333Zm-941.667,1121.75l0,884.583l534.417,0l-410.208,-923c-42.768,7.883 -84.459,20.777 -124.209,38.417Zm822.375,-1198.75c-70.252,-32.89 -146.883,-49.939 -224.453,-49.939c-216.204,-0 -411.623,132.45 -491.713,333.272l338.291,0l377.875,-283.333Z" style="fill:#0794f2;fill-opacity:.4;fill-rule:nonzero"/><path d="M1066.67,1733.33l-230.75,0l177.791,400l52.959,0c109.716,0 200,-90.283 200,-200c-0,-109.716 -90.284,-200 -200,-200Zm400,-1200c-0,-22.833 -3.959,-44.583 -6.709,-66.666l-1053.25,-0c-2.791,22.083 -6.708,43.833 -6.708,66.666c0,292.578 240.755,533.334 533.333,533.334c292.578,-0 533.334,-240.756 533.334,-533.334Zm-160,666.667l-69.625,0c-192.604,88.855 -414.814,88.855 -607.417,0l-30.708,0l177.791,400l289.959,0c182.783,0.205 333.128,150.55 333.333,333.333c-0.26,72.345 -24.291,142.638 -68.375,200l335.042,0c109.716,0 200,-90.283 200,-200l-0,-173.333c-0,-307.207 -252.793,-560 -560,-560Zm-1306.67,560l0,173.333c0,109.717 90.283,200 200,200l0,-799c-121.333,102.709 -200,254.25 -200,425.667Z" style="fill:#0794f2;fill-rule:nonzero"/></svg>