<?xml version="1.0" encoding="UTF-8" standalone="no"?> <svg xmlns="http://www.w3.org/2000/svg" xmlns:xlink="http://www.w3.org/1999/xlink" xmlns:serif="http://www.serif.com/" width="100%" height="100%" viewBox="0 0 834 959" version="1.1" xml:space="preserve" style="fill-rule:evenodd;clip-rule:evenodd;stroke-linejoin:round;stroke-miterlimit:2;"><path d="M574.427,61.987l-122.768,92.113l190.681,0c-14.791,-35.778 -38.108,-67.403 -67.913,-92.113Zm-420.387,500.781l0,394.904l238.579,-0l-183.128,-412.054c-19.093,3.519 -37.705,9.275 -55.451,17.15Zm367.132,-535.156c-31.363,-14.683 -65.573,-22.294 -100.202,-22.294c-96.52,-0 -183.76,59.13 -219.515,148.782l151.023,0l168.694,-126.488Z" style="fill:#0794f2;fill-opacity:0.4;fill-rule:nonzero;"></path><path d="M481.421,779.1l-103.013,0l79.371,178.572l23.642,-0c48.981,-0 89.286,-40.305 89.286,-89.286c0,-48.981 -40.305,-89.286 -89.286,-89.286Zm178.572,-535.714c-0,-10.193 -1.767,-19.903 -2.995,-29.762l-470.201,0c-1.246,9.859 -2.995,19.569 -2.995,29.762c0,130.615 107.48,238.095 238.096,238.095c130.615,0 238.095,-107.48 238.095,-238.095Zm-71.429,297.619l-31.082,0c-85.984,39.668 -185.185,39.668 -271.169,0l-13.709,0l79.372,178.571l129.445,0c81.6,0.092 148.718,67.21 148.81,148.81c-0.116,32.297 -10.844,63.677 -30.525,89.286l149.572,-0c48.981,-0 89.286,-40.305 89.286,-89.286l0,-77.381c0,-137.146 -112.854,-250 -250,-250Zm-583.333,250l-0,77.381c-0,48.981 40.305,89.286 89.286,89.286l-0,-356.697c-54.167,45.852 -89.286,113.505 -89.286,190.03Z" style="fill:#0794f2;fill-rule:nonzero;"></path></svg> 