<svg xmlns="http://www.w3.org/2000/svg" xmlns:xlink="http://www.w3.org/1999/xlink" width="100%" height="100%" version="1.1" viewBox="0 0 2667 2134" xml:space="preserve" style="fill-rule:evenodd;clip-rule:evenodd;stroke-linejoin:round;stroke-miterlimit:2"><path d="M2600,1866.67l-2533.33,-0c-36.573,-0 -66.667,30.094 -66.667,66.666l0,133.334c0,36.572 30.094,66.666 66.667,66.666l2533.33,0c36.572,0 66.667,-30.094 66.667,-66.666l-0,-133.334c-0,-36.572 -30.095,-66.666 -66.667,-66.666Zm0,-1866.67l-2533.33,0c-36.573,0 -66.667,30.094 -66.667,66.667l0,133.333c0,36.572 30.094,66.667 66.667,66.667l2533.33,-0c36.572,-0 66.667,-30.095 66.667,-66.667l-0,-133.333c-0,-36.573 -30.095,-66.667 -66.667,-66.667Zm-1900,800c-18.286,0 -33.333,15.047 -33.333,33.333l-0,66.667c-0,18.286 15.047,33.333 33.333,33.333l566.667,0l-0,133.334l-433.334,-0c-18.286,-0 -33.333,15.047 -33.333,33.333l0,66.667c0,18.286 15.047,33.333 33.333,33.333l433.334,0l-0,133.333l-266.667,0c-109.717,0 -200,90.284 -200,200c0,109.717 90.283,200 200,200c109.717,0 200,-90.283 200,-200l0,-66.666l266.667,-0l-0,66.666c-0,109.717 90.283,200 200,200c109.716,0 200,-90.283 200,-200c-0,-109.716 -90.284,-200 -200,-200l-266.667,0l0,-133.333l433.333,0c18.286,0 33.334,-15.047 33.334,-33.333l-0,-66.667c-0,-18.286 -15.048,-33.333 -33.334,-33.333l-433.333,-0l0,-133.334l566.667,0c18.286,0 33.333,-15.047 33.333,-33.333l0,-66.667c0,-18.286 -15.047,-33.333 -33.333,-33.333l-566.667,0l0,-133.333l433.333,-0c18.286,-0 33.334,-15.048 33.334,-33.334l-0,-66.666c-0,-18.286 -15.048,-33.334 -33.334,-33.334l-433.333,0l0,-100c0,-18.286 -15.047,-33.333 -33.333,-33.333l-66.667,0c-18.286,0 -33.333,15.047 -33.333,33.333l-0,100l-433.334,0c-18.286,0 -33.333,15.048 -33.333,33.334l0,66.666c0,18.286 15.047,33.334 33.333,33.334l433.334,-0l-0,133.333l-566.667,0Zm300,800c-36.572,0 -66.667,-30.094 -66.667,-66.667c0,-36.572 30.095,-66.666 66.667,-66.666c36.572,-0 66.667,30.094 66.667,66.666c-0,36.573 -30.095,66.667 -66.667,66.667Zm666.667,-133.333c36.572,-0 66.666,30.094 66.666,66.666c0,36.573 -30.094,66.667 -66.666,66.667c-36.573,0 -66.667,-30.094 -66.667,-66.667c0,-36.572 30.094,-66.666 66.667,-66.666Z" style="fill:#0098e6;fill-opacity:.4;fill-rule:nonzero"/><path d="M1000,1466.67c-36.572,-0 -66.667,30.094 -66.667,66.666c0,36.573 30.095,66.667 66.667,66.667c36.572,0 66.667,-30.094 66.667,-66.667c-0,-36.572 -30.095,-66.666 -66.667,-66.666Zm666.667,133.333c36.572,-0 66.666,-30.094 66.666,-66.667c0,-36.572 -30.094,-66.666 -66.666,-66.666c-36.573,-0 -66.667,30.094 -66.667,66.666c0,36.573 30.094,66.667 66.667,66.667Zm-1400,-1333.33l-0,1600l2133.33,-0l0,-1600l-2133.33,-0Zm1733.33,633.333c0,18.286 -15.047,33.333 -33.333,33.333l-566.667,0l0,133.334l433.333,-0c18.286,-0 33.334,15.047 33.334,33.333l-0,66.667c-0,18.286 -15.048,33.333 -33.334,33.333l-433.333,-0l0,133.333l266.667,0c109.716,0 200,90.284 200,200c-0,109.717 -90.284,200 -200,200c-109.717,0 -200,-90.283 -200,-200l-0,-66.666l-266.667,-0l0,66.666c0,109.717 -90.283,200 -200,200c-109.717,0 -200,-90.283 -200,-200c0,-109.716 90.283,-200 200,-200l266.667,0l-0,-133.333l-433.334,-0c-18.286,-0 -33.333,-15.047 -33.333,-33.333l0,-66.667c0,-18.286 15.047,-33.333 33.333,-33.333l433.334,-0l-0,-133.334l-566.667,0c-18.286,0 -33.333,-15.047 -33.333,-33.333l-0,-66.667c-0,-18.286 15.047,-33.333 33.333,-33.333l566.667,-0l-0,-133.333l-433.334,-0c-18.286,-0 -33.333,-15.048 -33.333,-33.334l0,-66.666c0,-18.286 15.047,-33.334 33.333,-33.334l433.334,0l-0,-100c-0,-18.286 15.047,-33.333 33.333,-33.333l66.667,-0c18.286,-0 33.333,15.047 33.333,33.333l0,100l433.333,0c18.286,0 33.334,15.048 33.334,33.334l-0,66.666c-0,18.286 -15.048,33.334 -33.334,33.334l-433.333,-0l0,133.333l566.667,-0c18.286,-0 33.333,15.047 33.333,33.333l0,66.667Z" style="fill:#0098e6;fill-rule:nonzero"/></svg>