<?xml version="1.0" encoding="UTF-8" standalone="no"?> <svg xmlns="http://www.w3.org/2000/svg" xmlns:xlink="http://www.w3.org/1999/xlink" xmlns:serif="http://www.serif.com/" width="100%" height="100%" viewBox="0 0 11113 8892" version="1.1" xml:space="preserve" style="fill-rule:evenodd;clip-rule:evenodd;stroke-linejoin:round;stroke-miterlimit:2;"><path d="M10833.3,7777.79l-10555.5,-0c-152.388,-0 -277.779,125.391 -277.779,277.775l-0,555.558c-0,152.383 125.391,277.775 277.779,277.775l10555.5,0c152.384,0 277.78,-125.392 277.78,-277.775l-0.001,-555.558c0.001,-152.384 -125.395,-277.775 -277.779,-277.775Zm0,-7777.79l-10555.5,0c-152.388,0 -277.779,125.392 -277.779,277.779l-0,555.554c-0,152.384 125.391,277.78 277.779,277.78l10555.5,-0c152.384,-0 277.78,-125.396 277.78,-277.78l-0.001,-555.554c0.001,-152.387 -125.395,-277.779 -277.779,-277.779Zm-7916.67,3333.33c-76.192,0 -138.888,62.696 -138.888,138.888l0,277.779c0,76.192 62.696,138.888 138.888,138.888l2361.11,-0l0,555.558l-1805.56,-0c-76.192,-0 -138.888,62.696 -138.888,138.887l0,277.78c0,76.191 62.696,138.887 138.888,138.887l1805.56,0l0,555.554l-1111.11,0c-457.155,0 -833.334,376.184 -833.334,833.334c0,457.154 376.179,833.333 833.334,833.333c457.154,-0 833.333,-376.179 833.333,-833.333l0,-277.775l1111.11,-0l-0.001,277.775c0.001,457.154 376.18,833.333 833.334,833.333c457.15,-0 833.333,-376.179 833.333,-833.333c0,-457.15 -376.183,-833.334 -833.333,-833.334l-1111.11,0l0,-555.554l1805.56,0c76.191,0 138.891,-62.696 138.891,-138.887l0,-277.78c0,-76.191 -62.7,-138.887 -138.891,-138.887l-1805.56,-0l0,-555.559l2361.11,0.001c76.192,-0.001 138.887,-62.696 138.887,-138.888l0,-277.779c0,-76.192 -62.695,-138.888 -138.887,-138.888l-2361.11,0l0,-555.554l1805.56,0c76.191,0 138.891,-62.7 138.891,-138.892l0,-277.775c0,-76.191 -62.7,-138.891 -138.891,-138.891l-1805.56,-0l0,-416.667c0,-76.192 -62.695,-138.887 -138.887,-138.887l-277.779,-0c-76.192,-0 -138.888,62.695 -138.888,138.887l0,416.667l-1805.56,-0c-76.192,-0 -138.888,62.7 -138.888,138.891l0,277.775c0,76.192 62.696,138.892 138.888,138.892l1805.56,0l0,555.554l-2361.11,0Zm1250,3333.33c-152.384,-0 -277.78,-125.392 -277.78,-277.779c0,-152.384 125.396,-277.775 277.78,-277.775c152.383,-0.001 277.779,125.391 277.779,277.774c-0,152.388 -125.396,277.78 -277.779,277.78Zm2777.78,-555.555c152.383,0 277.775,125.392 277.775,277.775c-0,152.388 -125.392,277.78 -277.775,277.78c-152.388,-0 -277.779,-125.392 -277.779,-277.78c-0,-152.383 125.391,-277.775 277.779,-277.775Z" style="fill:#cbd9e6;fill-opacity:0.4;fill-rule:nonzero;stroke:#fff;stroke-width:4.17px;"></path><path d="M4166.67,6111.12c-152.384,0 -277.78,125.392 -277.78,277.775c0.001,152.388 125.396,277.779 277.78,277.779c152.383,0 277.779,-125.391 277.779,-277.779c-0,-152.383 -125.396,-277.775 -277.779,-277.775Zm2777.78,555.554c152.383,0 277.775,-125.391 277.775,-277.779c-0,-152.383 -125.392,-277.775 -277.775,-277.775c-152.388,0 -277.779,125.392 -277.779,277.775c-0,152.388 125.391,277.779 277.779,277.779Zm-5833.33,-5555.54l0,6666.67l8888.88,0l0,-6666.67l-8888.88,-0Zm7222.21,2638.89c-0,76.192 -62.696,138.888 -138.888,138.888l-2361.11,-0l-0,555.558l1805.55,-0c76.192,-0 138.892,62.696 138.892,138.887l-0,277.78c-0,76.191 -62.7,138.887 -138.892,138.887l-1805.55,0l-0,555.554l1111.11,0c457.15,0 833.334,376.184 833.334,833.334c-0,457.154 -376.184,833.333 -833.334,833.333c-457.154,-0 -833.333,-376.179 -833.333,-833.333l0,-277.775l-1111.11,-0l0.001,277.775c-0.001,457.154 -376.18,833.333 -833.334,833.333c-457.154,-0 -833.333,-376.179 -833.333,-833.333c-0,-457.15 376.179,-833.334 833.333,-833.334l1111.11,0l-0,-555.554l-1805.56,0c-76.191,0 -138.887,-62.696 -138.887,-138.887l-0,-277.78c-0,-76.191 62.696,-138.887 138.887,-138.887l1805.56,-0l-0,-555.558l-2361.11,-0c-76.192,-0 -138.887,-62.696 -138.887,-138.888l-0,-277.779c-0,-76.192 62.695,-138.888 138.887,-138.888l2361.11,0l-0,-555.554l-1805.56,0c-76.191,0 -138.887,-62.7 -138.887,-138.891l-0,-277.775c-0,-76.192 62.696,-138.892 138.887,-138.892l1805.56,-0l-0,-416.667c-0,-76.191 62.695,-138.887 138.887,-138.887l277.779,-0c76.192,-0 138.888,62.696 138.888,138.887l-0,416.667l1805.55,-0c76.192,-0 138.892,62.7 138.892,138.892l-0,277.775c-0,76.191 -62.7,138.891 -138.892,138.891l-1805.55,0l-0,555.554l2361.11,0c76.192,0 138.888,62.696 138.888,138.888l-0,277.779Z" style="fill:#cbd9e6;fill-rule:nonzero;stroke:#fff;stroke-width:4.17px;"></path></svg> 